<svg width="24" height="22" viewBox="0 0 24 22" fill="none" xmlns="http://www.w3.org/2000/svg">
<path d="M3.50391 19.9004C2.98828 19.9004 2.58984 19.7598 2.30859 19.4785C2.02734 19.2051 1.88672 18.7988 1.88672 18.2598V7.20898C1.88672 6.66992 2.02734 6.26367 2.30859 5.99023C2.58984 5.70898 2.98828 5.56836 3.50391 5.56836H19.8398C20.3633 5.56836 20.7656 5.70898 21.0469 5.99023C21.3281 6.26367 21.4688 6.66992 21.4688 7.20898V18.2598C21.4688 18.7988 21.3281 19.2051 21.0469 19.4785C20.7656 19.7598 20.3633 19.9004 19.8398 19.9004H3.50391Z" fill="#F5ECF0"/>
<path d="M3.67969 21.7871H19.6875C20.9141 21.7871 21.832 21.4824 22.4414 20.873C23.0508 20.2715 23.3555 19.3652 23.3555 18.1543V3.8457C23.3555 2.63477 23.0508 1.72852 22.4414 1.12695C21.832 0.517578 20.9141 0.212891 19.6875 0.212891H3.67969C2.45312 0.212891 1.53125 0.517578 0.914062 1.12695C0.304688 1.72852 0 2.63477 0 3.8457V18.1543C0 19.3652 0.304688 20.2715 0.914062 20.873C1.53125 21.4824 2.45312 21.7871 3.67969 21.7871ZM3.50391 19.9004C2.98828 19.9004 2.58984 19.7598 2.30859 19.4785C2.02734 19.2051 1.88672 18.7988 1.88672 18.2598V7.20898C1.88672 6.66992 2.02734 6.26367 2.30859 5.99023C2.58984 5.70898 2.98828 5.56836 3.50391 5.56836H19.8398C20.3633 5.56836 20.7656 5.70898 21.0469 5.99023C21.3281 6.26367 21.4688 6.66992 21.4688 7.20898V18.2598C21.4688 18.7988 21.3281 19.2051 21.0469 19.4785C20.7656 19.7598 20.3633 19.9004 19.8398 19.9004H3.50391ZM9.39844 9.78711H10.0898C10.293 9.78711 10.4336 9.74805 10.5117 9.66992C10.5977 9.5918 10.6406 9.45117 10.6406 9.24805V8.55664C10.6406 8.35352 10.5977 8.2168 10.5117 8.14648C10.4336 8.06836 10.293 8.0293 10.0898 8.0293H9.39844C9.19531 8.0293 9.05078 8.06836 8.96484 8.14648C8.88672 8.2168 8.84766 8.35352 8.84766 8.55664V9.24805C8.84766 9.45117 8.88672 9.5918 8.96484 9.66992C9.05078 9.74805 9.19531 9.78711 9.39844 9.78711ZM13.2891 9.78711H13.9805C14.1914 9.78711 14.3359 9.74805 14.4141 9.66992C14.4922 9.5918 14.5312 9.45117 14.5312 9.24805V8.55664C14.5312 8.35352 14.4922 8.2168 14.4141 8.14648C14.3359 8.06836 14.1914 8.0293 13.9805 8.0293H13.2891C13.0859 8.0293 12.9453 8.06836 12.8672 8.14648C12.7891 8.2168 12.75 8.35352 12.75 8.55664V9.24805C12.75 9.45117 12.7891 9.5918 12.8672 9.66992C12.9453 9.74805 13.0859 9.78711 13.2891 9.78711ZM17.1914 9.78711H17.8711C18.082 9.78711 18.2266 9.74805 18.3047 9.66992C18.3828 9.5918 18.4219 9.45117 18.4219 9.24805V8.55664C18.4219 8.35352 18.3828 8.2168 18.3047 8.14648C18.2266 8.06836 18.082 8.0293 17.8711 8.0293H17.1914C16.9805 8.0293 16.8359 8.06836 16.7578 8.14648C16.6797 8.2168 16.6406 8.35352 16.6406 8.55664V9.24805C16.6406 9.45117 16.6797 9.5918 16.7578 9.66992C16.8359 9.74805 16.9805 9.78711 17.1914 9.78711ZM5.50781 13.6191H6.19922C6.40234 13.6191 6.54297 13.5801 6.62109 13.502C6.69922 13.4238 6.73828 13.2832 6.73828 13.0801V12.4004C6.73828 12.1895 6.69922 12.0488 6.62109 11.9785C6.54297 11.9004 6.40234 11.8613 6.19922 11.8613H5.50781C5.29688 11.8613 5.15234 11.9004 5.07422 11.9785C4.99609 12.0488 4.95703 12.1895 4.95703 12.4004V13.0801C4.95703 13.2832 4.99609 13.4238 5.07422 13.502C5.15234 13.5801 5.29688 13.6191 5.50781 13.6191ZM9.39844 13.6191H10.0898C10.293 13.6191 10.4336 13.5801 10.5117 13.502C10.5977 13.4238 10.6406 13.2832 10.6406 13.0801V12.4004C10.6406 12.1895 10.5977 12.0488 10.5117 11.9785C10.4336 11.9004 10.293 11.8613 10.0898 11.8613H9.39844C9.19531 11.8613 9.05078 11.9004 8.96484 11.9785C8.88672 12.0488 8.84766 12.1895 8.84766 12.4004V13.0801C8.84766 13.2832 8.88672 13.4238 8.96484 13.502C9.05078 13.5801 9.19531 13.6191 9.39844 13.6191ZM13.2891 13.6191H13.9805C14.1914 13.6191 14.3359 13.5801 14.4141 13.502C14.4922 13.4238 14.5312 13.2832 14.5312 13.0801V12.4004C14.5312 12.1895 14.4922 12.0488 14.4141 11.9785C14.3359 11.9004 14.1914 11.8613 13.9805 11.8613H13.2891C13.0859 11.8613 12.9453 11.9004 12.8672 11.9785C12.7891 12.0488 12.75 12.1895 12.75 12.4004V13.0801C12.75 13.2832 12.7891 13.4238 12.8672 13.502C12.9453 13.5801 13.0859 13.6191 13.2891 13.6191ZM17.1914 13.6191H17.8711C18.082 13.6191 18.2266 13.5801 18.3047 13.502C18.3828 13.4238 18.4219 13.2832 18.4219 13.0801V12.4004C18.4219 12.1895 18.3828 12.0488 18.3047 11.9785C18.2266 11.9004 18.082 11.8613 17.8711 11.8613H17.1914C16.9805 11.8613 16.8359 11.9004 16.7578 11.9785C16.6797 12.0488 16.6406 12.1895 16.6406 12.4004V13.0801C16.6406 13.2832 16.6797 13.4238 16.7578 13.502C16.8359 13.5801 16.9805 13.6191 17.1914 13.6191ZM5.50781 17.4512H6.19922C6.40234 17.4512 6.54297 17.416 6.62109 17.3457C6.69922 17.2676 6.73828 17.123 6.73828 16.9121V16.2324C6.73828 16.0215 6.69922 15.8809 6.62109 15.8105C6.54297 15.7324 6.40234 15.6934 6.19922 15.6934H5.50781C5.29688 15.6934 5.15234 15.7324 5.07422 15.8105C4.99609 15.8809 4.95703 16.0215 4.95703 16.2324V16.9121C4.95703 17.123 4.99609 17.2676 5.07422 17.3457C5.15234 17.416 5.29688 17.4512 5.50781 17.4512ZM9.39844 17.4512H10.0898C10.293 17.4512 10.4336 17.416 10.5117 17.3457C10.5977 17.2676 10.6406 17.123 10.6406 16.9121V16.2324C10.6406 16.0215 10.5977 15.8809 10.5117 15.8105C10.4336 15.7324 10.293 15.6934 10.0898 15.6934H9.39844C9.19531 15.6934 9.05078 15.7324 8.96484 15.8105C8.88672 15.8809 8.84766 16.0215 8.84766 16.2324V16.9121C8.84766 17.123 8.88672 17.2676 8.96484 17.3457C9.05078 17.416 9.19531 17.4512 9.39844 17.4512ZM13.2891 17.4512H13.9805C14.1914 17.4512 14.3359 17.416 14.4141 17.3457C14.4922 17.2676 14.5312 17.123 14.5312 16.9121V16.2324C14.5312 16.0215 14.4922 15.8809 14.4141 15.8105C14.3359 15.7324 14.1914 15.6934 13.9805 15.6934H13.2891C13.0859 15.6934 12.9453 15.7324 12.8672 15.8105C12.7891 15.8809 12.75 16.0215 12.75 16.2324V16.9121C12.75 17.123 12.7891 17.2676 12.8672 17.3457C12.9453 17.416 13.0859 17.4512 13.2891 17.4512Z" fill="#AA4465"/>
</svg>
