<svg width="127" height="127" viewBox="0 0 127 127" fill="none" xmlns="http://www.w3.org/2000/svg">
<g clip-path="url(#clip0_1168_21312)">
<g opacity="0.5">
<path d="M40.6508 114.522C40.7528 114.726 40.957 114.777 41.2632 114.675C43.5599 113.705 46.469 112.225 49.9905 110.234C53.512 108.244 57.1612 106.024 60.9379 103.574C64.7146 101.175 68.1596 98.8533 71.2728 96.6077C72.7019 95.4848 74.0799 94.6683 75.4068 94.1579C76.7848 93.5965 78.2649 93.3158 79.847 93.3158C81.3781 93.3668 82.7306 93.4179 83.9044 93.4689H86.8135C97.123 93.4689 106.769 91.9888 115.751 89.0287C124.734 86.0686 132.594 81.9856 139.33 76.7799C146.118 71.5741 151.426 65.5263 155.254 58.6363C159.082 51.7463 160.996 44.397 160.996 36.5884C160.996 28.7287 159.082 21.3794 155.254 14.5405C151.426 7.65054 146.118 1.60268 139.33 -3.60307C132.594 -8.85986 124.734 -12.9683 115.751 -15.9285C106.769 -18.8886 97.123 -20.3687 86.8135 -20.3687C76.5041 -20.3687 66.8582 -18.8886 57.8757 -15.9285C48.8932 -12.9683 41.008 -8.85986 34.2201 -3.60307C27.4833 1.60268 22.201 7.65054 18.3732 14.5405C14.5965 21.3794 12.7081 28.7287 12.7081 36.5884C12.7081 43.3763 14.1882 49.8325 17.1483 55.9569C20.1085 62.0813 24.3956 67.6953 30.0096 72.799C35.6747 77.8516 42.5136 82.2408 50.5264 85.9665C52.9762 87.1403 54.4052 88.5694 54.8135 90.2536C55.2218 91.9378 54.89 93.7751 53.8183 95.7656C52.4913 98.2153 50.5264 101.175 47.9235 104.646C45.3206 108.167 42.9474 111.255 40.8039 113.909C40.5997 114.164 40.5487 114.368 40.6508 114.522Z" fill="#F5ECF0"/>
<path d="M33.2249 127.383C36.6444 127.383 41.0591 126.362 46.469 124.321C51.8789 122.279 57.5695 119.626 63.5408 116.359C69.5121 113.093 75.0751 109.597 80.2298 105.871C90.8965 106.177 100.951 105.259 110.393 103.115C119.834 100.972 128.409 97.8328 136.115 93.6988C143.873 89.5138 150.533 84.5122 156.096 78.694C161.71 72.8758 166.023 66.4197 169.034 59.3255C172.096 52.1804 173.627 44.6014 173.627 36.5887C173.627 26.9427 171.382 17.9092 166.89 9.48812C162.45 1.06705 156.249 -6.30776 148.287 -12.6363C140.377 -19.0159 131.165 -23.992 120.651 -27.5646C110.137 -31.1882 98.8583 -33 86.8136 -33C74.7689 -33 63.4898 -31.1882 52.9762 -27.5646C42.4626 -23.992 33.2249 -19.0159 25.2632 -12.6363C17.3525 -6.30776 11.1515 1.06705 6.6603 9.48812C2.2201 17.9092 0 26.9427 0 36.5887C0 44.9587 1.6587 52.8949 4.97609 60.3973C8.34451 67.8997 13.0399 74.6366 19.0622 80.6079C25.1356 86.5792 32.2042 91.4277 40.268 95.1534C39.0942 97.399 37.6907 99.7977 36.0575 102.35C34.4243 104.901 32.7911 107.326 31.158 109.622C29.5248 111.97 28.1213 113.884 26.9474 115.364C25.6205 117.15 24.9825 118.962 25.0335 120.799C25.0846 122.688 25.7991 124.244 27.1771 125.469C28.5551 126.745 30.571 127.383 33.2249 127.383ZM41.2632 114.675C40.957 114.777 40.7529 114.726 40.6508 114.522C40.5487 114.369 40.5998 114.165 40.8039 113.909C42.9475 111.255 45.3207 108.168 47.9235 104.646C50.5264 101.176 52.4913 98.2156 53.8183 95.7658C54.8901 93.7754 55.2218 91.938 54.8135 90.2538C54.4052 88.5696 52.9762 87.1406 50.5264 85.9668C42.5136 82.2411 35.6747 77.8519 30.0096 72.7993C24.3956 67.6956 20.1085 62.0815 17.1484 55.9571C14.1882 49.8327 12.7082 43.3765 12.7082 36.5887C12.7082 28.729 14.5965 21.3797 18.3732 14.5408C22.201 7.6508 27.4833 1.60294 34.2202 -3.60281C41.0081 -8.8596 48.8932 -12.9681 57.8757 -15.9282C66.8582 -18.8883 76.5041 -20.3684 86.8136 -20.3684C97.123 -20.3684 106.769 -18.8883 115.751 -15.9282C124.734 -12.9681 132.594 -8.8596 139.33 -3.60281C146.118 1.60294 151.426 7.6508 155.254 14.5408C159.082 21.3797 160.996 28.729 160.996 36.5887C160.996 44.3973 159.082 51.7466 155.254 58.6366C151.426 65.5265 146.118 71.5744 139.33 76.7801C132.594 81.9859 124.734 86.0688 115.751 89.029C106.769 91.9891 97.123 93.4692 86.8136 93.4692C86.048 93.4692 85.0783 93.4692 83.9045 93.4692C82.7306 93.4181 81.3782 93.3671 79.8471 93.316C78.2649 93.316 76.7848 93.5967 75.4069 94.1581C74.0799 94.6685 72.7019 95.4851 71.2729 96.6079C68.1596 98.8535 64.7146 101.176 60.9379 103.574C57.1612 106.024 53.5121 108.244 49.9905 110.235C46.469 112.225 43.5599 113.705 41.2632 114.675Z" fill="#CCA3B2"/>
</g>
</g>
<defs>
<clipPath id="clip0_1168_21312">
<rect width="127" height="127" rx="4" fill="white"/>
</clipPath>
</defs>
</svg>
