<svg width="57" height="58" viewBox="0 0 57 58" fill="none" xmlns="http://www.w3.org/2000/svg">
<g id="Group 3">
<path id="Union" fill-rule="evenodd" clip-rule="evenodd" d="M31.1128 54.4558L36.7696 48.799L28.2843 40.3137L19.7991 48.799L25.4559 54.4558C27.018 56.0179 29.5507 56.0179 31.1128 54.4558ZM28.2843 37.4853L36.7696 29L28.2843 20.5147L19.7991 29L28.2843 37.4853ZM26.8701 19.1005L18.3848 27.5858L9.89956 19.1005L18.3848 10.6152L26.8701 19.1005ZM18.3848 47.3848L26.8701 38.8995L18.3848 30.4142L9.89956 38.8995L18.3848 47.3848ZM16.9706 29L8.48534 37.4853L2.82849 31.8284C1.26639 30.2663 1.26639 27.7337 2.82849 26.1716L8.48534 20.5147L16.9706 29ZM28.2843 17.6863L36.7696 9.20101L31.1128 3.54416C29.5507 1.98206 27.018 1.98206 25.4559 3.54416L19.7991 9.20101L28.2843 17.6863Z" fill="#004366"/>
</g>
</svg>
