<svg width="16" height="16" viewBox="0 0 16 16" fill="none" xmlns="http://www.w3.org/2000/svg">
<path d="M7.99316 15.2832C7.00423 15.2832 6.07454 15.0941 5.2041 14.7158C4.33366 14.3421 3.56576 13.8226 2.90039 13.1572C2.23503 12.4964 1.71322 11.7308 1.33496 10.8604C0.961263 9.98991 0.774414 9.05794 0.774414 8.06445C0.774414 7.07552 0.961263 6.14583 1.33496 5.27539C1.71322 4.40495 2.23275 3.63704 2.89355 2.97168C3.55892 2.30632 4.32682 1.78678 5.19727 1.41309C6.07227 1.03483 7.00423 0.845703 7.99316 0.845703C8.9821 0.845703 9.91178 1.03483 10.7822 1.41309C11.6572 1.78678 12.4251 2.30632 13.0859 2.97168C13.7513 3.63704 14.2731 4.40495 14.6514 5.27539C15.0296 6.14583 15.2188 7.07552 15.2188 8.06445C15.2188 9.05794 15.0296 9.98991 14.6514 10.8604C14.2731 11.7308 13.7513 12.4964 13.0859 13.1572C12.4251 13.8226 11.6595 14.3421 10.7891 14.7158C9.91862 15.0941 8.98665 15.2832 7.99316 15.2832ZM8.00684 4.31836C7.77441 4.31836 7.57845 4.39128 7.41895 4.53711C7.264 4.68294 7.18652 4.86751 7.18652 5.09082V8.12598L7.26855 9.54102L6.74902 8.83691L6.02441 8.03027C5.89225 7.87533 5.7168 7.79785 5.49805 7.79785C5.28841 7.79785 5.11751 7.86393 4.98535 7.99609C4.85319 8.1237 4.78711 8.28548 4.78711 8.48145C4.78711 8.69108 4.86003 8.87337 5.00586 9.02832L7.34375 11.4551C7.52604 11.6602 7.74707 11.7627 8.00684 11.7627C8.2666 11.7627 8.48991 11.6602 8.67676 11.4551L11.0078 9.02832C11.1536 8.86882 11.2266 8.68652 11.2266 8.48145C11.2266 8.28548 11.1605 8.1237 11.0283 7.99609C10.8962 7.86393 10.7253 7.79785 10.5156 7.79785C10.2923 7.79785 10.1169 7.87533 9.98926 8.03027L9.27148 8.81641L8.74512 9.54785L8.82715 8.12598V5.09082C8.82715 4.86751 8.7474 4.68294 8.58789 4.53711C8.43294 4.39128 8.23926 4.31836 8.00684 4.31836Z" fill="#001824"/>
</svg>
