<svg width="27" height="22" viewBox="0 0 27 22" fill="none" xmlns="http://www.w3.org/2000/svg">
<path d="M3.70312 19.8359C3.11719 19.8359 2.66797 19.6836 2.35547 19.3789C2.04297 19.0664 1.88672 18.6055 1.88672 17.9961V3.91016C1.88672 3.33203 2.03516 2.89453 2.33203 2.59766C2.62891 2.30078 3.05859 2.15234 3.62109 2.15234H6.09375C6.48438 2.15234 6.8125 2.20703 7.07812 2.31641C7.35156 2.42578 7.63672 2.60547 7.93359 2.85547L8.64844 3.45312C8.89844 3.66406 9.14453 3.83203 9.38672 3.95703C9.62891 4.08203 9.89453 4.17188 10.1836 4.22656C10.4727 4.28125 10.8086 4.30859 11.1914 4.30859H22.8984C23.4766 4.30859 23.9258 4.46484 24.2461 4.77734C24.5664 5.08984 24.7266 5.55078 24.7266 6.16016V18.0078C24.7266 18.6094 24.5664 19.0664 24.2461 19.3789C23.9258 19.6836 23.4766 19.8359 22.8984 19.8359H3.70312Z" fill="#F5ECF0"/>
<path d="M3.67969 21.7227H23.2852C24.332 21.7227 25.1484 21.418 25.7344 20.8086C26.3203 20.207 26.6133 19.3008 26.6133 18.0898V6.05469C26.6133 4.85156 26.3047 3.94531 25.6875 3.33594C25.0703 2.72656 24.1523 2.42188 22.9336 2.42188H11.6836C11.2852 2.42188 10.9492 2.37109 10.6758 2.26953C10.4023 2.16016 10.1172 1.98047 9.82031 1.73047L9.10547 1.14453C8.84766 0.925781 8.59766 0.753906 8.35547 0.628906C8.12109 0.503906 7.85938 0.414062 7.57031 0.359375C7.28906 0.304688 6.95703 0.277344 6.57422 0.277344H3.23438C2.20312 0.277344 1.40625 0.570312 0.84375 1.15625C0.28125 1.74219 0 2.625 0 3.80469V18.0898C0 19.3008 0.304688 20.207 0.914062 20.8086C1.53125 21.418 2.45312 21.7227 3.67969 21.7227ZM3.70312 19.8359C3.11719 19.8359 2.66797 19.6836 2.35547 19.3789C2.04297 19.0664 1.88672 18.6055 1.88672 17.9961V3.91016C1.88672 3.33203 2.03516 2.89453 2.33203 2.59766C2.62891 2.30078 3.05859 2.15234 3.62109 2.15234H6.09375C6.48438 2.15234 6.8125 2.20703 7.07812 2.31641C7.35156 2.42578 7.63672 2.60547 7.93359 2.85547L8.64844 3.45312C8.89844 3.66406 9.14453 3.83203 9.38672 3.95703C9.62891 4.08203 9.89453 4.17188 10.1836 4.22656C10.4727 4.28125 10.8086 4.30859 11.1914 4.30859H22.8984C23.4766 4.30859 23.9258 4.46484 24.2461 4.77734C24.5664 5.08984 24.7266 5.55078 24.7266 6.16016V18.0078C24.7266 18.6094 24.5664 19.0664 24.2461 19.3789C23.9258 19.6836 23.4766 19.8359 22.8984 19.8359H3.70312ZM1.14844 8.59766H25.4531V6.82812H1.14844V8.59766Z" fill="#AA4465"/>
</svg>
