<svg width="27" height="26" viewBox="0 0 27 26" fill="none" xmlns="http://www.w3.org/2000/svg">
<path d="M5.08594 25.2754C5.60938 25.2754 6.28516 25.1191 7.11328 24.8066C7.94141 24.4941 8.8125 24.0879 9.72656 23.5879C10.6406 23.0879 11.4922 22.5527 12.2812 21.9824C13.9141 22.0293 15.4531 21.8887 16.8984 21.5605C18.3438 21.2324 19.6562 20.752 20.8359 20.1191C22.0234 19.4785 23.043 18.7129 23.8945 17.8223C24.7539 16.9316 25.4141 15.9434 25.875 14.8574C26.3438 13.7637 26.5781 12.6035 26.5781 11.377C26.5781 9.90039 26.2344 8.51758 25.5469 7.22852C24.8672 5.93945 23.918 4.81055 22.6992 3.8418C21.4883 2.86523 20.0781 2.10352 18.4688 1.55664C16.8594 1.00195 15.1328 0.724609 13.2891 0.724609C11.4453 0.724609 9.71875 1.00195 8.10938 1.55664C6.5 2.10352 5.08594 2.86523 3.86719 3.8418C2.65625 4.81055 1.70703 5.93945 1.01953 7.22852C0.339844 8.51758 0 9.90039 0 11.377C0 12.6582 0.253906 13.873 0.761719 15.0215C1.27734 16.1699 1.99609 17.2012 2.91797 18.1152C3.84766 19.0293 4.92969 19.7715 6.16406 20.3418C5.98438 20.6855 5.76953 21.0527 5.51953 21.4434C5.26953 21.834 5.01953 22.2051 4.76953 22.5566C4.51953 22.916 4.30469 23.209 4.125 23.4355C3.92188 23.709 3.82422 23.9863 3.83203 24.2676C3.83984 24.5566 3.94922 24.7949 4.16016 24.9824C4.37109 25.1777 4.67969 25.2754 5.08594 25.2754ZM6.31641 23.3301C6.26953 23.3457 6.23828 23.3379 6.22266 23.3066C6.20703 23.2832 6.21484 23.252 6.24609 23.2129C6.57422 22.8066 6.9375 22.334 7.33594 21.7949C7.73438 21.2637 8.03516 20.8105 8.23828 20.4355C8.40234 20.1309 8.45312 19.8496 8.39062 19.5918C8.32812 19.334 8.10938 19.1152 7.73438 18.9355C6.50781 18.3652 5.46094 17.6934 4.59375 16.9199C3.73438 16.1387 3.07812 15.2793 2.625 14.3418C2.17188 13.4043 1.94531 12.416 1.94531 11.377C1.94531 10.1738 2.23438 9.04883 2.8125 8.00195C3.39844 6.94727 4.20703 6.02148 5.23828 5.22461C6.27734 4.41992 7.48438 3.79102 8.85938 3.33789C10.2344 2.88477 11.7109 2.6582 13.2891 2.6582C14.8672 2.6582 16.3438 2.88477 17.7188 3.33789C19.0938 3.79102 20.2969 4.41992 21.3281 5.22461C22.3672 6.02148 23.1797 6.94727 23.7656 8.00195C24.3516 9.04883 24.6445 10.1738 24.6445 11.377C24.6445 12.5723 24.3516 13.6973 23.7656 14.752C23.1797 15.8066 22.3672 16.7324 21.3281 17.5293C20.2969 18.3262 19.0938 18.9512 17.7188 19.4043C16.3438 19.8574 14.8672 20.084 13.2891 20.084C13.1719 20.084 13.0234 20.084 12.8438 20.084C12.6641 20.0762 12.457 20.0684 12.2227 20.0605C11.9805 20.0605 11.7539 20.1035 11.543 20.1895C11.3398 20.2676 11.1289 20.3926 10.9102 20.5645C10.4336 20.9082 9.90625 21.2637 9.32812 21.6309C8.75 22.0059 8.19141 22.3457 7.65234 22.6504C7.11328 22.9551 6.66797 23.1816 6.31641 23.3301Z" fill="#AA4465"/>
</svg>
