<svg width="64" height="64" viewBox="0 0 64 64" fill="none" xmlns="http://www.w3.org/2000/svg">
<path d="M22.625 47H18.25C16.875 47 15.75 45.875 15.75 44.5V19.5C15.75 18.125 16.875 17 18.25 17H29.25L33.875 22H45.75C47.125 22 48.25 23.125 48.25 24.5V44.5C48.25 45.875 47.125 47 45.75 47H42" stroke="#0077B6" stroke-width="2.5" stroke-miterlimit="10" stroke-linecap="round" stroke-linejoin="round"/>
<path d="M27.25 38.5C29.75 36 33.625 36 36.125 38.5C38.625 41 38.625 44.875 36.125 47.375C33.625 49.875 29.75 49.875 27.25 47.375" stroke="#80BBDB" stroke-width="2.5" stroke-miterlimit="10" stroke-linecap="round" stroke-linejoin="round"/>
<path d="M31.5 40L26.875 38.375L28.5 33.75" stroke="#80BBDB" stroke-width="2.5" stroke-miterlimit="10" stroke-linecap="round" stroke-linejoin="round"/>
</svg>
