<svg width="40" height="40" viewBox="0 0 40 40" fill="none" xmlns="http://www.w3.org/2000/svg">
<path d="M14.4629 20.0029C14.4629 20.1865 14.5332 20.3467 14.6738 20.4834L18.5352 24.3389C18.6719 24.4717 18.8262 24.5381 18.998 24.5381C19.1777 24.5381 19.3281 24.4795 19.4492 24.3623C19.5703 24.2451 19.6309 24.0986 19.6309 23.9229C19.6309 23.833 19.6133 23.749 19.5781 23.6709C19.543 23.5928 19.4961 23.5244 19.4375 23.4658L18.125 22.1416L15.9453 20.1494L15.7344 20.5244L17.7676 20.6416H24.8867C25.082 20.6416 25.2383 20.583 25.3555 20.4658C25.4766 20.3447 25.5371 20.1904 25.5371 20.0029C25.5371 19.8115 25.4766 19.6572 25.3555 19.54C25.2383 19.4189 25.082 19.3584 24.8867 19.3584H17.7676L15.7344 19.4814L15.9453 19.8623L18.125 17.8643L19.4375 16.5342C19.4961 16.4756 19.543 16.4092 19.5781 16.335C19.6133 16.2568 19.6309 16.1709 19.6309 16.0771C19.6309 15.9014 19.5703 15.7549 19.4492 15.6377C19.3281 15.5205 19.1777 15.4619 18.998 15.4619C18.9121 15.4619 18.8301 15.4795 18.752 15.5146C18.6738 15.5498 18.5996 15.6025 18.5293 15.6729L14.6738 19.5225C14.5332 19.6592 14.4629 19.8193 14.4629 20.0029Z" fill="#C4C2C6"/>
</svg>
