<svg width="50" height="50" viewBox="0 0 50 50" fill="none" xmlns="http://www.w3.org/2000/svg">
<path d="M25 35.0371C24.3229 35.0371 23.6589 34.9688 23.0078 34.832C22.3568 34.6953 21.735 34.5033 21.1426 34.2559C21.6374 33.6829 22.0247 33.0384 22.3047 32.3223C22.5911 31.6061 22.7344 30.8509 22.7344 30.0566C22.7344 29.5553 22.679 29.0703 22.5684 28.6016C22.9329 28.5169 23.3171 28.4486 23.7207 28.3965C24.1309 28.3444 24.554 28.3184 24.9902 28.3184C25.9212 28.3184 26.7708 28.4193 27.5391 28.6211C28.3138 28.8229 28.9876 29.0866 29.5605 29.4121C30.14 29.7376 30.5957 30.0859 30.9277 30.457C31.6048 29.7409 32.1354 28.9108 32.5195 27.9668C32.9036 27.0228 33.0957 26.0169 33.0957 24.9492C33.0957 23.8294 32.8874 22.7812 32.4707 21.8047C32.054 20.8216 31.4714 19.959 30.7227 19.2168C29.9805 18.4746 29.1211 17.8952 28.1445 17.4785C27.168 17.0618 26.1165 16.8535 24.9902 16.8535C23.9746 16.8535 23.0143 17.026 22.1094 17.3711C21.2109 17.7161 20.4036 18.1979 19.6875 18.8164C18.9779 19.4349 18.3919 20.1641 17.9297 21.0039C17.4674 21.8372 17.1647 22.7389 17.0215 23.709C16.696 23.6569 16.3477 23.6406 15.9766 23.6602C15.612 23.6732 15.2832 23.7155 14.9902 23.7871C15.1335 22.5371 15.4915 21.3717 16.0645 20.291C16.6374 19.2103 17.3763 18.2663 18.2812 17.459C19.1862 16.6452 20.2083 16.0104 21.3477 15.5547C22.4935 15.0924 23.7077 14.8613 24.9902 14.8613C26.3704 14.8613 27.6693 15.125 28.8867 15.6523C30.1042 16.1797 31.1784 16.9089 32.1094 17.8398C33.0404 18.7643 33.7695 19.8353 34.2969 21.0527C34.8242 22.2702 35.0879 23.569 35.0879 24.9492C35.0879 26.3294 34.8242 27.6283 34.2969 28.8457C33.776 30.0632 33.0501 31.1341 32.1191 32.0586C31.1947 32.9896 30.1237 33.7188 28.9062 34.2461C27.6888 34.7734 26.3867 35.0371 25 35.0371ZM24.9902 26.707C24.3652 26.707 23.7988 26.5443 23.291 26.2188C22.7832 25.8932 22.3796 25.4538 22.0801 24.9004C21.7806 24.3405 21.6309 23.7155 21.6309 23.0254C21.6243 22.3678 21.7708 21.7656 22.0703 21.2188C22.3698 20.6654 22.7734 20.2259 23.2812 19.9004C23.7956 19.5684 24.3652 19.4023 24.9902 19.4023C25.6217 19.4023 26.1882 19.5684 26.6895 19.9004C27.1973 20.2259 27.6009 20.6654 27.9004 21.2188C28.2064 21.7656 28.3594 22.3678 28.3594 23.0254C28.3594 23.722 28.2096 24.3503 27.9102 24.9102C27.6107 25.4701 27.207 25.9128 26.6992 26.2383C26.1914 26.5573 25.6217 26.7135 24.9902 26.707ZM16.3281 35.0957C15.638 35.0957 14.9902 34.9655 14.3848 34.7051C13.7793 34.4447 13.2454 34.0801 12.7832 33.6113C12.321 33.1491 11.9596 32.6152 11.6992 32.0098C11.4323 31.4043 11.2988 30.7565 11.2988 30.0664C11.2988 29.3763 11.4323 28.7285 11.6992 28.123C11.9596 27.5176 12.321 26.9837 12.7832 26.5215C13.2454 26.0527 13.7793 25.6882 14.3848 25.4277C14.9902 25.1673 15.638 25.0371 16.3281 25.0371C17.0182 25.0371 17.666 25.1673 18.2715 25.4277C18.877 25.6882 19.4108 26.0495 19.873 26.5117C20.3353 26.974 20.6966 27.5111 20.957 28.123C21.224 28.7285 21.3574 29.3763 21.3574 30.0664C21.3574 30.75 21.224 31.3945 20.957 32C20.6966 32.612 20.332 33.1491 19.8633 33.6113C19.401 34.0736 18.8639 34.4349 18.252 34.6953C17.6465 34.9622 17.0052 35.0957 16.3281 35.0957ZM16.3281 33.25C16.5299 33.25 16.6895 33.1882 16.8066 33.0645C16.9303 32.9408 16.9922 32.7812 16.9922 32.5859V30.7305H18.8477C19.043 30.7305 19.2025 30.6719 19.3262 30.5547C19.4499 30.431 19.5117 30.2682 19.5117 30.0664C19.5117 29.8646 19.4499 29.7051 19.3262 29.5879C19.2025 29.4642 19.043 29.4023 18.8477 29.4023H16.9922V27.5469C16.9922 27.3516 16.9303 27.1921 16.8066 27.0684C16.6895 26.9447 16.5299 26.8828 16.3281 26.8828C16.1263 26.8828 15.9635 26.9447 15.8398 27.0684C15.7227 27.1921 15.6641 27.3516 15.6641 27.5469V29.4023H13.8086C13.6133 29.4023 13.4538 29.4642 13.3301 29.5879C13.2064 29.7051 13.1445 29.8646 13.1445 30.0664C13.1445 30.2682 13.2064 30.431 13.3301 30.5547C13.4538 30.6719 13.6133 30.7305 13.8086 30.7305H15.6641V32.5859C15.6641 32.7812 15.7227 32.9408 15.8398 33.0645C15.9635 33.1882 16.1263 33.25 16.3281 33.25Z" fill="white"/>
</svg>
