<svg width="50" height="50" viewBox="0 0 50 50" fill="none" xmlns="http://www.w3.org/2000/svg">
<path d="M15.3516 23.1719C15.3516 22.0781 15.5566 21.0527 15.9668 20.0957C16.3835 19.1322 16.9564 18.2858 17.6855 17.5566C18.4147 16.821 19.2578 16.248 20.2148 15.8379C21.1784 15.4277 22.207 15.2227 23.3008 15.2227C24.401 15.2227 25.4297 15.4277 26.3867 15.8379C27.3503 16.248 28.1966 16.821 28.9258 17.5566C29.6549 18.2858 30.2246 19.1322 30.6348 20.0957C31.0514 21.0527 31.2598 22.0781 31.2598 23.1719C31.2598 24.0312 31.1263 24.8483 30.8594 25.623C30.599 26.3978 30.2376 27.1042 29.7754 27.7422L34.2285 32.2148C34.3652 32.3451 34.4661 32.498 34.5312 32.6738C34.6029 32.8496 34.6387 33.0352 34.6387 33.2305C34.6387 33.5039 34.5768 33.7513 34.4531 33.9727C34.3294 34.194 34.1602 34.3665 33.9453 34.4902C33.7305 34.6204 33.4831 34.6855 33.2031 34.6855C33.0078 34.6855 32.819 34.6497 32.6367 34.5781C32.4609 34.513 32.3014 34.4089 32.1582 34.2656L27.6758 29.7832C27.0508 30.1999 26.3672 30.5286 25.625 30.7695C24.8893 31.0039 24.1146 31.1211 23.3008 31.1211C22.207 31.1211 21.1784 30.916 20.2148 30.5059C19.2578 30.0957 18.4147 29.526 17.6855 28.7969C16.9564 28.0677 16.3835 27.2246 15.9668 26.2676C15.5566 25.304 15.3516 24.2721 15.3516 23.1719ZM17.4316 23.1719C17.4316 23.9857 17.5814 24.7474 17.8809 25.457C18.1868 26.1667 18.61 26.7917 19.1504 27.332C19.6908 27.8659 20.3158 28.2858 21.0254 28.5918C21.735 28.8978 22.4935 29.0508 23.3008 29.0508C24.1146 29.0508 24.8763 28.8978 25.5859 28.5918C26.2956 28.2858 26.9173 27.8659 27.4512 27.332C27.9915 26.7917 28.4147 26.1667 28.7207 25.457C29.0267 24.7474 29.1797 23.9857 29.1797 23.1719C29.1797 22.3646 29.0267 21.6061 28.7207 20.8965C28.4147 20.1868 27.9915 19.5618 27.4512 19.0215C26.9173 18.4811 26.2956 18.0612 25.5859 17.7617C24.8763 17.4557 24.1146 17.3027 23.3008 17.3027C22.4935 17.3027 21.735 17.4557 21.0254 17.7617C20.3158 18.0612 19.6908 18.4811 19.1504 19.0215C18.61 19.5618 18.1868 20.1868 17.8809 20.8965C17.5814 21.6061 17.4316 22.3646 17.4316 23.1719Z" fill="#004366"/>
</svg>
