<svg width="32" height="32" viewBox="0 0 32 32" fill="none" xmlns="http://www.w3.org/2000/svg">
<path d="M16 28.4922C14.3672 28.4922 12.8281 28.1797 11.3828 27.5547C9.94531 26.9297 8.67578 26.0664 7.57422 24.9648C6.47266 23.8633 5.60938 22.5938 4.98438 21.1562C4.35938 19.7109 4.04688 18.1719 4.04688 16.5391C4.04688 14.9062 4.35938 13.3711 4.98438 11.9336C5.60938 10.4883 6.46875 9.21484 7.5625 8.11328C8.66406 7.01172 9.93359 6.14844 11.3711 5.52344C12.8164 4.89844 14.3555 4.58594 15.9883 4.58594C17.6211 4.58594 19.1602 4.89844 20.6055 5.52344C22.0508 6.14844 23.3242 7.01172 24.4258 8.11328C25.5273 9.21484 26.3906 10.4883 27.0156 11.9336C27.6406 13.3711 27.9531 14.9062 27.9531 16.5391C27.9531 18.1719 27.6406 19.7109 27.0156 21.1562C26.3906 22.5938 25.5273 23.8633 24.4258 24.9648C23.3242 26.0664 22.0508 26.9297 20.6055 27.5547C19.168 28.1797 17.6328 28.4922 16 28.4922ZM16 26.5C17.3828 26.5 18.6758 26.2422 19.8789 25.7266C21.082 25.2109 22.1406 24.5 23.0547 23.5938C23.9688 22.6797 24.6797 21.6211 25.1875 20.418C25.7031 19.2148 25.9609 17.9219 25.9609 16.5391C25.9609 15.1562 25.7031 13.8633 25.1875 12.6602C24.6719 11.457 23.957 10.3984 23.043 9.48438C22.1367 8.57031 21.0781 7.85937 19.8672 7.35156C18.6641 6.83594 17.3711 6.57812 15.9883 6.57812C14.6055 6.57812 13.3125 6.83594 12.1094 7.35156C10.9062 7.85937 9.85156 8.57031 8.94531 9.48438C8.03906 10.3984 7.32812 11.457 6.8125 12.6602C6.30469 13.8633 6.05078 15.1562 6.05078 16.5391C6.05078 17.9219 6.30469 19.2148 6.8125 20.418C7.32812 21.6211 8.03906 22.6797 8.94531 23.5938C9.85938 24.5 10.918 25.2109 12.1211 25.7266C13.3242 26.2422 14.6172 26.5 16 26.5ZM12.2383 21.6133L10.6211 22.2227C10.4961 22.2695 10.3789 22.2422 10.2695 22.1406C10.168 22.0391 10.1445 21.918 10.1992 21.7773L10.8672 20.2188L18.543 12.5664L19.9258 13.9492L12.2383 21.6133ZM20.6289 13.2578L19.2461 11.8633L20.1016 11.0195C20.2891 10.832 20.4844 10.7305 20.6875 10.7148C20.8984 10.6992 21.0898 10.7812 21.2617 10.9609L21.5312 11.2305C21.7109 11.4023 21.793 11.5938 21.7773 11.8047C21.7617 12.0078 21.6602 12.207 21.4727 12.4023L20.6289 13.2578Z" fill="white"/>
</svg>
