<svg width="50" height="50" viewBox="0 0 50 50" fill="none" xmlns="http://www.w3.org/2000/svg">
<path d="M19.7949 35.1543C18.7533 35.1543 17.9622 34.8841 17.4219 34.3438C16.888 33.8034 16.6211 33.0059 16.6211 31.9512V17.2246C16.6211 16.1764 16.888 15.3822 17.4219 14.8418C17.9622 14.2949 18.7533 14.0215 19.7949 14.0215H30.2051C31.2467 14.0215 32.0345 14.2917 32.5684 14.832C33.1022 15.3724 33.3691 16.1699 33.3691 17.2246V27.0879C33.1087 26.8014 32.8158 26.5443 32.4902 26.3164C32.1647 26.0885 31.8197 25.9062 31.4551 25.7695V17.3418C31.4551 16.8926 31.3314 16.5475 31.084 16.3066C30.8431 16.0592 30.4948 15.9355 30.0391 15.9355H19.9609C19.4922 15.9355 19.1374 16.0592 18.8965 16.3066C18.6621 16.5475 18.5449 16.8926 18.5449 17.3418V31.8535C18.5449 32.3092 18.6621 32.6543 18.8965 32.8887C19.1374 33.123 19.4922 33.2402 19.9609 33.2402H24.0039C24.1406 33.6048 24.3197 33.9499 24.541 34.2754C24.7689 34.6009 25.026 34.8939 25.3125 35.1543H19.7949ZM21.4355 19.9102C21.2467 19.9102 21.0938 19.8483 20.9766 19.7246C20.8594 19.6009 20.8008 19.4544 20.8008 19.2852C20.8008 19.1159 20.8594 18.9727 20.9766 18.8555C21.0938 18.7383 21.2467 18.6797 21.4355 18.6797H28.5742C28.75 18.6797 28.8965 18.7383 29.0137 18.8555C29.1374 18.9727 29.1992 19.1159 29.1992 19.2852C29.1992 19.4544 29.1374 19.6009 29.0137 19.7246C28.8965 19.8483 28.75 19.9102 28.5742 19.9102H21.4355ZM21.4355 23.2402C21.2467 23.2402 21.0938 23.1816 20.9766 23.0645C20.8594 22.9408 20.8008 22.791 20.8008 22.6152C20.8008 22.446 20.8594 22.3027 20.9766 22.1855C21.0938 22.0684 21.2467 22.0098 21.4355 22.0098H28.5742C28.75 22.0098 28.8965 22.0684 29.0137 22.1855C29.1374 22.3027 29.1992 22.446 29.1992 22.6152C29.1992 22.791 29.1374 22.9408 29.0137 23.0645C28.8965 23.1816 28.75 23.2402 28.5742 23.2402H21.4355ZM29.0723 35.1543C28.2845 35.1543 27.5651 34.959 26.9141 34.5684C26.263 34.1842 25.7389 33.6667 25.3418 33.0156C24.9512 32.3646 24.7559 31.6452 24.7559 30.8574C24.7559 30.0632 24.9512 29.3405 25.3418 28.6895C25.7389 28.0319 26.263 27.5111 26.9141 27.127C27.5651 26.7363 28.2845 26.541 29.0723 26.541C29.8665 26.541 30.5892 26.7363 31.2402 27.127C31.8913 27.5111 32.4089 28.0286 32.793 28.6797C33.1836 29.3307 33.3789 30.0566 33.3789 30.8574C33.3789 31.6452 33.1836 32.3646 32.793 33.0156C32.4089 33.6667 31.8913 34.1842 31.2402 34.5684C30.5892 34.959 29.8665 35.1543 29.0723 35.1543ZM29.0723 33.6699C29.5866 33.6699 30.0553 33.543 30.4785 33.2891C30.9082 33.0352 31.25 32.6934 31.5039 32.2637C31.7578 31.8405 31.8848 31.3717 31.8848 30.8574C31.8848 30.3366 31.7578 29.8646 31.5039 29.4414C31.25 29.0182 30.9082 28.6797 30.4785 28.4258C30.0553 28.1654 29.5866 28.0352 29.0723 28.0352C28.5514 28.0352 28.0762 28.1654 27.6465 28.4258C27.2233 28.6797 26.8815 29.0182 26.6211 29.4414C26.3672 29.8646 26.2402 30.3366 26.2402 30.8574C26.2402 31.3717 26.3672 31.8405 26.6211 32.2637C26.8815 32.6934 27.2233 33.0352 27.6465 33.2891C28.0762 33.543 28.5514 33.6699 29.0723 33.6699ZM34.1797 36.9316C33.8997 36.9316 33.6491 36.821 33.4277 36.5996L30.7715 33.9434L32.1191 32.7031L34.7656 35.3496C34.8568 35.4342 34.9284 35.5352 34.9805 35.6523C35.0326 35.7695 35.0586 35.8867 35.0586 36.0039C35.0586 36.2708 34.974 36.4922 34.8047 36.668C34.6354 36.8438 34.4271 36.9316 34.1797 36.9316Z" fill="white"/>
</svg>
