<svg width="80" height="80" viewBox="0 0 80 80" fill="none" xmlns="http://www.w3.org/2000/svg">
<path fill-rule="evenodd" clip-rule="evenodd" d="M26 32C26 31.4477 26.4477 31 27 31H55C55.5523 31 56 31.4477 56 32C56 32.5523 55.5523 33 55 33H27C26.4477 33 26 32.5523 26 32ZM26 49C26 48.4477 26.4477 48 27 48H55C55.5523 48 56 48.4477 56 49C56 49.5523 55.5523 50 55 50H27C26.4477 50 26 49.5523 26 49ZM27 39C26.4477 39 26 39.4477 26 40C26 40.5523 26.4477 41 27 41H55C55.5523 41 56 40.5523 56 40C56 39.4477 55.5523 39 55 39H27Z" fill="#CCA3B2"/>
</svg>
