<svg width="80" height="80" viewBox="0 0 80 80" fill="none" xmlns="http://www.w3.org/2000/svg">
<path d="M44.3125 42.1094H35.418C35.207 42.1094 35.0312 42.1797 34.8906 42.3203C34.75 42.4531 34.6797 42.6211 34.6797 42.8242C34.6797 43.0273 34.75 43.1992 34.8906 43.3398C35.0312 43.4805 35.207 43.5508 35.418 43.5508H44.3125C44.5156 43.5508 44.6836 43.4805 44.8164 43.3398C44.957 43.1992 45.0273 43.0273 45.0273 42.8242C45.0273 42.6211 44.957 42.4531 44.8164 42.3203C44.6836 42.1797 44.5156 42.1094 44.3125 42.1094ZM44.3125 46.1992H35.418C35.207 46.1992 35.0312 46.2695 34.8906 46.4102C34.75 46.5508 34.6797 46.7266 34.6797 46.9375C34.6797 47.1328 34.75 47.3008 34.8906 47.4414C35.0312 47.5742 35.207 47.6406 35.418 47.6406H44.3125C44.5156 47.6406 44.6836 47.5742 44.8164 47.4414C44.957 47.3008 45.0273 47.1328 45.0273 46.9375C45.0273 46.7266 44.957 46.5508 44.8164 46.4102C44.6836 46.2695 44.5156 46.1992 44.3125 46.1992ZM33.8594 51.2148C33.2578 51.2148 32.8008 51.0586 32.4883 50.7461C32.1836 50.4336 32.0312 49.9844 32.0312 49.3984V31.6914C32.0312 31.1133 32.1836 30.6641 32.4883 30.3438C32.8008 30.0234 33.2617 29.8633 33.8711 29.8633H39.0859V36.6719C39.0859 37.4062 39.2695 37.957 39.6367 38.3242C40.0039 38.6914 40.5547 38.875 41.2891 38.875H47.9688V49.3984C47.9688 49.9844 47.8125 50.4336 47.5 50.7461C47.1953 51.0586 46.7383 51.2148 46.1289 51.2148H33.8594ZM41.5 37.1055C41.2656 37.1055 41.0977 37.0547 40.9961 36.9531C40.9023 36.8516 40.8555 36.6836 40.8555 36.4492V30.2266L47.6055 37.1055H41.5Z" fill="#F5ECF0"/>
<path d="M44.3125 42.1094H35.418C35.207 42.1094 35.0312 42.1797 34.8906 42.3203C34.75 42.4531 34.6797 42.6211 34.6797 42.8242C34.6797 43.0273 34.75 43.1992 34.8906 43.3398C35.0312 43.4805 35.207 43.5508 35.418 43.5508H44.3125C44.5156 43.5508 44.6836 43.4805 44.8164 43.3398C44.957 43.1992 45.0273 43.0273 45.0273 42.8242C45.0273 42.6211 44.957 42.4531 44.8164 42.3203C44.6836 42.1797 44.5156 42.1094 44.3125 42.1094ZM44.3125 46.1992H35.418C35.207 46.1992 35.0312 46.2695 34.8906 46.4102C34.75 46.5508 34.6797 46.7266 34.6797 46.9375C34.6797 47.1328 34.75 47.3008 34.8906 47.4414C35.0312 47.5742 35.207 47.6406 35.418 47.6406H44.3125C44.5156 47.6406 44.6836 47.5742 44.8164 47.4414C44.957 47.3008 45.0273 47.1328 45.0273 46.9375C45.0273 46.7266 44.957 46.5508 44.8164 46.4102C44.6836 46.2695 44.5156 46.1992 44.3125 46.1992ZM33.7773 53.1016H46.2227C47.4336 53.1016 48.3398 52.793 48.9414 52.1758C49.5508 51.5664 49.8555 50.6523 49.8555 49.4336V38.793C49.8555 38.2852 49.8281 37.8594 49.7734 37.5156C49.7188 37.1719 49.6094 36.8594 49.4453 36.5781C49.2891 36.2891 49.0547 35.9844 48.7422 35.6641L42.2852 29.0898C41.9883 28.7852 41.6992 28.5547 41.418 28.3984C41.1367 28.2344 40.8281 28.125 40.4922 28.0703C40.1641 28.0078 39.7812 27.9766 39.3438 27.9766H33.7773C32.5664 27.9766 31.6562 28.2852 31.0469 28.9023C30.4453 29.5195 30.1445 30.4375 30.1445 31.6562V49.4336C30.1445 50.6602 30.4453 51.5781 31.0469 52.1875C31.6562 52.7969 32.5664 53.1016 33.7773 53.1016ZM33.8594 51.2148C33.2578 51.2148 32.8008 51.0586 32.4883 50.7461C32.1836 50.4336 32.0312 49.9844 32.0312 49.3984V31.6914C32.0312 31.1133 32.1836 30.6641 32.4883 30.3438C32.8008 30.0234 33.2617 29.8633 33.8711 29.8633H39.0859V36.6719C39.0859 37.4062 39.2695 37.957 39.6367 38.3242C40.0039 38.6914 40.5547 38.875 41.2891 38.875H47.9688V49.3984C47.9688 49.9844 47.8125 50.4336 47.5 50.7461C47.1953 51.0586 46.7383 51.2148 46.1289 51.2148H33.8594ZM41.5 37.1055C41.2656 37.1055 41.0977 37.0547 40.9961 36.9531C40.9023 36.8516 40.8555 36.6836 40.8555 36.4492V30.2266L47.6055 37.1055H41.5Z" fill="#CCA3B2"/>
</svg>
