<svg width="80" height="80" viewBox="0 0 80 80" fill="none" xmlns="http://www.w3.org/2000/svg">
<path d="M30.0742 50.0195C29.5039 50.0195 29.0664 49.8711 28.7617 49.5742C28.4648 49.2773 28.3164 48.8281 28.3164 48.2266V37.0117C28.3164 36.4102 28.4648 35.9609 28.7617 35.6641C29.0664 35.3672 29.5039 35.2188 30.0742 35.2188H49.9141C50.4844 35.2188 50.918 35.3672 51.2148 35.6641C51.5195 35.9609 51.6719 36.4102 51.6719 37.0117V48.2266C51.6719 48.8281 51.5195 49.2773 51.2148 49.5742C50.918 49.8711 50.4844 50.0195 49.9141 50.0195H30.0742Z" fill="#F5ECF0"/>
<path d="M27.7305 40.082C29.5742 40.7305 31.5273 41.2148 33.5898 41.5352C35.6523 41.8555 37.7852 42.0156 39.9883 42.0156C42.1992 42.0156 44.3359 41.8555 46.3984 41.5352C48.4609 41.2148 50.4141 40.7305 52.2578 40.082L52.2461 38.1016C50.4492 38.8047 48.5195 39.332 46.457 39.6836C44.4023 40.0273 42.2461 40.1992 39.9883 40.1992C37.7383 40.1992 35.582 40.0273 33.5195 39.6836C31.4648 39.332 29.5391 38.8008 27.7422 38.0898L27.7305 40.082ZM38.1719 44.1367H41.8164C42.6836 44.1367 43.1172 43.7109 43.1172 42.8594V41.0547H36.8711V42.8594C36.8711 43.7109 37.3047 44.1367 38.1719 44.1367ZM30.0508 51.8945H49.9375C51.1484 51.8945 52.0547 51.5977 52.6562 51.0039C53.2578 50.418 53.5586 49.5234 53.5586 48.3203V36.918C53.5586 35.7148 53.2578 34.8203 52.6562 34.2344C52.0547 33.6406 51.1484 33.3438 49.9375 33.3438H30.0508C28.8477 33.3438 27.9414 33.6406 27.332 34.2344C26.7305 34.8203 26.4297 35.7148 26.4297 36.918V48.3203C26.4297 49.5234 26.7305 50.418 27.332 51.0039C27.9414 51.5977 28.8477 51.8945 30.0508 51.8945ZM30.0742 50.0195C29.5039 50.0195 29.0664 49.8711 28.7617 49.5742C28.4648 49.2773 28.3164 48.8281 28.3164 48.2266V37.0117C28.3164 36.4102 28.4648 35.9609 28.7617 35.6641C29.0664 35.3672 29.5039 35.2188 30.0742 35.2188H49.9141C50.4844 35.2188 50.918 35.3672 51.2148 35.6641C51.5195 35.9609 51.6719 36.4102 51.6719 37.0117V48.2266C51.6719 48.8281 51.5195 49.2773 51.2148 49.5742C50.918 49.8711 50.4844 50.0195 49.9141 50.0195H30.0742ZM34.0469 34.3633H35.8633V32.2891C35.8633 31.8438 35.9883 31.5 36.2383 31.2578C36.4883 31.0156 36.8438 30.8945 37.3047 30.8945H42.6836C43.1367 30.8945 43.4883 31.0156 43.7383 31.2578C43.9883 31.5 44.1133 31.8438 44.1133 32.2891V34.3398H45.9297V32.418C45.9297 31.3164 45.6484 30.5039 45.0859 29.9805C44.5234 29.4492 43.7109 29.1836 42.6484 29.1836H37.3281C36.3281 29.1836 35.5312 29.4492 34.9375 29.9805C34.3438 30.5039 34.0469 31.3164 34.0469 32.418V34.3633Z" fill="#CCA3B2"/>
</svg>
