<svg width="32" height="32" viewBox="0 0 32 32" fill="none" xmlns="http://www.w3.org/2000/svg">
<g clip-path="url(#clip0_1349_21764)">
<path d="M7.82617 15.9492C7.82617 16.2552 7.93359 16.5156 8.14844 16.7305C8.36328 16.9388 8.62044 17.043 8.91992 17.043H14.9062V23.0391C14.9062 23.332 15.0137 23.5859 15.2285 23.8008C15.4434 24.0156 15.7005 24.123 16 24.123C16.306 24.123 16.5664 24.0156 16.7812 23.8008C16.9961 23.5859 17.1035 23.332 17.1035 23.0391V17.043H23.0801C23.3796 17.043 23.6367 16.9388 23.8516 16.7305C24.0664 16.5156 24.1738 16.2552 24.1738 15.9492C24.1738 15.6497 24.0664 15.3926 23.8516 15.1777C23.6367 14.9564 23.3796 14.8457 23.0801 14.8457H17.1035V8.86914C17.1035 8.56966 16.9961 8.3125 16.7812 8.09766C16.5664 7.88281 16.306 7.77539 16 7.77539C15.7005 7.77539 15.4434 7.88281 15.2285 8.09766C15.0137 8.3125 14.9062 8.56966 14.9062 8.86914V14.8457H8.91992C8.62044 14.8457 8.36328 14.9564 8.14844 15.1777C7.93359 15.3926 7.82617 15.6497 7.82617 15.9492Z" fill="white"/>
</g>
<defs>
<clipPath id="clip0_1349_21764">
<rect width="32" height="32" fill="white"/>
</clipPath>
</defs>
</svg>
