<svg width="32" height="26" viewBox="0 0 32 26" fill="none" xmlns="http://www.w3.org/2000/svg">
<path d="M0.78125 12.6719C0.78125 13.3281 1.01562 13.8854 1.48438 14.3438L11.6562 24.5C12.1354 24.9688 12.6615 25.2031 13.2344 25.2031C13.901 25.2031 14.4375 24.9948 14.8438 24.5781C15.2604 24.1719 15.4688 23.6667 15.4688 23.0625C15.4688 22.7188 15.401 22.4167 15.2656 22.1562C15.1406 21.8854 14.974 21.6458 14.7656 21.4375L11.2656 17.9375L6.09375 13.1875L5.125 14.6094L11.2031 14.9375H28.8594C29.5677 14.9375 30.1354 14.7292 30.5625 14.3125C30.9896 13.8958 31.2031 13.349 31.2031 12.6719C31.2031 11.9948 30.9896 11.4479 30.5625 11.0312C30.1354 10.6146 29.5677 10.4062 28.8594 10.4062H11.2031L5.125 10.7344L6.09375 12.1562L11.2656 7.40625L14.7656 3.89062C14.974 3.68229 15.1406 3.44792 15.2656 3.1875C15.401 2.91667 15.4688 2.60938 15.4688 2.26562C15.4688 1.66146 15.2604 1.15625 14.8438 0.75C14.4375 0.333333 13.901 0.125 13.2344 0.125C12.9635 0.125 12.6875 0.1875 12.4062 0.3125C12.1354 0.427083 11.8802 0.604167 11.6406 0.84375L1.48438 11C1.01562 11.4479 0.78125 12.0052 0.78125 12.6719Z" fill="white"/>
</svg>
