<svg width="36" height="36" viewBox="0 0 36 36" fill="none" xmlns="http://www.w3.org/2000/svg">
<g opacity="0.5" clip-path="url(#clip0_1237_24956)">
<path d="M22.7004 23.8641H13.6417V7.25839H22.7004V23.8641Z" fill="#6C6BBD"/>
<path d="M14.2168 15.5619C14.2115 13.97 14.5641 12.3973 15.2486 10.96C15.933 9.52273 16.9318 8.25768 18.171 7.25839C16.3591 5.79638 14.1009 4.99932 11.7727 5C8.99955 5.02822 6.35115 6.15677 4.40998 8.13746C2.46882 10.1182 1.39386 12.7888 1.42154 15.5619C1.3939 18.335 2.46891 21.0054 4.4101 22.9859C6.3513 24.9663 8.99969 26.0946 11.7727 26.1225C14.1009 26.1232 16.3591 25.3261 18.171 23.8641C16.9318 22.8648 15.933 21.5998 15.2486 20.1625C14.5641 18.7252 14.2115 17.1525 14.2168 15.5605" fill="#D32011"/>
<path d="M34.9205 15.5619C34.9481 18.335 33.8731 21.0054 31.9319 22.9859C29.9907 24.9663 27.3424 26.0946 24.5693 26.1225C22.2411 26.1232 19.983 25.3261 18.171 23.8641C19.4062 22.8614 20.4022 21.5958 21.0862 20.1594C21.7703 18.7231 22.1253 17.1522 22.1253 15.5612C22.1253 13.9703 21.7703 12.3994 21.0862 10.9631C20.4022 9.52669 19.4062 8.26105 18.171 7.25839C19.983 5.79638 22.2411 4.99932 24.5693 5C27.3425 5.02822 29.9909 6.15677 31.9321 8.13746C33.8732 10.1182 34.9482 12.7888 34.9205 15.5619Z" fill="#0099DF"/>
<path d="M25.7655 28.5567C25.9108 28.5576 26.0548 28.5835 26.1913 28.6335L26.007 29.2086C25.8884 29.1598 25.7612 29.1356 25.6329 29.1374C25.2421 29.1374 25.0467 29.3956 25.0467 29.859V31.4321H24.4479V28.6279H25.0397V28.9685C25.1117 28.8406 25.2172 28.7348 25.3448 28.6625C25.4725 28.5902 25.6175 28.5541 25.7641 28.5581L25.7655 28.5567ZM23.556 29.1848H22.579V30.4522C22.579 30.7342 22.6767 30.9212 22.9754 30.9212C23.1625 30.9147 23.3447 30.8598 23.5044 30.7621L23.6774 31.2841C23.4545 31.4267 23.1953 31.5023 22.9307 31.5019C22.223 31.5019 21.976 31.1138 21.976 30.4634V29.1848H21.4177V28.6279H21.976V27.7779H22.579V28.6279H23.556V29.1848ZM15.9015 29.7836C15.9101 29.5972 15.9912 29.4216 16.1277 29.2943C16.2641 29.167 16.4449 29.0981 16.6315 29.1025C16.814 29.1007 16.9897 29.1715 17.12 29.2992C17.2504 29.4269 17.3247 29.6012 17.3266 29.7836H15.9015ZM17.9491 30.0307C17.9684 29.8465 17.9491 29.6604 17.8924 29.4841C17.8358 29.3078 17.7431 29.1452 17.6202 29.0067C17.4973 28.8682 17.3469 28.7568 17.1786 28.6795C17.0103 28.6023 16.8278 28.561 16.6427 28.5581C16.2674 28.5854 15.9168 28.755 15.6626 29.0323C15.4084 29.3096 15.2698 29.6736 15.2751 30.0497C15.2805 30.4259 15.4294 30.7858 15.6914 31.0558C15.9534 31.3257 16.3087 31.4853 16.6845 31.5019C17.0957 31.5159 17.4974 31.376 17.8109 31.1096L17.5178 30.6574C17.2925 30.8426 17.011 30.9459 16.7194 30.9505C16.5199 30.966 16.3222 30.9028 16.1686 30.7745C16.015 30.6462 15.9176 30.4629 15.8973 30.2638H17.938L17.9491 30.0293V30.0307ZM20.576 29.344C20.3166 29.1905 20.0217 29.1073 19.7204 29.1025C19.3924 29.1025 19.197 29.2267 19.197 29.4319C19.197 29.6189 19.4035 29.672 19.6618 29.7069L19.9437 29.7474C20.5425 29.8353 20.904 30.0935 20.904 30.5862C20.904 31.1194 20.4434 31.5019 19.6506 31.5019C19.2246 31.5137 18.8064 31.3858 18.46 31.1376L18.7419 30.6616C19.0042 30.8609 19.3269 30.9643 19.6562 30.9547C20.0693 30.9547 20.2829 30.8319 20.2829 30.6141C20.2829 30.4564 20.1279 30.3671 19.7999 30.321L19.518 30.2805C18.9024 30.1926 18.5689 29.9107 18.5689 29.4528C18.5689 28.8959 19.0183 28.5553 19.7134 28.5553C20.1075 28.5421 20.497 28.644 20.8342 28.8485L20.576 29.3412V29.344ZM27.9514 29.1374C27.8337 29.1364 27.717 29.1587 27.608 29.203C27.5052 29.2458 27.4121 29.3089 27.3344 29.3886C27.2556 29.4706 27.194 29.5674 27.153 29.6734C27.1084 29.7901 27.0861 29.9141 27.0874 30.0391C27.0856 30.164 27.1079 30.2882 27.153 30.4048C27.1942 30.5107 27.2558 30.6074 27.3344 30.6895C27.4121 30.7692 27.5052 30.8324 27.608 30.8752C27.8285 30.9626 28.0742 30.9626 28.2947 30.8752C28.398 30.8325 28.4916 30.7694 28.5697 30.6895C28.6489 30.6073 28.7114 30.5107 28.7539 30.4048C28.799 30.2882 28.8213 30.164 28.8195 30.0391C28.8208 29.9141 28.7985 29.7901 28.7539 29.6734C28.7133 29.5665 28.6505 29.4695 28.5697 29.3886C28.4916 29.3088 28.398 29.2456 28.2947 29.203C28.1857 29.1588 28.069 29.1365 27.9514 29.1374ZM27.9514 28.5581C28.1542 28.556 28.3554 28.5945 28.5432 28.6712C28.7194 28.742 28.8796 28.8476 29.0141 28.9816C29.1486 29.1157 29.2548 29.2755 29.3262 29.4514C29.4769 29.8287 29.4769 30.2495 29.3262 30.6267C29.2543 30.802 29.1485 30.9613 29.0149 31.0957C28.88 31.2299 28.7196 31.3357 28.5432 31.4069C28.163 31.5577 27.7397 31.5577 27.3595 31.4069C27.1839 31.3357 27.0244 31.2298 26.8906 31.0957C26.7579 30.9609 26.6527 30.8016 26.5807 30.6267C26.4299 30.2495 26.4299 29.8287 26.5807 29.4514C26.6527 29.2765 26.7579 29.1173 26.8906 28.9825C27.0244 28.8483 27.1839 28.7425 27.3595 28.6712C27.5473 28.5945 27.7485 28.556 27.9514 28.5581ZM12.4064 30.0293C12.419 29.8679 12.4783 29.7136 12.5771 29.5854C12.6759 29.4572 12.8099 29.3605 12.9628 29.3072C13.1156 29.2539 13.2807 29.2463 13.4378 29.2854C13.5949 29.3244 13.7373 29.4084 13.8474 29.527C13.9575 29.6456 14.0307 29.7938 14.058 29.9534C14.0853 30.1129 14.0655 30.277 14.0011 30.4255C13.9366 30.574 13.8303 30.7005 13.695 30.7895C13.5598 30.8786 13.4016 30.9263 13.2397 30.9268C13.1247 30.927 13.0109 30.9034 12.9055 30.8575C12.8 30.8116 12.7052 30.7445 12.6269 30.6602C12.5487 30.5759 12.4887 30.4763 12.4508 30.3678C12.4128 30.2592 12.3977 30.144 12.4064 30.0293ZM14.6313 30.0293V28.6279H14.0339V28.9685C13.9333 28.8349 13.8017 28.7278 13.6504 28.6563C13.4992 28.5848 13.3329 28.5511 13.1658 28.5581C12.7927 28.5838 12.4433 28.7501 12.1882 29.0235C11.933 29.2968 11.7911 29.6568 11.7911 30.0307C11.7911 30.4046 11.933 30.7646 12.1882 31.0379C12.4433 31.3113 12.7927 31.4776 13.1658 31.5033C13.3329 31.5103 13.4992 31.4766 13.6504 31.4051C13.8017 31.3336 13.9333 31.2265 14.0339 31.0929V31.4335H14.6313V30.0293ZM11.2619 31.4307V29.6706C11.2734 29.5242 11.2537 29.377 11.2039 29.2388C11.1542 29.1006 11.0756 28.9746 10.9734 28.8691C10.8713 28.7636 10.7478 28.6811 10.6113 28.627C10.4747 28.5729 10.3283 28.5485 10.1816 28.5553C9.99056 28.5434 9.79991 28.5835 9.62985 28.6712C9.45978 28.759 9.31666 28.8911 9.21566 29.0536C9.12376 28.8959 8.9906 28.7661 8.83051 28.6783C8.67042 28.5905 8.48944 28.548 8.307 28.5553C8.14804 28.5477 7.98988 28.5822 7.84848 28.6552C7.70708 28.7282 7.58744 28.8373 7.50163 28.9713V28.6251H6.90424V31.4293H7.50722V29.8744C7.49316 29.7794 7.50028 29.6826 7.52806 29.5907C7.55583 29.4989 7.60358 29.4143 7.66787 29.3431C7.73217 29.2718 7.81143 29.2157 7.89996 29.1787C7.9885 29.1417 8.08412 29.1247 8.17998 29.129C8.57639 29.129 8.77878 29.3928 8.77878 29.8688V31.4293H9.38176V29.8744C9.36868 29.7796 9.37648 29.6831 9.40461 29.5917C9.43275 29.5003 9.48054 29.4161 9.54464 29.3451C9.60873 29.2741 9.68759 29.2179 9.77567 29.1806C9.86375 29.1433 9.95893 29.1257 10.0545 29.129C10.4635 29.129 10.6589 29.3928 10.6589 29.8688V31.4293H11.2619V31.4307Z" fill="#110F0D"/>
<g style="mix-blend-mode:saturation">
<rect width="36" height="36" fill="white"/>
</g>
</g>
<defs>
<clipPath id="clip0_1237_24956">
<rect width="36" height="36" fill="white"/>
</clipPath>
</defs>
</svg>
