<svg width="40" height="40" viewBox="0 0 40 40" fill="none" xmlns="http://www.w3.org/2000/svg">
<rect width="40" height="40" rx="4" fill="#AB2237"/>
<path d="M13.9531 26.4062C14.0677 26.5208 14.2005 26.5964 14.3516 26.6328C14.5078 26.6693 14.6589 26.6693 14.8047 26.6328C14.9557 26.5964 15.0859 26.5234 15.1953 26.4141L20 21.6094L24.7969 26.4141C24.9062 26.5234 25.0365 26.5964 25.1875 26.6328C25.3385 26.6693 25.4896 26.6693 25.6406 26.6328C25.7917 26.5964 25.9245 26.5208 26.0391 26.4062C26.1484 26.2969 26.2214 26.1667 26.2578 26.0156C26.2943 25.8646 26.2943 25.7161 26.2578 25.5703C26.2214 25.4193 26.1484 25.2865 26.0391 25.1719L21.2422 20.3672L26.0391 15.5703C26.1484 15.4557 26.2214 15.3255 26.2578 15.1797C26.2995 15.0286 26.2995 14.8776 26.2578 14.7266C26.2214 14.5755 26.1484 14.4453 26.0391 14.3359C25.9193 14.2214 25.7839 14.1458 25.6328 14.1094C25.487 14.0729 25.3385 14.0729 25.1875 14.1094C25.0365 14.1406 24.9062 14.2135 24.7969 14.3281L20 19.1328L15.1953 14.3281C15.0859 14.2188 14.9557 14.1458 14.8047 14.1094C14.6536 14.0729 14.5026 14.0729 14.3516 14.1094C14.2005 14.1458 14.0677 14.2214 13.9531 14.3359C13.8438 14.4453 13.7708 14.5755 13.7344 14.7266C13.6979 14.8776 13.6979 15.0286 13.7344 15.1797C13.7708 15.3307 13.8438 15.4583 13.9531 15.5625L18.75 20.3672L13.9531 25.1797C13.8438 25.2839 13.7682 25.4115 13.7266 25.5625C13.6901 25.7135 13.6901 25.8646 13.7266 26.0156C13.763 26.1667 13.8385 26.2969 13.9531 26.4062Z" fill="white"/>
</svg>
