<svg width="32" height="32" viewBox="0 0 32 32" fill="none" xmlns="http://www.w3.org/2000/svg">
<path d="M8.44141 23.5078C8.58464 23.651 8.75065 23.7454 8.93945 23.791C9.13477 23.8366 9.32357 23.8366 9.50586 23.791C9.69466 23.7454 9.85742 23.6543 9.99414 23.5176L16 17.5117L21.9961 23.5176C22.1328 23.6543 22.2956 23.7454 22.4844 23.791C22.6732 23.8366 22.862 23.8366 23.0508 23.791C23.2396 23.7454 23.4056 23.651 23.5488 23.5078C23.6855 23.3711 23.7767 23.2083 23.8223 23.0195C23.8678 22.8307 23.8678 22.6452 23.8223 22.4629C23.7767 22.2741 23.6855 22.1081 23.5488 21.9648L17.5527 15.959L23.5488 9.96289C23.6855 9.81966 23.7767 9.6569 23.8223 9.47461C23.8743 9.28581 23.8743 9.09701 23.8223 8.9082C23.7767 8.7194 23.6855 8.55664 23.5488 8.41992C23.3991 8.27669 23.2298 8.18229 23.041 8.13672C22.8587 8.09115 22.6732 8.09115 22.4844 8.13672C22.2956 8.17578 22.1328 8.26693 21.9961 8.41016L16 14.416L9.99414 8.41016C9.85742 8.27344 9.69466 8.18229 9.50586 8.13672C9.31706 8.09115 9.12826 8.09115 8.93945 8.13672C8.75065 8.18229 8.58464 8.27669 8.44141 8.41992C8.30469 8.55664 8.21354 8.7194 8.16797 8.9082C8.1224 9.09701 8.1224 9.28581 8.16797 9.47461C8.21354 9.66341 8.30469 9.82292 8.44141 9.95312L14.4375 15.959L8.44141 21.9746C8.30469 22.1048 8.21029 22.2643 8.1582 22.4531C8.11263 22.6419 8.11263 22.8307 8.1582 23.0195C8.20378 23.2083 8.29818 23.3711 8.44141 23.5078Z" fill="#462255"/>
</svg>
