<svg width="50" height="50" viewBox="0 0 50 50" fill="none" xmlns="http://www.w3.org/2000/svg">
<path d="M18.0957 29.7676H20.4883C20.7747 29.7676 21.0059 29.6797 21.1816 29.5039C21.3574 29.3281 21.4453 29.1035 21.4453 28.8301V27.0234C21.4453 26.7435 21.3574 26.5189 21.1816 26.3496C21.0059 26.1738 20.7747 26.0859 20.4883 26.0859H18.0957C17.8092 26.0859 17.5781 26.1738 17.4023 26.3496C17.2266 26.5189 17.1387 26.7435 17.1387 27.0234V28.8301C17.1387 29.1035 17.2266 29.3281 17.4023 29.5039C17.5781 29.6797 17.8092 29.7676 18.0957 29.7676ZM14.5508 22.8926H35.459V20.6074H14.5508V22.8926ZM16.6504 33.4492H33.3496C34.4043 33.4492 35.2018 33.1823 35.7422 32.6484C36.2826 32.1146 36.5527 31.3268 36.5527 30.2852V19.7285C36.5527 18.6868 36.2826 17.8991 35.7422 17.3652C35.2018 16.8249 34.4043 16.5547 33.3496 16.5547H16.6504C15.5957 16.5547 14.7982 16.8216 14.2578 17.3555C13.7174 17.8893 13.4473 18.6803 13.4473 19.7285V30.2852C13.4473 31.3268 13.7174 32.1146 14.2578 32.6484C14.7982 33.1823 15.5957 33.4492 16.6504 33.4492ZM16.7676 31.5352C16.3118 31.5352 15.9635 31.418 15.7227 31.1836C15.4883 30.9492 15.3711 30.5944 15.3711 30.1191V19.8945C15.3711 19.4193 15.4883 19.0645 15.7227 18.8301C15.9635 18.5892 16.3118 18.4688 16.7676 18.4688H33.2324C33.6816 18.4688 34.0267 18.5892 34.2676 18.8301C34.515 19.0645 34.6387 19.4193 34.6387 19.8945V30.1191C34.6387 30.5944 34.515 30.9492 34.2676 31.1836C34.0267 31.418 33.6816 31.5352 33.2324 31.5352H16.7676Z" fill="#E4E7EE"/>
</svg>
