<svg width="150" height="150" viewBox="0 0 150 150" fill="none" xmlns="http://www.w3.org/2000/svg">
<path fill-rule="evenodd" clip-rule="evenodd" d="M40.344 32.1899C39.6591 32.231 39.1299 32.7867 39.1299 33.4833V99.0897C39.1299 99.4825 39.2931 99.8551 39.539 100.107C39.7694 100.343 39.9946 100.406 40.1885 100.393L49.397 99.7844V50.9422C49.397 46.2465 53.1884 42.4551 57.8841 42.4551C57.9633 42.4551 58.0424 42.4577 58.1214 42.4629L91.8064 44.6903V36.7952C91.8064 36.4569 91.6856 36.1943 91.4616 35.9762C91.218 35.7389 90.8126 35.5271 90.2734 35.4915L40.344 32.1899ZM40.663 107.569L49.397 106.991V116.549C49.397 121.015 53.034 125.364 58.1214 125.028L108.206 121.716C112.49 121.433 116.456 118.136 116.456 113.237V104.09C116.456 102.104 114.846 100.494 112.86 100.494C110.875 100.494 109.265 102.104 109.265 104.09V113.237C109.265 113.575 109.144 113.838 108.92 114.056C108.676 114.293 108.271 114.505 107.732 114.54L57.6469 117.852C57.453 117.865 57.2278 117.802 56.9974 117.566C56.7515 117.314 56.5883 116.941 56.5883 116.549V50.9422C56.5883 50.2457 57.1175 49.69 57.8024 49.6489L107.732 52.9505C108.271 52.9861 108.676 53.1979 108.92 53.4351C109.144 53.6532 109.265 53.9158 109.265 54.2541V63.411C109.265 65.3969 110.875 67.0067 112.86 67.0067C114.846 67.0067 116.456 65.3969 116.456 63.411V54.2541C116.456 49.3545 112.49 46.058 108.206 45.7748L98.9977 45.1659V36.7952C98.9977 31.8955 95.0311 28.5991 90.7478 28.3158L40.663 25.0039C40.584 24.9987 40.5049 24.9961 40.4257 24.9961C35.73 24.9961 31.9386 28.7875 31.9386 33.4833V99.0897C31.9386 103.556 35.5756 107.905 40.663 107.569ZM60.909 71.2281C60.909 69.2422 62.5189 67.6324 64.5047 67.6324H87.006C88.9918 67.6324 90.6016 69.2422 90.6016 71.2281C90.6016 73.2139 88.9918 74.8237 87.006 74.8237H64.5047C62.5189 74.8237 60.909 73.2139 60.909 71.2281ZM123.427 80.736C124.832 79.3318 124.832 77.0552 123.427 75.651C122.023 74.2468 119.747 74.2468 118.342 75.651L109.815 84.1785L107.379 81.7424C105.974 80.3382 103.698 80.3382 102.294 81.7424C100.889 83.1466 100.889 85.4232 102.294 86.8274L107.236 91.7695C107.243 91.7769 107.25 91.7843 107.257 91.7917C107.262 91.7966 107.267 91.8015 107.272 91.8064C108.676 93.2106 110.953 93.2106 112.357 91.8064L123.427 80.736ZM64.5047 80.1326C62.5189 80.1326 60.909 81.7424 60.909 83.7282C60.909 85.7141 62.5189 87.3239 64.5047 87.3239H87.006C88.9918 87.3239 90.6016 85.7141 90.6016 83.7282C90.6016 81.7424 88.9918 80.1326 87.006 80.1326H64.5047ZM60.909 96.2284C60.909 94.2426 62.5189 92.6328 64.5047 92.6328H87.006C88.9918 92.6328 90.6016 94.2426 90.6016 96.2284C90.6016 98.2143 88.9918 99.8241 87.006 99.8241H64.5047C62.5189 99.8241 60.909 98.2143 60.909 96.2284Z" fill="#013145"/>
</svg>
