<svg width="20" height="20" viewBox="0 0 20 20" fill="none" xmlns="http://www.w3.org/2000/svg">
<rect width="20" height="20" fill="none"/>
<path d="M5.46875 18.4844H14.5234C15.4141 18.4844 16.0964 18.2474 16.5703 17.7734C17.0443 17.3047 17.2812 16.6276 17.2812 15.7422V8.24219C17.2812 7.35677 17.0443 6.67969 16.5703 6.21094C16.0964 5.73698 15.4141 5.5 14.5234 5.5H12.5078V7.51562H14.2969C14.6094 7.51562 14.849 7.59635 15.0156 7.75781C15.1823 7.91406 15.2656 8.15885 15.2656 8.49219V15.5C15.2656 15.8281 15.1823 16.0703 15.0156 16.2266C14.849 16.388 14.6094 16.4688 14.2969 16.4688H5.6875C5.375 16.4688 5.13542 16.388 4.96875 16.2266C4.80729 16.0703 4.72656 15.8281 4.72656 15.5V8.49219C4.72656 8.15885 4.80729 7.91406 4.96875 7.75781C5.13542 7.59635 5.375 7.51562 5.6875 7.51562H7.52344V5.5H5.46875C4.57812 5.5 3.89583 5.73698 3.42188 6.21094C2.94792 6.67969 2.71094 7.35677 2.71094 8.24219V15.7422C2.71094 16.6328 2.94792 17.3125 3.42188 17.7812C3.89583 18.25 4.57812 18.4844 5.46875 18.4844ZM9.99219 13.5547C10.1172 13.5547 10.237 13.5312 10.3516 13.4844C10.4714 13.4375 10.5911 13.3568 10.7109 13.2422L13.3047 10.75C13.4661 10.5885 13.5469 10.4062 13.5469 10.2031C13.5469 9.97917 13.4661 9.79688 13.3047 9.65625C13.1484 9.51562 12.9688 9.44531 12.7656 9.44531C12.5312 9.44531 12.3333 9.53125 12.1719 9.70312L11.2266 10.7109L10.7812 11.3125L10.8984 10.1641V2.30469C10.8984 2.0599 10.8099 1.84896 10.6328 1.67188C10.4609 1.49479 10.2474 1.40625 9.99219 1.40625C9.74219 1.40625 9.52865 1.49479 9.35156 1.67188C9.17969 1.84896 9.09375 2.0599 9.09375 2.30469V10.1641L9.21875 11.3125L8.75781 10.7109L7.82031 9.70312C7.65885 9.53125 7.46094 9.44531 7.22656 9.44531C7.01823 9.44531 6.83594 9.51562 6.67969 9.65625C6.52344 9.79688 6.44531 9.97917 6.44531 10.2031C6.44531 10.4062 6.52604 10.5885 6.6875 10.75L9.28125 13.2422C9.40104 13.3568 9.51823 13.4375 9.63281 13.4844C9.7526 13.5312 9.8724 13.5547 9.99219 13.5547Z" fill="#462255"/>
</svg>
