<svg width="32" height="32" viewBox="0 0 32 32" fill="none" xmlns="http://www.w3.org/2000/svg">
<path d="M15.3516 9.46094V7.78125C15.3516 7.59896 15.4141 7.44531 15.5391 7.32031C15.6641 7.1901 15.8177 7.125 16 7.125C16.1823 7.125 16.3359 7.1901 16.4609 7.32031C16.5859 7.44531 16.6484 7.59896 16.6484 7.78125V9.46094H15.3516ZM8.85938 17.0391C8.66146 17.0391 8.5026 16.9688 8.38281 16.8281C8.26823 16.6875 8.21094 16.5104 8.21094 16.2969C8.21094 15.6771 8.3099 15.026 8.50781 14.3438C8.70573 13.6562 9.00781 12.987 9.41406 12.3359C9.82031 11.6849 10.3307 11.0964 10.9453 10.5703C11.5651 10.0443 12.2943 9.625 13.1328 9.3125C13.9766 9 14.9323 8.84375 16 8.84375C17.0677 8.84375 18.0208 9 18.8594 9.3125C19.6979 9.625 20.4271 10.0443 21.0469 10.5703C21.6667 11.0964 22.1771 11.6849 22.5781 12.3359C22.9844 12.987 23.2865 13.6562 23.4844 14.3438C23.6875 15.026 23.7891 15.6771 23.7891 16.2969C23.7891 16.5104 23.7292 16.6875 23.6094 16.8281C23.4896 16.9688 23.3333 17.0391 23.1406 17.0391C23.026 17.0391 22.9141 17.0052 22.8047 16.9375C22.7005 16.8646 22.6042 16.763 22.5156 16.6328C22.2604 16.237 21.987 15.9531 21.6953 15.7812C21.4089 15.6042 21.0807 15.5156 20.7109 15.5156C20.3464 15.5156 20.0339 15.6042 19.7734 15.7812C19.513 15.9531 19.2682 16.2344 19.0391 16.625C18.8828 16.901 18.7005 17.0391 18.4922 17.0391C18.2682 17.0391 18.0833 16.901 17.9375 16.625C17.7292 16.2656 17.4479 15.9844 17.0938 15.7812C16.7396 15.5729 16.375 15.4688 16 15.4688C15.625 15.4688 15.2604 15.5729 14.9062 15.7812C14.5521 15.9844 14.2708 16.2656 14.0625 16.625C13.9115 16.901 13.7266 17.0391 13.5078 17.0391C13.2995 17.0391 13.1146 16.901 12.9531 16.625C12.7292 16.2344 12.487 15.9531 12.2266 15.7812C11.9661 15.6042 11.6536 15.5156 11.2891 15.5156C10.9193 15.5156 10.5885 15.6042 10.2969 15.7812C10.0104 15.9531 9.73698 16.237 9.47656 16.6328C9.39323 16.763 9.29688 16.8646 9.1875 16.9375C9.08333 17.0052 8.97396 17.0391 8.85938 17.0391ZM14.1641 25.1875C13.6953 25.1875 13.2734 25.0781 12.8984 24.8594C12.5234 24.6406 12.2266 24.3438 12.0078 23.9688C11.7891 23.5938 11.6797 23.1693 11.6797 22.6953C11.6797 22.4714 11.7396 22.2891 11.8594 22.1484C11.9792 22.0078 12.1354 21.9375 12.3281 21.9375C12.526 21.9375 12.6875 22.0078 12.8125 22.1484C12.9375 22.2891 13 22.4714 13 22.6953C13 23.0391 13.1094 23.3203 13.3281 23.5391C13.5469 23.7578 13.8255 23.8672 14.1641 23.8672C14.513 23.8672 14.7969 23.7578 15.0156 23.5391C15.2396 23.3203 15.3516 23.0391 15.3516 22.6953V15.0938H16.6484V22.6953C16.6484 23.1693 16.5391 23.5938 16.3203 23.9688C16.1016 24.3438 15.8047 24.6406 15.4297 24.8594C15.0547 25.0781 14.6328 25.1875 14.1641 25.1875Z" fill="#7A736D"/>
<rect x="0.5" y="0.5" width="31" height="31" rx="1.5" stroke="#7A736D"/>
</svg>
