<svg width="20" height="20" viewBox="0 0 20 20" fill="none" xmlns="http://www.w3.org/2000/svg">
<path fill-rule="evenodd" clip-rule="evenodd" d="M3.69526 3.69526C3.82029 3.57024 3.98986 3.5 4.16667 3.5H7.5C8.05228 3.5 8.5 3.05228 8.5 2.5C8.5 1.94772 8.05228 1.5 7.5 1.5H4.16667C3.45942 1.5 2.78115 1.78095 2.28105 2.28105C1.78095 2.78115 1.5 3.45942 1.5 4.16667V15.8333C1.5 16.5406 1.78095 17.2189 2.28105 17.719C2.78115 18.219 3.45942 18.5 4.16667 18.5H7.5C8.05228 18.5 8.5 18.0523 8.5 17.5C8.5 16.9477 8.05228 16.5 7.5 16.5H4.16667C3.98986 16.5 3.82029 16.4298 3.69526 16.3047C3.57024 16.1797 3.5 16.0101 3.5 15.8333V4.16667C3.5 3.98986 3.57024 3.82029 3.69526 3.69526ZM14.0405 5.12627C13.65 4.73574 13.0168 4.73574 12.6263 5.12627C12.2357 5.51679 12.2357 6.14996 12.6263 6.54048L15.0858 9H7.50004C6.94773 9 6.5 9.44773 6.5 10C6.5 10.5523 6.94773 11.0001 7.50004 11.0001H15.0858L12.6263 13.4596C12.2357 13.8501 12.2357 14.4833 12.6263 14.8738C13.0168 15.2643 13.65 15.2643 14.0405 14.8738L18.2071 10.7071C18.5977 10.3166 18.5977 9.68346 18.2071 9.29293L14.0405 5.12627Z" fill="white"/>
</svg>
