<svg width="72" height="72" viewBox="0 0 72 72" fill="none" xmlns="http://www.w3.org/2000/svg">
<path d="M35.6016 60.4844C32.3359 60.4844 29.2578 59.8594 26.3672 58.6094C23.4922 57.3594 20.9531 55.6328 18.75 53.4297C16.5469 51.2266 14.8203 48.6875 13.5703 45.8125C12.3203 42.9219 11.6953 39.8438 11.6953 36.5781C11.6953 33.3125 12.3203 30.2422 13.5703 27.3672C14.8203 24.4766 16.5391 21.9297 18.7266 19.7266C20.9297 17.5234 23.4688 15.7969 26.3438 14.5469C29.2344 13.2969 32.3125 12.6719 35.5781 12.6719C38.8438 12.6719 41.9219 13.2969 44.8125 14.5469C47.7031 15.7969 50.25 17.5234 52.4531 19.7266C54.6562 21.9297 56.3828 24.4766 57.6328 27.3672C58.8828 30.2422 59.5078 33.3125 59.5078 36.5781C59.5078 39.8438 58.8828 42.9219 57.6328 45.8125C56.3828 48.6875 54.6562 51.2266 52.4531 53.4297C50.25 55.6328 47.7031 57.3594 44.8125 58.6094C41.9375 59.8594 38.8672 60.4844 35.6016 60.4844ZM35.6016 56.5C38.3672 56.5 40.9531 55.9844 43.3594 54.9531C45.7656 53.9219 47.8828 52.5 49.7109 50.6875C51.5391 48.8594 52.9609 46.7422 53.9766 44.3359C55.0078 41.9297 55.5234 39.3438 55.5234 36.5781C55.5234 33.8125 55.0078 31.2266 53.9766 28.8203C52.9453 26.4141 51.5156 24.2969 49.6875 22.4688C47.875 20.6406 45.7578 19.2188 43.3359 18.2031C40.9297 17.1719 38.3438 16.6562 35.5781 16.6562C32.8125 16.6562 30.2266 17.1719 27.8203 18.2031C25.4141 19.2188 23.3047 20.6406 21.4922 22.4688C19.6797 24.2969 18.2578 26.4141 17.2266 28.8203C16.2109 31.2266 15.7031 33.8125 15.7031 36.5781C15.7031 39.3438 16.2109 41.9297 17.2266 44.3359C18.2578 46.7422 19.6797 48.8594 21.4922 50.6875C23.3203 52.5 25.4375 53.9219 27.8438 54.9531C30.25 55.9844 32.8359 56.5 35.6016 56.5ZM29.8828 30.25C29.4922 30.25 29.1562 30.1094 28.875 29.8281C28.5938 29.5469 28.4531 29.2109 28.4531 28.8203C28.4531 28.4297 28.5859 28.1016 28.8516 27.8359C29.1328 27.5547 29.4766 27.4141 29.8828 27.4141H47.4609C47.8516 27.4141 48.1797 27.5469 48.4453 27.8125C48.7266 28.0781 48.8672 28.4141 48.8672 28.8203C48.8672 29.2266 48.7266 29.5703 48.4453 29.8516C48.1797 30.1172 47.8516 30.25 47.4609 30.25H29.8828ZM29.8828 45.7656C29.4766 45.7656 29.1328 45.6328 28.8516 45.3672C28.5859 45.0859 28.4531 44.7422 28.4531 44.3359C28.4531 43.9453 28.5938 43.6172 28.875 43.3516C29.1562 43.0703 29.4922 42.9297 29.8828 42.9297H47.4609C47.8516 42.9297 48.1797 43.0625 48.4453 43.3281C48.7266 43.5938 48.8672 43.9297 48.8672 44.3359C48.8672 44.7422 48.7266 45.0859 48.4453 45.3672C48.1797 45.6328 47.8516 45.7656 47.4609 45.7656H29.8828ZM29.8828 38.0078C29.4922 38.0078 29.1562 37.8672 28.875 37.5859C28.5938 37.3047 28.4531 36.9688 28.4531 36.5781C28.4531 36.1875 28.5938 35.8594 28.875 35.5938C29.1562 35.3125 29.4922 35.1719 29.8828 35.1719H47.4609C47.8516 35.1719 48.1797 35.3047 48.4453 35.5703C48.7266 35.8359 48.8672 36.1719 48.8672 36.5781C48.8672 36.9844 48.7266 37.3281 48.4453 37.6094C48.1797 37.875 47.8516 38.0078 47.4609 38.0078H29.8828ZM24.2344 30.8359C23.6719 30.8359 23.1953 30.6406 22.8047 30.25C22.4141 29.8594 22.2188 29.3828 22.2188 28.8203C22.2188 28.2578 22.4141 27.7812 22.8047 27.3906C23.1953 27 23.6719 26.8047 24.2344 26.8047C24.7969 26.8047 25.2734 27 25.6641 27.3906C26.0547 27.7812 26.25 28.2578 26.25 28.8203C26.25 29.3672 26.0469 29.8438 25.6406 30.25C25.25 30.6406 24.7812 30.8359 24.2344 30.8359ZM24.2344 38.5938C23.6719 38.5938 23.1953 38.3984 22.8047 38.0078C22.4141 37.6172 22.2188 37.1406 22.2188 36.5781C22.2188 36.0156 22.4141 35.5391 22.8047 35.1484C23.1953 34.7578 23.6719 34.5625 24.2344 34.5625C24.7812 34.5625 25.25 34.7656 25.6406 35.1719C26.0469 35.5625 26.25 36.0312 26.25 36.5781C26.25 37.125 26.0469 37.6016 25.6406 38.0078C25.25 38.3984 24.7812 38.5938 24.2344 38.5938ZM24.2344 46.3516C23.6719 46.3516 23.1953 46.1562 22.8047 45.7656C22.4141 45.375 22.2188 44.8984 22.2188 44.3359C22.2188 43.7734 22.4141 43.2969 22.8047 42.9062C23.1953 42.5156 23.6719 42.3203 24.2344 42.3203C24.7812 42.3203 25.25 42.5234 25.6406 42.9297C26.0469 43.3203 26.25 43.7891 26.25 44.3359C26.25 44.8984 26.0547 45.375 25.6641 45.7656C25.2734 46.1562 24.7969 46.3516 24.2344 46.3516Z" fill="#0077B6"/>
</svg>
