<svg width="44" height="60" viewBox="0 0 44 60" fill="none" xmlns="http://www.w3.org/2000/svg">
<path d="M35.0762 37.3495C34.7826 47.5335 32.6541 55.222 23.2224 59.5525C22.7898 59.7475 22.3206 59.8477 21.8461 59.8461C21.3774 59.8497 20.9137 59.7494 20.4883 59.5525C11.0382 55.222 9.0014 47.4601 8.61606 37.3495C8.59558 36.7318 8.81559 36.1304 9.22974 35.6717C9.64389 35.2131 10.2199 34.9331 10.8364 34.8906C14.0497 34.8235 17.1765 33.8364 19.846 32.0464C20.4167 31.6317 21.104 31.4083 21.8094 31.4083C22.5149 31.4083 23.2022 31.6317 23.7728 32.0464C26.4633 33.8498 29.6174 34.8375 32.8559 34.8906C33.4724 34.9331 34.0484 35.2131 34.4625 35.6717C34.8767 36.1304 35.0967 36.7318 35.0762 37.3495ZM26.2867 42.0837C26.0287 41.8259 25.6789 41.6812 25.3142 41.6812C24.9495 41.6812 24.5997 41.8259 24.3417 42.0837L20.9103 45.4416L19.3506 43.9186C19.0925 43.6609 18.7428 43.5161 18.3781 43.5161C18.0134 43.5161 17.6636 43.6609 17.4055 43.9186C17.1478 44.1767 17.003 44.5265 17.003 44.8912C17.003 45.2559 17.1478 45.6056 17.4055 45.8637L20.0112 48.3592C20.2741 48.6074 20.6222 48.7453 20.9837 48.7446C21.1603 48.7464 21.3355 48.7133 21.4993 48.6472C21.663 48.5811 21.8121 48.4832 21.9379 48.3592L26.3418 44.0287C26.5923 43.7635 26.7273 43.4095 26.717 43.0448C26.7066 42.68 26.5519 42.3343 26.2867 42.0837Z" fill="#19A2C0"/>
<path d="M3.95529 14.4308V15.9538C4.40777 15.8577 4.86895 15.8086 5.33151 15.807H13.9558C15.1329 15.8058 16.2834 16.1574 17.2588 16.8162L21.259 19.4769H38.3608C38.8234 19.4785 39.2846 19.5277 39.737 19.6237V14.4308C39.737 13.0925 39.2054 11.809 38.2591 10.8626C37.3127 9.91629 36.0292 9.38465 34.6909 9.38465H9.00144C7.66312 9.38465 6.37961 9.91629 5.43327 10.8626C4.48694 11.809 3.95529 13.0925 3.95529 14.4308Z" fill="#D6F3FA"/>
<path d="M20.5617 22.2294H38.3608C39.6991 22.2294 40.9827 22.761 41.929 23.7074C42.8753 24.6537 43.407 25.9372 43.407 27.2755V43.7902C43.407 45.1285 42.8753 46.412 41.929 47.3583C40.9827 48.3047 39.6991 48.8363 38.3608 48.8363H36.1222C37.1982 45.127 37.7479 41.285 37.7553 37.4229C37.7905 36.0767 37.2976 34.7701 36.3821 33.7826C35.4665 32.795 34.201 32.2048 32.8559 32.1382C30.2328 32.0691 27.6824 31.2614 25.4977 29.8078C24.4563 29.0555 23.2043 28.6505 21.9196 28.6505C20.6348 28.6505 19.3828 29.0555 18.3414 29.8078C16.1148 31.2879 13.5097 32.0969 10.8364 32.1382C9.47842 32.1861 8.19424 32.7681 7.26306 33.7577C6.33187 34.7473 5.82896 36.0645 5.86365 37.4229C5.87103 41.285 6.42077 45.127 7.49677 48.8363H5.33151C3.99319 48.8363 2.70969 48.3047 1.76335 47.3583C0.817015 46.412 0.28537 45.1285 0.28537 43.7902V23.6056C0.28537 22.2673 0.817015 20.9838 1.76335 20.0374C2.70969 19.0911 3.99319 18.5595 5.33151 18.5595H13.9008C14.5518 18.55 15.1908 18.7353 15.7357 19.0916L20.3048 22.2294C20.3897 22.2457 20.4768 22.2457 20.5617 22.2294Z" fill="#D6F3FA"/>
</svg>
