<svg width="32" height="32" viewBox="0 0 32 32" fill="none" xmlns="http://www.w3.org/2000/svg">
<path d="M25.2285 15.9395C25.2285 15.6335 25.1146 15.3665 24.8867 15.1387L18.4512 8.72266C18.334 8.60547 18.2103 8.51758 18.0801 8.45898C17.9499 8.40039 17.8132 8.37109 17.6699 8.37109C17.3704 8.37109 17.1198 8.46875 16.918 8.66406C16.7227 8.85938 16.625 9.10352 16.625 9.39648C16.625 9.55273 16.651 9.69596 16.7031 9.82617C16.7617 9.94987 16.8398 10.0605 16.9375 10.1582L19.125 12.375L22.7676 15.7051L23.1094 15.0703L19.7207 14.8652H7.85547C7.52995 14.8652 7.26628 14.9661 7.06445 15.168C6.86914 15.3633 6.77148 15.6204 6.77148 15.9395C6.77148 16.252 6.86914 16.5091 7.06445 16.7109C7.26628 16.9062 7.52995 17.0039 7.85547 17.0039H19.7207L23.1094 16.8086L22.7676 16.1836L19.125 19.5039L16.9375 21.7109C16.8398 21.8086 16.7617 21.9225 16.7031 22.0527C16.651 22.1829 16.625 22.3229 16.625 22.4727C16.625 22.7656 16.7227 23.0098 16.918 23.2051C17.1198 23.4004 17.3704 23.498 17.6699 23.498C17.9564 23.498 18.2135 23.3874 18.4414 23.166L24.8867 16.7402C25.1146 16.5124 25.2285 16.2454 25.2285 15.9395Z" fill="#E4E7EE"/>
</svg>
