<svg width="36" height="36" viewBox="0 0 36 36" fill="none" xmlns="http://www.w3.org/2000/svg">
<path d="M12.8047 28.0566H18.1562C17.9023 27.8353 17.668 27.5911 17.4531 27.3242C17.2383 27.0638 17.0495 26.7839 16.8867 26.4844H12.8926C12.3848 26.4844 12.0007 26.3574 11.7402 26.1035C11.4798 25.8496 11.3496 25.4785 11.3496 24.9902V10.2051C11.3496 9.72331 11.4798 9.35221 11.7402 9.0918C12.0007 8.82487 12.3848 8.69141 12.8926 8.69141H23.0977C23.5859 8.69141 23.9635 8.82487 24.2305 9.0918C24.4974 9.35221 24.6309 9.72331 24.6309 10.2051V18.7305C24.9303 18.8867 25.2103 19.0755 25.4707 19.2969C25.7376 19.5117 25.9818 19.7461 26.2031 20V10.1855C26.2031 9.16341 25.9492 8.39844 25.4414 7.89062C24.9401 7.3763 24.1849 7.11914 23.1758 7.11914H12.8047C11.8021 7.11914 11.0469 7.3763 10.5391 7.89062C10.0312 8.40495 9.77734 9.16992 9.77734 10.1855V24.9902C9.77734 26.0124 10.028 26.7773 10.5293 27.2852C11.0371 27.7995 11.7956 28.0566 12.8047 28.0566ZM14.2988 12.6758H21.7012C21.8704 12.6758 22.0137 12.6172 22.1309 12.5C22.248 12.3763 22.3066 12.2298 22.3066 12.0605C22.3066 11.8978 22.248 11.7611 22.1309 11.6504C22.0137 11.5332 21.8704 11.4746 21.7012 11.4746H14.2988C14.1165 11.4746 13.9668 11.5332 13.8496 11.6504C13.7389 11.7611 13.6836 11.8978 13.6836 12.0605C13.6836 12.2298 13.7389 12.3763 13.8496 12.5C13.9668 12.6172 14.1165 12.6758 14.2988 12.6758ZM14.2988 16.0742H21.7012C21.8704 16.0742 22.0137 16.0156 22.1309 15.8984C22.248 15.7812 22.3066 15.638 22.3066 15.4688C22.3066 15.2995 22.248 15.1595 22.1309 15.0488C22.0137 14.9316 21.8704 14.873 21.7012 14.873H14.2988C14.1165 14.873 13.9668 14.9316 13.8496 15.0488C13.7389 15.1595 13.6836 15.2995 13.6836 15.4688C13.6836 15.638 13.7389 15.7812 13.8496 15.8984C13.9668 16.0156 14.1165 16.0742 14.2988 16.0742ZM21.8184 28.0566C22.6257 28.0566 23.3613 27.8581 24.0254 27.4609C24.6895 27.0703 25.2168 26.543 25.6074 25.8789C26.0046 25.2148 26.2031 24.4792 26.2031 23.6719C26.2031 22.8581 26.0046 22.1191 25.6074 21.4551C25.2168 20.791 24.6895 20.2604 24.0254 19.8633C23.3613 19.4661 22.6257 19.2676 21.8184 19.2676C21.0111 19.2676 20.2754 19.4661 19.6113 19.8633C18.9473 20.2604 18.4134 20.7943 18.0098 21.4648C17.6126 22.1289 17.4141 22.8646 17.4141 23.6719C17.4141 24.4792 17.6126 25.2148 18.0098 25.8789C18.4134 26.543 18.9473 27.0703 19.6113 27.4609C20.2754 27.8581 21.0111 28.0566 21.8184 28.0566ZM21.8184 26.6602C21.265 26.6602 20.7604 26.5234 20.3047 26.25C19.8555 25.9831 19.4941 25.6217 19.2207 25.166C18.9473 24.7168 18.8105 24.2188 18.8105 23.6719C18.8105 23.125 18.9473 22.627 19.2207 22.1777C19.4941 21.722 19.8555 21.3574 20.3047 21.084C20.7604 20.8105 21.265 20.6738 21.8184 20.6738C22.3587 20.6738 22.8535 20.8105 23.3027 21.084C23.7585 21.3574 24.1198 21.722 24.3867 22.1777C24.6602 22.627 24.7969 23.125 24.7969 23.6719C24.7969 24.2188 24.6602 24.7168 24.3867 25.166C24.1198 25.6217 23.7617 25.9831 23.3125 26.25C22.8633 26.5234 22.3652 26.6602 21.8184 26.6602ZM27.1211 29.8633C27.349 29.8633 27.5378 29.7819 27.6875 29.6191C27.8372 29.4629 27.9121 29.2611 27.9121 29.0137C27.9121 28.9095 27.8861 28.8021 27.834 28.6914C27.7884 28.5872 27.7233 28.4961 27.6387 28.418L24.9043 25.6738L23.6641 26.7871L26.4082 29.541C26.623 29.7559 26.8607 29.8633 27.1211 29.8633Z" fill="white"/>
</svg>
