<svg width="40" height="40" viewBox="0 0 40 40" fill="none" xmlns="http://www.w3.org/2000/svg">
<path d="M14.4365 24.5381C14.6201 24.5381 14.7705 24.4795 14.8877 24.3623C15.0088 24.2451 15.0693 24.0986 15.0693 23.9229V16.0889C15.0693 15.9092 15.0088 15.7607 14.8877 15.6436C14.7705 15.5225 14.6201 15.4619 14.4365 15.4619C14.2529 15.4619 14.1006 15.5225 13.9795 15.6436C13.8623 15.7607 13.8037 15.9092 13.8037 16.0889V23.9229C13.8037 24.0986 13.8623 24.2451 13.9795 24.3623C14.1006 24.4795 14.2529 24.5381 14.4365 24.5381ZM19.6045 24.5381C19.7842 24.5381 19.9326 24.4795 20.0498 24.3623C20.1709 24.2451 20.2314 24.0986 20.2314 23.9229C20.2314 23.833 20.2139 23.749 20.1787 23.6709C20.1436 23.5928 20.0986 23.5244 20.0439 23.4658L18.7314 22.1357L16.5518 20.1904L16.3584 20.5713L18.2744 20.6475H25.5459C25.7373 20.6475 25.8936 20.5869 26.0146 20.4658C26.1357 20.3447 26.1963 20.1885 26.1963 19.9971C26.1963 19.8096 26.1357 19.6572 26.0146 19.54C25.8936 19.4189 25.7373 19.3584 25.5459 19.3584H18.2744L16.3584 19.4346L16.5518 19.8154L18.7314 17.8584L20.0439 16.5342C20.0986 16.4795 20.1436 16.4131 20.1787 16.335C20.2139 16.2529 20.2314 16.167 20.2314 16.0771C20.2314 15.9014 20.1709 15.7549 20.0498 15.6377C19.9326 15.5205 19.7842 15.4619 19.6045 15.4619C19.4326 15.4619 19.2783 15.5283 19.1416 15.6611L15.2744 19.5225C15.208 19.5889 15.1553 19.6631 15.1162 19.7451C15.0811 19.8271 15.0635 19.9111 15.0635 19.9971C15.0635 20.0869 15.0811 20.1748 15.1162 20.2607C15.1553 20.3428 15.208 20.415 15.2744 20.4775L19.1416 24.3389C19.2783 24.4717 19.4326 24.5381 19.6045 24.5381Z" fill="#49444F"/>
</svg>
