<svg width="28" height="28" viewBox="0 0 28 28" fill="none" xmlns="http://www.w3.org/2000/svg">
<rect width="28" height="28" rx="2" fill="#547854"/>
<path d="M11.1035 18.4219L18.0293 11.4961L16.7285 10.1895L9.80273 17.1211L9.20508 18.6211C9.16211 18.7383 9.18555 18.8398 9.27539 18.9258C9.36914 19.0156 9.46875 19.041 9.57422 19.002L11.1035 18.4219ZM18.668 10.8574L19.377 10.1602C19.5488 9.98438 19.6387 9.80469 19.6465 9.62109C19.6543 9.43359 19.5781 9.25781 19.418 9.09375L19.1367 8.8125C18.9766 8.64844 18.8008 8.57227 18.6094 8.58398C18.4219 8.5957 18.2422 8.68555 18.0703 8.85352L17.3613 9.55664L18.668 10.8574Z" fill="white"/>
</svg>
