<svg width="72" height="72" viewBox="0 0 72 72" fill="none" xmlns="http://www.w3.org/2000/svg">
<path fill-rule="evenodd" clip-rule="evenodd" d="M52.9034 52.9034C48.4203 57.3864 42.34 59.905 36 59.905C29.66 59.905 23.5796 57.3864 19.0966 52.9034C14.6135 48.4203 12.095 42.34 12.095 36C12.095 29.66 14.6135 23.5796 19.0966 19.0966C23.5796 14.6135 29.66 12.095 36 12.095C42.34 12.095 48.4203 14.6135 52.9034 19.0966C57.3864 23.5796 59.905 29.66 59.905 36C59.905 42.34 57.3864 48.4203 52.9034 52.9034ZM36.0001 55.275C30.8881 55.275 25.9854 53.2442 22.3706 49.6295C18.7559 46.0147 16.7251 41.112 16.7251 36C16.7251 30.8879 18.7559 25.9853 22.3706 22.3705C25.9854 18.7557 30.8881 16.725 36.0001 16.725C41.1121 16.725 46.0148 18.7557 49.6296 22.3705C53.2443 25.9853 55.2751 30.8879 55.2751 36C55.2751 41.112 53.2443 46.0147 49.6296 49.6295C46.0148 53.2442 41.1121 55.275 36.0001 55.275Z" fill="#0077B6"/>
<path d="M31.8335 27.2001C32.0778 27.0742 32.3522 27.0182 32.6263 27.0383C32.9005 27.0583 33.1638 27.1536 33.3873 27.3136L43.8457 34.7839C44.0394 34.9221 44.1973 35.1046 44.3062 35.3161C44.4151 35.5277 44.4719 35.7622 44.4719 36.0001C44.4719 36.238 44.4151 36.4725 44.3062 36.6841C44.1973 36.8956 44.0394 37.0781 43.8457 37.2163L33.3873 44.6866C33.1639 44.8465 32.9007 44.9417 32.6267 44.9617C32.3527 44.9817 32.0785 44.9258 31.8342 44.8001C31.5899 44.6744 31.385 44.4838 31.242 44.2492C31.099 44.0146 31.0235 43.7451 31.0237 43.4704V28.5298C31.0234 28.2551 31.0988 27.9857 31.2417 27.7511C31.3845 27.5165 31.5893 27.3259 31.8335 27.2001Z" fill="#0077B6"/>
</svg>
