<svg width="38" height="29" viewBox="0 0 38 29" fill="none" xmlns="http://www.w3.org/2000/svg">
<g clip-path="url(#clip0_3319_35548)">
<path d="M4.60722 32.9491H7.92691C9.06832 32.9491 9.95706 32.6311 10.5931 31.995C11.2292 31.3677 11.5472 30.5051 11.5472 29.4072V12.1476C11.5472 11.0584 11.2292 10.2002 10.5931 9.57285C9.95706 8.9368 9.06832 8.61877 7.92691 8.61877H4.60722C3.4658 8.61877 2.57707 8.9368 1.94101 9.57285C1.31367 10.2002 1 11.0628 1 12.1606V29.4072C1 30.5051 1.31367 31.3677 1.94101 31.995C2.57707 32.6311 3.4658 32.9491 4.60722 32.9491ZM17.4285 32.9491H20.7482C21.8896 32.9491 22.7784 32.6311 23.4144 31.995C24.0505 31.3677 24.3685 30.5051 24.3685 29.4072V8.3051C24.3685 7.20725 24.0505 6.34465 23.4144 5.71731C22.7784 5.08125 21.8896 4.76323 20.7482 4.76323H17.4285C16.2871 4.76323 15.3984 5.08125 14.7623 5.71731C14.135 6.34465 13.8213 7.2116 13.8213 8.31817V29.4072C13.8213 30.5051 14.135 31.3677 14.7623 31.995C15.3984 32.6311 16.2871 32.9491 17.4285 32.9491ZM30.2498 32.9491H33.5565C34.7066 32.9491 35.5953 32.6311 36.2227 31.995C36.8587 31.3677 37.1768 30.5051 37.1768 29.4072V4.50183C37.1768 3.40398 36.8587 2.54139 36.2227 1.91404C35.5953 1.27799 34.7066 0.959961 33.5565 0.959961H30.2498C29.1084 0.959961 28.2197 1.27799 27.5836 1.91404C26.9563 2.54139 26.6426 3.40398 26.6426 4.50183V29.4072C26.6426 30.5051 26.9563 31.3677 27.5836 31.995C28.2197 32.6311 29.1084 32.9491 30.2498 32.9491Z" fill="#CFC8D4"/>
</g>
<defs>
<clipPath id="clip0_3319_35548">
<rect width="38" height="29" fill="white"/>
</clipPath>
</defs>
</svg>
