<svg width="72" height="72" viewBox="0 0 72 72" fill="none" xmlns="http://www.w3.org/2000/svg">
<path d="M35.6016 60.4844C32.3359 60.4844 29.2578 59.8594 26.3672 58.6094C23.4922 57.3594 20.9531 55.6328 18.75 53.4297C16.5469 51.2266 14.8203 48.6875 13.5703 45.8125C12.3203 42.9219 11.6953 39.8438 11.6953 36.5781C11.6953 33.3125 12.3203 30.2422 13.5703 27.3672C14.8203 24.4766 16.5391 21.9297 18.7266 19.7266C20.9297 17.5234 23.4688 15.7969 26.3438 14.5469C29.2344 13.2969 32.3125 12.6719 35.5781 12.6719C38.8438 12.6719 41.9219 13.2969 44.8125 14.5469C47.7031 15.7969 50.25 17.5234 52.4531 19.7266C54.6562 21.9297 56.3828 24.4766 57.6328 27.3672C58.8828 30.2422 59.5078 33.3125 59.5078 36.5781C59.5078 39.8438 58.8828 42.9219 57.6328 45.8125C56.3828 48.6875 54.6562 51.2266 52.4531 53.4297C50.25 55.6328 47.7031 57.3594 44.8125 58.6094C41.9375 59.8594 38.8672 60.4844 35.6016 60.4844ZM35.6016 56.5C38.3672 56.5 40.9531 55.9844 43.3594 54.9531C45.7656 53.9219 47.8828 52.5 49.7109 50.6875C51.5391 48.8594 52.9609 46.7422 53.9766 44.3359C55.0078 41.9297 55.5234 39.3438 55.5234 36.5781C55.5234 33.8125 55.0078 31.2266 53.9766 28.8203C52.9453 26.4141 51.5156 24.2969 49.6875 22.4688C47.875 20.6406 45.7578 19.2188 43.3359 18.2031C40.9297 17.1719 38.3438 16.6562 35.5781 16.6562C32.8125 16.6562 30.2266 17.1719 27.8203 18.2031C25.4141 19.2188 23.3047 20.6406 21.4922 22.4688C19.6797 24.2969 18.2578 26.4141 17.2266 28.8203C16.2109 31.2266 15.7031 33.8125 15.7031 36.5781C15.7031 39.3438 16.2109 41.9297 17.2266 44.3359C18.2578 46.7422 19.6797 48.8594 21.4922 50.6875C23.3203 52.5 25.4375 53.9219 27.8438 54.9531C30.25 55.9844 32.8359 56.5 35.6016 56.5ZM30.5859 31.6562C29.4609 31.6562 28.5 31.2578 27.7031 30.4609C26.9062 29.6484 26.5078 28.6875 26.5078 27.5781C26.5078 26.4531 26.9062 25.4922 27.7031 24.6953C28.5156 23.8984 29.4766 23.5 30.5859 23.5C31.6953 23.5 32.6484 23.8984 33.4453 24.6953C34.2578 25.4922 34.6641 26.4531 34.6641 27.5781C34.6641 28.6875 34.2578 29.6484 33.4453 30.4609C32.6484 31.2578 31.6953 31.6562 30.5859 31.6562ZM40.5938 31.6562C39.4844 31.6562 38.5234 31.2578 37.7109 30.4609C36.9141 29.6484 36.5156 28.6875 36.5156 27.5781C36.5156 26.4531 36.9141 25.4922 37.7109 24.6953C38.5234 23.8984 39.4844 23.5 40.5938 23.5C41.7188 23.5 42.6797 23.8984 43.4766 24.6953C44.2734 25.4922 44.6719 26.4531 44.6719 27.5781C44.6719 28.6875 44.2734 29.6484 43.4766 30.4609C42.6797 31.2578 41.7188 31.6562 40.5938 31.6562ZM25.5938 40.6328C24.4531 40.6328 23.4844 40.2344 22.6875 39.4375C21.8906 38.625 21.4922 37.6641 21.4922 36.5547C21.4922 35.4453 21.8906 34.4844 22.6875 33.6719C23.5 32.8594 24.4688 32.4531 25.5938 32.4531C26.6875 32.4531 27.6328 32.8594 28.4297 33.6719C29.2422 34.4844 29.6484 35.4453 29.6484 36.5547C29.6484 37.6641 29.2422 38.625 28.4297 39.4375C27.6328 40.2344 26.6875 40.6328 25.5938 40.6328ZM35.6016 40.6328C34.4922 40.6328 33.5312 40.2344 32.7188 39.4375C31.9062 38.625 31.5 37.6641 31.5 36.5547C31.5 35.4453 31.9062 34.4844 32.7188 33.6719C33.5312 32.8594 34.4922 32.4531 35.6016 32.4531C36.6953 32.4531 37.6484 32.8594 38.4609 33.6719C39.2734 34.4844 39.6797 35.4453 39.6797 36.5547C39.6797 37.6641 39.2734 38.625 38.4609 39.4375C37.6484 40.2344 36.6953 40.6328 35.6016 40.6328ZM45.6094 40.6328C44.5 40.6328 43.5391 40.2344 42.7266 39.4375C41.9297 38.625 41.5312 37.6641 41.5312 36.5547C41.5312 35.4453 41.9297 34.4844 42.7266 33.6719C43.5391 32.8594 44.5 32.4531 45.6094 32.4531C46.7188 32.4531 47.6719 32.8594 48.4688 33.6719C49.2812 34.4844 49.6875 35.4453 49.6875 36.5547C49.6875 37.6641 49.2812 38.625 48.4688 39.4375C47.6719 40.2344 46.7188 40.6328 45.6094 40.6328ZM30.5859 49.6094C29.4609 49.6094 28.5 49.2109 27.7031 48.4141C26.9062 47.6016 26.5078 46.6406 26.5078 45.5312C26.5078 44.4219 26.9062 43.4688 27.7031 42.6719C28.5156 41.8594 29.4766 41.4531 30.5859 41.4531C31.6953 41.4531 32.6484 41.8594 33.4453 42.6719C34.2578 43.4688 34.6641 44.4219 34.6641 45.5312C34.6641 46.6406 34.2578 47.6016 33.4453 48.4141C32.6484 49.2109 31.6953 49.6094 30.5859 49.6094ZM40.5938 49.6094C39.4844 49.6094 38.5234 49.2109 37.7109 48.4141C36.9141 47.6016 36.5156 46.6406 36.5156 45.5312C36.5156 44.4219 36.9141 43.4688 37.7109 42.6719C38.5234 41.8594 39.4844 41.4531 40.5938 41.4531C41.7188 41.4531 42.6797 41.8594 43.4766 42.6719C44.2734 43.4688 44.6719 44.4219 44.6719 45.5312C44.6719 46.6406 44.2734 47.6016 43.4766 48.4141C42.6797 49.2109 41.7188 49.6094 40.5938 49.6094Z" fill="#0077B6"/>
</svg>
