<svg width="40" height="32" viewBox="0 0 40 32" fill="none" xmlns="http://www.w3.org/2000/svg">
<g clip-path="url(#clip0_605_15636)">
<path d="M30.1186 4.94306C28.3694 4.93781 26.6276 5.17246 24.9421 5.64047V5.35812C24.9468 2.30588 19.7045 0 12.7501 0C5.79579 0 0.559082 2.30588 0.559082 5.36471V26.6353C0.559082 29.6922 5.80049 32 12.752 32C19.7036 32 24.9468 29.6941 24.9468 26.6353V25.7064C26.6323 26.1744 28.3741 26.409 30.1233 26.4038C34.641 26.4038 39.441 24.9336 39.441 22.2099V9.136C39.4353 6.41224 34.6353 4.94306 30.1186 4.94306ZM23.5737 26.6353C23.5737 28.5176 19.1304 30.6221 12.7501 30.6221C6.36991 30.6221 1.93508 28.5176 1.93508 26.6353V24.2193C3.69696 25.0033 7.61226 26.4264 12.8348 26.4264C18.0574 26.4264 21.8438 25.0249 23.5737 24.2353V26.6353ZM23.5737 22.7068C22.4508 23.2781 18.5148 25.0504 12.8377 25.0504C7.20473 25.0504 3.10685 23.2687 1.93791 22.6974V18.9892C3.69979 19.7732 7.61508 21.1962 12.8377 21.1962C18.0603 21.1962 21.8438 19.7948 23.5737 19.0052V22.7068ZM23.5737 17.4767C22.4508 18.048 18.5148 19.8202 12.8377 19.8202C7.20473 19.8202 3.10685 18.0386 1.93791 17.4673V13.76C3.69979 14.5431 7.61508 15.9661 12.8377 15.9661C18.0603 15.9661 21.8438 14.5656 23.5737 13.776V17.4767ZM23.5737 12.2475C22.4443 12.8188 18.512 14.5882 12.8348 14.5882C7.20191 14.5882 3.10402 12.8066 1.93508 12.2353V7.90588C3.93132 9.61224 7.92755 10.7238 12.7501 10.7238C17.5727 10.7238 21.5727 9.61224 23.5737 7.91059V12.2475ZM12.7501 9.34871C6.37649 9.34871 1.93508 7.24706 1.93508 5.36471C1.93508 3.48235 6.37649 1.37788 12.7501 1.37788C19.1238 1.37788 23.5737 3.48235 23.5737 5.36471C23.5737 7.24706 19.1276 9.34871 12.7501 9.34871ZM38.0593 22.2118C38.0593 23.5416 34.6636 25.0296 30.1186 25.0296C28.0876 25.0296 26.3172 24.7219 24.9421 24.2767V21.248C26.6528 21.685 28.4114 21.9063 30.177 21.9068C33.9106 21.9068 36.6579 20.9656 38.0546 20.352L38.0593 22.2118ZM38.0593 18.8386C37.1511 19.2913 34.3003 20.5327 30.1817 20.5327C28.4127 20.5317 26.6519 20.2924 24.9468 19.8212V17.0353C26.6576 17.4717 28.4161 17.693 30.1817 17.6941C33.9153 17.6941 36.6626 16.7529 38.0593 16.1402V18.8386ZM38.0593 14.6231C37.1511 15.0758 34.3003 16.3172 30.1817 16.3172C28.4127 16.3157 26.652 16.0764 24.9468 15.6056V12.624C26.6315 13.0971 28.3735 13.3346 30.1233 13.3299C33.1596 13.3299 36.3163 12.6626 38.064 11.4005L38.0593 14.6231ZM30.1186 11.9529C28.0876 11.9529 26.3172 11.6452 24.9421 11.2V7.07482C26.3125 6.62682 28.0828 6.32188 30.1186 6.32188C34.6636 6.32188 38.0593 7.80894 38.0593 9.13882C38.0593 10.4687 34.6636 11.9529 30.1186 11.9529Z" fill="#D09B6B"/>
</g>
<defs>
<clipPath id="clip0_605_15636">
<rect width="40" height="32" fill="white"/>
</clipPath>
</defs>
</svg>
