<svg width="42" height="40" viewBox="0 0 42 40" fill="none" xmlns="http://www.w3.org/2000/svg">
<path d="M15.4663 24.481H26.5269C26.9233 24.481 27.2401 24.3739 27.4771 24.1597C27.714 23.9455 27.8325 23.6629 27.8325 23.312C27.8325 23.0522 27.771 22.8084 27.6479 22.5806C27.5295 22.3481 27.3745 22.1317 27.1831 21.9312C26.9917 21.7261 26.7889 21.5278 26.5747 21.3364C26.4015 21.186 26.2671 20.981 26.1714 20.7212C26.0802 20.4614 26.0073 20.1675 25.9526 19.8394C25.9025 19.5112 25.8547 19.1672 25.8091 18.8071C25.7498 18.0324 25.6154 17.3328 25.4058 16.7085C25.2007 16.0796 24.9113 15.5487 24.5376 15.1157C24.1639 14.6782 23.6945 14.3592 23.1294 14.1587C22.9699 13.6984 22.701 13.3201 22.3228 13.0239C21.9445 12.7231 21.5024 12.5728 20.9966 12.5728C20.4907 12.5728 20.0487 12.7231 19.6704 13.0239C19.2922 13.3201 19.0233 13.6984 18.8638 14.1587C18.2987 14.3592 17.8293 14.6782 17.4556 15.1157C17.0819 15.5487 16.7925 16.0796 16.5874 16.7085C16.3823 17.3328 16.2502 18.0324 16.1909 18.8071C16.1408 19.1672 16.0907 19.5112 16.0405 19.8394C15.9904 20.1675 15.9175 20.4614 15.8218 20.7212C15.7306 20.981 15.5962 21.186 15.4185 21.3364C15.2043 21.5278 15.0015 21.7261 14.8101 21.9312C14.6187 22.1317 14.4637 22.3481 14.3452 22.5806C14.2267 22.8084 14.1675 23.0522 14.1675 23.312C14.1675 23.6629 14.2837 23.9455 14.5161 24.1597C14.7531 24.3739 15.0698 24.481 15.4663 24.481ZM20.9966 27.4272C21.425 27.4272 21.8078 27.3361 22.145 27.1538C22.4868 26.9761 22.7603 26.7391 22.9653 26.4429C23.1704 26.1466 23.2866 25.8231 23.314 25.4722H18.6792C18.7065 25.8231 18.8228 26.1466 19.0278 26.4429C19.2329 26.7391 19.5041 26.9761 19.8413 27.1538C20.1831 27.3361 20.5682 27.4272 20.9966 27.4272Z" fill="#462255"/>
</svg>
