<svg width="20" height="20" viewBox="0 0 20 20" fill="none" xmlns="http://www.w3.org/2000/svg">
<g clip-path="url(#clip0_3329_67933)">
<path d="M10 20C11.3763 20 12.6673 19.738 13.8731 19.214C15.0789 18.6963 16.1395 17.9766 17.0549 17.0549C17.9766 16.1395 18.6995 15.0789 19.2235 13.8731C19.7475 12.6673 20.0095 11.3763 20.0095 10C20.0095 8.63005 19.7475 7.34217 19.2235 6.13636C18.6995 4.93056 17.9766 3.86679 17.0549 2.94508C16.1395 2.02336 15.0758 1.30366 13.8636 0.785985C12.6578 0.261995 11.3699 0 10 0C8.63005 0 7.33902 0.261995 6.12689 0.785985C4.92109 1.30366 3.85732 2.02336 2.93561 2.94508C2.0202 3.86679 1.30051 4.93056 0.776515 6.13636C0.258838 7.34217 0 8.63005 0 10C0 11.3763 0.258838 12.6673 0.776515 13.8731C1.30051 15.0789 2.02336 16.1395 2.94508 17.0549C3.86679 17.9766 4.93056 18.6963 6.13636 19.214C7.34217 19.738 8.63005 20 10 20ZM9.55492 15.3788C9.38447 15.3788 9.23611 15.3283 9.10985 15.2273C8.9899 15.1263 8.91099 14.9968 8.87311 14.839L8.63636 13.8352C8.56692 13.81 8.49748 13.7847 8.42803 13.7595C8.3649 13.7279 8.30177 13.6995 8.23864 13.6742L7.36742 14.2045C7.23485 14.2992 7.08649 14.3403 6.92235 14.3277C6.76452 14.3087 6.62879 14.2393 6.51515 14.1193L5.88068 13.4943C5.76705 13.3744 5.70076 13.2355 5.68182 13.0777C5.66919 12.9135 5.71023 12.762 5.80492 12.6231L6.32576 11.7519C6.30051 11.6888 6.27525 11.6288 6.25 11.572C6.22475 11.5088 6.1995 11.4457 6.17424 11.3826L5.17045 11.1364C5.00631 11.0985 4.87374 11.0196 4.77273 10.8996C4.67803 10.7734 4.63068 10.625 4.63068 10.4545V9.57386C4.63068 9.40341 4.67803 9.25821 4.77273 9.13826C4.87374 9.012 5.00631 8.92992 5.17045 8.89205L6.16477 8.6553C6.19003 8.58586 6.21528 8.51957 6.24053 8.45644C6.2721 8.39331 6.29735 8.33333 6.31629 8.27652L5.78599 7.39583C5.69129 7.25063 5.65025 7.09912 5.66288 6.94129C5.68182 6.78346 5.75126 6.64457 5.87121 6.52462L6.51515 5.89015C6.77399 5.65657 7.05177 5.625 7.34849 5.79545L8.23864 6.33523C8.30177 6.30997 8.3649 6.28472 8.42803 6.25947C8.49748 6.2279 8.56692 6.1995 8.63636 6.17424L8.87311 5.17992C8.91099 5.00947 8.9899 4.87374 9.10985 4.77273C9.23611 4.67172 9.38447 4.62121 9.55492 4.62121H10.4545C10.625 4.62121 10.7702 4.67172 10.8902 4.77273C11.0164 4.87374 11.0985 5.00631 11.1364 5.17045L11.3826 6.18371C11.452 6.20896 11.5183 6.23737 11.5814 6.26894C11.6446 6.29419 11.7077 6.31944 11.7708 6.3447L12.661 5.79545C12.9577 5.625 13.2355 5.65657 13.4943 5.89015L14.1383 6.52462C14.2645 6.64457 14.334 6.78346 14.3466 6.94129C14.3592 7.09912 14.3182 7.25063 14.2235 7.39583L13.6932 8.27652C13.7184 8.33333 13.7437 8.39331 13.7689 8.45644C13.8005 8.51957 13.8258 8.58586 13.8447 8.6553L14.839 8.89205C15.0095 8.92992 15.142 9.012 15.2367 9.13826C15.3314 9.25821 15.3788 9.40341 15.3788 9.57386V10.4545C15.3788 10.625 15.3314 10.7734 15.2367 10.8996C15.142 11.0196 15.0095 11.0985 14.839 11.1364L13.8352 11.3826C13.81 11.4457 13.7847 11.5088 13.7595 11.572C13.7405 11.6288 13.7153 11.6888 13.6837 11.7519L14.214 12.6231C14.3087 12.762 14.3466 12.9135 14.3277 13.0777C14.315 13.2355 14.2487 13.3744 14.1288 13.4943L13.5038 14.1193C13.3838 14.2393 13.2449 14.3087 13.0871 14.3277C12.9293 14.3403 12.7841 14.2992 12.6515 14.2045L11.7708 13.6742C11.7077 13.6995 11.6414 13.7279 11.572 13.7595C11.5088 13.7847 11.4426 13.81 11.3731 13.8352L11.1364 14.839C11.0985 14.9968 11.0164 15.1263 10.8902 15.2273C10.7702 15.3283 10.625 15.3788 10.4545 15.3788H9.55492ZM10.0095 11.7045C10.4766 11.7045 10.8775 11.5372 11.2121 11.2027C11.5467 10.8681 11.714 10.4672 11.714 10C11.714 9.53283 11.5467 9.13194 11.2121 8.79735C10.8775 8.46275 10.4766 8.29545 10.0095 8.29545C9.5423 8.29545 9.13826 8.46275 8.79735 8.79735C8.46275 9.13194 8.29545 9.53283 8.29545 10C8.29545 10.4672 8.46275 10.8681 8.79735 11.2027C9.13826 11.5372 9.5423 11.7045 10.0095 11.7045Z" fill="white"/>
</g>
<defs>
<clipPath id="clip0_3329_67933">
<rect width="20" height="20" fill="white"/>
</clipPath>
</defs>
</svg>
