<svg width="20" height="20" viewBox="0 0 20 20" fill="none" xmlns="http://www.w3.org/2000/svg">
<g clip-path="url(#clip0_3329_67930)">
<path d="M10 20C11.366 20 12.6503 19.7386 13.8529 19.2157C15.0621 18.6928 16.1275 17.9706 17.049 17.049C17.9706 16.1275 18.6928 15.0654 19.2157 13.8627C19.7386 12.6536 20 11.366 20 10C20 8.63399 19.7386 7.34967 19.2157 6.14706C18.6928 4.93791 17.9706 3.87255 17.049 2.95098C16.1275 2.02941 15.0621 1.30719 13.8529 0.784314C12.6438 0.261438 11.3562 0 9.9902 0C8.62418 0 7.3366 0.261438 6.12745 0.784314C4.92484 1.30719 3.86275 2.02941 2.94118 2.95098C2.02614 3.87255 1.30719 4.93791 0.784314 6.14706C0.261438 7.34967 0 8.63399 0 10C0 11.366 0.261438 12.6536 0.784314 13.8627C1.30719 15.0654 2.02941 16.1275 2.95098 17.049C3.87255 17.9706 4.93464 18.6928 6.13725 19.2157C7.34641 19.7386 8.63399 20 10 20ZM4.2549 12.9314V9.20588C5.01307 9.48039 5.75163 9.68954 6.47059 9.83333C7.18954 9.97059 7.91503 10.0621 8.64706 10.1078V10.5294C8.64706 10.9085 8.83007 11.098 9.19608 11.098H10.8333C11.1993 11.098 11.3824 10.9085 11.3824 10.5294V10.1078C12.1078 10.0621 12.8301 9.97059 13.549 9.83333C14.2745 9.68954 15.0163 9.48039 15.7745 9.20588V12.9314C15.7745 13.4673 15.6405 13.866 15.3725 14.1275C15.1111 14.3889 14.7124 14.5196 14.1765 14.5196H5.85294C5.31699 14.5196 4.91503 14.3889 4.64706 14.1275C4.38562 13.866 4.2549 13.4673 4.2549 12.9314ZM4.2549 8.30392V7.90196C4.2549 7.37255 4.38562 6.97712 4.64706 6.71569C4.91503 6.45425 5.31699 6.32353 5.85294 6.32353H6.93137V5.80392C6.93137 5.40523 7.05229 5.0915 7.29412 4.86275C7.53595 4.62745 7.86275 4.5098 8.27451 4.5098H11.7549C12.1667 4.5098 12.4935 4.62745 12.7353 4.86275C12.9771 5.0915 13.098 5.40523 13.098 5.80392V6.32353H14.1765C14.7124 6.32353 15.1111 6.45425 15.3725 6.71569C15.6405 6.97712 15.7745 7.37255 15.7745 7.90196V8.30392C14.8203 8.68954 13.8725 8.96078 12.9314 9.11765C11.9902 9.27451 11.0163 9.35294 10.0098 9.35294C9.0098 9.35294 8.03922 9.27451 7.09804 9.11765C6.15686 8.96078 5.20915 8.68954 4.2549 8.30392ZM7.90196 6.32353H12.1275V5.85294C12.1275 5.5719 11.9771 5.43137 11.6765 5.43137H8.34314C8.04902 5.43137 7.90196 5.5719 7.90196 5.85294V6.32353Z" fill="white"/>
</g>
<defs>
<clipPath id="clip0_3329_67930">
<rect width="20" height="20" fill="white"/>
</clipPath>
</defs>
</svg>
