<svg width="20" height="20" viewBox="0 0 20 20" fill="none" xmlns="http://www.w3.org/2000/svg">
<path d="M9.99414 6.91602C9.87305 6.91992 9.76172 6.94336 9.66016 6.98633C9.55469 7.0332 9.45508 7.10352 9.36133 7.19727L4.96094 11.7148C4.80859 11.8633 4.73242 12.0449 4.73242 12.2598C4.73242 12.4043 4.76758 12.5371 4.83789 12.6582C4.9082 12.7793 5.00391 12.875 5.125 12.9453C5.24219 13.0156 5.37305 13.0508 5.51758 13.0508C5.73633 13.0508 5.92773 12.9707 6.0918 12.8105L10.2578 8.52148L9.72461 8.52148L13.9023 12.8105C14.0664 12.9707 14.2578 13.0508 14.4766 13.0508C14.6211 13.0508 14.7539 13.0156 14.875 12.9453C14.9922 12.875 15.0859 12.7793 15.1563 12.6582C15.2266 12.5371 15.2617 12.4043 15.2617 12.2598C15.2617 12.1504 15.2441 12.0508 15.209 11.9609C15.1699 11.8711 15.1133 11.7871 15.0391 11.709L10.627 7.19727C10.4355 7.00977 10.2246 6.91602 9.99414 6.91602Z" fill="#150A1A"/>
</svg>
