<svg width="20" height="20" viewBox="0 0 20 20" fill="none" xmlns="http://www.w3.org/2000/svg">
<path d="M10 13.0508C10.1211 13.0469 10.2324 13.0234 10.334 12.9805C10.4395 12.9336 10.5391 12.8633 10.6328 12.7695L15.0332 8.25195C15.1855 8.10352 15.2617 7.92188 15.2617 7.70703C15.2617 7.5625 15.2266 7.42969 15.1562 7.30859C15.0859 7.1875 14.9902 7.0918 14.8691 7.02148C14.752 6.95117 14.6211 6.91602 14.4766 6.91602C14.2578 6.91602 14.0664 6.99609 13.9023 7.15625L9.73633 11.4453H10.2695L6.0918 7.15625C5.92773 6.99609 5.73633 6.91602 5.51758 6.91602C5.37305 6.91602 5.24023 6.95117 5.11914 7.02148C5.00195 7.0918 4.9082 7.1875 4.83789 7.30859C4.76758 7.42969 4.73242 7.5625 4.73242 7.70703C4.73242 7.81641 4.75 7.91602 4.78516 8.00586C4.82422 8.0957 4.88086 8.17969 4.95508 8.25781L9.36719 12.7695C9.55859 12.957 9.76953 13.0508 10 13.0508Z" fill="#150A1A"/>
</svg>
