<svg width="19" height="20" viewBox="0 0 19 20" fill="none" xmlns="http://www.w3.org/2000/svg">
<path d="M4.99219 9.89844C5.71615 9.90365 6.39583 10.0443 7.03125 10.3203C7.67188 10.5964 8.23438 10.9792 8.71875 11.4688C9.20833 11.9531 9.59115 12.513 9.86719 13.1484C10.1432 13.7839 10.2812 14.4635 10.2812 15.1875C10.2812 15.6927 10.2109 16.1797 10.0703 16.6484C9.92969 17.1172 9.72917 17.5547 9.46875 17.9609H16.1016C16.9922 17.9609 17.6719 17.724 18.1406 17.25C18.6094 16.776 18.8438 16.0938 18.8438 15.2031V8.38281H12.6797C11.737 8.38281 11.2656 7.91146 11.2656 6.96875V0.765625H7.73438C6.84896 0.765625 6.16927 1.0026 5.69531 1.47656C5.22656 1.95052 4.99219 2.63281 4.99219 3.52344V9.89844ZM13.0234 7.11719H18.7734C18.7578 6.91406 18.6771 6.71354 18.5312 6.51562C18.3854 6.3125 18.1979 6.09375 17.9688 5.85938L13.7734 1.625C13.5547 1.40625 13.3438 1.22396 13.1406 1.07812C12.9427 0.932292 12.7422 0.851562 12.5391 0.835938V6.63281C12.5391 6.95573 12.7005 7.11719 13.0234 7.11719ZM4.99219 19.3047C5.54948 19.3047 6.07552 19.1953 6.57031 18.9766C7.07031 18.763 7.51042 18.4661 7.89062 18.0859C8.27083 17.7109 8.56771 17.2734 8.78125 16.7734C8.99479 16.2786 9.10156 15.75 9.10156 15.1875C9.10156 14.625 8.99479 14.0964 8.78125 13.6016C8.56771 13.1016 8.27083 12.6641 7.89062 12.2891C7.51562 11.9089 7.07812 11.612 6.57812 11.3984C6.08333 11.1849 5.55469 11.0781 4.99219 11.0781C4.42969 11.0781 3.89844 11.1849 3.39844 11.3984C2.90365 11.612 2.46875 11.9089 2.09375 12.2891C1.71354 12.6693 1.41667 13.1068 1.20312 13.6016C0.984375 14.0964 0.875 14.625 0.875 15.1875C0.875 15.75 0.984375 16.2786 1.20312 16.7734C1.41667 17.2734 1.71354 17.7135 2.09375 18.0938C2.46875 18.474 2.90365 18.7708 3.39844 18.9844C3.89844 19.1979 4.42969 19.3047 4.99219 19.3047ZM5.00781 12.5938C5.17969 12.5938 5.34896 12.6745 5.51562 12.8359L7.46875 14.6719C7.60417 14.7969 7.67188 14.9505 7.67188 15.1328C7.67188 15.3151 7.60938 15.4688 7.48438 15.5938C7.35938 15.724 7.20573 15.7865 7.02344 15.7812C6.9349 15.776 6.84896 15.7552 6.76562 15.7188C6.68229 15.6875 6.61458 15.6406 6.5625 15.5781L5.94531 14.8906L5.67969 14.6094L5.71094 15.3906V17.0938C5.71094 17.2917 5.64323 17.4531 5.50781 17.5781C5.3776 17.7083 5.21094 17.7734 5.00781 17.7734C4.79948 17.7734 4.6276 17.7083 4.49219 17.5781C4.36198 17.4531 4.29688 17.2917 4.29688 17.0938V15.3906L4.33594 14.6094L4.05469 14.8906L3.45312 15.5781C3.33333 15.7188 3.17708 15.7865 2.98438 15.7812C2.80208 15.7812 2.64844 15.7188 2.52344 15.5938C2.39323 15.4688 2.32812 15.3151 2.32812 15.1328C2.33333 14.9505 2.40365 14.7969 2.53906 14.6719L4.49219 12.8359C4.64844 12.6745 4.82031 12.5938 5.00781 12.5938Z" fill="#AA4465"/>
</svg>
