<svg width="40" height="40" viewBox="0 0 40 40" fill="none" xmlns="http://www.w3.org/2000/svg">
<path d="M25.6543 24.8457C25.3809 24.8457 25.1504 24.75 24.9629 24.5586C24.7715 24.3711 24.6758 24.1426 24.6758 23.873V16.1328C24.6758 15.8594 24.7715 15.6289 24.9629 15.4414C25.1504 15.25 25.3809 15.1543 25.6543 15.1543C25.9199 15.1543 26.1484 15.25 26.3398 15.4414C26.5312 15.6289 26.627 15.8594 26.627 16.1328V23.873C26.627 24.1426 26.5312 24.3711 26.3398 24.5586C26.1484 24.75 25.9199 24.8457 25.6543 24.8457ZM19.8711 24.8457C19.5781 24.8457 19.3398 24.752 19.1562 24.5645C18.9727 24.3809 18.8809 24.1523 18.8809 23.8789C18.8809 23.7227 18.9141 23.584 18.9805 23.4629C19.043 23.3418 19.1211 23.2363 19.2148 23.1465L20.5273 21.8398L22.3086 20.3516L22.748 20.9199L20.2988 21.0254H14.4453C14.1211 21.0254 13.8613 20.9316 13.666 20.7441C13.4707 20.5566 13.373 20.3086 13.373 20C13.373 19.6953 13.4707 19.4492 13.666 19.2617C13.8613 19.0742 14.1211 18.9805 14.4453 18.9805H20.2988L22.748 19.0859L22.3086 19.6602L20.5273 18.166L19.2148 16.8594C19.1211 16.7656 19.043 16.6602 18.9805 16.543C18.9141 16.4219 18.8809 16.2812 18.8809 16.1211C18.8809 15.8477 18.9727 15.6191 19.1562 15.4355C19.3398 15.248 19.5781 15.1543 19.8711 15.1543C20.1445 15.1543 20.3867 15.2598 20.5977 15.4707L24.377 19.25C24.4707 19.3398 24.5449 19.4551 24.5996 19.5957C24.6504 19.7324 24.6758 19.8672 24.6758 20C24.6758 20.1367 24.6504 20.2734 24.5996 20.4102C24.5449 20.5469 24.4707 20.6621 24.377 20.7559L20.5977 24.5234C20.3867 24.7383 20.1445 24.8457 19.8711 24.8457Z" fill="black"/>
</svg>
