<svg width="80" height="80" viewBox="0 0 80 80" fill="none" xmlns="http://www.w3.org/2000/svg">
<path d="M30.3906 49.3047C29.8047 49.3047 29.3555 49.1523 29.043 48.8477C28.7305 48.5352 28.5742 48.0742 28.5742 47.4648V33.3789C28.5742 32.8008 28.7227 32.3633 29.0195 32.0664C29.3164 31.7695 29.7461 31.6211 30.3086 31.6211H32.7812C33.1719 31.6211 33.5 31.6758 33.7656 31.7852C34.0391 31.8945 34.3242 32.0742 34.6211 32.3242L35.3359 32.9219C35.5859 33.1328 35.832 33.3008 36.0742 33.4258C36.3164 33.5508 36.582 33.6406 36.8711 33.6953C37.1602 33.75 37.4961 33.7773 37.8789 33.7773H49.5859C50.1641 33.7773 50.6133 33.9336 50.9336 34.2461C51.2539 34.5586 51.4141 35.0195 51.4141 35.6289V47.4766C51.4141 48.0781 51.2539 48.5352 50.9336 48.8477C50.6133 49.1523 50.1641 49.3047 49.5859 49.3047H30.3906Z" fill="#F5ECF0"/>
<path d="M30.3672 51.1914H49.9727C51.0195 51.1914 51.8359 50.8867 52.4219 50.2773C53.0078 49.6758 53.3008 48.7695 53.3008 47.5586V35.5234C53.3008 34.3203 52.9922 33.4141 52.375 32.8047C51.7578 32.1953 50.8398 31.8906 49.6211 31.8906H38.3711C37.9727 31.8906 37.6367 31.8398 37.3633 31.7383C37.0898 31.6289 36.8047 31.4492 36.5078 31.1992L35.793 30.6133C35.5352 30.3945 35.2852 30.2227 35.043 30.0977C34.8086 29.9727 34.5469 29.8828 34.2578 29.8281C33.9766 29.7734 33.6445 29.7461 33.2617 29.7461H29.9219C28.8906 29.7461 28.0938 30.0391 27.5312 30.625C26.9688 31.2109 26.6875 32.0938 26.6875 33.2734V47.5586C26.6875 48.7695 26.9922 49.6758 27.6016 50.2773C28.2188 50.8867 29.1406 51.1914 30.3672 51.1914ZM30.3906 49.3047C29.8047 49.3047 29.3555 49.1523 29.043 48.8477C28.7305 48.5352 28.5742 48.0742 28.5742 47.4648V33.3789C28.5742 32.8008 28.7227 32.3633 29.0195 32.0664C29.3164 31.7695 29.7461 31.6211 30.3086 31.6211H32.7812C33.1719 31.6211 33.5 31.6758 33.7656 31.7852C34.0391 31.8945 34.3242 32.0742 34.6211 32.3242L35.3359 32.9219C35.5859 33.1328 35.832 33.3008 36.0742 33.4258C36.3164 33.5508 36.582 33.6406 36.8711 33.6953C37.1602 33.75 37.4961 33.7773 37.8789 33.7773H49.5859C50.1641 33.7773 50.6133 33.9336 50.9336 34.2461C51.2539 34.5586 51.4141 35.0195 51.4141 35.6289V47.4766C51.4141 48.0781 51.2539 48.5352 50.9336 48.8477C50.6133 49.1523 50.1641 49.3047 49.5859 49.3047H30.3906ZM27.8359 38.0664H52.1406V36.2969H27.8359V38.0664Z" fill="#AA4465"/>
</svg>
