<svg width="80" height="80" viewBox="0 0 80 80" fill="none" xmlns="http://www.w3.org/2000/svg">
<path d="M29.1367 47.6523C29.6602 48.1523 30.4023 48.4023 31.3633 48.4023H42.9531C43.9141 48.4023 44.6562 48.1523 45.1797 47.6523C45.7031 47.1523 45.9648 46.3945 45.9648 45.3789V35.6992C45.9648 34.6836 45.7031 33.9258 45.1797 33.4258C44.6562 32.918 43.9141 32.6641 42.9531 32.6641H31.3633C30.4023 32.6641 29.6602 32.918 29.1367 33.4258C28.6133 33.9258 28.3516 34.6836 28.3516 35.6992V45.3789C28.3516 46.3945 28.6133 47.1523 29.1367 47.6523Z" fill="#F5ECF0"/>
<path d="M47.8516 39.6211L47.85 39.5L47.8516 39.2618L53.1602 34.8789C53.2148 34.8398 53.2617 34.8086 53.3008 34.7852C53.3477 34.7539 53.3945 34.7383 53.4414 34.7383C53.5742 34.7383 53.6406 34.832 53.6406 35.0195V46.0586C53.6406 46.2383 53.5742 46.3281 53.4414 46.3281C53.3945 46.3281 53.3477 46.3164 53.3008 46.293C53.2617 46.2617 53.2148 46.2305 53.1602 46.1992L47.8516 41.8163L47.85 41.5938V41.3313L47.851 41.1903C47.8506 41.1556 47.85 41.0331 47.85 40.9156C47.85 40.9156 47.8516 40.7751 47.8516 40.6978C47.8516 40.5395 47.85 40.648 47.8516 40.4185C47.8516 40.4179 47.8516 40.4173 47.8516 40.4167V40.2852C47.8516 40.3362 47.8516 40.3804 47.8516 40.4185C47.8516 40.4193 47.8515 40.4202 47.8515 40.4211C47.8516 40.4196 47.8516 40.4182 47.8516 40.4167C47.8516 40.4173 47.8516 40.4179 47.8516 40.4185C47.8516 40.3804 47.8516 40.3362 47.8516 40.2852V40.1875V40.043V39.9531V39.8711V39.7656V39.6211Z" fill="#F5ECF0"/>
<path d="M31.0352 50.1719H43.2812C44.7109 50.1719 45.8281 49.7773 46.6328 48.9883C47.4453 48.1914 47.8516 47.0781 47.8516 45.6484V35.418C47.8516 33.9961 47.4453 32.8906 46.6328 32.1016C45.8281 31.3047 44.7109 30.9062 43.2812 30.9062H31.0352C29.668 30.9062 28.5625 31.3047 27.7188 32.1016C26.8828 32.8906 26.4648 33.9961 26.4648 35.418V45.6484C26.4648 47.0781 26.8672 48.1914 27.6719 48.9883C28.4844 49.7773 29.6055 50.1719 31.0352 50.1719ZM31.3633 48.4023C30.4023 48.4023 29.6602 48.1523 29.1367 47.6523C28.6133 47.1523 28.3516 46.3945 28.3516 45.3789V35.6992C28.3516 34.6836 28.6133 33.9258 29.1367 33.4258C29.6602 32.918 30.4023 32.6641 31.3633 32.6641H42.9531C43.9141 32.6641 44.6562 32.918 45.1797 33.4258C45.7031 33.9258 45.9648 34.6836 45.9648 35.6992V45.3789C45.9648 46.3945 45.7031 47.1523 45.1797 47.6523C44.6562 48.1523 43.9141 48.4023 42.9531 48.4023H31.3633ZM47.582 37.2578V39.4844L53.1602 34.8789C53.2148 34.8398 53.2617 34.8086 53.3008 34.7852C53.3477 34.7539 53.3945 34.7383 53.4414 34.7383C53.5742 34.7383 53.6406 34.832 53.6406 35.0195V46.0586C53.6406 46.2383 53.5742 46.3281 53.4414 46.3281C53.3945 46.3281 53.3477 46.3164 53.3008 46.293C53.2617 46.2617 53.2148 46.2305 53.1602 46.1992L47.582 41.5938V43.8086L52.2812 47.793C52.5156 47.9883 52.7578 48.1484 53.0078 48.2734C53.2578 48.3906 53.5039 48.4492 53.7461 48.4492C54.2617 48.4492 54.6758 48.2773 54.9883 47.9336C55.3008 47.5898 55.457 47.1445 55.457 46.5977V34.4805C55.457 33.9336 55.3008 33.4883 54.9883 33.1445C54.6758 32.8008 54.2617 32.6289 53.7461 32.6289C53.5039 32.6289 53.2578 32.6914 53.0078 32.8164C52.7578 32.9336 52.5156 33.0898 52.2812 33.2852L47.582 37.2578Z" fill="#AA4465"/>
</svg>
