<svg width="80" height="80" viewBox="0 0 80 80" fill="none" xmlns="http://www.w3.org/2000/svg">
<path d="M30.7539 34.3047C30.543 34.3047 30.3828 34.25 30.2734 34.1406C30.1719 34.0312 30.1211 33.8633 30.1211 33.6367V31.5391C30.1211 31.3203 30.1719 31.1562 30.2734 31.0469C30.3828 30.9375 30.543 30.8828 30.7539 30.8828H32.8984C33.1016 30.8828 33.2578 30.9375 33.3672 31.0469C33.4844 31.1562 33.543 31.3203 33.543 31.5391V33.6367C33.543 33.8633 33.4844 34.0312 33.3672 34.1406C33.2578 34.25 33.1016 34.3047 32.8984 34.3047H30.7539ZM38.9102 34.3047C38.6992 34.3047 38.5391 34.25 38.4297 34.1406C38.3281 34.0312 38.2773 33.8633 38.2773 33.6367V31.5391C38.2773 31.3203 38.3281 31.1562 38.4297 31.0469C38.5391 30.9375 38.6992 30.8828 38.9102 30.8828H41.0664C41.2695 30.8828 41.4258 30.9375 41.5352 31.0469C41.6445 31.1562 41.6992 31.3203 41.6992 31.5391V33.6367C41.6992 33.8633 41.6445 34.0312 41.5352 34.1406C41.4258 34.25 41.2695 34.3047 41.0664 34.3047H38.9102ZM47.0898 34.3047C46.8789 34.3047 46.7188 34.25 46.6094 34.1406C46.5 34.0312 46.4453 33.8633 46.4453 33.6367V31.5391C46.4453 31.3203 46.5 31.1562 46.6094 31.0469C46.7188 30.9375 46.8789 30.8828 47.0898 30.8828H49.2344C49.4375 30.8828 49.5938 30.9375 49.7031 31.0469C49.8125 31.1562 49.8672 31.3203 49.8672 31.5391V33.6367C49.8672 33.8633 49.8125 34.0312 49.7031 34.1406C49.5938 34.25 49.4375 34.3047 49.2344 34.3047H47.0898ZM30.7539 42.2383C30.543 42.2383 30.3828 42.1836 30.2734 42.0742C30.1719 41.957 30.1211 41.7891 30.1211 41.5703V39.4609C30.1211 39.25 30.1719 39.0898 30.2734 38.9805C30.3828 38.8633 30.543 38.8047 30.7539 38.8047H32.8984C33.1016 38.8047 33.2578 38.8633 33.3672 38.9805C33.4844 39.0898 33.543 39.25 33.543 39.4609V41.5703C33.543 41.7891 33.4844 41.957 33.3672 42.0742C33.2578 42.1836 33.1016 42.2383 32.8984 42.2383H30.7539ZM38.9102 42.2383C38.6992 42.2383 38.5391 42.1836 38.4297 42.0742C38.3281 41.957 38.2773 41.7891 38.2773 41.5703V39.4609C38.2773 39.25 38.3281 39.0898 38.4297 38.9805C38.5391 38.8633 38.6992 38.8047 38.9102 38.8047H41.0664C41.2695 38.8047 41.4258 38.8633 41.5352 38.9805C41.6445 39.0898 41.6992 39.25 41.6992 39.4609V41.5703C41.6992 41.7891 41.6445 41.957 41.5352 42.0742C41.4258 42.1836 41.2695 42.2383 41.0664 42.2383H38.9102ZM47.0898 42.2383C46.8789 42.2383 46.7188 42.1836 46.6094 42.0742C46.5 41.957 46.4453 41.7891 46.4453 41.5703V39.4609C46.4453 39.25 46.5 39.0898 46.6094 38.9805C46.7188 38.8633 46.8789 38.8047 47.0898 38.8047H49.2344C49.4375 38.8047 49.5938 38.8633 49.7031 38.9805C49.8125 39.0898 49.8672 39.25 49.8672 39.4609V41.5703C49.8672 41.7891 49.8125 41.957 49.7031 42.0742C49.5938 42.1836 49.4375 42.2383 49.2344 42.2383H47.0898ZM30.7539 50.1602C30.543 50.1602 30.3828 50.1055 30.2734 49.9961C30.1719 49.8867 30.1211 49.7227 30.1211 49.5039V47.4062C30.1211 47.1797 30.1719 47.0117 30.2734 46.9023C30.3828 46.793 30.543 46.7383 30.7539 46.7383H32.8984C33.1016 46.7383 33.2578 46.793 33.3672 46.9023C33.4844 47.0117 33.543 47.1797 33.543 47.4062V49.5039C33.543 49.7227 33.4844 49.8867 33.3672 49.9961C33.2578 50.1055 33.1016 50.1602 32.8984 50.1602H30.7539ZM38.9102 50.1602C38.6992 50.1602 38.5391 50.1055 38.4297 49.9961C38.3281 49.8867 38.2773 49.7227 38.2773 49.5039V47.4062C38.2773 47.1797 38.3281 47.0117 38.4297 46.9023C38.5391 46.793 38.6992 46.7383 38.9102 46.7383H41.0664C41.2695 46.7383 41.4258 46.793 41.5352 46.9023C41.6445 47.0117 41.6992 47.1797 41.6992 47.4062V49.5039C41.6992 49.7227 41.6445 49.8867 41.5352 49.9961C41.4258 50.1055 41.2695 50.1602 41.0664 50.1602H38.9102ZM47.0898 50.1602C46.8789 50.1602 46.7188 50.1055 46.6094 49.9961C46.5 49.8867 46.4453 49.7227 46.4453 49.5039V47.4062C46.4453 47.1797 46.5 47.0117 46.6094 46.9023C46.7188 46.793 46.8789 46.7383 47.0898 46.7383H49.2344C49.4375 46.7383 49.5938 46.793 49.7031 46.9023C49.8125 47.0117 49.8672 47.1797 49.8672 47.4062V49.5039C49.8672 49.7227 49.8125 49.8867 49.7031 49.9961C49.5938 50.1055 49.4375 50.1602 49.2344 50.1602H47.0898Z" fill="#F5ECF0"/>
<path d="M30.5312 35.9102H33.1211C33.7617 35.9102 34.2578 35.7305 34.6094 35.3711C34.9688 35.0117 35.1484 34.5 35.1484 33.8359V31.3398C35.1484 30.6836 34.9688 30.1758 34.6094 29.8164C34.2578 29.4492 33.7617 29.2656 33.1211 29.2656H30.5312C29.8906 29.2656 29.3906 29.4492 29.0312 29.8164C28.6797 30.1758 28.5039 30.6836 28.5039 31.3398V33.8359C28.5039 34.5 28.6797 35.0117 29.0312 35.3711C29.3906 35.7305 29.8906 35.9102 30.5312 35.9102ZM30.7539 34.3047C30.543 34.3047 30.3828 34.25 30.2734 34.1406C30.1719 34.0312 30.1211 33.8633 30.1211 33.6367V31.5391C30.1211 31.3203 30.1719 31.1562 30.2734 31.0469C30.3828 30.9375 30.543 30.8828 30.7539 30.8828H32.8984C33.1016 30.8828 33.2578 30.9375 33.3672 31.0469C33.4844 31.1562 33.543 31.3203 33.543 31.5391V33.6367C33.543 33.8633 33.4844 34.0312 33.3672 34.1406C33.2578 34.25 33.1016 34.3047 32.8984 34.3047H30.7539ZM38.6875 35.9102H41.2891C41.9297 35.9102 42.4258 35.7305 42.7773 35.3711C43.1289 35.0117 43.3047 34.5 43.3047 33.8359V31.3398C43.3047 30.6836 43.1289 30.1758 42.7773 29.8164C42.4258 29.4492 41.9297 29.2656 41.2891 29.2656H38.6875C38.0469 29.2656 37.5508 29.4492 37.1992 29.8164C36.8477 30.1758 36.6719 30.6836 36.6719 31.3398V33.8359C36.6719 34.5 36.8477 35.0117 37.1992 35.3711C37.5508 35.7305 38.0469 35.9102 38.6875 35.9102ZM38.9102 34.3047C38.6992 34.3047 38.5391 34.25 38.4297 34.1406C38.3281 34.0312 38.2773 33.8633 38.2773 33.6367V31.5391C38.2773 31.3203 38.3281 31.1562 38.4297 31.0469C38.5391 30.9375 38.6992 30.8828 38.9102 30.8828H41.0664C41.2695 30.8828 41.4258 30.9375 41.5352 31.0469C41.6445 31.1562 41.6992 31.3203 41.6992 31.5391V33.6367C41.6992 33.8633 41.6445 34.0312 41.5352 34.1406C41.4258 34.25 41.2695 34.3047 41.0664 34.3047H38.9102ZM46.8672 35.9102H49.457C50.0977 35.9102 50.5938 35.7305 50.9453 35.3711C51.3047 35.0117 51.4844 34.5 51.4844 33.8359V31.3398C51.4844 30.6836 51.3047 30.1758 50.9453 29.8164C50.5938 29.4492 50.0977 29.2656 49.457 29.2656H46.8672C46.2266 29.2656 45.7266 29.4492 45.3672 29.8164C45.0156 30.1758 44.8398 30.6836 44.8398 31.3398V33.8359C44.8398 34.5 45.0156 35.0117 45.3672 35.3711C45.7266 35.7305 46.2266 35.9102 46.8672 35.9102ZM47.0898 34.3047C46.8789 34.3047 46.7188 34.25 46.6094 34.1406C46.5 34.0312 46.4453 33.8633 46.4453 33.6367V31.5391C46.4453 31.3203 46.5 31.1562 46.6094 31.0469C46.7188 30.9375 46.8789 30.8828 47.0898 30.8828H49.2344C49.4375 30.8828 49.5938 30.9375 49.7031 31.0469C49.8125 31.1562 49.8672 31.3203 49.8672 31.5391V33.6367C49.8672 33.8633 49.8125 34.0312 49.7031 34.1406C49.5938 34.25 49.4375 34.3047 49.2344 34.3047H47.0898ZM30.5312 43.8438H33.1211C33.7617 43.8438 34.2578 43.6641 34.6094 43.3047C34.9688 42.9453 35.1484 42.4375 35.1484 41.7812V39.2734C35.1484 38.6094 34.9688 38.0977 34.6094 37.7383C34.2578 37.3789 33.7617 37.1992 33.1211 37.1992H30.5312C29.8906 37.1992 29.3906 37.3789 29.0312 37.7383C28.6797 38.0977 28.5039 38.6094 28.5039 39.2734V41.7812C28.5039 42.4375 28.6797 42.9453 29.0312 43.3047C29.3906 43.6641 29.8906 43.8438 30.5312 43.8438ZM30.7539 42.2383C30.543 42.2383 30.3828 42.1836 30.2734 42.0742C30.1719 41.957 30.1211 41.7891 30.1211 41.5703V39.4609C30.1211 39.25 30.1719 39.0898 30.2734 38.9805C30.3828 38.8633 30.543 38.8047 30.7539 38.8047H32.8984C33.1016 38.8047 33.2578 38.8633 33.3672 38.9805C33.4844 39.0898 33.543 39.25 33.543 39.4609V41.5703C33.543 41.7891 33.4844 41.957 33.3672 42.0742C33.2578 42.1836 33.1016 42.2383 32.8984 42.2383H30.7539ZM38.6875 43.8438H41.2891C41.9297 43.8438 42.4258 43.6641 42.7773 43.3047C43.1289 42.9453 43.3047 42.4375 43.3047 41.7812V39.2734C43.3047 38.6094 43.1289 38.0977 42.7773 37.7383C42.4258 37.3789 41.9297 37.1992 41.2891 37.1992H38.6875C38.0469 37.1992 37.5508 37.3789 37.1992 37.7383C36.8477 38.0977 36.6719 38.6094 36.6719 39.2734V41.7812C36.6719 42.4375 36.8477 42.9453 37.1992 43.3047C37.5508 43.6641 38.0469 43.8438 38.6875 43.8438ZM38.9102 42.2383C38.6992 42.2383 38.5391 42.1836 38.4297 42.0742C38.3281 41.957 38.2773 41.7891 38.2773 41.5703V39.4609C38.2773 39.25 38.3281 39.0898 38.4297 38.9805C38.5391 38.8633 38.6992 38.8047 38.9102 38.8047H41.0664C41.2695 38.8047 41.4258 38.8633 41.5352 38.9805C41.6445 39.0898 41.6992 39.25 41.6992 39.4609V41.5703C41.6992 41.7891 41.6445 41.957 41.5352 42.0742C41.4258 42.1836 41.2695 42.2383 41.0664 42.2383H38.9102ZM46.8672 43.8438H49.457C50.0977 43.8438 50.5938 43.6641 50.9453 43.3047C51.3047 42.9453 51.4844 42.4375 51.4844 41.7812V39.2734C51.4844 38.6094 51.3047 38.0977 50.9453 37.7383C50.5938 37.3789 50.0977 37.1992 49.457 37.1992H46.8672C46.2266 37.1992 45.7266 37.3789 45.3672 37.7383C45.0156 38.0977 44.8398 38.6094 44.8398 39.2734V41.7812C44.8398 42.4375 45.0156 42.9453 45.3672 43.3047C45.7266 43.6641 46.2266 43.8438 46.8672 43.8438ZM47.0898 42.2383C46.8789 42.2383 46.7188 42.1836 46.6094 42.0742C46.5 41.957 46.4453 41.7891 46.4453 41.5703V39.4609C46.4453 39.25 46.5 39.0898 46.6094 38.9805C46.7188 38.8633 46.8789 38.8047 47.0898 38.8047H49.2344C49.4375 38.8047 49.5938 38.8633 49.7031 38.9805C49.8125 39.0898 49.8672 39.25 49.8672 39.4609V41.5703C49.8672 41.7891 49.8125 41.957 49.7031 42.0742C49.5938 42.1836 49.4375 42.2383 49.2344 42.2383H47.0898ZM30.5312 51.7773H33.1211C33.7617 51.7773 34.2578 51.5977 34.6094 51.2383C34.9688 50.8789 35.1484 50.3672 35.1484 49.7031V47.207C35.1484 46.543 34.9688 46.0312 34.6094 45.6719C34.2578 45.3125 33.7617 45.1328 33.1211 45.1328H30.5312C29.8906 45.1328 29.3906 45.3125 29.0312 45.6719C28.6797 46.0312 28.5039 46.543 28.5039 47.207V49.7031C28.5039 50.3672 28.6797 50.8789 29.0312 51.2383C29.3906 51.5977 29.8906 51.7773 30.5312 51.7773ZM30.7539 50.1602C30.543 50.1602 30.3828 50.1055 30.2734 49.9961C30.1719 49.8867 30.1211 49.7227 30.1211 49.5039V47.4062C30.1211 47.1797 30.1719 47.0117 30.2734 46.9023C30.3828 46.793 30.543 46.7383 30.7539 46.7383H32.8984C33.1016 46.7383 33.2578 46.793 33.3672 46.9023C33.4844 47.0117 33.543 47.1797 33.543 47.4062V49.5039C33.543 49.7227 33.4844 49.8867 33.3672 49.9961C33.2578 50.1055 33.1016 50.1602 32.8984 50.1602H30.7539ZM38.6875 51.7773H41.2891C41.9297 51.7773 42.4258 51.5977 42.7773 51.2383C43.1289 50.8789 43.3047 50.3672 43.3047 49.7031V47.207C43.3047 46.543 43.1289 46.0312 42.7773 45.6719C42.4258 45.3125 41.9297 45.1328 41.2891 45.1328H38.6875C38.0469 45.1328 37.5508 45.3125 37.1992 45.6719C36.8477 46.0312 36.6719 46.543 36.6719 47.207V49.7031C36.6719 50.3672 36.8477 50.8789 37.1992 51.2383C37.5508 51.5977 38.0469 51.7773 38.6875 51.7773ZM38.9102 50.1602C38.6992 50.1602 38.5391 50.1055 38.4297 49.9961C38.3281 49.8867 38.2773 49.7227 38.2773 49.5039V47.4062C38.2773 47.1797 38.3281 47.0117 38.4297 46.9023C38.5391 46.793 38.6992 46.7383 38.9102 46.7383H41.0664C41.2695 46.7383 41.4258 46.793 41.5352 46.9023C41.6445 47.0117 41.6992 47.1797 41.6992 47.4062V49.5039C41.6992 49.7227 41.6445 49.8867 41.5352 49.9961C41.4258 50.1055 41.2695 50.1602 41.0664 50.1602H38.9102ZM46.8672 51.7773H49.457C50.0977 51.7773 50.5938 51.5977 50.9453 51.2383C51.3047 50.8789 51.4844 50.3672 51.4844 49.7031V47.207C51.4844 46.543 51.3047 46.0312 50.9453 45.6719C50.5938 45.3125 50.0977 45.1328 49.457 45.1328H46.8672C46.2266 45.1328 45.7266 45.3125 45.3672 45.6719C45.0156 46.0312 44.8398 46.543 44.8398 47.207V49.7031C44.8398 50.3672 45.0156 50.8789 45.3672 51.2383C45.7266 51.5977 46.2266 51.7773 46.8672 51.7773ZM47.0898 50.1602C46.8789 50.1602 46.7188 50.1055 46.6094 49.9961C46.5 49.8867 46.4453 49.7227 46.4453 49.5039V47.4062C46.4453 47.1797 46.5 47.0117 46.6094 46.9023C46.7188 46.793 46.8789 46.7383 47.0898 46.7383H49.2344C49.4375 46.7383 49.5938 46.793 49.7031 46.9023C49.8125 47.0117 49.8672 47.1797 49.8672 47.4062V49.5039C49.8672 49.7227 49.8125 49.8867 49.7031 49.9961C49.5938 50.1055 49.4375 50.1602 49.2344 50.1602H47.0898Z" fill="#AA4465"/>
</svg>
