<svg width="80" height="80" viewBox="0 0 80 80" fill="none" xmlns="http://www.w3.org/2000/svg">
<path fill-rule="evenodd" clip-rule="evenodd" d="M31.8076 29.3934C31.4171 29.0029 30.7839 29.0029 30.3934 29.3934C30.0029 29.7839 30.0029 30.4171 30.3934 30.8076L39.636 40.0503L30.3934 49.2929C30.0029 49.6834 30.0029 50.3166 30.3934 50.7071C30.7839 51.0976 31.4171 51.0976 31.8076 50.7071L41.0503 41.4645L50.1924 50.6066C50.5829 50.9971 51.2161 50.9971 51.6066 50.6066C51.9971 50.2161 51.9971 49.5829 51.6066 49.1924L42.4645 40.0503L51.6066 30.9081C51.9971 30.5176 51.9971 29.8844 51.6066 29.4939C51.2161 29.1034 50.5829 29.1034 50.1924 29.4939L41.0503 38.6361L31.8076 29.3934Z" fill="#AA4465"/>
</svg>
