<svg width="80" height="80" viewBox="0 0 80 80" fill="none" xmlns="http://www.w3.org/2000/svg">
<path d="M32.4531 34.4688L39.5312 30.4961C39.6953 30.4102 39.8477 30.3672 39.9883 30.3672C40.1289 30.3672 40.2812 30.4102 40.4453 30.4961L47.5234 34.4688H32.4531Z" fill="#F5ECF0"/>
<path d="M27.3906 51.8125C27.3906 52.0703 27.4805 52.293 27.6602 52.4805C27.8477 52.668 28.0703 52.7617 28.3281 52.7617H51.6484C51.9062 52.7617 52.1289 52.668 52.3164 52.4805C52.5039 52.293 52.5977 52.0703 52.5977 51.8125C52.5977 51.5547 52.5039 51.332 52.3164 51.1445C52.1289 50.9648 51.9062 50.875 51.6484 50.875H28.3281C28.0703 50.875 27.8477 50.9648 27.6602 51.1445C27.4805 51.332 27.3906 51.5547 27.3906 51.8125ZM29.4414 38.3945C29.4414 38.6289 29.5039 38.8125 29.6289 38.9453C29.7617 39.0781 29.9492 39.1445 30.1914 39.1445H33.1914C33.4336 39.1445 33.6211 39.0781 33.7539 38.9453C33.8867 38.8125 33.9531 38.6289 33.9531 38.3945V38.1133C33.9531 37.8867 33.8867 37.707 33.7539 37.5742C33.6211 37.4414 33.4336 37.375 33.1914 37.375H30.1914C29.9492 37.375 29.7617 37.4414 29.6289 37.5742C29.5039 37.707 29.4414 37.8867 29.4414 38.1133V38.3945ZM30.8125 48.4141H32.582V38.5117H30.8125V48.4141ZM29.4414 49.0938C29.4414 49.3359 29.5039 49.5195 29.6289 49.6445C29.7617 49.7773 29.9492 49.8438 30.1914 49.8438H33.1914C33.4336 49.8438 33.6211 49.7773 33.7539 49.6445C33.8867 49.5195 33.9531 49.3359 33.9531 49.0938V48.8125C33.9531 48.5859 33.8867 48.4062 33.7539 48.2734C33.6211 48.1406 33.4336 48.0742 33.1914 48.0742H30.1914C29.9492 48.0742 29.7617 48.1406 29.6289 48.2734C29.5039 48.4062 29.4414 48.5859 29.4414 48.8125V49.0938ZM35.0078 38.3945C35.0078 38.6289 35.0742 38.8125 35.207 38.9453C35.3398 39.0781 35.5234 39.1445 35.7578 39.1445H38.7695C39.0039 39.1445 39.1875 39.0781 39.3203 38.9453C39.4531 38.8125 39.5195 38.6289 39.5195 38.3945V38.1133C39.5195 37.8867 39.4531 37.707 39.3203 37.5742C39.1875 37.4414 39.0039 37.375 38.7695 37.375H35.7578C35.5234 37.375 35.3398 37.4414 35.207 37.5742C35.0742 37.707 35.0078 37.8867 35.0078 38.1133V38.3945ZM36.3906 48.4141H38.1602V38.5117H36.3906V48.4141ZM35.0078 49.0938C35.0078 49.3359 35.0742 49.5195 35.207 49.6445C35.3398 49.7773 35.5234 49.8438 35.7578 49.8438H38.7695C39.0039 49.8438 39.1875 49.7773 39.3203 49.6445C39.4531 49.5195 39.5195 49.3359 39.5195 49.0938V48.8125C39.5195 48.5859 39.4531 48.4062 39.3203 48.2734C39.1875 48.1406 39.0039 48.0742 38.7695 48.0742H35.7578C35.5234 48.0742 35.3398 48.1406 35.207 48.2734C35.0742 48.4062 35.0078 48.5859 35.0078 48.8125V49.0938ZM40.5859 38.3945C40.5859 38.6289 40.6523 38.8125 40.7852 38.9453C40.918 39.0781 41.1016 39.1445 41.3359 39.1445H44.3477C44.582 39.1445 44.7656 39.0781 44.8984 38.9453C45.0312 38.8125 45.0977 38.6289 45.0977 38.3945V38.1133C45.0977 37.8867 45.0312 37.707 44.8984 37.5742C44.7656 37.4414 44.582 37.375 44.3477 37.375H41.3359C41.1016 37.375 40.918 37.4414 40.7852 37.5742C40.6523 37.707 40.5859 37.8867 40.5859 38.1133V38.3945ZM41.9688 48.4141H43.7383V38.5117H41.9688V48.4141ZM40.5859 49.0938C40.5859 49.3359 40.6523 49.5195 40.7852 49.6445C40.918 49.7773 41.1016 49.8438 41.3359 49.8438H44.3477C44.582 49.8438 44.7656 49.7773 44.8984 49.6445C45.0312 49.5195 45.0977 49.3359 45.0977 49.0938V48.8125C45.0977 48.5859 45.0312 48.4062 44.8984 48.2734C44.7656 48.1406 44.582 48.0742 44.3477 48.0742H41.3359C41.1016 48.0742 40.918 48.1406 40.7852 48.2734C40.6523 48.4062 40.5859 48.5859 40.5859 48.8125V49.0938ZM46.1641 38.3945C46.1641 38.6289 46.2266 38.8125 46.3516 38.9453C46.4844 39.0781 46.6719 39.1445 46.9141 39.1445H49.9141C50.1562 39.1445 50.3398 39.0781 50.4648 38.9453C50.5977 38.8125 50.6641 38.6289 50.6641 38.3945V38.1133C50.6641 37.8867 50.5977 37.707 50.4648 37.5742C50.3398 37.4414 50.1562 37.375 49.9141 37.375H46.9141C46.6719 37.375 46.4844 37.4414 46.3516 37.5742C46.2266 37.707 46.1641 37.8867 46.1641 38.1133V38.3945ZM47.5352 48.4141H49.3047V38.5117H47.5352V48.4141ZM46.1641 49.0938C46.1641 49.3359 46.2266 49.5195 46.3516 49.6445C46.4844 49.7773 46.6719 49.8438 46.9141 49.8438H49.9141C50.1562 49.8438 50.3398 49.7773 50.4648 49.6445C50.5977 49.5195 50.6641 49.3359 50.6641 49.0938V48.8125C50.6641 48.5859 50.5977 48.4062 50.4648 48.2734C50.3398 48.1406 50.1562 48.0742 49.9141 48.0742H46.9141C46.6719 48.0742 46.4844 48.1406 46.3516 48.2734C46.2266 48.4062 46.1641 48.5859 46.1641 48.8125V49.0938ZM28.9375 36.3555H51.0391C51.3672 36.3555 51.6172 36.2578 51.7891 36.0625C51.9688 35.8672 52.0586 35.6484 52.0586 35.4062C52.0586 35.2344 52.0078 35.0742 51.9062 34.9258C51.8125 34.7695 51.6562 34.6289 51.4375 34.5039L41.4297 28.7383C40.9531 28.4648 40.4727 28.3281 39.9883 28.3281C39.5039 28.3281 39.0234 28.4648 38.5469 28.7383L28.5391 34.5039C28.3203 34.6289 28.1602 34.7695 28.0586 34.9258C27.9648 35.0742 27.918 35.2344 27.918 35.4062C27.918 35.6484 28.0039 35.8672 28.1758 36.0625C28.3555 36.2578 28.6094 36.3555 28.9375 36.3555ZM32.4531 34.4688L39.5312 30.4961C39.6953 30.4102 39.8477 30.3672 39.9883 30.3672C40.1289 30.3672 40.2812 30.4102 40.4453 30.4961L47.5234 34.4688H32.4531Z" fill="#AA4465"/>
</svg>
