<svg width="40" height="40" viewBox="0 0 40 40" fill="none" xmlns="http://www.w3.org/2000/svg">
<rect width="40" height="40" fill="white"/>
<path d="M13.2969 21.1562C13.4219 21.1354 13.5469 21.1198 13.6719 21.1094C13.7969 21.0938 13.9245 21.0859 14.0547 21.0859C14.1849 21.0859 14.3151 21.0938 14.4453 21.1094C14.5755 21.1198 14.7057 21.1354 14.8359 21.1562V14.5703C14.8359 14.2109 14.9297 13.9323 15.1172 13.7344C15.3047 13.5365 15.5885 13.4375 15.9688 13.4375H19.2969V17.7188C19.2969 18.276 19.4323 18.6927 19.7031 18.9688C19.9792 19.2448 20.3958 19.3828 20.9531 19.3828H25.1641V26.1641C25.1641 26.5234 25.0703 26.7995 24.8828 26.9922C24.6953 27.1849 24.4115 27.2812 24.0312 27.2812H19.0469C19 27.5573 18.9271 27.8229 18.8281 28.0781C18.7344 28.3385 18.6146 28.5859 18.4688 28.8203H24.1562C24.9948 28.8203 25.6276 28.6016 26.0547 28.1641C26.4818 27.7318 26.6953 27.0964 26.6953 26.2578V19.1719C26.6953 18.8073 26.6745 18.5 26.6328 18.25C26.5911 17.9948 26.5104 17.763 26.3906 17.5547C26.276 17.3411 26.1042 17.1198 25.875 16.8906L21.7812 12.7266C21.5625 12.5026 21.349 12.3333 21.1406 12.2188C20.9323 12.099 20.7057 12.0182 20.4609 11.9766C20.2161 11.9297 19.9297 11.9062 19.6016 11.9062H15.8359C14.9974 11.9062 14.3646 12.125 13.9375 12.5625C13.5104 12.9948 13.2969 13.6302 13.2969 14.4688V21.1562ZM20.6484 17.5703V13.6484L24.9531 18.0312H21.1016C20.9401 18.0312 20.8229 17.9948 20.75 17.9219C20.6823 17.849 20.6484 17.7318 20.6484 17.5703ZM14.0703 30.25C14.612 30.25 15.125 30.1432 15.6094 29.9297C16.099 29.7214 16.5286 29.4323 16.8984 29.0625C17.2734 28.6927 17.5651 28.263 17.7734 27.7734C17.987 27.2891 18.0938 26.7734 18.0938 26.2266C18.0938 25.6745 17.987 25.1562 17.7734 24.6719C17.5651 24.1823 17.276 23.7526 16.9062 23.3828C16.5365 23.013 16.1094 22.724 15.625 22.5156C15.1406 22.3073 14.6224 22.2031 14.0703 22.2031C13.5182 22.2031 13 22.3073 12.5156 22.5156C12.0312 22.724 11.6042 23.0156 11.2344 23.3906C10.8646 23.7604 10.5755 24.1875 10.3672 24.6719C10.1536 25.1562 10.0469 25.6745 10.0469 26.2266C10.0469 26.7786 10.1536 27.2969 10.3672 27.7812C10.5755 28.2656 10.8646 28.6927 11.2344 29.0625C11.6042 29.4375 12.0312 29.7292 12.5156 29.9375C13 30.1458 13.5182 30.25 14.0703 30.25ZM14.0703 28.7734C13.9089 28.7734 13.7786 28.724 13.6797 28.625C13.5859 28.526 13.5391 28.3984 13.5391 28.2422V26.7578H12.0547C11.8984 26.7578 11.7708 26.7083 11.6719 26.6094C11.5729 26.5156 11.5234 26.388 11.5234 26.2266C11.5234 26.0651 11.5729 25.9375 11.6719 25.8438C11.7708 25.7448 11.8984 25.6953 12.0547 25.6953H13.5391V24.2109C13.5391 24.0547 13.5859 23.9271 13.6797 23.8281C13.7786 23.7292 13.9089 23.6797 14.0703 23.6797C14.2318 23.6797 14.3594 23.7292 14.4531 23.8281C14.5521 23.9271 14.6016 24.0547 14.6016 24.2109V25.6953H16.0859C16.2422 25.6953 16.3698 25.7448 16.4688 25.8438C16.5677 25.9375 16.6172 26.0651 16.6172 26.2266C16.6172 26.388 16.5677 26.5156 16.4688 26.6094C16.3698 26.7083 16.2422 26.7578 16.0859 26.7578H14.6016V28.2422C14.6016 28.3984 14.5521 28.526 14.4531 28.625C14.3594 28.724 14.2318 28.7734 14.0703 28.7734Z" fill="#462255"/>
</svg>
