<svg width="36" height="36" viewBox="0 0 36 36" fill="none" xmlns="http://www.w3.org/2000/svg">
<g opacity="0.5" clip-path="url(#clip0_1237_24957)">
<path d="M14.6042 10.9905H17.4675L15.677 20.9851H12.8137L14.6042 10.9905Z" fill="url(#paint0_linear_1237_24957)"/>
<path d="M26.0768 11.3147C25.251 11.0305 24.383 10.8885 23.5097 10.8947C20.6802 10.8947 18.6878 12.2505 18.6701 14.1928C18.6539 15.6282 20.0937 16.4299 21.1798 16.9074C22.2939 17.3966 22.6697 17.709 22.6638 18.1467C22.6564 18.8173 21.7737 19.1223 20.9513 19.1223C20.0251 19.149 19.1046 18.9698 18.256 18.5977L17.8875 18.4385L17.4852 20.6756C18.51 21.0342 19.5886 21.2146 20.6743 21.209C23.685 21.209 25.6391 19.8695 25.6612 17.7945C25.6716 16.6583 24.9097 15.7918 23.2577 15.0785C22.257 14.6158 21.644 14.3078 21.6499 13.8392C21.6499 13.4236 22.1686 12.98 23.2901 12.98C24.0227 12.9639 24.7512 13.0942 25.4328 13.3632L25.6892 13.4781L26.0768 11.3118" fill="url(#paint1_linear_1237_24957)"/>
<path d="M33.4187 11.0775H31.2067C30.9011 11.0363 30.5904 11.0947 30.3205 11.2438C30.0505 11.393 29.8358 11.625 29.708 11.9057L25.455 21.0646H28.4613L29.064 19.563L32.732 19.5674L33.0798 21.0646H35.7368L33.4187 11.0775ZM29.8878 17.519L31.0284 14.7248C31.0122 14.7514 31.2642 14.1457 31.4086 13.7714L31.6017 14.6335L32.2648 17.519H29.8878Z" fill="url(#paint2_linear_1237_24957)"/>
<path d="M10.4263 11.076L7.62336 17.8918L7.32421 16.5065C6.57447 14.6614 5.15914 13.165 3.35852 12.3139L5.92125 21.0543L8.95115 21.0514L13.4592 11.076H10.4263Z" fill="url(#paint3_linear_1237_24957)"/>
<path d="M5.0223 11.0701H0.405253L0.368408 11.2779C1.86378 11.5232 3.27753 12.1269 4.48883 13.0375C5.70013 13.948 6.67297 15.1383 7.3242 16.5066L6.32062 11.9146C6.14673 11.2809 5.64419 11.0922 5.0223 11.0701Z" fill="url(#paint4_linear_1237_24957)"/>
<path d="M3.472 12.6926C3.45557 12.5947 3.41523 12.5023 3.35457 12.4236C3.2939 12.345 3.21478 12.2825 3.12421 12.2417L3.96863 12.6028" fill="url(#paint5_linear_1237_24957)"/>
<g style="mix-blend-mode:saturation">
<rect width="36" height="36" fill="white"/>
</g>
</g>
<defs>
<linearGradient id="paint0_linear_1237_24957" x1="12.301" y1="16.1031" x2="18.4235" y2="16.0491" gradientUnits="userSpaceOnUse">
<stop stop-color="#191E5F"/>
<stop offset="1" stop-color="#142787" stop-opacity="0.818"/>
</linearGradient>
<linearGradient id="paint1_linear_1237_24957" x1="7.94511" y1="16.2324" x2="32.267" y2="16.0177" gradientUnits="userSpaceOnUse">
<stop stop-color="#191E5F"/>
<stop offset="1" stop-color="#142787" stop-opacity="0.818"/>
</linearGradient>
<linearGradient id="paint2_linear_1237_24957" x1="1.8277" y1="16.3347" x2="36.8847" y2="16.0256" gradientUnits="userSpaceOnUse">
<stop stop-color="#191E5F"/>
<stop offset="1" stop-color="#142787" stop-opacity="0.818"/>
</linearGradient>
<linearGradient id="paint3_linear_1237_24957" x1="1.97963" y1="16.1299" x2="30.2038" y2="15.8814" gradientUnits="userSpaceOnUse">
<stop stop-color="#191E5F"/>
<stop offset="1" stop-color="#142787" stop-opacity="0.818"/>
</linearGradient>
<linearGradient id="paint4_linear_1237_24957" x1="1.95923" y1="13.7986" x2="30.1836" y2="13.5495" gradientUnits="userSpaceOnUse">
<stop stop-color="#191E5F"/>
<stop offset="1" stop-color="#142787" stop-opacity="0.818"/>
</linearGradient>
<linearGradient id="paint5_linear_1237_24957" x1="1.80044" y1="12.4709" x2="36.8818" y2="12.1609" gradientUnits="userSpaceOnUse">
<stop stop-color="#191E5F"/>
<stop offset="1" stop-color="#142787" stop-opacity="0.818"/>
</linearGradient>
<clipPath id="clip0_1237_24957">
<rect width="36" height="36" fill="white"/>
</clipPath>
</defs>
</svg>
