<svg width="36" height="36" viewBox="0 0 36 36" fill="none" xmlns="http://www.w3.org/2000/svg">
<path d="M34.4649 31.167V31.2362H34.5297C34.5421 31.2369 34.5544 31.2338 34.5651 31.2274C34.5783 31.1906 34.5739 31.1817 34.5651 31.1758C34.5544 31.1695 34.5421 31.1664 34.5297 31.167H34.4649ZM34.5297 31.1184C34.5575 31.1167 34.585 31.1245 34.6078 31.1405C34.6168 31.1476 34.6239 31.1569 34.6285 31.1674C34.6331 31.1779 34.6351 31.1894 34.6343 31.2009C34.6349 31.2108 34.6332 31.2208 34.6294 31.2299C34.6255 31.2391 34.6197 31.2473 34.6122 31.2539C34.5951 31.2692 34.5732 31.278 34.5503 31.279L34.6358 31.3762H34.5695L34.4899 31.2805H34.4634V31.3762H34.4074V31.1184H34.5297ZM34.512 31.4661C34.5415 31.4664 34.5706 31.4604 34.5975 31.4485C34.6232 31.4376 34.6467 31.4221 34.6668 31.4028C34.6866 31.3828 34.7026 31.3593 34.7139 31.3335C34.7257 31.3071 34.7317 31.2784 34.7316 31.2495C34.7319 31.2206 34.7258 31.1919 34.7139 31.1655C34.7027 31.1396 34.6867 31.1161 34.6668 31.0962C34.6468 31.0767 34.6233 31.0612 34.5975 31.0506C34.5704 31.0396 34.5413 31.034 34.512 31.0344C34.4823 31.0343 34.4528 31.0398 34.4251 31.0506C34.3988 31.0612 34.3748 31.0767 34.3543 31.0962C34.3345 31.1159 34.3189 31.1395 34.3087 31.1655C34.297 31.192 34.291 31.2206 34.291 31.2495C34.291 31.2784 34.297 31.307 34.3087 31.3335C34.3189 31.3595 34.3345 31.3831 34.3543 31.4028C34.3748 31.4223 34.3988 31.4378 34.4251 31.4485C34.4525 31.4604 34.4821 31.4664 34.512 31.4661ZM34.512 30.971C34.5505 30.9708 34.5886 30.9783 34.624 30.9931C34.6579 31.0069 34.6889 31.0269 34.7154 31.052C34.7414 31.0774 34.7624 31.1074 34.7773 31.1405C34.7928 31.1742 34.8003 31.211 34.7994 31.248C34.7995 31.2847 34.7921 31.321 34.7777 31.3547C34.7632 31.3884 34.742 31.4188 34.7154 31.444C34.6887 31.4689 34.6577 31.4889 34.624 31.503C34.5886 31.5178 34.5505 31.5253 34.512 31.5251C34.4359 31.5254 34.3625 31.4964 34.3072 31.444C34.2812 31.4187 34.2602 31.3887 34.2453 31.3556C34.2298 31.3219 34.2222 31.2851 34.2232 31.248C34.2231 31.2114 34.2305 31.1751 34.2449 31.1413C34.2593 31.1076 34.2805 31.0772 34.3072 31.052C34.3333 31.0264 34.3644 31.0064 34.3985 30.9931C34.4347 30.9788 34.4732 30.9713 34.512 30.971ZM8.02255 29.9777C8.02977 29.8097 8.08615 29.6474 8.1847 29.5111C8.28325 29.3749 8.41965 29.2705 8.57697 29.211C8.73429 29.1515 8.90561 29.1395 9.0697 29.1764C9.23378 29.2134 9.38341 29.2977 9.50003 29.4189C9.61665 29.5401 9.69513 29.6928 9.72573 29.8582C9.75634 30.0236 9.73773 30.1944 9.6722 30.3493C9.60668 30.5042 9.49713 30.6364 9.35713 30.7297C9.21713 30.8229 9.05285 30.873 8.88466 30.8737C8.76785 30.8763 8.65178 30.8545 8.54378 30.81C8.43578 30.7654 8.3382 30.6989 8.25719 30.6147C8.17618 30.5305 8.11351 30.4304 8.07312 30.3208C8.03274 30.2112 8.01552 30.0943 8.02255 29.9777ZM10.3215 29.9777V28.5792H9.70403V28.9196C9.59763 28.7851 9.46076 28.6777 9.30472 28.6065C9.14867 28.5353 8.97791 28.5022 8.80655 28.5099C8.4257 28.5231 8.06486 28.6837 7.80011 28.9578C7.53536 29.2319 7.38739 29.5981 7.38739 29.9792C7.38739 30.3603 7.53536 30.7265 7.80011 31.0006C8.06486 31.2747 8.4257 31.4352 8.80655 31.4485C8.97789 31.4561 9.14859 31.4229 9.30462 31.3517C9.46064 31.2805 9.59753 31.1732 9.70403 31.0388V31.3792H10.3215V29.9777ZM31.183 29.9777C31.1902 29.8097 31.2466 29.6474 31.3451 29.5111C31.4437 29.3749 31.5801 29.2705 31.7374 29.211C31.8947 29.1515 32.066 29.1395 32.2301 29.1764C32.3942 29.2134 32.5438 29.2977 32.6605 29.4189C32.7771 29.5401 32.8555 29.6928 32.8862 29.8582C32.9168 30.0236 32.8981 30.1944 32.8326 30.3493C32.7671 30.5042 32.6575 30.6364 32.5175 30.7297C32.3776 30.8229 32.2133 30.873 32.0451 30.8737C31.9283 30.8763 31.8122 30.8545 31.7042 30.81C31.5962 30.7654 31.4986 30.6989 31.4176 30.6147C31.3366 30.5305 31.2739 30.4304 31.2335 30.3208C31.1932 30.2112 31.1759 30.0943 31.183 29.9777ZM33.4819 29.9777V27.4548H32.8644V28.9181C32.7581 28.7836 32.6212 28.6763 32.4651 28.605C32.3091 28.5338 32.1383 28.5007 31.967 28.5085C31.5861 28.5217 31.2253 28.6823 30.9605 28.9564C30.6958 29.2305 30.5478 29.5966 30.5478 29.9777C30.5478 30.3588 30.6958 30.725 30.9605 30.9991C31.2253 31.2732 31.5861 31.4338 31.967 31.447C32.1383 31.4546 32.309 31.4214 32.465 31.3502C32.6211 31.279 32.7579 31.1717 32.8644 31.0373V31.3777H33.4819V29.9777ZM17.9832 29.0537C18.1684 29.0492 18.348 29.118 18.4827 29.2453C18.6174 29.3725 18.6964 29.5479 18.7023 29.7331H17.2287C17.2413 29.5439 17.3271 29.3671 17.468 29.2402C17.6089 29.1134 17.7937 29.0465 17.9832 29.0537ZM17.995 28.5085C17.6247 28.5235 17.2736 28.6773 17.0116 28.9394C16.7496 29.2015 16.5958 29.5527 16.581 29.923C16.5661 30.2933 16.6912 30.6556 16.9314 30.9379C17.1715 31.2201 17.5092 31.4016 17.8771 31.4462C17.9301 31.4495 17.9833 31.4498 18.0364 31.447C18.4592 31.4622 18.8731 31.3229 19.2006 31.055L18.8985 30.604C18.6625 30.7897 18.372 30.8928 18.0718 30.8973C17.869 30.9154 17.6672 30.854 17.5089 30.7262C17.3505 30.5984 17.248 30.414 17.2229 30.212H19.3318L19.3435 29.9777C19.3602 29.7908 19.3376 29.6025 19.2773 29.4247C19.2171 29.247 19.1204 29.0838 18.9935 28.9456C18.8666 28.8073 18.7123 28.697 18.5404 28.6217C18.3685 28.5465 18.1828 28.5079 17.9951 28.5085M25.449 29.9777C25.4562 29.8097 25.5126 29.6474 25.6112 29.5111C25.7097 29.3749 25.8461 29.2705 26.0034 29.211C26.1607 29.1515 26.3321 29.1395 26.4962 29.1764C26.6602 29.2134 26.8099 29.2977 26.9265 29.4189C27.0431 29.5401 27.1216 29.6928 27.1522 29.8582C27.1828 30.0236 27.1642 30.1944 27.0987 30.3493C27.0331 30.5042 26.9236 30.6364 26.7836 30.7297C26.6436 30.8229 26.4793 30.873 26.3111 30.8737C26.1943 30.8763 26.0782 30.8545 25.9702 30.81C25.8622 30.7654 25.7647 30.6989 25.6837 30.6147C25.6026 30.5305 25.54 30.4304 25.4996 30.3208C25.4592 30.2112 25.442 30.0943 25.449 29.9777ZM27.748 29.9777V28.5792H27.1305V28.9196C27.0241 28.7851 26.8872 28.6777 26.7312 28.6065C26.5751 28.5353 26.4044 28.5022 26.233 28.5099C25.8522 28.5231 25.4913 28.6837 25.2266 28.9578C24.9618 29.2319 24.8139 29.5981 24.8139 29.9792C24.8139 30.3603 24.9618 30.7265 25.2266 31.0006C25.4913 31.2747 25.8522 31.4352 26.233 31.4485C26.4043 31.4559 26.575 31.4227 26.731 31.3514C26.887 31.2802 27.0239 31.1731 27.1305 31.0388V31.3792H27.748V29.9777ZM21.9623 29.9777C21.9556 30.1764 21.9906 30.3743 22.065 30.5586C22.1393 30.7429 22.2515 30.9097 22.3942 31.048C22.5369 31.1864 22.707 31.2934 22.8935 31.3621C23.08 31.4308 23.2789 31.4597 23.4772 31.447C23.847 31.4653 24.2106 31.3467 24.4985 31.1139L24.2023 30.6217C23.9878 30.7826 23.7276 30.8708 23.4595 30.8737C23.2293 30.8627 23.0122 30.7634 22.8532 30.5966C22.6942 30.4298 22.6055 30.2082 22.6055 29.9777C22.6055 29.7473 22.6942 29.5256 22.8532 29.3588C23.0122 29.192 23.2293 29.0928 23.4595 29.0817C23.7276 29.0846 23.9878 29.1729 24.2023 29.3337L24.4985 28.8415C24.2109 28.6081 23.8471 28.4894 23.4772 28.5085C23.2789 28.4957 23.08 28.5246 22.8935 28.5933C22.707 28.662 22.5369 28.769 22.3942 28.9074C22.2515 29.0458 22.1393 29.2125 22.065 29.3968C21.9906 29.5812 21.9556 29.7791 21.9623 29.9777ZM29.9216 28.5085C29.7716 28.5036 29.6231 28.5391 29.4914 28.6111C29.3598 28.6832 29.2498 28.7892 29.173 28.9181V28.5777H28.5614V31.3762H29.1789V29.8082C29.1789 29.3455 29.3808 29.0876 29.7846 29.0876C29.9167 29.0858 30.0478 29.1099 30.1707 29.1584L30.3608 28.5851C30.2193 28.5349 30.0703 28.509 29.9202 28.5085M13.3707 28.8017C13.0201 28.5964 12.6185 28.4947 12.2124 28.5085C11.4932 28.5085 11.0305 28.8489 11.0305 29.4045C11.0305 29.8613 11.3753 30.1428 12.0105 30.2297L12.3023 30.271C12.6412 30.3181 12.8004 30.4051 12.8004 30.5642C12.8004 30.7809 12.5749 30.9047 12.1534 30.9047C11.8148 30.9139 11.4827 30.8107 11.2088 30.6114L10.9185 31.0845C11.2795 31.3324 11.7098 31.4593 12.1475 31.447C12.9669 31.447 13.4429 31.0668 13.4429 30.5333C13.4429 30.0411 13.0686 29.7847 12.4511 29.6962L12.1608 29.655C11.8941 29.6196 11.6789 29.568 11.6789 29.3809C11.6789 29.176 11.8808 29.0537 12.2198 29.0537C12.5305 29.0579 12.8352 29.1405 13.1054 29.2939L13.3722 28.8017H13.3707ZM21.336 28.5085C21.1862 28.5039 21.038 28.5395 20.9066 28.6115C20.7752 28.6836 20.6655 28.7894 20.5888 28.9181V28.5777H19.9772V31.3762H20.5947V29.8082C20.5947 29.3455 20.7966 29.0876 21.2004 29.0876C21.3325 29.0858 21.4636 29.1099 21.5865 29.1584L21.7766 28.5851C21.6351 28.5349 21.4861 28.509 21.336 28.5085ZM16.0674 28.5792H15.0579V27.7304H14.4331V28.5792H13.8569V29.1348H14.4331V30.411C14.4331 31.0609 14.688 31.447 15.419 31.447C15.6916 31.4485 15.9591 31.3734 16.1912 31.2304L16.0129 30.7087C15.8465 30.8058 15.6586 30.86 15.4661 30.8664C15.1581 30.8664 15.0564 30.6792 15.0564 30.3977V29.1333H16.0659V28.5777L16.0674 28.5792ZM6.84213 31.3762V29.6196C6.85147 29.4707 6.82895 29.3215 6.77605 29.182C6.72316 29.0424 6.64111 28.9158 6.5354 28.8105C6.42968 28.7052 6.30271 28.6237 6.16298 28.5713C6.02325 28.519 5.87396 28.4971 5.72508 28.507C5.5295 28.4937 5.33393 28.5329 5.15855 28.6205C4.98317 28.708 4.83433 28.8408 4.7274 29.0051C4.62981 28.8457 4.49122 28.7153 4.3261 28.6277C4.16099 28.5401 3.97538 28.4984 3.78866 28.507C3.62603 28.4986 3.464 28.5325 3.31835 28.6053C3.17269 28.6781 3.04838 28.7874 2.9575 28.9226V28.5777H2.34003V31.3762H2.9634V29.8245C2.95058 29.7279 2.95933 29.6297 2.98904 29.5369C3.01875 29.4441 3.06866 29.359 3.13519 29.2879C3.20171 29.2167 3.2832 29.1611 3.37377 29.1252C3.46434 29.0893 3.56175 29.074 3.65897 29.0802C4.06866 29.0802 4.27645 29.344 4.27645 29.8186V31.3762H4.90129V29.8245C4.8895 29.7281 4.89897 29.6303 4.92905 29.5379C4.95913 29.4456 5.00909 29.361 5.0754 29.29C5.14171 29.2191 5.22277 29.1635 5.31286 29.1273C5.40296 29.091 5.4999 29.075 5.59687 29.0802C6.01834 29.0802 6.22024 29.344 6.22024 29.8186V31.3762H6.84213Z" fill="#231F20"/>
<path d="M35.9474 23.3963V22.1805H35.7072L35.4286 23.0161L35.1516 22.1805H34.9099V23.3963H35.0809V22.4796L35.3402 23.271H35.5171L35.7764 22.4782V23.3963H35.9474ZM34.4221 23.3963V22.3883H34.7301V22.1834H33.9446V22.3883H34.2526V23.3963H34.4221Z" fill="#F79410"/>
<path d="M22.5531 23.8281H13.1967V7.255H22.5531V23.8281Z" fill="#FF5F00"/>
<path d="M13.7965 15.5401C13.7982 13.9386 14.1672 12.3588 14.8751 10.9223C15.5831 9.48569 16.6111 8.23063 17.88 7.2536C15.9897 5.78778 13.6641 4.9948 11.272 5.00034C9.87786 4.99026 8.49535 5.25488 7.20345 5.77911C5.91155 6.30333 4.73555 7.07688 3.74261 8.05559C2.74966 9.03431 1.95921 10.199 1.4164 11.4832C0.873581 12.7674 0.589026 14.146 0.578979 15.5401C0.589026 16.9343 0.873581 18.3128 1.4164 19.597C1.95921 20.8812 2.74966 22.046 3.74261 23.0247C4.73555 24.0034 5.91155 24.7769 7.20345 25.3012C8.49535 25.8254 9.87786 26.09 11.272 26.0799C13.6641 26.0855 15.9897 25.2925 17.88 23.8267C16.6108 22.8498 15.5827 21.5948 14.8747 20.1582C14.1667 18.7216 13.7979 17.1417 13.7965 15.5401Z" fill="#EB001B"/>
<path d="M35.1722 15.5401C35.1622 16.9342 34.8776 18.3128 34.3348 19.597C33.792 20.8812 33.0015 22.0459 32.0086 23.0246C31.0156 24.0033 29.8396 24.7769 28.5477 25.3011C27.2558 25.8253 25.8733 26.0899 24.4792 26.0798C22.0867 26.0847 19.7609 25.2919 17.8697 23.8266C19.1404 22.851 20.1697 21.5963 20.878 20.1594C21.5864 18.7226 21.9548 17.142 21.9548 15.5401C21.9548 13.9381 21.5864 12.3576 20.878 10.9207C20.1697 9.48382 19.1404 8.2291 17.8697 7.25353C19.7606 5.78764 22.0866 4.99468 24.4792 5.00027C27.2947 4.98019 30.003 6.07929 32.0083 8.05583C34.0136 10.0324 35.1517 12.7245 35.1722 15.5401Z" fill="#F79E1B"/>
</svg>
