<svg width="14" height="15" viewBox="0 0 14 15" fill="none" xmlns="http://www.w3.org/2000/svg">
<path d="M5.38281 14.3281C5.78906 14.3281 6.10677 14.1589 6.33594 13.8203L13.6797 2.375C13.7578 2.25 13.8151 2.13281 13.8516 2.02344C13.888 1.90885 13.9062 1.79688 13.9062 1.6875C13.9062 1.41667 13.8203 1.19792 13.6484 1.03125C13.4766 0.859375 13.2552 0.773438 12.9844 0.773438C12.7865 0.773438 12.625 0.8125 12.5 0.890625C12.375 0.963542 12.2526 1.09115 12.1328 1.27344L5.35156 12.0469L1.85156 7.55469C1.63281 7.26823 1.36458 7.125 1.04688 7.125C0.770833 7.125 0.541667 7.21354 0.359375 7.39062C0.182292 7.56771 0.09375 7.79167 0.09375 8.0625C0.09375 8.18229 0.114583 8.29948 0.15625 8.41406C0.203125 8.52865 0.276042 8.64583 0.375 8.76562L4.42188 13.8281C4.6875 14.1615 5.00781 14.3281 5.38281 14.3281Z" fill="white"/>
</svg>
