<svg width="40" height="40" viewBox="0 0 40 40" fill="none" xmlns="http://www.w3.org/2000/svg">
<path d="M18.3828 26.7773C18.7891 26.7773 19.1068 26.6081 19.3359 26.2695L26.6797 14.8242C26.7578 14.6992 26.8151 14.582 26.8516 14.4727C26.888 14.3581 26.9062 14.2461 26.9062 14.1367C26.9062 13.8659 26.8203 13.6471 26.6484 13.4805C26.4766 13.3086 26.2552 13.2227 25.9844 13.2227C25.7865 13.2227 25.625 13.2617 25.5 13.3398C25.375 13.4128 25.2526 13.5404 25.1328 13.7227L18.3516 24.4961L14.8516 20.0039C14.6328 19.7174 14.3646 19.5742 14.0469 19.5742C13.7708 19.5742 13.5417 19.6628 13.3594 19.8398C13.1823 20.0169 13.0938 20.2409 13.0938 20.5117C13.0938 20.6315 13.1146 20.7487 13.1562 20.8633C13.2031 20.9779 13.276 21.0951 13.375 21.2148L17.4219 26.2773C17.6875 26.6107 18.0078 26.7773 18.3828 26.7773Z" fill="white"/>
</svg>
