<svg width="50" height="50" viewBox="0 0 50 50" fill="none" xmlns="http://www.w3.org/2000/svg">
<path d="M22.1289 31.7559C21.9271 31.7559 21.7643 31.7005 21.6406 31.5898C21.5169 31.4727 21.4518 31.3164 21.4453 31.1211L21.1523 20.8867C21.1458 20.6979 21.2044 20.5449 21.3281 20.4277C21.4518 20.304 21.6146 20.2422 21.8164 20.2422C22.0182 20.2422 22.181 20.3008 22.3047 20.418C22.4284 20.5352 22.4902 20.6882 22.4902 20.877L22.793 31.1113C22.793 31.3066 22.7311 31.4629 22.6074 31.5801C22.4902 31.6973 22.3307 31.7559 22.1289 31.7559ZM25 31.7559C24.7982 31.7559 24.6322 31.6973 24.502 31.5801C24.3783 31.4629 24.3164 31.3099 24.3164 31.1211V20.8867C24.3164 20.6979 24.3783 20.5449 24.502 20.4277C24.6322 20.304 24.7982 20.2422 25 20.2422C25.2083 20.2422 25.3743 20.304 25.498 20.4277C25.6283 20.5449 25.6934 20.6979 25.6934 20.8867V31.1211C25.6934 31.3099 25.6283 31.4629 25.498 31.5801C25.3743 31.6973 25.2083 31.7559 25 31.7559ZM27.8809 31.7559C27.6725 31.7559 27.5065 31.6973 27.3828 31.5801C27.2656 31.4629 27.2103 31.3066 27.2168 31.1113L27.5098 20.8867C27.5163 20.6914 27.5814 20.5352 27.7051 20.418C27.8288 20.3008 27.9883 20.2422 28.1836 20.2422C28.3919 20.2422 28.5547 20.304 28.6719 20.4277C28.7956 20.5449 28.8542 20.6979 28.8477 20.8867L28.5547 31.1211C28.5482 31.3164 28.4831 31.4727 28.3594 31.5898C28.2357 31.7005 28.0762 31.7559 27.8809 31.7559ZM20.5664 17.5176V15.4082C20.5664 14.6595 20.791 14.0768 21.2402 13.6602C21.696 13.237 22.3275 13.0254 23.1348 13.0254H26.8457C27.653 13.0254 28.2845 13.237 28.7402 13.6602C29.196 14.0768 29.4238 14.6595 29.4238 15.4082V17.5176H27.6172V15.4961C27.6172 15.2487 27.5358 15.0501 27.373 14.9004C27.2103 14.7441 26.9922 14.666 26.7188 14.666H23.2617C22.9948 14.666 22.7799 14.7441 22.6172 14.9004C22.4544 15.0501 22.373 15.2487 22.373 15.4961V17.5176H20.5664ZM16.2402 18.5918C15.9993 18.5918 15.7943 18.5072 15.625 18.3379C15.4557 18.1686 15.3711 17.9635 15.3711 17.7227C15.3711 17.4883 15.4557 17.2897 15.625 17.127C15.7943 16.9577 15.9993 16.873 16.2402 16.873H33.7695C34.0104 16.873 34.2122 16.9544 34.375 17.1172C34.5443 17.2799 34.6289 17.4818 34.6289 17.7227C34.6289 17.9635 34.5443 18.1686 34.375 18.3379C34.2122 18.5072 34.0104 18.5918 33.7695 18.5918H16.2402ZM20.5176 35.0664C19.7624 35.0664 19.1569 34.8548 18.7012 34.4316C18.252 34.0085 18.0111 33.4193 17.9785 32.6641L17.2949 18.4062H19.082L19.7559 32.3613C19.7689 32.6478 19.8633 32.8822 20.0391 33.0645C20.2148 33.2467 20.4395 33.3379 20.7129 33.3379H29.2871C29.5605 33.3379 29.7852 33.2467 29.9609 33.0645C30.1367 32.8887 30.2311 32.6543 30.2441 32.3613L30.8887 18.4062H32.7051L32.0312 32.6543C31.9987 33.4095 31.7546 33.9987 31.2988 34.4219C30.8431 34.8516 30.2409 35.0664 29.4922 35.0664H20.5176Z" fill="white"/>
</svg>
