<svg width="28" height="28" viewBox="0 0 28 28" fill="none" xmlns="http://www.w3.org/2000/svg">
<rect width="28" height="28" rx="2" fill="#AB2237"/>
<path d="M11.4316 19.957H16.8398C17.3398 19.957 17.7363 19.8223 18.0293 19.5527C18.3262 19.2832 18.4844 18.8965 18.5039 18.3926L18.8906 10.0898H19.4414C19.6289 10.0898 19.7852 10.0293 19.9102 9.9082C20.0352 9.78711 20.0977 9.63281 20.0977 9.44531C20.0977 9.25781 20.0332 9.10547 19.9043 8.98828C19.7793 8.86719 19.625 8.80664 19.4414 8.80664H8.83594C8.64844 8.80664 8.49023 8.86719 8.36133 8.98828C8.23633 9.10938 8.17383 9.26172 8.17383 9.44531C8.17383 9.63281 8.23633 9.78711 8.36133 9.9082C8.49023 10.0293 8.64844 10.0898 8.83594 10.0898H9.38672L9.76758 18.3984C9.79102 18.9023 9.94922 19.2871 10.2422 19.5527C10.5352 19.8223 10.9316 19.957 11.4316 19.957ZM11.6074 18.6504C11.4551 18.6504 11.332 18.5996 11.2383 18.498C11.1484 18.3965 11.0996 18.2598 11.0918 18.0879L10.7109 10.0898H17.543L17.1797 18.0879C17.1758 18.2637 17.127 18.4004 17.0332 18.498C16.9395 18.5996 16.8145 18.6504 16.6582 18.6504H11.6074ZM12.4277 17.8008C12.5684 17.8008 12.6816 17.7578 12.7676 17.6719C12.8535 17.5859 12.8945 17.4746 12.8906 17.3379L12.7148 11.4199C12.7148 11.2871 12.6699 11.1797 12.5801 11.0977C12.4941 11.0117 12.3809 10.9688 12.2402 10.9688C12.0996 10.9688 11.9863 11.0117 11.9004 11.0977C11.8184 11.1797 11.7793 11.2891 11.7832 11.4258L11.9531 17.3496C11.957 17.4863 12.002 17.5957 12.0879 17.6777C12.1777 17.7598 12.291 17.8008 12.4277 17.8008ZM14.1387 17.8008C14.2793 17.8008 14.3926 17.7598 14.4785 17.6777C14.5645 17.5957 14.6074 17.4863 14.6074 17.3496V11.4199C14.6074 11.2871 14.5645 11.1797 14.4785 11.0977C14.3926 11.0117 14.2793 10.9688 14.1387 10.9688C13.998 10.9688 13.8828 11.0117 13.793 11.0977C13.707 11.1797 13.6641 11.2871 13.6641 11.4199V17.3496C13.6641 17.4863 13.707 17.5957 13.793 17.6777C13.8828 17.7598 13.998 17.8008 14.1387 17.8008ZM15.8496 17.8008C15.9824 17.8008 16.0918 17.7598 16.1777 17.6777C16.2676 17.5957 16.3145 17.4863 16.3184 17.3496L16.4883 11.4258C16.4922 11.2891 16.4531 11.1797 16.3711 11.0977C16.2891 11.0117 16.1758 10.9688 16.0312 10.9688C15.8906 10.9688 15.7773 11.0117 15.6914 11.0977C15.6055 11.1797 15.5605 11.2891 15.5566 11.4258L15.3809 17.3379C15.377 17.4746 15.418 17.5859 15.5039 17.6719C15.5898 17.7578 15.7051 17.8008 15.8496 17.8008ZM11.3145 9.15234H12.6621V8.00391C12.6621 7.87891 12.7031 7.78125 12.7852 7.71094C12.8672 7.63672 12.9785 7.59961 13.1191 7.59961H15.1465C15.2871 7.59961 15.3984 7.63672 15.4805 7.71094C15.5625 7.78125 15.6035 7.87891 15.6035 8.00391V9.15234H16.9512V7.95703C16.9512 7.46875 16.8027 7.0918 16.5059 6.82617C16.2129 6.56055 15.793 6.42773 15.2461 6.42773H13.0195C12.4727 6.42773 12.0508 6.56055 11.7539 6.82617C11.4609 7.0918 11.3145 7.46875 11.3145 7.95703V9.15234Z" fill="white"/>
</svg>
