<svg width="150" height="150" viewBox="0 0 150 150" fill="none" xmlns="http://www.w3.org/2000/svg">
<path fill-rule="evenodd" clip-rule="evenodd" d="M41.147 32.1683C40.4621 32.2095 39.9329 32.7651 39.9329 33.4616V99.0671C39.9329 99.4598 40.0961 99.8325 40.342 100.084C40.5724 100.32 40.7976 100.384 40.9915 100.371L50.2 99.7618V50.9206C50.2 46.225 53.9913 42.4336 58.687 42.4336C58.7661 42.4336 58.8453 42.4362 58.9242 42.4414L92.6088 44.6688V36.7735C92.6088 36.4352 92.488 36.1726 92.264 35.9545C92.0204 35.7172 91.615 35.5055 91.0758 35.4698L41.147 32.1683ZM41.466 107.546L50.2 106.969V116.526C50.2 120.992 53.8369 125.342 58.9242 125.005L109.009 121.693C113.292 121.41 117.258 118.114 117.258 113.214V104.067C117.258 102.082 115.648 100.472 113.663 100.472C111.677 100.472 110.067 102.082 110.067 104.067V113.214C110.067 113.552 109.946 113.815 109.722 114.033C109.479 114.27 109.073 114.482 108.534 114.518L58.4497 117.83C58.2558 117.843 58.0307 117.779 57.8003 117.543C57.5544 117.291 57.3912 116.919 57.3912 116.526V50.9206C57.3912 50.2241 57.9204 49.6684 58.6052 49.6273L108.534 52.9288C109.073 52.9645 109.479 53.1762 109.722 53.4135C109.946 53.6316 110.067 53.8942 110.067 54.2325V63.3893C110.067 65.3751 111.677 66.9849 113.663 66.9849C115.648 66.9849 117.258 65.3751 117.258 63.3893V54.2325C117.258 49.3329 113.292 46.0365 109.009 45.7533L99.8001 45.1444V36.7735C99.8001 31.8739 95.8335 28.5775 91.5503 28.2943L41.466 24.9824C41.387 24.9772 41.3079 24.9746 41.2287 24.9746C36.5331 24.9746 32.7417 28.766 32.7417 33.4616V99.0671C32.7417 103.533 36.3786 107.883 41.466 107.546ZM121.74 80.7358C123.144 79.3316 123.144 77.055 121.74 75.6508C120.336 74.2466 118.059 74.2466 116.655 75.6508L113.663 78.6434L110.67 75.6508C109.266 74.2466 106.989 74.2466 105.585 75.6508C104.181 77.055 104.181 79.3316 105.585 80.7358L108.578 83.7284L105.585 86.721C104.181 88.1251 104.181 90.4018 105.585 91.8059C106.989 93.2101 109.266 93.2101 110.67 91.8059L113.663 88.8133L116.655 91.8059C118.059 93.2101 120.336 93.2101 121.74 91.8059C123.144 90.4018 123.144 88.1251 121.74 86.721L118.748 83.7284L121.74 80.7358ZM65.3075 67.6318C63.3217 67.6318 61.7119 69.2417 61.7119 71.2275C61.7119 73.2133 63.3217 74.8231 65.3075 74.8231H87.8085C89.7943 74.8231 91.4042 73.2133 91.4042 71.2275C91.4042 69.2417 89.7943 67.6318 87.8085 67.6318H65.3075ZM61.7119 83.7275C61.7119 81.7417 63.3217 80.1318 65.3075 80.1318H87.8085C89.7943 80.1318 91.4042 81.7417 91.4042 83.7275C91.4042 85.7133 89.7943 87.3231 87.8085 87.3231H65.3075C63.3217 87.3231 61.7119 85.7133 61.7119 83.7275ZM65.3075 92.6318C63.3217 92.6318 61.7119 94.2417 61.7119 96.2275C61.7119 98.2133 63.3217 99.8231 65.3075 99.8231H87.8085C89.7943 99.8231 91.4042 98.2133 91.4042 96.2275C91.4042 94.2417 89.7943 92.6318 87.8085 92.6318H65.3075Z" fill="#D09B6B"/>
</svg>
