<svg width="20" height="20" viewBox="0 0 20 20" fill="none" xmlns="http://www.w3.org/2000/svg">
<g clip-path="url(#clip0_70_9016)">
<path d="M3.90479 19.2695C4.10987 19.4336 4.34132 19.4922 4.59913 19.4453C4.85694 19.3984 5.13233 19.2695 5.4253 19.0586L9.99561 15.6924L14.5747 19.0586C14.8677 19.2695 15.1431 19.3984 15.4009 19.4453C15.6587 19.4922 15.8901 19.4336 16.0952 19.2695C16.3003 19.1172 16.4233 18.9121 16.4644 18.6543C16.5112 18.4023 16.4761 18.1035 16.3589 17.7578L14.5483 12.3877L19.1626 9.07422C19.4614 8.86328 19.6694 8.64355 19.7866 8.41504C19.9038 8.18066 19.9214 7.94043 19.8394 7.69434C19.7573 7.4541 19.6021 7.27539 19.3735 7.1582C19.145 7.03516 18.8462 6.97656 18.4771 6.98242L12.8257 7.01758L11.103 1.62109C10.9917 1.26953 10.8423 1.00293 10.6548 0.821289C10.4732 0.633789 10.2534 0.540039 9.99561 0.540039C9.74366 0.540039 9.52393 0.633789 9.33643 0.821289C9.15479 1.00293 9.00831 1.26953 8.89698 1.62109L7.17432 7.01758L1.52296 6.98242C1.15382 6.97656 0.854988 7.03516 0.626472 7.1582C0.397956 7.27539 0.242683 7.4541 0.160652 7.69434C0.0786205 7.94043 0.0961986 8.18066 0.213386 8.41504C0.330574 8.64355 0.538581 8.86328 0.837409 9.07422L5.45167 12.3877L3.64112 17.7578C3.52393 18.1035 3.48585 18.4023 3.52686 18.6543C3.57374 18.9121 3.69971 19.1172 3.90479 19.2695Z" fill="#19A2C0"/>
</g>
<defs>
<clipPath id="clip0_70_9016">
<rect width="20" height="20" fill="white"/>
</clipPath>
</defs>
</svg>
