<svg width="80" height="109" viewBox="0 0 80 109" fill="none" xmlns="http://www.w3.org/2000/svg">
<path d="M64.3273 67.6496C63.7889 86.3264 59.8853 100.427 42.5882 108.368C41.795 108.726 40.9344 108.91 40.0643 108.907C39.2047 108.913 38.3542 108.729 37.5741 108.368C20.2434 100.427 16.508 86.1918 15.8013 67.6496C15.7638 66.5169 16.1672 65.4138 16.9268 64.5727C17.6863 63.7316 18.7426 63.2181 19.8732 63.1402C25.7663 63.0171 31.5006 61.2069 36.3963 57.9242C37.4428 57.1636 38.7033 56.7539 39.997 56.7539C41.2908 56.7539 42.5513 57.1636 43.5978 57.9242C48.5318 61.2315 54.3163 63.0428 60.2555 63.1402C61.3861 63.2181 62.4424 63.7316 63.2019 64.5727C63.9614 65.4138 64.3649 66.5169 64.3273 67.6496ZM48.2081 76.3318C47.7349 75.8591 47.0934 75.5936 46.4245 75.5936C45.7557 75.5936 45.1142 75.8591 44.641 76.3318L38.3481 82.49L35.4877 79.6969C35.0144 79.2243 34.373 78.9588 33.7041 78.9588C33.0353 78.9588 32.3938 79.2243 31.9206 79.6969C31.4479 80.1702 31.1825 80.8117 31.1825 81.4805C31.1825 82.1493 31.4479 82.7908 31.9206 83.264L36.6991 87.8407C37.1813 88.2958 37.8197 88.5487 38.4827 88.5474C38.8066 88.5508 39.1279 88.4901 39.4282 88.3688C39.7285 88.2475 40.0019 88.068 40.2326 87.8407L48.309 79.8989C48.7685 79.4124 49.016 78.7633 48.9971 78.0944C48.9782 77.4255 48.6944 76.7915 48.2081 76.3318Z" fill="#19A2C0"/>
<path d="M7.25375 25.6185V28.4116C8.08356 28.2355 8.92933 28.1452 9.77764 28.1424H25.594C27.7527 28.1403 29.8625 28.7849 31.6514 29.9933L38.9875 34.8728H70.351C71.1993 34.8756 72.0451 34.9658 72.8749 35.142V25.6185C72.8749 23.1641 71.8999 20.8103 70.1644 19.0748C68.4289 17.3393 66.075 16.3643 63.6207 16.3643H16.508C14.0536 16.3643 11.6998 17.3393 9.96426 19.0748C8.22875 20.8103 7.25375 23.1641 7.25375 25.6185Z" fill="#013145"/>
<path d="M37.7087 39.9206H70.351C72.8054 39.9206 75.1593 40.8956 76.8948 42.6311C78.6303 44.3666 79.6053 46.7205 79.6053 49.1748V79.4615C79.6053 81.9159 78.6303 84.2698 76.8948 86.0053C75.1593 87.7408 72.8054 88.7158 70.351 88.7158H66.2455C68.2188 81.9133 69.227 74.8673 69.2405 67.7843C69.3051 65.3155 68.4012 62.9194 66.7221 61.1083C65.0431 59.2972 62.7221 58.2148 60.2555 58.0926C55.4448 57.9659 50.7675 56.4846 46.7611 53.8188C44.8512 52.4391 42.555 51.6965 40.1989 51.6965C37.8429 51.6965 35.5467 52.4391 33.6368 53.8188C29.5535 56.5333 24.7759 58.0168 19.8732 58.0926C17.3828 58.1805 15.0277 59.2479 13.3199 61.0627C11.6122 62.8776 10.6899 65.2932 10.7535 67.7843C10.7671 74.8673 11.7752 81.9133 13.7486 88.7158H9.77764C7.32325 88.7158 4.96939 87.7408 3.23388 86.0053C1.49837 84.2698 0.523369 81.9159 0.523369 79.4615V42.4445C0.523369 39.9901 1.49837 37.6362 3.23388 35.9007C4.96939 34.1652 7.32325 33.1902 9.77764 33.1902H25.4931C26.687 33.1728 27.8589 33.5127 28.8583 34.1661L37.2376 39.9206C37.3932 39.9506 37.5531 39.9506 37.7087 39.9206Z" fill="#013145"/>
</svg>
