<svg width="18" height="22" viewBox="0 0 18 22" fill="none" xmlns="http://www.w3.org/2000/svg">
<path d="M0.621094 18.332C0.621094 19.3867 0.888021 20.181 1.42188 20.7148C1.95573 21.2552 2.74674 21.5254 3.79492 21.5254H14.1953C15.2435 21.5254 16.0345 21.2552 16.5684 20.7148C17.1022 20.1745 17.3691 19.3802 17.3691 18.332V7.60938C17.3691 7.08854 17.304 6.6556 17.1738 6.31055C17.0501 5.96549 16.8385 5.63997 16.5391 5.33398L12.4961 1.30078C12.1836 0.981771 11.8418 0.750651 11.4707 0.607422C11.1061 0.464193 10.6699 0.392578 10.1621 0.392578H3.79492C2.74674 0.392578 1.95573 0.666016 1.42188 1.21289C0.888021 1.75326 0.621094 2.54753 0.621094 3.5957V18.332ZM2.54492 18.2051V3.71289C2.54492 3.27018 2.66211 2.92513 2.89648 2.67773C3.13086 2.43034 3.48568 2.30664 3.96094 2.30664H10.123C10.709 2.30664 11.194 2.50846 11.5781 2.91211L14.9863 6.34961C15.1556 6.51888 15.276 6.70443 15.3477 6.90625C15.4193 7.10807 15.4551 7.36523 15.4551 7.67773V18.2051C15.4551 18.6608 15.3379 19.0091 15.1035 19.25C14.8691 19.4909 14.5143 19.6113 14.0391 19.6113H3.95117C3.48242 19.6113 3.13086 19.4909 2.89648 19.25C2.66211 19.0091 2.54492 18.6608 2.54492 18.2051ZM4.40039 16.7012C4.40039 17.1178 4.52083 17.4466 4.76172 17.6875C5.0026 17.9284 5.32812 18.0488 5.73828 18.0488H6.94922V13.4199C6.94922 13.3092 6.89062 13.2539 6.77344 13.2539H4.40039V16.7012ZM4.40039 12.0527H7.49609C7.69792 12.0527 7.85742 12.1113 7.97461 12.2285C8.0918 12.3457 8.15039 12.5052 8.15039 12.707V18.0488H9.95703V9.42578H5.73828C5.32812 9.42578 5.0026 9.54622 4.76172 9.78711C4.52083 10.028 4.40039 10.3568 4.40039 10.7734V12.0527ZM11.1582 18.0488H12.291C12.6947 18.0488 13.0169 17.9284 13.2578 17.6875C13.4987 17.4466 13.6191 17.1178 13.6191 16.7012V10.7734C13.6191 10.3568 13.4987 10.028 13.2578 9.78711C13.0169 9.54622 12.6947 9.42578 12.291 9.42578H11.1582V18.0488Z" fill="#E4E7EE"/>
</svg>
