<svg width="24" height="20" viewBox="0 0 24 20" fill="none" xmlns="http://www.w3.org/2000/svg">
<path d="M3.21112 19.6641H18.9631C19.9006 19.6641 20.6265 19.3939 21.1408 18.8535C21.6616 18.3197 21.9221 17.5319 21.9221 16.4902V8.63867C21.6421 8.75586 21.3491 8.84049 21.0432 8.89258C20.7437 8.94466 20.4377 8.96419 20.1252 8.95117V16.4316C20.1252 16.9004 20.0015 17.2552 19.7541 17.4961C19.5132 17.7305 19.1682 17.8477 18.7189 17.8477H3.21112C2.75539 17.8477 2.40708 17.7305 2.1662 17.4961C1.92531 17.2552 1.80487 16.8971 1.80487 16.4219V5.75781C1.80487 5.28906 1.92531 4.9375 2.1662 4.70312C2.40708 4.46224 2.75539 4.3418 3.21112 4.3418H15.4963C15.4702 4.0293 15.4833 3.72005 15.5353 3.41406C15.5874 3.10156 15.6688 2.80534 15.7795 2.52539H2.96698C2.02948 2.52539 1.30031 2.79557 0.77948 3.33594C0.265157 3.86979 0.00799561 4.6543 0.00799561 5.68945V16.4902C0.00799561 17.5319 0.278178 18.3197 0.818542 18.8535C1.35891 19.3939 2.15643 19.6641 3.21112 19.6641ZM10.9846 13.7559C11.3491 13.7559 11.704 13.6777 12.049 13.5215C12.3941 13.3587 12.7424 13.1048 13.0939 12.7598L17.6935 8.23828C17.4592 8.08854 17.2378 7.91927 17.0295 7.73047C16.8277 7.54167 16.6454 7.33659 16.4826 7.11523L12.0978 11.4414C11.8895 11.6432 11.6942 11.7897 11.5119 11.8809C11.3361 11.972 11.1603 12.0176 10.9846 12.0176C10.7958 12.0176 10.6102 11.972 10.4279 11.8809C10.2521 11.7897 10.0633 11.6432 9.86151 11.4414L2.15643 3.82422L0.994324 5.01562L8.86542 12.7598C9.21047 13.1048 9.55878 13.3587 9.91034 13.5215C10.2619 13.6777 10.62 13.7559 10.9846 13.7559ZM19.7736 18.3164L20.9553 17.1348L14.1584 10.4062L12.9865 11.5879L19.7736 18.3164ZM2.30292 18.1992L8.79706 11.7539L7.62518 10.582L1.12128 17.0273L2.30292 18.1992ZM20.2326 7.59375C20.8381 7.59375 21.3947 7.44076 21.9025 7.13477C22.4168 6.82878 22.827 6.41862 23.133 5.9043C23.439 5.38997 23.592 4.82682 23.592 4.21484C23.592 3.59635 23.439 3.0332 23.133 2.52539C22.827 2.01107 22.4168 1.60091 21.9025 1.29492C21.3947 0.988932 20.8381 0.835938 20.2326 0.835938C19.6076 0.835938 19.0412 0.988932 18.5334 1.29492C18.0256 1.60091 17.6187 2.01107 17.3127 2.52539C17.0067 3.0332 16.8537 3.59635 16.8537 4.21484C16.8537 4.82682 17.0067 5.38997 17.3127 5.9043C17.6187 6.41862 18.0256 6.82878 18.5334 7.13477C19.0412 7.44076 19.6076 7.59375 20.2326 7.59375Z" fill="#AA4465"/>
</svg>
