<svg width="22" height="18" viewBox="0 0 22 18" fill="none" xmlns="http://www.w3.org/2000/svg">
<path d="M3.24609 17.5693H18.998C19.9355 17.5693 20.6615 17.2992 21.1758 16.7588C21.6966 16.2249 21.957 15.4372 21.957 14.3955V3.59473C21.957 2.55957 21.6868 1.77507 21.1465 1.24121C20.6061 0.700846 19.8086 0.430664 18.7539 0.430664H3.00195C2.06445 0.430664 1.33529 0.700846 0.814453 1.24121C0.30013 1.77507 0.0429688 2.55957 0.0429688 3.59473V14.3955C0.0429688 15.4372 0.313151 16.2249 0.853516 16.7588C1.39388 17.2992 2.19141 17.5693 3.24609 17.5693ZM3.24609 15.7529C2.79036 15.7529 2.44206 15.6357 2.20117 15.4014C1.96029 15.1605 1.83984 14.8024 1.83984 14.3271V3.66309C1.83984 3.19434 1.96029 2.84277 2.20117 2.6084C2.44206 2.36751 2.79036 2.24707 3.24609 2.24707H18.7539C19.2031 2.24707 19.5482 2.36751 19.7891 2.6084C20.0365 2.84277 20.1602 3.19759 20.1602 3.67285V14.3369C20.1602 14.8057 20.0365 15.1605 19.7891 15.4014C19.5482 15.6357 19.2031 15.7529 18.7539 15.7529H3.24609ZM11.0195 11.6611C11.3841 11.6611 11.7389 11.583 12.084 11.4268C12.429 11.264 12.7773 11.0101 13.1289 10.665L20.9902 2.94043L19.8184 1.75879L12.1328 9.34668C11.9245 9.5485 11.7292 9.69499 11.5469 9.78613C11.3711 9.87728 11.1953 9.92285 11.0195 9.92285C10.8307 9.92285 10.6452 9.87728 10.4629 9.78613C10.2871 9.68848 10.0983 9.54199 9.89648 9.34668L2.18164 1.71973L1 2.90137L8.90039 10.665C9.24544 11.0101 9.59375 11.264 9.94531 11.4268C10.2969 11.583 10.6549 11.6611 11.0195 11.6611ZM19.6914 16.0947L20.8633 14.9131L14.6328 8.74121L13.4512 9.91309L19.6914 16.0947ZM1.15625 14.9229L2.32812 16.1045L8.57812 9.91309L7.39648 8.74121L1.15625 14.9229Z" fill="#150A1A"/>
</svg>
