<svg width="18" height="19" viewBox="0 0 18 19" fill="none" xmlns="http://www.w3.org/2000/svg">
<path d="M5.78906 3.59375C5.78906 4.10417 5.89062 4.57812 6.09375 5.01562C6.29688 5.44792 6.57812 5.82292 6.9375 6.14062C7.29688 6.45312 7.70573 6.67969 8.16406 6.82031V11.6953C8.16406 12.1484 8.19792 12.5703 8.26562 12.9609C8.33333 13.3516 8.41667 13.6953 8.51562 13.9922C8.61458 14.2839 8.71875 14.5104 8.82812 14.6719C8.94271 14.8333 9.04948 14.9141 9.14844 14.9141C9.24219 14.9141 9.34375 14.8333 9.45312 14.6719C9.56771 14.5104 9.67448 14.2839 9.77344 13.9922C9.8776 13.6953 9.96094 13.3516 10.0234 12.9609C10.0911 12.5703 10.125 12.1484 10.125 11.6953V6.82031C10.5833 6.6849 10.9922 6.46094 11.3516 6.14844C11.7109 5.83073 11.9948 5.45312 12.2031 5.01562C12.4115 4.57812 12.5156 4.10417 12.5156 3.59375C12.5156 2.97396 12.3646 2.40885 12.0625 1.89844C11.7604 1.38802 11.3542 0.981771 10.8438 0.679688C10.3385 0.372396 9.77344 0.21875 9.14844 0.21875C8.52865 0.21875 7.96354 0.372396 7.45312 0.679688C6.94271 0.981771 6.53646 1.38802 6.23438 1.89844C5.9375 2.40885 5.78906 2.97396 5.78906 3.59375ZM8.20312 3.78906C7.90104 3.78906 7.63281 3.67448 7.39844 3.44531C7.16927 3.21094 7.05469 2.9401 7.05469 2.63281C7.05469 2.32031 7.16927 2.05208 7.39844 1.82812C7.63281 1.59896 7.90104 1.48438 8.20312 1.48438C8.52083 1.48438 8.79167 1.59896 9.01562 1.82812C9.24479 2.05208 9.35938 2.32031 9.35938 2.63281C9.35938 2.9401 9.24479 3.21094 9.01562 3.44531C8.79167 3.67448 8.52083 3.78906 8.20312 3.78906ZM9.14062 18.3281C10.4792 18.3281 11.6849 18.2266 12.7578 18.0234C13.8359 17.8203 14.7552 17.5365 15.5156 17.1719C16.2812 16.8125 16.8646 16.3932 17.2656 15.9141C17.6719 15.4349 17.875 14.9141 17.875 14.3516C17.875 13.9193 17.7578 13.5156 17.5234 13.1406C17.2943 12.7656 16.974 12.4245 16.5625 12.1172C16.1562 11.8099 15.6823 11.5417 15.1406 11.3125C14.6042 11.0781 14.0286 10.888 13.4141 10.7422C12.7995 10.5964 12.1719 10.5026 11.5312 10.4609V12.2344C12.0573 12.276 12.5703 12.3542 13.0703 12.4688C13.5755 12.5833 14.0312 12.7292 14.4375 12.9062C14.8438 13.0833 15.1667 13.2865 15.4062 13.5156C15.651 13.7396 15.7734 13.9844 15.7734 14.25C15.7734 14.5885 15.6094 14.8932 15.2812 15.1641C14.9531 15.4401 14.4922 15.6771 13.8984 15.875C13.3099 16.0729 12.6094 16.2266 11.7969 16.3359C10.9896 16.4453 10.1042 16.5 9.14062 16.5C8.17188 16.5 7.28125 16.4453 6.46875 16.3359C5.66146 16.2266 4.96094 16.0729 4.36719 15.875C3.77344 15.6823 3.3125 15.4479 2.98438 15.1719C2.66146 14.8958 2.5 14.5885 2.5 14.25C2.5 13.9844 2.61979 13.7396 2.85938 13.5156C3.10417 13.2865 3.42969 13.0833 3.83594 12.9062C4.24219 12.7292 4.69792 12.5833 5.20312 12.4688C5.70833 12.3542 6.22135 12.276 6.74219 12.2344V10.4609C6.10156 10.5026 5.47396 10.5964 4.85938 10.7422C4.24479 10.888 3.66927 11.0781 3.13281 11.3125C2.59635 11.5417 2.1224 11.8099 1.71094 12.1172C1.30469 12.4245 0.984375 12.7656 0.75 13.1406C0.515625 13.5156 0.398438 13.9193 0.398438 14.3516C0.398438 14.9141 0.601562 15.4349 1.00781 15.9141C1.41406 16.3932 1.9974 16.8125 2.75781 17.1719C3.51823 17.5365 4.4349 17.8203 5.50781 18.0234C6.58594 18.2266 7.79688 18.3281 9.14062 18.3281Z" fill="#AA4465"/>
</svg>
