<svg width="40" height="40" viewBox="0 0 40 40" fill="none" xmlns="http://www.w3.org/2000/svg">
<path d="M25.5371 19.7637C25.5371 19.9473 25.4668 20.1074 25.3262 20.2441L21.4648 24.0996C21.3281 24.2324 21.1738 24.2988 21.002 24.2988C20.8223 24.2988 20.6719 24.2402 20.5508 24.123C20.4297 24.0059 20.3691 23.8594 20.3691 23.6836C20.3691 23.5938 20.3867 23.5098 20.4219 23.4316C20.457 23.3535 20.5039 23.2852 20.5625 23.2266L21.875 21.9023L24.0547 19.9102L24.2656 20.2852L22.2324 20.4023H15.1133C14.918 20.4023 14.7617 20.3438 14.6445 20.2266C14.5234 20.1055 14.4629 19.9512 14.4629 19.7637C14.4629 19.5723 14.5234 19.418 14.6445 19.3008C14.7617 19.1797 14.918 19.1191 15.1133 19.1191H22.2324L24.2656 19.2422L24.0547 19.623L21.875 17.625L20.5625 16.2949C20.5039 16.2363 20.457 16.1699 20.4219 16.0957C20.3867 16.0176 20.3691 15.9316 20.3691 15.8379C20.3691 15.6621 20.4297 15.5156 20.5508 15.3984C20.6719 15.2812 20.8223 15.2227 21.002 15.2227C21.0879 15.2227 21.1699 15.2402 21.248 15.2754C21.3262 15.3105 21.4004 15.3633 21.4707 15.4336L25.3262 19.2832C25.4668 19.4199 25.5371 19.5801 25.5371 19.7637Z" fill="#49444F"/>
</svg>
