<svg width="20" height="20" viewBox="0 0 20 20" fill="none" xmlns="http://www.w3.org/2000/svg">
<g clip-path="url(#clip0_3329_67929)">
<path d="M10 20C11.3763 20 12.6673 19.738 13.8731 19.214C15.0789 18.6963 16.1395 17.9766 17.0549 17.0549C17.9766 16.1395 18.6995 15.0789 19.2235 13.8731C19.7475 12.6673 20.0095 11.3763 20.0095 10C20.0095 8.63005 19.7475 7.34217 19.2235 6.13636C18.6995 4.93056 17.9766 3.86679 17.0549 2.94508C16.1395 2.02336 15.0758 1.30366 13.8636 0.785985C12.6578 0.261995 11.3699 0 10 0C8.63005 0 7.33902 0.261995 6.12689 0.785985C4.92109 1.30366 3.85732 2.02336 2.93561 2.94508C2.0202 3.86679 1.30051 4.93056 0.776515 6.13636C0.258838 7.34217 0 8.63005 0 10C0 11.3763 0.258838 12.6673 0.776515 13.8731C1.30051 15.0789 2.02336 16.1395 2.94508 17.0549C3.86679 17.9766 4.93056 18.6963 6.13636 19.214C7.34217 19.738 8.63005 20 10 20ZM10 18.0966C9.3245 18.0966 8.63005 18.0019 7.91667 17.8125C7.2096 17.6294 6.53409 17.3611 5.89015 17.0076C5.25253 16.654 4.70013 16.2247 4.23295 15.7197C4.63068 15.1641 5.11679 14.6938 5.69129 14.3087C6.26578 13.9173 6.91604 13.6237 7.64205 13.428C8.37437 13.226 9.16035 13.125 10 13.125C10.8396 13.125 11.6193 13.2229 12.339 13.4186C13.065 13.6143 13.7184 13.9047 14.2992 14.2898C14.8864 14.6749 15.3756 15.1515 15.767 15.7197C15.3062 16.2247 14.7538 16.654 14.1098 17.0076C13.4722 17.3611 12.7967 17.6294 12.0833 17.8125C11.3699 18.0019 10.6755 18.0966 10 18.0966ZM10 11.4394C9.36237 11.4394 8.78788 11.2753 8.27652 10.947C7.77146 10.6187 7.37058 10.1768 7.07386 9.62121C6.77715 9.06566 6.62879 8.44381 6.62879 7.75568C6.62879 7.10543 6.77715 6.50568 7.07386 5.95644C7.37689 5.4072 7.78409 4.96843 8.29545 4.64015C8.80682 4.30556 9.375 4.13826 10 4.13826C10.6313 4.13826 11.1995 4.30556 11.7045 4.64015C12.2159 4.96843 12.6231 5.4072 12.9261 5.95644C13.2292 6.50568 13.3807 7.10543 13.3807 7.75568C13.3807 8.44381 13.2292 9.06881 12.9261 9.63068C12.6294 10.1862 12.2254 10.6282 11.714 10.9564C11.209 11.2847 10.6376 11.4457 10 11.4394Z" fill="white"/>
</g>
<defs>
<clipPath id="clip0_3329_67929">
<rect width="20" height="20" fill="white"/>
</clipPath>
</defs>
</svg>
