<svg width="40" height="40" viewBox="0 0 40 40" fill="none" xmlns="http://www.w3.org/2000/svg">
<path d="M14.3457 24.8457C14.6191 24.8457 14.8496 24.75 15.0371 24.5586C15.2285 24.3711 15.3242 24.1426 15.3242 23.873V16.1328C15.3242 15.8594 15.2285 15.6289 15.0371 15.4414C14.8496 15.25 14.6191 15.1543 14.3457 15.1543C14.0801 15.1543 13.8516 15.25 13.6602 15.4414C13.4688 15.6289 13.373 15.8594 13.373 16.1328V23.873C13.373 24.1426 13.4688 24.3711 13.6602 24.5586C13.8516 24.75 14.0801 24.8457 14.3457 24.8457ZM20.1289 24.8457C20.4219 24.8457 20.6602 24.752 20.8438 24.5645C21.0273 24.3809 21.1191 24.1523 21.1191 23.8789C21.1191 23.7227 21.0859 23.584 21.0195 23.4629C20.957 23.3418 20.8789 23.2363 20.7852 23.1465L19.4727 21.8398L17.6914 20.3516L17.252 20.9199L19.7012 21.0254H25.5547C25.8789 21.0254 26.1387 20.9316 26.334 20.7441C26.5293 20.5566 26.627 20.3086 26.627 20C26.627 19.6953 26.5293 19.4492 26.334 19.2617C26.1387 19.0742 25.8789 18.9805 25.5547 18.9805H19.7012L17.252 19.0859L17.6914 19.6602L19.4727 18.166L20.7852 16.8594C20.8789 16.7656 20.957 16.6602 21.0195 16.543C21.0859 16.4219 21.1191 16.2812 21.1191 16.1211C21.1191 15.8477 21.0273 15.6191 20.8438 15.4355C20.6602 15.248 20.4219 15.1543 20.1289 15.1543C19.8555 15.1543 19.6133 15.2598 19.4023 15.4707L15.623 19.25C15.5293 19.3398 15.4551 19.4551 15.4004 19.5957C15.3496 19.7324 15.3242 19.8672 15.3242 20C15.3242 20.1367 15.3496 20.2734 15.4004 20.4102C15.4551 20.5469 15.5293 20.6621 15.623 20.7559L19.4023 24.5234C19.6133 24.7383 19.8555 24.8457 20.1289 24.8457Z" fill="black"/>
</svg>
