<svg width="40" height="40" viewBox="0 0 40 40" fill="none" xmlns="http://www.w3.org/2000/svg">
<path d="M25.5635 24.5381C25.3799 24.5381 25.2295 24.4795 25.1123 24.3623C24.9912 24.2451 24.9307 24.0986 24.9307 23.9229V16.0889C24.9307 15.9092 24.9912 15.7607 25.1123 15.6436C25.2295 15.5225 25.3799 15.4619 25.5635 15.4619C25.7471 15.4619 25.8994 15.5225 26.0205 15.6436C26.1377 15.7607 26.1963 15.9092 26.1963 16.0889V23.9229C26.1963 24.0986 26.1377 24.2451 26.0205 24.3623C25.8994 24.4795 25.7471 24.5381 25.5635 24.5381ZM20.3955 24.5381C20.2158 24.5381 20.0674 24.4795 19.9502 24.3623C19.8291 24.2451 19.7686 24.0986 19.7686 23.9229C19.7686 23.833 19.7861 23.749 19.8213 23.6709C19.8564 23.5928 19.9014 23.5244 19.9561 23.4658L21.2686 22.1357L23.4482 20.1904L23.6416 20.5713L21.7256 20.6475H14.4541C14.2627 20.6475 14.1064 20.5869 13.9854 20.4658C13.8643 20.3447 13.8037 20.1885 13.8037 19.9971C13.8037 19.8096 13.8643 19.6572 13.9854 19.54C14.1064 19.4189 14.2627 19.3584 14.4541 19.3584H21.7256L23.6416 19.4346L23.4482 19.8154L21.2686 17.8584L19.9561 16.5342C19.9014 16.4795 19.8564 16.4131 19.8213 16.335C19.7861 16.2529 19.7686 16.167 19.7686 16.0771C19.7686 15.9014 19.8291 15.7549 19.9502 15.6377C20.0674 15.5205 20.2158 15.4619 20.3955 15.4619C20.5674 15.4619 20.7217 15.5283 20.8584 15.6611L24.7256 19.5225C24.792 19.5889 24.8447 19.6631 24.8838 19.7451C24.9189 19.8271 24.9365 19.9111 24.9365 19.9971C24.9365 20.0869 24.9189 20.1748 24.8838 20.2607C24.8447 20.3428 24.792 20.415 24.7256 20.4775L20.8584 24.3389C20.7217 24.4717 20.5674 24.5381 20.3955 24.5381Z" fill="#49444F"/>
</svg>
