<svg width="52" height="52" viewBox="0 0 52 52" fill="none" xmlns="http://www.w3.org/2000/svg">
    <path d="M0 4C0 1.79086 1.79086 0 4 0H48C50.2091 0 52 1.79086 52 4V48C52 50.2091 50.2091 52 48 52H4C1.79086 52 0 50.2091 0 48V4Z" fill="#C92A03"/>
    <path d="M17.4414 33.5078C17.2982 33.3711 17.2038 33.2083 17.1582 33.0195C17.1126 32.8307 17.1126 32.6419 17.1582 32.4531C17.2103 32.2643 17.3047 32.1048 17.4414 31.9746L23.4375 25.959L17.4414 19.9531C17.3047 19.8229 17.2135 19.6634 17.168 19.4746C17.1224 19.2858 17.1224 19.097 17.168 18.9082C17.2135 18.7194 17.3047 18.5566 17.4414 18.4199C17.5846 18.2767 17.7507 18.1823 17.9395 18.1367C18.1283 18.0911 18.3171 18.0911 18.5059 18.1367C18.6947 18.1823 18.8574 18.2734 18.9941 18.4102L25 24.416L30.9961 18.4102C31.1328 18.2669 31.2956 18.1758 31.4844 18.1367C31.6732 18.0911 31.8587 18.0911 32.041 18.1367C32.2298 18.1823 32.3991 18.2767 32.5488 18.4199C32.6855 18.5566 32.7767 18.7194 32.8223 18.9082C32.8743 19.097 32.8743 19.2858 32.8223 19.4746C32.7767 19.6569 32.6855 19.8197 32.5488 19.9629L26.5527 25.959L32.5488 31.9648C32.6855 32.1081 32.7767 32.2741 32.8223 32.4629C32.8678 32.6452 32.8678 32.8307 32.8223 33.0195C32.7767 33.2083 32.6855 33.3711 32.5488 33.5078C32.4056 33.651 32.2396 33.7454 32.0508 33.791C31.862 33.8366 31.6732 33.8366 31.4844 33.791C31.2956 33.7454 31.1328 33.6543 30.9961 33.5176L25 27.5117L18.9941 33.5176C18.8574 33.6543 18.6947 33.7454 18.5059 33.791C18.3236 33.8366 18.1348 33.8366 17.9395 33.791C17.7507 33.7454 17.5846 33.651 17.4414 33.5078Z" fill="white"/>
    </svg>
    