<svg width="52" height="52" viewBox="0 0 52 52" fill="none" xmlns="http://www.w3.org/2000/svg">
    <path d="M0 4C0 1.79086 1.79086 0 4 0H48C50.2091 0 52 1.79086 52 4V48C52 50.2091 50.2091 52 48 52H4C1.79086 52 0 50.2091 0 48V4Z" fill="#0077B6"/>
    <path d="M23.7207 29.1523V22.7656C23.7207 22.5378 23.8249 22.3848 24.0332 22.3066C24.2415 22.222 24.4466 22.2383 24.6484 22.3555L29.9121 25.4609C30.1009 25.5716 30.1953 25.7376 30.1953 25.959C30.2018 26.1803 30.1074 26.3496 29.9121 26.4668L24.6484 29.5625C24.4336 29.6927 24.2253 29.7155 24.0234 29.6309C23.8216 29.5397 23.7207 29.3802 23.7207 29.1523ZM13.7598 23.752C13.7598 23.498 13.8477 23.2962 14.0234 23.1465C14.1992 22.9902 14.4043 22.9121 14.6387 22.9121C14.9512 22.9121 15.1986 23.0456 15.3809 23.3125L16.1914 24.4258C16.3737 23.2214 16.7578 22.1016 17.3438 21.0664C17.9297 20.0247 18.6686 19.1165 19.5605 18.3418C20.4525 17.5605 21.4583 16.9518 22.5781 16.5156C23.7044 16.0794 24.8926 15.8613 26.1426 15.8613C27.5228 15.8613 28.8216 16.125 30.0391 16.6523C31.2565 17.1797 32.3307 17.9089 33.2617 18.8398C34.1927 19.7643 34.9219 20.8353 35.4492 22.0527C35.9766 23.2702 36.2402 24.569 36.2402 25.9492C36.2402 27.3294 35.9766 28.6283 35.4492 29.8457C34.9219 31.0632 34.1927 32.1374 33.2617 33.0684C32.3372 33.9993 31.2663 34.7253 30.0488 35.2461C28.8314 35.7734 27.5293 36.0371 26.1426 36.0371C25.2246 36.0371 24.3685 35.9264 23.5742 35.7051C22.7865 35.4837 22.0703 35.1973 21.4258 34.8457C20.7812 34.4941 20.2214 34.1198 19.7461 33.7227C19.2708 33.3255 18.8835 32.9577 18.584 32.6191C18.4473 32.4629 18.3496 32.3099 18.291 32.1602C18.2389 32.0104 18.2129 31.8672 18.2129 31.7305C18.2129 31.4635 18.3073 31.2454 18.4961 31.0762C18.6914 30.9004 18.9128 30.8125 19.1602 30.8125C19.3034 30.8125 19.4466 30.8451 19.5898 30.9102C19.7396 30.9753 19.873 31.0794 19.9902 31.2227C20.3548 31.6523 20.8301 32.0853 21.416 32.5215C22.0085 32.9577 22.6986 33.319 23.4863 33.6055C24.2806 33.8984 25.166 34.0449 26.1426 34.0449C27.2689 34.0449 28.3203 33.8366 29.2969 33.4199C30.2734 33.0033 31.1328 32.4238 31.875 31.6816C32.6237 30.9395 33.2064 30.0801 33.623 29.1035C34.0397 28.127 34.248 27.0755 34.248 25.9492C34.2415 24.8294 34.0299 23.7812 33.6133 22.8047C33.1966 21.8216 32.6172 20.959 31.875 20.2168C31.1328 19.4746 30.2702 18.8952 29.2871 18.4785C28.3105 18.0618 27.2624 17.8535 26.1426 17.8535C25.1009 17.8535 24.1211 18.0326 23.2031 18.3906C22.2917 18.7487 21.4746 19.25 20.752 19.8945C20.0358 20.5391 19.4499 21.2943 18.9941 22.1602C18.5384 23.0195 18.2487 23.9505 18.125 24.9531L19.4531 23.8887C19.6094 23.7585 19.7982 23.6934 20.0195 23.6934C20.2539 23.6934 20.4525 23.778 20.6152 23.9473C20.7845 24.11 20.8691 24.3151 20.8691 24.5625C20.8691 24.8685 20.7454 25.1094 20.498 25.2852L17.8711 27.2188C17.7409 27.3099 17.6172 27.3783 17.5 27.4238C17.3828 27.4629 17.2526 27.4824 17.1094 27.4824C16.7253 27.4824 16.3835 27.2936 16.084 26.916L13.9648 24.3477C13.8281 24.1849 13.7598 23.9863 13.7598 23.752Z" fill="white"/>
    </svg>
    