<svg width="21" height="21" viewBox="0 0 21 21" fill="none" xmlns="http://www.w3.org/2000/svg">
<path d="M10.709 20.3633C10.0319 20.3633 9.39388 20.1289 8.79492 19.6602C8.20247 19.1914 7.67839 18.5339 7.22266 17.6875C6.77344 16.8411 6.41862 15.8483 6.1582 14.709C5.9043 13.5632 5.77734 12.3164 5.77734 10.9688C5.77734 9.62109 5.9043 8.37435 6.1582 7.22852C6.41862 6.07617 6.77344 5.07682 7.22266 4.23047C7.67188 3.3776 8.19271 2.7168 8.78516 2.24805C9.38411 1.7793 10.0254 1.54492 10.709 1.54492C11.3926 1.54492 12.0306 1.7793 12.623 2.24805C13.222 2.7168 13.7461 3.3776 14.1953 4.23047C14.651 5.07682 15.0059 6.07617 15.2598 7.22852C15.5137 8.37435 15.6406 9.62109 15.6406 10.9688C15.6406 12.3164 15.5104 13.5632 15.25 14.709C14.9961 15.8483 14.6413 16.8411 14.1855 17.6875C13.7363 18.5339 13.2122 19.1914 12.6133 19.6602C12.0208 20.1289 11.3861 20.3633 10.709 20.3633ZM10.709 2.72656C10.2337 2.72656 9.77799 2.94792 9.3418 3.39062C8.9056 3.82682 8.51823 4.42578 8.17969 5.1875C7.84115 5.94922 7.57422 6.82812 7.37891 7.82422C7.18359 8.8138 7.08594 9.86198 7.08594 10.9688C7.08594 12.0625 7.18359 13.1009 7.37891 14.084C7.57422 15.0671 7.84115 15.9427 8.17969 16.7109C8.51823 17.4727 8.9056 18.0716 9.3418 18.5078C9.77799 18.9505 10.2337 19.1719 10.709 19.1719C11.1842 19.1719 11.64 18.9505 12.0762 18.5078C12.5124 18.0716 12.8997 17.4727 13.2383 16.7109C13.5768 15.9427 13.8438 15.0671 14.0391 14.084C14.2344 13.1009 14.332 12.0625 14.332 10.9688C14.332 9.86198 14.2344 8.8138 14.0391 7.82422C13.8438 6.82812 13.5768 5.94922 13.2383 5.1875C12.8997 4.42578 12.5124 3.82682 12.0762 3.39062C11.64 2.94792 11.1842 2.72656 10.709 2.72656ZM10.0742 1.68164H11.3535V20.1777H10.0742V1.68164ZM10.709 14.6211C11.7116 14.6211 12.6621 14.7057 13.5605 14.875C14.459 15.0378 15.2663 15.2754 15.9824 15.5879C16.7051 15.8939 17.2943 16.2552 17.75 16.6719L16.7637 17.4824C16.334 17.1439 15.8164 16.8574 15.2109 16.623C14.612 16.3822 13.9316 16.2031 13.1699 16.0859C12.4147 15.9622 11.5944 15.9004 10.709 15.9004C9.82357 15.9004 9 15.9622 8.23828 16.0859C7.48307 16.2031 6.80273 16.3822 6.19727 16.623C5.59831 16.8574 5.08398 17.1439 4.6543 17.4824L3.66797 16.6719C4.1237 16.2552 4.70964 15.8939 5.42578 15.5879C6.14844 15.2754 6.95898 15.0378 7.85742 14.875C8.75586 14.7057 9.70638 14.6211 10.709 14.6211ZM19.7227 10.3047V11.584H1.69531V10.3047H19.7227ZM10.709 7.32617C9.70638 7.32617 8.75586 7.24479 7.85742 7.08203C6.95898 6.91276 6.14844 6.67513 5.42578 6.36914C4.70964 6.05664 4.1237 5.69206 3.66797 5.27539L4.6543 4.46484C5.08398 4.80339 5.59831 5.0931 6.19727 5.33398C6.80273 5.56836 7.48307 5.7474 8.23828 5.87109C9 5.98828 9.82357 6.04688 10.709 6.04688C11.5944 6.04688 12.4147 5.98828 13.1699 5.87109C13.9316 5.7474 14.612 5.56836 15.2109 5.33398C15.8164 5.0931 16.334 4.80339 16.7637 4.46484L17.75 5.27539C17.2943 5.69206 16.7051 6.05664 15.9824 6.36914C15.2663 6.67513 14.459 6.91276 13.5605 7.08203C12.6621 7.24479 11.7116 7.32617 10.709 7.32617ZM10.709 20.9102C9.34831 20.9102 8.06576 20.6497 6.86133 20.1289C5.66341 19.6081 4.60547 18.8887 3.6875 17.9707C2.76953 17.0527 2.05013 15.9948 1.5293 14.7969C1.00846 13.5924 0.748047 12.3099 0.748047 10.9492C0.748047 9.58854 1.00846 8.30924 1.5293 7.11133C2.05013 5.9069 2.76628 4.8457 3.67773 3.92773C4.5957 3.00977 5.65365 2.29036 6.85156 1.76953C8.05599 1.2487 9.33854 0.988281 10.6992 0.988281C12.0599 0.988281 13.3424 1.2487 14.5469 1.76953C15.7513 2.29036 16.8125 3.00977 17.7305 3.92773C18.6484 4.8457 19.3678 5.9069 19.8887 7.11133C20.4095 8.30924 20.6699 9.58854 20.6699 10.9492C20.6699 12.3099 20.4095 13.5924 19.8887 14.7969C19.3678 15.9948 18.6484 17.0527 17.7305 17.9707C16.8125 18.8887 15.7513 19.6081 14.5469 20.1289C13.349 20.6497 12.0697 20.9102 10.709 20.9102ZM10.709 19.582C11.8874 19.582 12.9974 19.3542 14.0391 18.8984C15.0807 18.4492 15.9987 17.8275 16.793 17.0332C17.5872 16.2389 18.209 15.321 18.6582 14.2793C19.1139 13.2376 19.3418 12.1276 19.3418 10.9492C19.3418 9.77083 19.1139 8.66081 18.6582 7.61914C18.209 6.57747 17.584 5.65951 16.7832 4.86523C15.9889 4.07096 15.071 3.44922 14.0293 3C12.9876 2.54427 11.8776 2.31641 10.6992 2.31641C9.52083 2.31641 8.41081 2.54427 7.36914 3C6.32747 3.44922 5.40951 4.07096 4.61523 4.86523C3.82747 5.65951 3.20573 6.57747 2.75 7.61914C2.30078 8.66081 2.07617 9.77083 2.07617 10.9492C2.07617 12.1276 2.30078 13.2376 2.75 14.2793C3.20573 15.321 3.83073 16.2389 4.625 17.0332C5.41927 17.8275 6.33724 18.4492 7.37891 18.8984C8.42057 19.3542 9.5306 19.582 10.709 19.582Z" fill="white"/>
</svg>
