<svg width="20" height="20" viewBox="0 0 20 20" fill="none" xmlns="http://www.w3.org/2000/svg">
<g id="log-out">
<path id="Union" fill-rule="evenodd" clip-rule="evenodd" d="M16.3047 3.69526C16.1797 3.57024 16.0101 3.5 15.8333 3.5H12.5C11.9477 3.5 11.5 3.05228 11.5 2.5C11.5 1.94772 11.9477 1.5 12.5 1.5H15.8333C16.5406 1.5 17.2189 1.78095 17.719 2.28105C18.219 2.78115 18.5 3.45942 18.5 4.16667V15.8333C18.5 16.5406 18.219 17.2189 17.719 17.719C17.2189 18.219 16.5406 18.5 15.8333 18.5H12.5C11.9477 18.5 11.5 18.0523 11.5 17.5C11.5 16.9477 11.9477 16.5 12.5 16.5H15.8333C16.0101 16.5 16.1797 16.4298 16.3047 16.3047C16.4298 16.1797 16.5 16.0101 16.5 15.8333V4.16667C16.5 3.98986 16.4298 3.82029 16.3047 3.69526ZM9.04048 5.12627C8.64996 4.73574 8.01679 4.73574 7.62627 5.12627C7.23574 5.51679 7.23574 6.14996 7.62627 6.54048L10.0858 9H2.50004C1.94773 9 1.5 9.44773 1.5 10C1.5 10.5523 1.94773 11.0001 2.50004 11.0001H10.0858L7.62627 13.4596C7.23574 13.8501 7.23574 14.4833 7.62627 14.8738C8.01679 15.2643 8.64996 15.2643 9.04048 14.8738L13.2071 10.7071C13.5977 10.3166 13.5977 9.68346 13.2071 9.29293L9.04048 5.12627Z" fill="white"/>
</g>
</svg>
