<svg width="137" height="102" viewBox="0 0 137 102" fill="none" xmlns="http://www.w3.org/2000/svg">
<g id="v.2" clip-path="url(#clip0_3068_10202)">
<path id="Vector" d="M50.4359 5.7129L40.4264 15.7224C40.1496 15.9992 40.1497 16.4479 40.4264 16.7246L54.5291 30.8271L65.5409 19.8156L51.4381 5.7129C51.1614 5.4362 50.7127 5.4362 50.4359 5.7129Z" fill="#0077B6"/>
<path id="Vector_2" d="M86.1515 0.207647C85.8748 -0.0690529 85.4261 -0.0690529 85.1493 0.207647L65.5409 19.8156L54.5291 30.8271L65.5407 41.8386L76.5524 30.8269L85.6504 21.7289L114.857 50.9364L85.6504 80.1439L76.5525 71.046L65.5408 82.0577L85.1493 101.666C85.4261 101.943 85.8748 101.943 86.1515 101.666L136.38 51.4374C136.657 51.1606 136.657 50.7119 136.38 50.4352L86.1515 0.207647Z" fill="#0077B6"/>
<path id="Vector_3" d="M76.5528 30.827L65.5411 41.8387L74.6391 50.9365L45.4316 80.144L11.2193 45.9317C10.9426 45.655 10.4939 45.655 10.2171 45.9317L0.207601 55.9412C-0.0690987 56.2179 -0.0690987 56.6666 0.207601 56.9434L44.9305 101.666C45.2072 101.943 45.6559 101.943 45.9327 101.666L65.5412 82.0578L76.5529 71.0461L96.1614 51.4376C96.4382 51.1608 96.4381 50.7121 96.1614 50.4354L76.5528 30.827Z" fill="#0077B6"/>
<path id="Vector_4" d="M10.2171 5.71196L0.207643 15.7214C-0.0691216 15.9982 -0.0691218 16.4469 0.207643 16.7237L44.8206 61.3367C45.0974 61.6134 45.5461 61.6134 45.8229 61.3367L55.8323 51.3272C56.1091 51.0504 56.1091 50.6017 55.8323 50.325L11.2193 5.71196C10.9426 5.43519 10.4939 5.43519 10.2171 5.71196Z" fill="#A0BF38"/>
</g>
<defs>
<clipPath id="clip0_3068_10202">
<rect width="136.587" height="101.874" fill="white"/>
</clipPath>
</defs>
</svg>
