<svg width="22" height="22" viewBox="0 0 22 22" fill="none" xmlns="http://www.w3.org/2000/svg">
	<path d="M11 21.1348C9.60677 21.1348 8.29492 20.8678 7.06445 20.334C5.83398 19.8066 4.75 19.0742 3.8125 18.1367C2.875 17.1992 2.13932 16.1185 1.60547 14.8945C1.07812 13.6641 0.814453 12.349 0.814453 10.9492C0.814453 9.55599 1.07812 8.2474 1.60547 7.02344C2.13932 5.79297 2.87174 4.70898 3.80273 3.77148C4.74023 2.83398 5.82422 2.10156 7.05469 1.57422C8.28516 1.04036 9.59701 0.773438 10.9902 0.773438C12.3835 0.773438 13.6953 1.04036 14.9258 1.57422C16.1628 2.10156 17.2467 2.83398 18.1777 3.77148C19.1152 4.70898 19.8509 5.79297 20.3848 7.02344C20.9186 8.2474 21.1855 9.55599 21.1855 10.9492C21.1855 12.349 20.9186 13.6641 20.3848 14.8945C19.8509 16.1185 19.1152 17.1992 18.1777 18.1367C17.2467 19.0742 16.166 19.8066 14.9355 20.334C13.7051 20.8678 12.3932 21.1348 11 21.1348ZM11 18.8984C12.1003 18.8984 13.1289 18.6934 14.0859 18.2832C15.0495 17.873 15.8958 17.3066 16.625 16.584C17.3542 15.8548 17.9238 15.0117 18.334 14.0547C18.7441 13.0911 18.9492 12.056 18.9492 10.9492C18.9492 9.84896 18.7409 8.82031 18.3242 7.86328C17.9141 6.89974 17.3444 6.05339 16.6152 5.32422C15.8926 4.59505 15.0495 4.02539 14.0859 3.61523C13.1289 3.20508 12.097 3 10.9902 3C9.88997 3 8.85807 3.20508 7.89453 3.61523C6.9375 4.02539 6.0944 4.59505 5.36523 5.32422C4.64258 6.05339 4.07617 6.89974 3.66602 7.86328C3.26237 8.82031 3.06055 9.84896 3.06055 10.9492C3.06055 12.056 3.26237 13.0911 3.66602 14.0547C4.07617 15.0117 4.64583 15.8548 5.375 16.584C6.10417 17.3066 6.94727 17.873 7.9043 18.2832C8.86784 18.6934 9.89974 18.8984 11 18.8984ZM11 12.4727C10.388 12.4727 10.069 12.1667 10.043 11.5547L9.90625 7.10156C9.89323 6.79557 9.98763 6.54492 10.1895 6.34961C10.3913 6.14779 10.6582 6.04688 10.9902 6.04688C11.3158 6.04688 11.5794 6.14779 11.7812 6.34961C11.9896 6.54492 12.0872 6.79883 12.0742 7.11133L11.9277 11.5449C11.9017 12.1634 11.5924 12.4727 11 12.4727ZM11 15.7539C10.6615 15.7539 10.3717 15.6497 10.1309 15.4414C9.89648 15.2331 9.7793 14.9694 9.7793 14.6504C9.7793 14.3249 9.89648 14.0579 10.1309 13.8496C10.3717 13.6348 10.6615 13.5273 11 13.5273C11.3385 13.5273 11.6217 13.6315 11.8496 13.8398C12.084 14.0482 12.2012 14.3184 12.2012 14.6504C12.2012 14.9759 12.084 15.2428 11.8496 15.4512C11.6152 15.653 11.332 15.7539 11 15.7539Z" fill="#0077B6"/>
</svg>