<svg width="21" height="22" viewBox="0 0 21 22" fill="none" xmlns="http://www.w3.org/2000/svg">
<path d="M10.8359 21.0371C9.45573 21.0371 8.1569 20.7734 6.93945 20.2461C5.72201 19.7253 4.64779 18.9993 3.7168 18.0684C2.79232 17.1374 2.06641 16.0632 1.53906 14.8457C1.01172 13.6283 0.748047 12.3294 0.748047 10.9492C0.748047 9.56901 1.01172 8.27018 1.53906 7.05273C2.06641 5.83529 2.79232 4.76432 3.7168 3.83984C4.64779 2.90885 5.71875 2.17969 6.92969 1.65234C8.14714 1.125 9.44596 0.861328 10.8262 0.861328C12.2129 0.861328 13.515 1.125 14.7324 1.65234C15.9499 2.17969 17.0241 2.90885 17.9551 3.83984C18.8861 4.76432 19.6152 5.83529 20.1426 7.05273C20.6699 8.27018 20.9336 9.56901 20.9336 10.9492C20.9336 12.3294 20.6699 13.6283 20.1426 14.8457C19.6152 16.0632 18.8861 17.1374 17.9551 18.0684C17.0241 18.9993 15.9499 19.7253 14.7324 20.2461C13.515 20.7734 12.2161 21.0371 10.8359 21.0371ZM10.8359 19.0449C11.9622 19.0449 13.0137 18.8366 13.9902 18.4199C14.9668 18.0033 15.8262 17.4238 16.5684 16.6816C17.3105 15.9395 17.89 15.0801 18.3066 14.1035C18.7233 13.127 18.9316 12.0755 18.9316 10.9492C18.9316 9.82943 18.7233 8.78125 18.3066 7.80469C17.89 6.82161 17.3105 5.95898 16.5684 5.2168C15.8262 4.47461 14.9635 3.89518 13.9805 3.47852C13.0039 3.06185 11.9525 2.85352 10.8262 2.85352C9.70638 2.85352 8.65495 3.06185 7.67188 3.47852C6.69531 3.89518 5.83919 4.47461 5.10352 5.2168C4.36784 5.95898 3.79167 6.82161 3.375 7.80469C2.95833 8.78125 2.75 9.82943 2.75 10.9492C2.75 12.0755 2.95833 13.127 3.375 14.1035C3.79167 15.0801 4.36784 15.9395 5.10352 16.6816C5.8457 17.4238 6.70508 18.0033 7.68164 18.4199C8.66471 18.8366 9.71615 19.0449 10.8359 19.0449ZM6.50977 15.8223C6.29492 15.8223 6.13542 15.7604 6.03125 15.6367C5.92708 15.5065 5.875 15.3438 5.875 15.1484C5.875 14.8815 5.97266 14.5397 6.16797 14.123C6.36979 13.7064 6.67253 13.2897 7.07617 12.873C7.48633 12.4499 8.00065 12.0951 8.61914 11.8086C9.24414 11.5156 9.97982 11.3691 10.8262 11.3691C11.679 11.3691 12.4147 11.5156 13.0332 11.8086C13.6582 12.0951 14.1725 12.4499 14.5762 12.873C14.9798 13.2897 15.2826 13.7064 15.4844 14.123C15.6862 14.5397 15.7871 14.8815 15.7871 15.1484C15.7871 15.3438 15.735 15.5065 15.6309 15.6367C15.5267 15.7604 15.3672 15.8223 15.1523 15.8223H6.50977ZM10.8262 10.6074C10.3704 10.6074 9.95378 10.4902 9.57617 10.2559C9.20508 10.015 8.9056 9.69271 8.67773 9.28906C8.45638 8.87891 8.3457 8.41667 8.3457 7.90234C8.3457 7.42057 8.45638 6.97786 8.67773 6.57422C8.9056 6.17057 9.20508 5.84831 9.57617 5.60742C9.95378 5.36654 10.3704 5.24609 10.8262 5.24609C11.2819 5.24609 11.6986 5.36654 12.0762 5.60742C12.4538 5.84831 12.7533 6.17057 12.9746 6.57422C13.196 6.97786 13.3066 7.42057 13.3066 7.90234C13.3066 8.41667 13.196 8.87891 12.9746 9.28906C12.7533 9.69271 12.4538 10.015 12.0762 10.2559C11.6986 10.4902 11.2819 10.6074 10.8262 10.6074Z" fill="#0077B6"/>
</svg>
