<svg xmlns="http://www.w3.org/2000/svg" width="20" height="20" viewBox="0 0 20 20">
  <path d="M20,0 L20,20 L10,20 L10,18.3333333 L18.3333333,18.3333333 L18.3333333,2.86666667 L12.8666667,8.33333333 L16.6666667,8.33333333 L16.6666667,10 L10,10 L10,3.33333333 L11.6666667,3.33333333 L11.6666667,7.2 L17.1666667,1.66666667 L1.66666667,1.66666667 L1.66666667,10 L-3.73034936e-14,10 L-3.73034936e-14,0 L20,0 Z M8.33333333,11.6666667 L8.33333333,14.1666667 L6.66666667,14.1666667 L6.66666667,13.3333333 L5,13.3333333 L5,18.3333333 L5.83333333,18.3333333 L5.83333333,20 L2.5,20 L2.5,18.3333333 L3.33333333,18.3333333 L3.33333333,13.3333333 L1.66666667,13.3333333 L1.66666667,14.1666667 L-7.46069873e-14,14.1666667 L-7.46069873e-14,11.6666667 L8.33333333,11.6666667 Z"/>
</svg>
