<svg width="20" height="20" viewBox="0 0 20 20" fill="none" xmlns="http://www.w3.org/2000/svg">
<path d="M5.19238 19.5674H14.8252C15.7627 19.5674 16.4805 19.3213 16.9785 18.8291C17.4824 18.3369 17.7344 17.625 17.7344 16.6934V7.44727H15.7744V16.5967C15.7744 16.9541 15.6807 17.2236 15.4932 17.4053C15.3057 17.5869 15.0391 17.6777 14.6934 17.6777H5.33301C4.98145 17.6777 4.71191 17.5869 4.52441 17.4053C4.34277 17.2236 4.25195 16.9541 4.25195 16.5967V7.44727H2.29199V16.6934C2.29199 17.6309 2.54102 18.3428 3.03906 18.8291C3.54297 19.3213 4.26074 19.5674 5.19238 19.5674ZM7.23145 12.0527H12.8037C13.0322 12.0527 13.2197 11.9795 13.3662 11.833C13.5127 11.6865 13.5859 11.499 13.5859 11.2705V10.9805C13.5859 10.752 13.5127 10.5674 13.3662 10.4268C13.2197 10.2803 13.0322 10.207 12.8037 10.207H7.23145C7.00293 10.207 6.81543 10.2803 6.66895 10.4268C6.52832 10.5674 6.45801 10.752 6.45801 10.9805V11.2705C6.45801 11.499 6.52832 11.6865 6.66895 11.833C6.81543 11.9795 7.00293 12.0527 7.23145 12.0527ZM3.03906 8.44043H16.9873C17.626 8.44043 18.124 8.25 18.4814 7.86914C18.8447 7.48242 19.0264 6.97266 19.0264 6.33984V5.0918C19.0264 4.45898 18.8447 3.95215 18.4814 3.57129C18.124 3.19043 17.626 3 16.9873 3H3.03906C2.42383 3 1.92871 3.19043 1.55371 3.57129C1.18457 3.95215 1 4.45898 1 5.0918V6.33984C1 6.97266 1.18164 7.48242 1.54492 7.86914C1.9082 8.25 2.40625 8.44043 3.03906 8.44043ZM3.36426 6.65625C3.17676 6.65625 3.03613 6.60938 2.94238 6.51562C2.85449 6.42188 2.81055 6.28418 2.81055 6.10254V5.33789C2.81055 5.14453 2.85449 5.00391 2.94238 4.91602C3.03613 4.82227 3.17676 4.77539 3.36426 4.77539H16.6621C16.8555 4.77539 16.9932 4.82227 17.0752 4.91602C17.1631 5.00391 17.207 5.14453 17.207 5.33789V6.10254C17.207 6.28418 17.1631 6.42188 17.0752 6.51562C16.9932 6.60938 16.8555 6.65625 16.6621 6.65625H3.36426Z" fill="#9F91A8"/>
</svg>
