<svg width="20" height="20" viewBox="0 0 20 20" fill="none" xmlns="http://www.w3.org/2000/svg">
<path d="M5.2835 19.57H14.7818C15.7409 19.57 16.4804 19.3129 17.0004 18.7987C17.5203 18.2845 17.7803 17.5479 17.7803 16.5888V8.8671H2.27629V16.5888C2.27629 17.5479 2.53628 18.2845 3.05626 18.7987C3.58202 19.3129 4.32443 19.57 5.2835 19.57ZM7.35475 12.455C7.10632 12.455 6.90122 12.3741 6.73945 12.2123C6.58345 12.0505 6.50546 11.8425 6.50546 11.5883V11.311C6.50546 11.0626 6.58345 10.8604 6.73945 10.7044C6.90122 10.5426 7.10632 10.4617 7.35475 10.4617H12.7192C12.9676 10.4617 13.1727 10.5426 13.3345 10.7044C13.4963 10.8604 13.5772 11.0626 13.5772 11.311V11.5883C13.5772 11.8425 13.4963 12.0505 13.3345 12.2123C13.1727 12.3741 12.9676 12.455 12.7192 12.455H7.35475ZM2.8656 7.45449H17.1997C17.7774 7.45449 18.2108 7.29849 18.4996 6.98651C18.7943 6.67452 18.9416 6.23254 18.9416 5.66056V4.79393C18.9416 4.22195 18.7943 3.77997 18.4996 3.46798C18.2108 3.15599 17.7774 3 17.1997 3H2.8656C2.30518 3 1.87186 3.15599 1.56565 3.46798C1.26522 3.77997 1.11501 4.22195 1.11501 4.79393V5.66056C1.11501 6.23254 1.26233 6.67452 1.55699 6.98651C1.85164 7.29849 2.28785 7.45449 2.8656 7.45449Z" fill="#462255"/>
</svg>
