<svg width="26" height="23" viewBox="0 0 26 23" fill="none" xmlns="http://www.w3.org/2000/svg">
<path d="M11 11.75C11.9297 11.75 12.7773 11.5 13.543 11C14.3086 10.5 14.918 9.83594 15.3711 9.00781C15.832 8.17188 16.0625 7.25 16.0625 6.24219C16.0625 5.24219 15.8359 4.33984 15.3828 3.53516C14.9297 2.72266 14.3203 2.07812 13.5547 1.60156C12.7891 1.125 11.9375 0.886719 11 0.886719C10.0781 0.886719 9.23047 1.12891 8.45703 1.61328C7.69141 2.09766 7.07812 2.74609 6.61719 3.55859C6.16406 4.37109 5.9375 5.27344 5.9375 6.26562C5.94531 7.26562 6.17578 8.18359 6.62891 9.01953C7.08984 9.84766 7.70312 10.5117 8.46875 11.0117C9.23438 11.5039 10.0781 11.75 11 11.75ZM11 9.98047C10.4297 9.98047 9.90234 9.81641 9.41797 9.48828C8.94141 9.15234 8.55469 8.70312 8.25781 8.14062C7.96875 7.57812 7.82422 6.95312 7.82422 6.26562C7.82422 5.58594 7.96875 4.97656 8.25781 4.4375C8.54688 3.89062 8.92969 3.45703 9.40625 3.13672C9.89062 2.81641 10.4219 2.65625 11 2.65625C11.5859 2.65625 12.1172 2.8125 12.5938 3.125C13.0781 3.4375 13.4609 3.86719 13.7422 4.41406C14.0312 4.95312 14.1758 5.5625 14.1758 6.24219C14.1758 6.92969 14.0312 7.55859 13.7422 8.12891C13.4531 8.69141 13.0664 9.14062 12.582 9.47656C12.1055 9.8125 11.5781 9.98047 11 9.98047ZM3.64062 22.5898H18.9336C18.6914 22.2305 18.5664 21.8516 18.5586 21.4531C18.5508 21.3516 18.543 21.2461 18.5352 21.1367C18.5352 21.0352 18.5352 20.9297 18.5352 20.8203H3.07812C2.92188 20.8203 2.80859 20.7969 2.73828 20.75C2.67578 20.7031 2.64453 20.6172 2.64453 20.4922C2.64453 20.0156 2.82812 19.4648 3.19531 18.8398C3.5625 18.207 4.09766 17.5977 4.80078 17.0117C5.51172 16.4258 6.38672 15.9414 7.42578 15.5586C8.46484 15.168 9.65625 14.9727 11 14.9727C12.1641 14.9727 13.2109 15.1289 14.1406 15.4414C15.0703 15.7539 15.8711 16.1523 16.543 16.6367C17.2148 17.1211 17.7539 17.6211 18.1602 18.1367V16.6133C17.7852 16.3398 17.457 16.0234 17.1758 15.6641C16.9023 15.3047 16.6875 14.9141 16.5312 14.4922C15.7734 14.0938 14.9297 13.7812 14 13.5547C13.0703 13.3203 12.0703 13.2031 11 13.2031C9.40625 13.2031 7.97656 13.4453 6.71094 13.9297C5.45312 14.4141 4.37891 15.043 3.48828 15.8164C2.60547 16.582 1.92969 17.3984 1.46094 18.2656C0.992188 19.1328 0.757812 19.9492 0.757812 20.7148C0.757812 21.9648 1.71875 22.5898 3.64062 22.5898ZM21.4414 8.91406C20.7773 8.91406 20.1719 9.07422 19.625 9.39453C19.0859 9.71484 18.6562 10.1445 18.3359 10.6836C18.0234 11.2227 17.8672 11.8203 17.8672 12.4766C17.8672 13.2344 18.0703 13.9141 18.4766 14.5156C18.8906 15.1172 19.4414 15.5547 20.1289 15.8281V21.3594C20.1289 21.4688 20.1836 21.5859 20.293 21.7109L21.2305 22.6602C21.2852 22.7148 21.3477 22.7422 21.418 22.7422C21.4961 22.75 21.5664 22.7227 21.6289 22.6602L23.4102 20.8789C23.4648 20.8242 23.4922 20.7578 23.4922 20.6797C23.4922 20.6094 23.4648 20.5469 23.4102 20.4922L22.3086 19.3789L23.832 17.8906C23.8867 17.8359 23.9102 17.7734 23.9023 17.7031C23.9023 17.625 23.8711 17.5508 23.8086 17.4805L22.3086 15.9805C23.168 15.6367 23.832 15.1602 24.3008 14.5508C24.7695 13.9414 25.0039 13.25 25.0039 12.4766C25.0039 11.8203 24.8438 11.2227 24.5234 10.6836C24.2031 10.1445 23.7734 9.71484 23.2344 9.39453C22.6953 9.07422 22.0977 8.91406 21.4414 8.91406ZM21.4297 10.5898C21.7344 10.5898 21.9922 10.6992 22.2031 10.918C22.4141 11.1367 22.5195 11.3945 22.5195 11.6914C22.5195 12.0039 22.4141 12.2695 22.2031 12.4883C21.9922 12.6992 21.7344 12.8047 21.4297 12.8047C21.125 12.8047 20.8633 12.6992 20.6445 12.4883C20.4258 12.2695 20.3164 12.0039 20.3164 11.6914C20.3164 11.3945 20.4219 11.1367 20.6328 10.918C20.8516 10.6992 21.1172 10.5898 21.4297 10.5898Z" fill="white"/>
</svg>
