<svg width="20" height="20" viewBox="0 0 20 20" fill="none" xmlns="http://www.w3.org/2000/svg">
<g clip-path="url(#clip0_184_3517)">
<path d="M3.90479 19.2695C4.10987 19.4335 4.34132 19.4921 4.59913 19.4453C4.85694 19.3984 5.13233 19.2695 5.4253 19.0585L9.99561 15.6923L14.5747 19.0585C14.8677 19.2695 15.1431 19.3984 15.4009 19.4453C15.6587 19.4921 15.8901 19.4335 16.0952 19.2695C16.3003 19.1171 16.4233 18.9121 16.4644 18.6543C16.5112 18.4023 16.4761 18.1035 16.3589 17.7578L14.5483 12.3876L19.1626 9.07417C19.4614 8.86324 19.6694 8.64351 19.7866 8.41499C19.9038 8.18062 19.9214 7.94038 19.8394 7.69429C19.7573 7.45406 19.6021 7.27534 19.3735 7.15816C19.145 7.03511 18.8462 6.97652 18.4771 6.98238L12.8257 7.01753L11.103 1.62105C10.9917 1.26949 10.8423 1.00288 10.6548 0.821243C10.4732 0.633743 10.2534 0.539993 9.99561 0.539993C9.74366 0.539993 9.52393 0.633743 9.33643 0.821243C9.15479 1.00288 9.00831 1.26949 8.89698 1.62105L7.17432 7.01753L1.52296 6.98238C1.15382 6.97652 0.854988 7.03511 0.626472 7.15816C0.397956 7.27534 0.242683 7.45406 0.160652 7.69429C0.0786205 7.94038 0.0961986 8.18062 0.213386 8.41499C0.330574 8.64351 0.538581 8.86324 0.837409 9.07417L5.45167 12.3876L3.64112 17.7578C3.52393 18.1035 3.48585 18.4023 3.52686 18.6543C3.57374 18.9121 3.69971 19.1171 3.90479 19.2695ZM5.45167 17.1425C5.43995 17.1308 5.43995 17.1074 5.45167 17.0722L7.12159 12.3613C7.16846 12.2207 7.1919 12.0947 7.1919 11.9834C7.19776 11.8662 7.16846 11.7607 7.10401 11.6669C7.04542 11.5732 6.95167 11.4824 6.82276 11.3945L2.6919 8.5732C2.65675 8.54976 2.6421 8.52632 2.64796 8.50288C2.65382 8.48531 2.68018 8.47652 2.72706 8.47652L7.71925 8.59956C7.94776 8.60542 8.12647 8.56734 8.25538 8.48531C8.38428 8.39742 8.48096 8.23921 8.54542 8.0107L9.95167 3.22066C9.96339 3.17964 9.97803 3.15913 9.99561 3.15913C10.0191 3.15913 10.0366 3.17964 10.0483 3.22066L11.4546 8.0107C11.5191 8.23921 11.6157 8.39742 11.7446 8.48531C11.8735 8.56734 12.0523 8.60542 12.2808 8.59956L17.273 8.47652C17.3198 8.47652 17.3462 8.48531 17.3521 8.50288C17.3579 8.52632 17.3433 8.54976 17.3081 8.5732L13.1773 11.3945C13.0483 11.4824 12.9517 11.5732 12.8872 11.6669C12.8286 11.7607 12.7993 11.8662 12.7993 11.9834C12.8052 12.0947 12.8316 12.2207 12.8784 12.3613L14.5483 17.0722C14.5542 17.1074 14.5542 17.1308 14.5483 17.1425C14.5366 17.1601 14.5132 17.1572 14.478 17.1337L10.5142 14.0751C10.3384 13.9345 10.1655 13.8642 9.99561 13.8642C9.83155 13.8642 9.66163 13.9345 9.48585 14.0751L5.52198 17.1337C5.48682 17.1572 5.46339 17.1601 5.45167 17.1425Z" fill="#9F91A8"/>
</g>
<defs>
<clipPath id="clip0_184_3517">
<rect width="20" height="20" fill="white"/>
</clipPath>
</defs>
</svg>
