<svg width="20" height="20" viewBox="0 0 20 20" fill="none" xmlns="http://www.w3.org/2000/svg">
<g clip-path="url(#clip0_184_3518)">
<path d="M3.90479 19.2695C4.10987 19.4335 4.34132 19.4921 4.59913 19.4453C4.85694 19.3984 5.13233 19.2695 5.4253 19.0585L9.99561 15.6923L14.5747 19.0585C14.8677 19.2695 15.1431 19.3984 15.4009 19.4453C15.6587 19.4921 15.8901 19.4335 16.0952 19.2695C16.3003 19.1171 16.4233 18.9121 16.4644 18.6543C16.5112 18.4023 16.4761 18.1035 16.3589 17.7578L14.5483 12.3876L19.1626 9.07417C19.4614 8.86324 19.6694 8.64351 19.7866 8.41499C19.9038 8.18062 19.9214 7.94038 19.8394 7.69429C19.7573 7.45406 19.6021 7.27534 19.3735 7.15816C19.145 7.03511 18.8462 6.97652 18.4771 6.98238L12.8257 7.01753L11.103 1.62105C10.9917 1.26949 10.8423 1.00288 10.6548 0.821243C10.4732 0.633743 10.2534 0.539993 9.99561 0.539993C9.74366 0.539993 9.52393 0.633743 9.33643 0.821243C9.15479 1.00288 9.00831 1.26949 8.89698 1.62105L7.17432 7.01753L1.52296 6.98238C1.15382 6.97652 0.854988 7.03511 0.626472 7.15816C0.397956 7.27534 0.242683 7.45406 0.160652 7.69429C0.0786205 7.94038 0.0961986 8.18062 0.213386 8.41499C0.330574 8.64351 0.538581 8.86324 0.837409 9.07417L5.45167 12.3876L3.64112 17.7578C3.52393 18.1035 3.48585 18.4023 3.52686 18.6543C3.57374 18.9121 3.69971 19.1171 3.90479 19.2695Z" fill="#462255"/>
</g>
<defs>
<clipPath id="clip0_184_3518">
<rect width="20" height="20" fill="white"/>
</clipPath>
</defs>
</svg>
