<svg width="68" height="68" viewBox="0 0 68 68" fill="none" xmlns="http://www.w3.org/2000/svg">
<g clip-path="url(#clip0_1349_21902)">
<path d="M31 29.2188C31.2656 29.2188 31.4961 29.1211 31.6914 28.9258C31.8867 28.7305 31.9844 28.4961 31.9844 28.2227C31.9844 27.957 31.8867 27.7266 31.6914 27.5312C31.4961 27.3359 31.2656 27.2383 31 27.2383C30.7266 27.2383 30.4922 27.3359 30.2969 27.5312C30.1016 27.7266 30.0039 27.957 30.0039 28.2227C30.0039 28.4961 30.1016 28.7305 30.2969 28.9258C30.4922 29.1211 30.7266 29.2188 31 29.2188ZM33.9766 29.2188C34.25 29.2188 34.4844 29.1211 34.6797 28.9258C34.875 28.7305 34.9727 28.4961 34.9727 28.2227C34.9727 27.957 34.875 27.7266 34.6797 27.5312C34.4844 27.3359 34.25 27.2383 33.9766 27.2383C33.7109 27.2383 33.4805 27.3359 33.2852 27.5312C33.0898 27.7266 32.9922 27.957 32.9922 28.2227C32.9922 28.4961 33.0898 28.7305 33.2852 28.9258C33.4805 29.1211 33.7109 29.2188 33.9766 29.2188ZM36.9883 29.2188C37.2617 29.2188 37.4961 29.1211 37.6914 28.9258C37.8867 28.7305 37.9844 28.4961 37.9844 28.2227C37.9844 27.957 37.8867 27.7266 37.6914 27.5312C37.4961 27.3359 37.2617 27.2383 36.9883 27.2383C36.7148 27.2383 36.4805 27.3359 36.2852 27.5312C36.0977 27.7266 36.0039 27.957 36.0039 28.2227C36.0039 28.4961 36.0977 28.7305 36.2852 28.9258C36.4805 29.1211 36.7148 29.2188 36.9883 29.2188ZM39.7305 34.4453C40.0039 34.4453 40.2383 34.3477 40.4336 34.1523C40.6289 33.957 40.7266 33.7227 40.7266 33.4492C40.7266 33.1836 40.6289 32.9531 40.4336 32.7578C40.2383 32.5625 40.0039 32.4648 39.7305 32.4648C39.4648 32.4648 39.2344 32.5625 39.0391 32.7578C38.8516 32.9531 38.7578 33.1836 38.7578 33.4492C38.7578 33.7227 38.8516 33.957 39.0391 34.1523C39.2344 34.3477 39.4648 34.4453 39.7305 34.4453ZM37.5508 36.8477C37.8242 36.8477 38.0586 36.75 38.2539 36.5547C38.4492 36.3594 38.5469 36.125 38.5469 35.8516C38.5469 35.5859 38.4492 35.3555 38.2539 35.1602C38.0586 34.9648 37.8242 34.8672 37.5508 34.8672C37.2852 34.8672 37.0547 34.9648 36.8594 35.1602C36.6641 35.3555 36.5664 35.5859 36.5664 35.8516C36.5664 36.125 36.6641 36.3594 36.8594 36.5547C37.0547 36.75 37.2852 36.8477 37.5508 36.8477ZM30.4258 36.8477C30.6992 36.8477 30.9297 36.75 31.1172 36.5547C31.3125 36.3594 31.4102 36.125 31.4102 35.8516C31.4102 35.5859 31.3125 35.3555 31.1172 35.1602C30.9297 34.9648 30.6992 34.8672 30.4258 34.8672C30.1523 34.8672 29.918 34.9648 29.7227 35.1602C29.5273 35.3555 29.4297 35.5859 29.4297 35.8516C29.4297 36.125 29.5273 36.3594 29.7227 36.5547C29.918 36.75 30.1523 36.8477 30.4258 36.8477ZM28.2461 34.4453C28.5117 34.4453 28.7422 34.3477 28.9375 34.1523C29.1328 33.957 29.2305 33.7227 29.2305 33.4492C29.2305 33.1836 29.1328 32.9531 28.9375 32.7578C28.7422 32.5625 28.5117 32.4648 28.2461 32.4648C27.9727 32.4648 27.7383 32.5625 27.543 32.7578C27.3477 32.9531 27.25 33.1836 27.25 33.4492C27.25 33.7227 27.3477 33.957 27.543 34.1523C27.7383 34.3477 27.9727 34.4453 28.2461 34.4453ZM25.2461 31.9023C25.9414 31.9023 26.5742 31.7344 27.1445 31.3984C27.7148 31.0547 28.168 30.5977 28.5039 30.0273C28.8477 29.4492 29.0195 28.8125 29.0195 28.1172C29.0195 27.4219 28.8477 26.7891 28.5039 26.2188C28.168 25.6484 27.7148 25.1953 27.1445 24.8594C26.5742 24.5156 25.9414 24.3438 25.2461 24.3438C24.5508 24.3438 23.918 24.5156 23.3477 24.8594C22.7773 25.1953 22.3203 25.6484 21.9766 26.2188C21.6406 26.7891 21.4727 27.4219 21.4727 28.1172C21.4727 28.8125 21.6406 29.4492 21.9766 30.0273C22.3203 30.5977 22.7773 31.0547 23.3477 31.3984C23.918 31.7344 24.5508 31.9023 25.2461 31.9023ZM25.2461 30.0625C24.707 30.0625 24.25 29.875 23.875 29.5C23.5 29.125 23.3125 28.6641 23.3125 28.1172C23.3125 27.5781 23.5 27.1211 23.875 26.7461C24.25 26.3711 24.707 26.1836 25.2461 26.1836C25.793 26.1836 26.25 26.3711 26.6172 26.7461C26.9922 27.1211 27.1797 27.5781 27.1797 28.1172C27.1797 28.6641 26.9922 29.125 26.6172 29.5C26.25 29.875 25.793 30.0625 25.2461 30.0625ZM42.7422 31.9023C43.4375 31.9023 44.0703 31.7344 44.6406 31.3984C45.2188 31.0547 45.6758 30.5977 46.0117 30.0273C46.3555 29.4492 46.5273 28.8125 46.5273 28.1172C46.5273 27.4219 46.3555 26.7891 46.0117 26.2188C45.6758 25.6484 45.2188 25.1953 44.6406 24.8594C44.0703 24.5156 43.4375 24.3438 42.7422 24.3438C42.0469 24.3438 41.4141 24.5156 40.8438 24.8594C40.2734 25.1953 39.8164 25.6484 39.4727 26.2188C39.1367 26.7891 38.9688 27.4219 38.9688 28.1172C38.9688 28.8125 39.1367 29.4492 39.4727 30.0273C39.8164 30.5977 40.2734 31.0547 40.8438 31.3984C41.4141 31.7344 42.0469 31.9023 42.7422 31.9023ZM42.7422 30.0625C42.2031 30.0625 41.7461 29.875 41.3711 29.5C40.9961 29.125 40.8086 28.6641 40.8086 28.1172C40.8086 27.5781 40.9961 27.1211 41.3711 26.7461C41.7539 26.3711 42.2109 26.1836 42.7422 26.1836C43.2891 26.1836 43.75 26.3711 44.125 26.7461C44.5 27.1211 44.6875 27.5781 44.6875 28.1172C44.6875 28.6641 44.5 29.125 44.125 29.5C43.7578 29.875 43.2969 30.0625 42.7422 30.0625ZM34 44.7695C34.6953 44.7695 35.3281 44.5977 35.8984 44.2539C36.4688 43.918 36.9219 43.4648 37.2578 42.8945C37.6016 42.3164 37.7734 41.6797 37.7734 40.9844C37.7734 40.2891 37.6016 39.6562 37.2578 39.0859C36.9219 38.5156 36.4688 38.0625 35.8984 37.7266C35.3281 37.3828 34.6953 37.2109 34 37.2109C33.3047 37.2109 32.6719 37.3828 32.1016 37.7266C31.5312 38.0625 31.0742 38.5156 30.7305 39.0859C30.3945 39.6562 30.2266 40.2891 30.2266 40.9844C30.2266 41.6797 30.3945 42.3164 30.7305 42.8945C31.0742 43.4648 31.5312 43.918 32.1016 44.2539C32.6719 44.5977 33.3047 44.7695 34 44.7695ZM34 42.9297C33.4609 42.9297 33.0039 42.7422 32.6289 42.3672C32.2539 41.9844 32.0664 41.5234 32.0664 40.9844C32.0664 40.4375 32.2539 39.9805 32.6289 39.6133C33.0039 39.2383 33.4609 39.0508 34 39.0508C34.5469 39.0508 35.0039 39.2383 35.3711 39.6133C35.7461 39.9805 35.9336 40.4375 35.9336 40.9844C35.9336 41.5234 35.7461 41.9844 35.3711 42.3672C35.0039 42.7422 34.5469 42.9297 34 42.9297Z" fill="#462255"/>
</g>
<defs>
<clipPath id="clip0_1349_21902">
<rect width="68" height="68" fill="white"/>
</clipPath>
</defs>
</svg>
