<svg width="68" height="68" viewBox="0 0 68 68" fill="none" xmlns="http://www.w3.org/2000/svg">
<path d="M26.6758 36.9766H24.7891V41.7109C24.7891 42.9219 25.0938 43.8281 25.7031 44.4297C26.3203 45.0391 27.2422 45.3438 28.4688 45.3438H44.4766C45.6953 45.3438 46.6133 45.0391 47.2305 44.4297C47.8477 43.8281 48.1562 42.9219 48.1562 41.7109V36.9766H46.2695V41.8164C46.2695 42.3555 46.1289 42.7617 45.8477 43.0352C45.5664 43.3164 45.168 43.457 44.6523 43.457H28.3164C27.793 43.457 27.3867 43.3164 27.0977 43.0352C26.8164 42.7617 26.6758 42.3555 26.6758 41.8164V36.9766ZM21.4375 26.6641C21.8359 26.6641 22.1758 26.5234 22.457 26.2422C22.7383 25.9609 22.8789 25.6211 22.8789 25.2227C22.8789 24.8242 22.7383 24.4844 22.457 24.2031C22.1758 23.9219 21.8359 23.7812 21.4375 23.7812C21.0391 23.7812 20.6992 23.9219 20.418 24.2031C20.1367 24.4844 19.9961 24.8242 19.9961 25.2227C19.9961 25.6211 20.1367 25.9609 20.418 26.2422C20.6992 26.5234 21.0391 26.6641 21.4375 26.6641ZM21.4375 31.3164C21.8359 31.3164 22.1758 31.1758 22.457 30.8945C22.7383 30.6133 22.8789 30.2734 22.8789 29.875C22.8789 29.4766 22.7383 29.1367 22.457 28.8555C22.1758 28.5742 21.8359 28.4336 21.4375 28.4336C21.0391 28.4336 20.6992 28.5742 20.418 28.8555C20.1367 29.1367 19.9961 29.4766 19.9961 29.875C19.9961 30.2734 20.1367 30.6133 20.418 30.8945C20.6992 31.1758 21.0391 31.3164 21.4375 31.3164ZM21.4375 40.6328C21.8359 40.6328 22.1758 40.4922 22.457 40.2109C22.7383 39.9297 22.8789 39.5898 22.8789 39.1914C22.8789 38.793 22.7383 38.4531 22.457 38.1719C22.1758 37.8828 21.8359 37.7383 21.4375 37.7383C21.0391 37.7383 20.6992 37.8828 20.418 38.1719C20.1367 38.4531 19.9961 38.793 19.9961 39.1914C19.9961 39.5898 20.1367 39.9297 20.418 40.2109C20.6992 40.4922 21.0391 40.6328 21.4375 40.6328ZM21.4375 45.2969C21.8359 45.2969 22.1758 45.1562 22.457 44.875C22.7383 44.5938 22.8789 44.2539 22.8789 43.8555C22.8789 43.457 22.7383 43.1172 22.457 42.8359C22.1758 42.5469 21.8359 42.4023 21.4375 42.4023C21.0391 42.4023 20.6992 42.5469 20.418 42.8359C20.1367 43.1172 19.9961 43.457 19.9961 43.8555C19.9961 44.2539 20.1367 44.5938 20.418 44.875C20.6992 45.1562 21.0391 45.2969 21.4375 45.2969ZM21.4375 36.1328C21.875 36.1328 22.25 35.9766 22.5625 35.6641C22.875 35.3516 23.0312 34.9766 23.0312 34.5391C23.0312 34.1016 22.875 33.7266 22.5625 33.4141C22.25 33.1016 21.875 32.9453 21.4375 32.9453C21 32.9453 20.625 33.1016 20.3125 33.4141C20 33.7266 19.8438 34.1016 19.8438 34.5391C19.8438 34.9766 20 35.3516 20.3125 35.6641C20.625 35.9766 21 36.1328 21.4375 36.1328ZM48.9766 34.5508C48.9766 34.3242 48.8945 34.1328 48.7305 33.9766C48.5742 33.8125 48.3828 33.7305 48.1562 33.7305H22.1406V35.3828H48.1562C48.3828 35.3828 48.5742 35.3008 48.7305 35.1367C48.8945 34.9727 48.9766 34.7773 48.9766 34.5508ZM24.7891 32.125H26.6758V27.2969C26.6758 26.7578 26.8164 26.3516 27.0977 26.0781C27.3867 25.7969 27.793 25.6562 28.3164 25.6562H44.6523C45.168 25.6562 45.5664 25.7969 45.8477 26.0781C46.1289 26.3516 46.2695 26.7578 46.2695 27.2969V32.125H48.1562V27.4023C48.1562 26.1914 47.8477 25.2852 47.2305 24.6836C46.6133 24.0742 45.6953 23.7695 44.4766 23.7695H28.4688C27.2422 23.7695 26.3203 24.0742 25.7031 24.6836C25.0938 25.2852 24.7891 26.1914 24.7891 27.4023V32.125Z" fill="#462255"/>
</svg>
