<svg width="80" height="80" viewBox="0 0 80 80" fill="none" xmlns="http://www.w3.org/2000/svg">
<path fill-rule="evenodd" clip-rule="evenodd" d="M51.4141 42.2385C51.2771 42.2462 51.1391 42.25 51 42.25C50.0105 42.25 49.0781 42.0645 48.2028 41.6934C47.3274 41.3128 46.5568 40.7895 45.8907 40.1235C45.2247 39.4575 44.7014 38.6868 44.3209 37.8115C43.9403 36.9362 43.75 35.999 43.75 35C43.75 34.5807 43.7835 34.1732 43.8506 33.7773H37.8789C37.4961 33.7773 37.1602 33.75 36.8711 33.6953C36.582 33.6406 36.3164 33.5508 36.0742 33.4258C35.832 33.3008 35.5859 33.1328 35.3359 32.9219L34.6211 32.3242C34.3242 32.0742 34.0391 31.8945 33.7656 31.7852C33.5 31.6758 33.1719 31.6211 32.7812 31.6211H30.3086C29.7461 31.6211 29.3164 31.7695 29.0195 32.0664C28.7227 32.3633 28.5742 32.8008 28.5742 33.3789V47.4648C28.5742 48.0742 28.7305 48.5352 29.043 48.8477C29.3555 49.1523 29.8047 49.3047 30.3906 49.3047H49.5859C50.1641 49.3047 50.6133 49.1523 50.9336 48.8477C51.2539 48.5352 51.4141 48.0781 51.4141 47.4766V42.2385Z" fill="white"/>
<path fill-rule="evenodd" clip-rule="evenodd" d="M53.2383 40.4375C52.5195 40.75 51.7578 40.9062 50.9531 40.9062C50.1406 40.9062 49.375 40.7539 48.6562 40.4492C47.9375 40.1367 47.3047 39.707 46.7578 39.1602C46.2109 38.6133 45.7812 37.9805 45.4688 37.2617C45.1562 36.543 45 35.7734 45 34.9531C45 34.1328 45.1562 33.3672 45.4688 32.6562C45.7812 31.9375 46.2109 31.3047 46.7578 30.7578C47.3047 30.2031 47.9375 29.7734 48.6562 29.4688C49.375 29.1562 50.1406 29 50.9531 29C51.7734 29 52.543 29.1562 53.2617 29.4688C53.9805 29.7734 54.6133 30.1992 55.1602 30.7461C55.707 31.293 56.1328 31.9258 56.4375 32.6445C56.75 33.3633 56.9062 34.1328 56.9062 34.9531C56.9062 35.7656 56.75 36.5312 56.4375 37.25C56.125 37.9688 55.6914 38.6016 55.1367 39.1484C54.5898 39.6953 53.957 40.125 53.2383 40.4375ZM49.3828 39.2773C49.8594 39.4492 50.3828 39.5352 50.9531 39.5352C51.5234 39.5352 52.043 39.4531 52.5117 39.2891C52.9805 39.1172 53.375 38.9023 53.6953 38.6445C54.0234 38.3789 54.2539 38.1133 54.3867 37.8477V37.7891C54.2617 37.5469 54.0469 37.3086 53.7422 37.0742C53.4375 36.832 53.0508 36.6328 52.582 36.4766C52.1133 36.3203 51.5664 36.2422 50.9414 36.2422C50.3242 36.2422 49.7812 36.3203 49.3125 36.4766C48.8438 36.6328 48.457 36.8281 48.1523 37.0625C47.8477 37.2969 47.6328 37.5391 47.5078 37.7891V37.8477C47.6328 38.1133 47.8555 38.375 48.1758 38.6328C48.5039 38.8906 48.9062 39.1055 49.3828 39.2773ZM49.582 34.707C49.9492 35.1055 50.4023 35.3047 50.9414 35.3047C51.4805 35.3047 51.9336 35.1055 52.3008 34.707C52.668 34.3086 52.8516 33.8047 52.8516 33.1953C52.8516 32.6484 52.668 32.1758 52.3008 31.7773C51.9336 31.3711 51.4805 31.168 50.9414 31.168C50.4102 31.168 49.957 31.3711 49.582 31.7773C49.2148 32.1758 49.0312 32.6484 49.0312 33.1953C49.0312 33.8047 49.2148 34.3086 49.582 34.707ZM51.4141 47.4766V42.2385C52.0669 42.202 52.6958 42.0784 53.3008 41.8677V47.5586C53.3008 48.7695 53.0078 49.6758 52.4219 50.2773C51.8359 50.8867 51.0195 51.1914 49.9727 51.1914H30.3672C29.1406 51.1914 28.2188 50.8867 27.6016 50.2773C26.9922 49.6758 26.6875 48.7695 26.6875 47.5586V33.2734C26.6875 32.0938 26.9688 31.2109 27.5312 30.625C28.0938 30.0391 28.8906 29.7461 29.9219 29.7461H33.2617C33.6445 29.7461 33.9766 29.7734 34.2578 29.8281C34.5469 29.8828 34.8086 29.9727 35.043 30.0977C35.2852 30.2227 35.5352 30.3945 35.793 30.6133L36.5078 31.1992C36.8047 31.4492 37.0898 31.6289 37.3633 31.7383C37.6367 31.8398 37.9727 31.8906 38.3711 31.8906H44.4648C44.4147 31.9931 44.3668 32.0972 44.3209 32.2028C44.1 32.7052 43.9432 33.2301 43.8506 33.7773H37.8789C37.4961 33.7773 37.1602 33.75 36.8711 33.6953C36.582 33.6406 36.3164 33.5508 36.0742 33.4258C35.832 33.3008 35.5859 33.1328 35.3359 32.9219L34.6211 32.3242C34.3242 32.0742 34.0391 31.8945 33.7656 31.7852C33.5 31.6758 33.1719 31.6211 32.7812 31.6211H30.3086C29.7461 31.6211 29.3164 31.7695 29.0195 32.0664C28.7227 32.3633 28.5742 32.8008 28.5742 33.3789V36.2969H43.863C43.957 36.8208 44.1096 37.3257 44.3209 37.8115C44.3582 37.8975 44.397 37.9825 44.4371 38.0664H28.5742V47.4648C28.5742 48.0742 28.7305 48.5352 29.043 48.8477C29.3555 49.1523 29.8047 49.3047 30.3906 49.3047H49.5859C50.1641 49.3047 50.6133 49.1523 50.9336 48.8477C51.2539 48.5352 51.4141 48.0781 51.4141 47.4766Z" fill="black"/>
</svg>
