<svg width="36" height="36" viewBox="0 0 36 36" fill="none" xmlns="http://www.w3.org/2000/svg">
<path d="M9.77734 18.9941C10.6432 18.9941 11.457 19.1602 12.2188 19.4922C12.9805 19.8177 13.651 20.2702 14.2305 20.8496C14.8099 21.429 15.2624 22.0996 15.5879 22.8613C15.9134 23.623 16.0762 24.4368 16.0762 25.3027C16.0762 25.8626 16.0013 26.4062 15.8516 26.9336C15.7083 27.4609 15.5 27.9557 15.2266 28.418H23.1758C24.1849 28.418 24.9401 28.1608 25.4414 27.6465C25.9492 27.1387 26.2031 26.377 26.2031 25.3613V16.4941H19.1328C17.9023 16.4941 17.2871 15.8789 17.2871 14.6484V7.48047H12.8047C11.7956 7.48047 11.0371 7.73763 10.5293 8.25195C10.028 8.76628 9.77734 9.53125 9.77734 10.5469V18.9941ZM19.1621 15.1562H26.0859C26.0534 14.9544 25.9688 14.7526 25.832 14.5508C25.6953 14.349 25.5098 14.1276 25.2754 13.8867L19.8945 8.4082C19.6667 8.17383 19.4486 7.98828 19.2402 7.85156C19.0319 7.70833 18.8268 7.62044 18.625 7.58789V14.6289C18.625 14.9805 18.804 15.1562 19.1621 15.1562ZM9.77734 30.2637C10.4479 30.2637 11.0827 30.1335 11.6816 29.873C12.2806 29.6126 12.8079 29.2546 13.2637 28.7988C13.7259 28.3431 14.0872 27.8158 14.3477 27.2168C14.6081 26.6178 14.7383 25.9798 14.7383 25.3027C14.7383 24.6191 14.6081 23.9779 14.3477 23.3789C14.0938 22.7799 13.7389 22.2526 13.2832 21.7969C12.8275 21.3411 12.3001 20.9863 11.7012 20.7324C11.1022 20.472 10.4609 20.3418 9.77734 20.3418C9.10026 20.3418 8.46224 20.472 7.86328 20.7324C7.26432 20.9863 6.73698 21.3444 6.28125 21.8066C5.82552 22.2624 5.46745 22.7897 5.20703 23.3887C4.94661 23.9811 4.81641 24.6191 4.81641 25.3027C4.81641 25.9863 4.94661 26.6276 5.20703 27.2266C5.46745 27.8255 5.82552 28.3529 6.28125 28.8086C6.73698 29.2643 7.26432 29.6191 7.86328 29.873C8.46224 30.1335 9.10026 30.2637 9.77734 30.2637ZM9.79688 22.1484C9.93359 22.1484 10.0866 22.2266 10.2559 22.3828L12.7852 24.7266C12.9284 24.8503 13 25.0033 13 25.1855C13 25.3548 12.9414 25.4948 12.8242 25.6055C12.7135 25.7227 12.5736 25.7747 12.4043 25.7617C12.3197 25.7552 12.2383 25.7357 12.1602 25.7031C12.0885 25.6706 12.0234 25.625 11.9648 25.5664L11.0273 24.6289L10.3926 23.9648L10.4414 25.2148V27.8027C10.4414 27.972 10.3763 28.1185 10.2461 28.2422C10.1224 28.3659 9.97266 28.4277 9.79688 28.4277C9.62109 28.4277 9.4681 28.3659 9.33789 28.2422C9.21419 28.1185 9.15234 27.972 9.15234 27.8027V25.2148L9.20117 23.9648L8.55664 24.6289L7.62891 25.5664C7.48568 25.7096 7.33594 25.7747 7.17969 25.7617C7.01042 25.7617 6.86719 25.7064 6.75 25.5957C6.63281 25.4915 6.57747 25.3548 6.58398 25.1855C6.59701 24.9967 6.67188 24.8438 6.80859 24.7266L9.32812 22.3828C9.48438 22.2266 9.64062 22.1484 9.79688 22.1484Z" fill="#150A1A"/>
</svg>
