<svg width="36" height="36" viewBox="0 0 36 36" fill="none" xmlns="http://www.w3.org/2000/svg">
<path d="M17.2656 26.5586H29.5312C30.2995 26.5586 30.8398 26.4479 31.1523 26.2266C31.4648 26.0117 31.6211 25.6895 31.6211 25.2598C31.6211 24.6348 31.429 23.974 31.0449 23.2773C30.6673 22.5807 30.1204 21.9297 29.4043 21.3242C28.6947 20.7122 27.832 20.2174 26.8164 19.8398C25.8073 19.4557 24.668 19.2637 23.3984 19.2637C22.1354 19.2637 20.9961 19.4557 19.9805 19.8398C18.9714 20.2174 18.1087 20.7122 17.3926 21.3242C16.6764 21.9297 16.1296 22.5807 15.752 23.2773C15.3743 23.974 15.1855 24.6348 15.1855 25.2598C15.1855 25.6895 15.3385 26.0117 15.6445 26.2266C15.957 26.4479 16.4974 26.5586 17.2656 26.5586ZM23.4082 17.5156C24.1048 17.5156 24.7493 17.3268 25.3418 16.9492C25.9342 16.5651 26.4095 16.0475 26.7676 15.3965C27.1257 14.7454 27.3047 14.013 27.3047 13.1992C27.3047 12.3984 27.1257 11.6823 26.7676 11.0508C26.4095 10.4128 25.9342 9.91146 25.3418 9.54688C24.7493 9.18229 24.1048 9 23.4082 9C22.7116 9 22.0671 9.18555 21.4746 9.55664C20.8822 9.92773 20.4036 10.4323 20.0391 11.0703C19.681 11.7083 19.502 12.4245 19.502 13.2188C19.502 14.026 19.681 14.7552 20.0391 15.4062C20.3971 16.0508 20.8724 16.5651 21.4648 16.9492C22.0573 17.3268 22.7051 17.5156 23.4082 17.5156ZM6.71875 26.5586H14.1309C13.877 26.1875 13.7565 25.7415 13.7695 25.2207C13.7826 24.6999 13.903 24.153 14.1309 23.5801C14.3587 23.0072 14.6712 22.4538 15.0684 21.9199C15.472 21.3796 15.9375 20.9043 16.4648 20.4941C15.918 20.1296 15.2897 19.8301 14.5801 19.5957C13.877 19.3548 13.0697 19.2344 12.1582 19.2344C11.0579 19.2344 10.0651 19.4167 9.17969 19.7812C8.30078 20.1393 7.54883 20.6146 6.92383 21.207C6.30534 21.793 5.83008 22.4342 5.49805 23.1309C5.16602 23.8275 5 24.5143 5 25.1914C5 25.6276 5.13021 25.9629 5.39062 26.1973C5.65755 26.4382 6.10026 26.5586 6.71875 26.5586ZM12.1582 17.7402C12.7702 17.7402 13.3333 17.5742 13.8477 17.2422C14.362 16.9102 14.7754 16.4609 15.0879 15.8945C15.4004 15.3216 15.5566 14.6836 15.5566 13.9805C15.5566 13.2773 15.4004 12.6523 15.0879 12.1055C14.7754 11.5521 14.3587 11.1191 13.8379 10.8066C13.3236 10.4876 12.7637 10.3281 12.1582 10.3281C11.5592 10.3281 10.9993 10.4909 10.4785 10.8164C9.96419 11.1354 9.54753 11.5716 9.22852 12.125C8.90951 12.6784 8.75326 13.3034 8.75977 14C8.75977 14.6966 8.91602 15.3281 9.22852 15.8945C9.54102 16.4609 9.95443 16.9102 10.4688 17.2422C10.9896 17.5742 11.5527 17.7402 12.1582 17.7402Z" fill="#150A1A"/>
</svg>
