<svg width="36" height="36" viewBox="0 0 36 36" fill="none" xmlns="http://www.w3.org/2000/svg">
<path d="M14.1719 20.7422C13.9831 20.7422 13.8236 20.6836 13.6934 20.5664C13.5697 20.4427 13.5078 20.2897 13.5078 20.1074C13.5078 19.9251 13.5697 19.7721 13.6934 19.6484C13.8236 19.5247 13.9831 19.4629 14.1719 19.4629H21.8574C22.0397 19.4629 22.1927 19.5247 22.3164 19.6484C22.4466 19.7721 22.5117 19.9251 22.5117 20.1074C22.5117 20.2897 22.4466 20.4427 22.3164 20.5664C22.1927 20.6836 22.0397 20.7422 21.8574 20.7422H14.1719ZM14.1719 24.4434C13.9831 24.4434 13.8236 24.3815 13.6934 24.2578C13.5697 24.1341 13.5078 23.9844 13.5078 23.8086C13.5078 23.6263 13.5697 23.4733 13.6934 23.3496C13.8236 23.2259 13.9831 23.1641 14.1719 23.1641H21.8574C22.0397 23.1641 22.1927 23.2259 22.3164 23.3496C22.4466 23.4733 22.5117 23.6263 22.5117 23.8086C22.5117 23.9844 22.4466 24.1341 22.3164 24.2578C22.1927 24.3815 22.0397 24.4434 21.8574 24.4434H14.1719ZM12.8145 28.418H23.1855C24.1947 28.418 24.9499 28.1608 25.4512 27.6465C25.959 27.1387 26.2129 26.377 26.2129 25.3613V16.4941H19.1426C17.9121 16.4941 17.2969 15.8789 17.2969 14.6484V7.48047H12.8145C11.8053 7.48047 11.0469 7.73763 10.5391 8.25195C10.0378 8.76628 9.78711 9.53125 9.78711 10.5469V25.3613C9.78711 26.3835 10.0378 27.1484 10.5391 27.6562C11.0469 28.1641 11.8053 28.418 12.8145 28.418ZM19.1719 15.1562H26.0957C26.0632 14.9544 25.9785 14.7526 25.8418 14.5508C25.7051 14.349 25.5195 14.1276 25.2852 13.8867L19.9043 8.4082C19.6764 8.17383 19.4583 7.98828 19.25 7.85156C19.0417 7.70833 18.8366 7.62044 18.6348 7.58789V14.6289C18.6348 14.9805 18.8138 15.1562 19.1719 15.1562Z" fill="#150A1A"/>
</svg>
