<svg width="36" height="36" viewBox="0 0 36 36" fill="none" xmlns="http://www.w3.org/2000/svg">
<path d="M11.0664 26.9785H21.2324C21.0892 26.7376 20.9622 26.4837 20.8516 26.2168C20.7474 25.9564 20.6628 25.6862 20.5977 25.4062H10.9199C10.4902 25.4062 10.1582 25.2891 9.92383 25.0547C9.68945 24.8268 9.57227 24.4883 9.57227 24.0391V14.8301C9.57227 14.3809 9.68945 14.0423 9.92383 13.8145C10.1582 13.5801 10.4902 13.4629 10.9199 13.4629H24.5332C24.9694 13.4629 25.3047 13.5801 25.5391 13.8145C25.7734 14.0423 25.8906 14.3809 25.8906 14.8301V17.6035C26.0339 17.5905 26.1706 17.5807 26.3008 17.5742C26.431 17.5612 26.5612 17.5547 26.6914 17.5547C26.8216 17.5547 26.9518 17.5579 27.082 17.5645C27.2122 17.571 27.3392 17.584 27.4629 17.6035V12.0273C27.4629 11.0182 27.209 10.263 26.7012 9.76172C26.1934 9.25391 25.4284 9 24.4062 9H11.0664C10.0443 9 9.27604 9.25391 8.76172 9.76172C8.25391 10.263 8 11.0182 8 12.0273V23.9512C8 24.9603 8.25391 25.7155 8.76172 26.2168C9.27604 26.7246 10.0443 26.9785 11.0664 26.9785ZM15.8223 16.9688H16.3984C16.5677 16.9688 16.6849 16.9395 16.75 16.8809C16.8216 16.8158 16.8574 16.6986 16.8574 16.5293V15.9531C16.8574 15.7839 16.8216 15.6667 16.75 15.6016C16.6849 15.5365 16.5677 15.5039 16.3984 15.5039H15.8223C15.653 15.5039 15.5326 15.5365 15.4609 15.6016C15.3958 15.6667 15.3633 15.7839 15.3633 15.9531V16.5293C15.3633 16.6986 15.3958 16.8158 15.4609 16.8809C15.5326 16.9395 15.653 16.9688 15.8223 16.9688ZM19.0742 16.9688H19.6406C19.8164 16.9688 19.9368 16.9395 20.002 16.8809C20.0671 16.8158 20.0996 16.6986 20.0996 16.5293V15.9531C20.0996 15.7839 20.0671 15.6667 20.002 15.6016C19.9368 15.5365 19.8164 15.5039 19.6406 15.5039H19.0742C18.8984 15.5039 18.778 15.5365 18.7129 15.6016C18.6478 15.6667 18.6152 15.7839 18.6152 15.9531V16.5293C18.6152 16.6986 18.6478 16.8158 18.7129 16.8809C18.778 16.9395 18.8984 16.9688 19.0742 16.9688ZM22.3164 16.9688H22.8926C23.0618 16.9688 23.179 16.9395 23.2441 16.8809C23.3092 16.8158 23.3418 16.6986 23.3418 16.5293V15.9531C23.3418 15.7839 23.3092 15.6667 23.2441 15.6016C23.179 15.5365 23.0618 15.5039 22.8926 15.5039H22.3164C22.1406 15.5039 22.0202 15.5365 21.9551 15.6016C21.89 15.6667 21.8574 15.7839 21.8574 15.9531V16.5293C21.8574 16.6986 21.89 16.8158 21.9551 16.8809C22.0202 16.9395 22.1406 16.9688 22.3164 16.9688ZM12.5801 20.1621H13.1562C13.3255 20.1621 13.4427 20.1328 13.5078 20.0742C13.5729 20.0091 13.6055 19.8919 13.6055 19.7227V19.1465C13.6055 18.9772 13.5729 18.8633 13.5078 18.8047C13.4427 18.7396 13.3255 18.707 13.1562 18.707H12.5801C12.4043 18.707 12.2839 18.7396 12.2188 18.8047C12.1536 18.8633 12.1211 18.9772 12.1211 19.1465V19.7227C12.1211 19.8919 12.1536 20.0091 12.2188 20.0742C12.2839 20.1328 12.4043 20.1621 12.5801 20.1621ZM15.8223 20.1621H16.3984C16.5677 20.1621 16.6849 20.1328 16.75 20.0742C16.8216 20.0091 16.8574 19.8919 16.8574 19.7227V19.1465C16.8574 18.9772 16.8216 18.8633 16.75 18.8047C16.6849 18.7396 16.5677 18.707 16.3984 18.707H15.8223C15.653 18.707 15.5326 18.7396 15.4609 18.8047C15.3958 18.8633 15.3633 18.9772 15.3633 19.1465V19.7227C15.3633 19.8919 15.3958 20.0091 15.4609 20.0742C15.5326 20.1328 15.653 20.1621 15.8223 20.1621ZM19.0742 20.1621H19.6406C19.8164 20.1621 19.9368 20.1328 20.002 20.0742C20.0671 20.0091 20.0996 19.8919 20.0996 19.7227V19.1465C20.0996 18.9772 20.0671 18.8633 20.002 18.8047C19.9368 18.7396 19.8164 18.707 19.6406 18.707H19.0742C18.8984 18.707 18.778 18.7396 18.7129 18.8047C18.6478 18.8633 18.6152 18.9772 18.6152 19.1465V19.7227C18.6152 19.8919 18.6478 20.0091 18.7129 20.0742C18.778 20.1328 18.8984 20.1621 19.0742 20.1621ZM12.5801 23.3652H13.1562C13.3255 23.3652 13.4427 23.3327 13.5078 23.2676C13.5729 23.2025 13.6055 23.0853 13.6055 22.916V22.3398C13.6055 22.1706 13.5729 22.0566 13.5078 21.998C13.4427 21.9329 13.3255 21.9004 13.1562 21.9004H12.5801C12.4043 21.9004 12.2839 21.9329 12.2188 21.998C12.1536 22.0566 12.1211 22.1706 12.1211 22.3398V22.916C12.1211 23.0853 12.1536 23.2025 12.2188 23.2676C12.2839 23.3327 12.4043 23.3652 12.5801 23.3652ZM15.8223 23.3652H16.3984C16.5677 23.3652 16.6849 23.3327 16.75 23.2676C16.8216 23.2025 16.8574 23.0853 16.8574 22.916V22.3398C16.8574 22.1706 16.8216 22.0566 16.75 21.998C16.6849 21.9329 16.5677 21.9004 16.3984 21.9004H15.8223C15.653 21.9004 15.5326 21.9329 15.4609 21.998C15.3958 22.0566 15.3633 22.1706 15.3633 22.3398V22.916C15.3633 23.0853 15.3958 23.2025 15.4609 23.2676C15.5326 23.3327 15.653 23.3652 15.8223 23.3652ZM19.0742 23.3652H19.6406C19.8164 23.3652 19.9368 23.3327 20.002 23.2676C20.0671 23.2025 20.0996 23.0853 20.0996 22.916V22.3398C20.0996 22.1706 20.0671 22.0566 20.002 21.998C19.9368 21.9329 19.8164 21.9004 19.6406 21.9004H19.0742C18.8984 21.9004 18.778 21.9329 18.7129 21.998C18.6478 22.0566 18.6152 22.1706 18.6152 22.3398V22.916C18.6152 23.0853 18.6478 23.2025 18.7129 23.2676C18.778 23.3327 18.8984 23.3652 19.0742 23.3652ZM26.6914 28.8145C27.362 28.8145 27.9967 28.6842 28.5957 28.4238C29.1947 28.1634 29.722 27.8053 30.1777 27.3496C30.64 26.8939 31.0013 26.3665 31.2617 25.7676C31.5221 25.1686 31.6523 24.5306 31.6523 23.8535C31.6523 23.1699 31.5221 22.5286 31.2617 21.9297C31.0078 21.3307 30.653 20.8034 30.1973 20.3477C29.7415 19.8919 29.2142 19.5371 28.6152 19.2832C28.0163 19.0228 27.375 18.8926 26.6914 18.8926C26.0143 18.8926 25.3763 19.0228 24.7773 19.2832C24.1784 19.5371 23.651 19.8952 23.1953 20.3574C22.7396 20.8132 22.3815 21.3405 22.1211 21.9395C21.8607 22.5319 21.7305 23.1699 21.7305 23.8535C21.7305 24.5371 21.8607 25.1784 22.1211 25.7773C22.3815 26.3763 22.7396 26.9036 23.1953 27.3594C23.651 27.8151 24.1784 28.1699 24.7773 28.4238C25.3763 28.6842 26.0143 28.8145 26.6914 28.8145ZM24.3672 24.6152C24.1979 24.6152 24.0547 24.5566 23.9375 24.4395C23.8203 24.3158 23.7617 24.1725 23.7617 24.0098C23.7617 23.847 23.8203 23.707 23.9375 23.5898C24.0612 23.4727 24.2044 23.4141 24.3672 23.4141H26.1348V20.9629C26.1348 20.8001 26.1934 20.6634 26.3105 20.5527C26.4277 20.4355 26.571 20.377 26.7402 20.377C26.903 20.377 27.043 20.4355 27.1602 20.5527C27.2773 20.6634 27.3359 20.8001 27.3359 20.9629V24.0098C27.3359 24.179 27.2773 24.3223 27.1602 24.4395C27.0495 24.5566 26.9095 24.6152 26.7402 24.6152H24.3672Z" fill="#AA4465"/>
</svg>
