<svg width="36" height="36" viewBox="0 0 36 36" fill="none" xmlns="http://www.w3.org/2000/svg">
<path fill-rule="evenodd" clip-rule="evenodd" d="M12.2187 19.4922C11.457 19.1602 10.6432 18.9941 9.77734 18.9941V10.5469C9.77734 9.53125 10.028 8.76628 10.5293 8.25195C11.0371 7.73763 11.7956 7.48047 12.8047 7.48047H17.2871V14.6484C17.2871 15.8789 17.9023 16.4941 19.1328 16.4941H26.2031V25.3613C26.2031 26.377 25.9492 27.1387 25.4414 27.6465C24.9401 28.1608 24.1849 28.418 23.1758 28.418H15.2266C15.5 27.9557 15.7083 27.4609 15.8516 26.9336C16.0013 26.4062 16.0762 25.8626 16.0762 25.3027C16.0762 24.4368 15.9134 23.623 15.5879 22.8613C15.2624 22.0996 14.8099 21.429 14.2305 20.8496C13.651 20.2702 12.9805 19.8177 12.2187 19.4922ZM26.0859 15.1562H19.1621C18.804 15.1562 18.625 14.9805 18.625 14.6289V7.58789C18.8268 7.62044 19.0319 7.70833 19.2402 7.85156C19.4486 7.98828 19.6667 8.17383 19.8945 8.4082L25.2754 13.8867C25.5098 14.1276 25.6953 14.349 25.832 14.5508C25.9688 14.7526 26.0534 14.9544 26.0859 15.1562ZM7.83472 20.7686C8.43368 20.5081 9.06844 20.3779 9.73901 20.3779C10.4161 20.3779 11.0541 20.5081 11.6531 20.7686C12.252 21.0225 12.7794 21.3773 13.2351 21.833C13.6908 22.2887 14.0489 22.8161 14.3093 23.415C14.5697 24.014 14.7 24.6553 14.7 25.3389C14.7 26.0225 14.5697 26.6605 14.3093 27.2529C14.0489 27.8519 13.6908 28.3792 13.2351 28.835C12.7794 29.2972 12.252 29.6553 11.6531 29.9092C11.0541 30.1696 10.4161 30.2998 9.73901 30.2998C9.05542 30.2998 8.41414 30.1696 7.81519 29.9092C7.21623 29.6553 6.68888 29.3005 6.23315 28.8447C5.77743 28.389 5.42261 27.8617 5.1687 27.2627C4.90828 26.6637 4.77808 26.0225 4.77808 25.3389C4.77808 24.6618 4.90829 24.0238 5.1687 23.4248C5.42912 22.8258 5.79045 22.2985 6.25269 21.8428C6.70842 21.387 7.23576 21.029 7.83472 20.7686ZM9.2605 28.2588C9.42977 28.415 9.58276 28.4932 9.71948 28.4932C9.87573 28.4932 10.032 28.415 10.1882 28.2588L12.7078 25.915C12.8445 25.7979 12.9194 25.6449 12.9324 25.4561C12.9389 25.2868 12.8835 25.1501 12.7664 25.0459C12.6492 24.9352 12.5059 24.8799 12.3367 24.8799C12.1804 24.8669 12.0307 24.932 11.8875 25.0752L10.9597 26.0127L10.3152 26.6768L10.364 25.4268V22.8389C10.364 22.6696 10.3022 22.5231 10.1785 22.3994C10.0483 22.2757 9.89526 22.2139 9.71948 22.2139C9.5437 22.2139 9.39396 22.2757 9.27026 22.3994C9.14006 22.5231 9.07495 22.6696 9.07495 22.8389V25.4268L9.12378 26.6768L8.48901 26.0127L7.55151 25.0752C7.49292 25.0166 7.42782 24.971 7.3562 24.9385C7.27808 24.9059 7.1967 24.8864 7.11206 24.8799C6.94279 24.8669 6.80282 24.9189 6.69214 25.0361C6.57495 25.1468 6.51636 25.2868 6.51636 25.4561C6.51636 25.6383 6.58797 25.7913 6.7312 25.915L9.2605 28.2588Z" fill="#AA4465"/>
</svg>
