<svg width="36" height="36" viewBox="0 0 36 36" fill="none" xmlns="http://www.w3.org/2000/svg">
<path fill-rule="evenodd" clip-rule="evenodd" d="M12.2188 19.4922C11.457 19.1602 10.6432 18.9941 9.77734 18.9941V10.5469C9.77734 9.53125 10.028 8.76628 10.5293 8.25195C11.0371 7.73763 11.7956 7.48047 12.8047 7.48047H17.2871V14.6484C17.2871 15.8789 17.9023 16.4941 19.1328 16.4941H26.2031V25.3613C26.2031 26.377 25.9492 27.1387 25.4414 27.6465C24.9401 28.1608 24.1849 28.418 23.1758 28.418H15.2266C15.5 27.9557 15.7083 27.4609 15.8516 26.9336C16.0013 26.4062 16.0762 25.8626 16.0762 25.3027C16.0762 24.4368 15.9134 23.623 15.5879 22.8613C15.2624 22.0996 14.8099 21.429 14.2305 20.8496C13.651 20.2702 12.9805 19.8177 12.2188 19.4922ZM26.0859 15.1562H19.1621C18.804 15.1562 18.625 14.9805 18.625 14.6289V7.58789C18.8268 7.62044 19.0319 7.70833 19.2402 7.85156C19.4486 7.98828 19.6667 8.17383 19.8945 8.4082L25.2754 13.8867C25.5098 14.1276 25.6953 14.349 25.832 14.5508C25.9688 14.7526 26.0534 14.9544 26.0859 15.1562ZM9.6769 21C9.19513 21 8.72638 21.0781 8.27065 21.2344C7.81492 21.3906 7.42104 21.6087 7.08901 21.8887C6.90671 22.0319 6.79604 22.1947 6.75698 22.377C6.72442 22.5592 6.77 22.7188 6.89369 22.8555C7.03692 23.0052 7.18992 23.0736 7.35268 23.0605C7.51544 23.0475 7.67169 22.9824 7.82143 22.8652C8.10138 22.6504 8.38458 22.4876 8.67104 22.377C8.96401 22.2663 9.29929 22.2109 9.6769 22.2109C10.1782 22.2109 10.6437 22.3151 11.0734 22.5234C11.5096 22.7253 11.8774 23.0085 12.1769 23.373C12.4829 23.7311 12.6912 24.138 12.8019 24.5938H11.9523C11.77 24.5938 11.6593 24.6621 11.6203 24.7988C11.5877 24.9355 11.6203 25.0723 11.7179 25.209L12.9581 26.9375C13.0623 27.0742 13.1893 27.1491 13.339 27.1621C13.4953 27.1686 13.6255 27.0938 13.7296 26.9375L14.9601 25.209C15.0578 25.0723 15.0871 24.9355 15.048 24.7988C15.0154 24.6621 14.908 24.5938 14.7257 24.5938H13.964C13.8338 23.8841 13.5701 23.2591 13.173 22.7188C12.7759 22.1784 12.2746 21.7585 11.6691 21.459C11.0636 21.153 10.3996 21 9.6769 21ZM9.68666 29.584C10.1619 29.584 10.6274 29.5059 11.0831 29.3496C11.5389 29.1934 11.9328 28.9785 12.2648 28.7051C12.4471 28.5553 12.5578 28.3926 12.5968 28.2168C12.6359 28.0345 12.5903 27.8717 12.4601 27.7285C12.3234 27.5853 12.1704 27.5202 12.0011 27.5332C11.8384 27.5397 11.6854 27.6016 11.5421 27.7188C11.2622 27.9336 10.9757 28.0996 10.6828 28.2168C10.3898 28.3275 10.0578 28.3828 9.68666 28.3828C9.17885 28.3828 8.70685 28.2786 8.27065 28.0703C7.84096 27.862 7.47312 27.5788 7.16713 27.2207C6.86765 26.8561 6.66257 26.446 6.5519 25.9902H7.36244C7.53823 25.9902 7.64565 25.9219 7.68471 25.7852C7.73028 25.6484 7.70424 25.5117 7.60658 25.375L6.35658 23.6465C6.25242 23.5033 6.12221 23.4316 5.96596 23.4316C5.81622 23.4251 5.68601 23.4967 5.57533 23.6465L4.35463 25.375C4.25698 25.5117 4.22768 25.6484 4.26674 25.7852C4.3058 25.9219 4.41323 25.9902 4.58901 25.9902H5.39955C5.52325 26.6999 5.78367 27.3249 6.1808 27.8652C6.58445 28.4056 7.08575 28.8288 7.68471 29.1348C8.29018 29.4342 8.9575 29.584 9.68666 29.584Z" fill="#150A1A"/>
</svg>
