<svg width="37" height="29" viewBox="0 0 37 29" fill="none" xmlns="http://www.w3.org/2000/svg">
<g clip-path="url(#clip0_1188_18175)">
<path d="M32.5552 9.84532L8.56812 16.2697C7.8265 16.4644 7.16367 16.5061 6.57963 16.3948C5.9956 16.2836 5.51354 16.0147 5.13346 15.5883L0.280428 10.1095C0.0764804 9.90558 -0.0162231 9.66919 0.00231759 9.40035C0.0208583 9.13151 0.141373 8.89975 0.363861 8.70507L0.808838 8.2879C1.0406 8.06542 1.28163 7.92636 1.53193 7.87074C1.78223 7.81512 2.0418 7.83829 2.31064 7.94027L8.83872 10.2473L12.6511 8.94206L6.03732 1.86355C5.78702 1.60398 5.69431 1.32123 5.75921 1.01531C5.8241 0.700119 6.00951 0.486901 6.31543 0.375657L7.33053 0.0697349C7.8404 -0.0785907 8.35027 -0.0368741 8.86014 0.194885L20.4156 5.64585C20.7216 5.79418 20.9765 5.87761 21.1804 5.89615C21.3937 5.91469 21.6347 5.87761 21.9035 5.78491L30.4832 2.85084C31.3917 2.53565 32.2863 2.40123 33.167 2.44758C34.0477 2.49393 34.8171 2.69788 35.4753 3.05942C36.1335 3.4117 36.5831 3.9123 36.8242 4.56122C37.0837 5.28431 37.0559 5.99813 36.7407 6.70267C36.4348 7.40722 35.911 8.0376 35.1694 8.59383C34.437 9.15005 33.5656 9.56721 32.5552 9.84532Z" fill="#E6D1D9"/>
<rect x="9" y="20" width="19" height="5" rx="2.5" fill="#E6D1D9"/>
</g>
<defs>
<clipPath id="clip0_1188_18175">
<rect width="37" height="29" fill="white"/>
</clipPath>
</defs>
</svg>
