<svg width="17" height="17" viewBox="0 0 17 17" fill="none" xmlns="http://www.w3.org/2000/svg">
<path d="M8.64844 16.6172C9.78385 16.6172 10.849 16.401 11.8438 15.9688C12.8385 15.5417 13.7135 14.9479 14.4688 14.1875C15.2292 13.4323 15.8255 12.5573 16.2578 11.5625C16.6901 10.5677 16.9062 9.5026 16.9062 8.36719C16.9062 7.23698 16.6901 6.17448 16.2578 5.17969C15.8255 4.1849 15.2292 3.30729 14.4688 2.54688C13.7135 1.78646 12.8359 1.19271 11.8359 0.765625C10.8411 0.333333 9.77865 0.117188 8.64844 0.117188C7.51823 0.117188 6.45312 0.333333 5.45312 0.765625C4.45833 1.19271 3.58073 1.78646 2.82031 2.54688C2.0651 3.30729 1.47135 4.1849 1.03906 5.17969C0.611979 6.17448 0.398438 7.23698 0.398438 8.36719C0.398438 9.5026 0.611979 10.5677 1.03906 11.5625C1.47135 12.5573 2.06771 13.4323 2.82812 14.1875C3.58854 14.9479 4.46615 15.5417 5.46094 15.9688C6.45573 16.401 7.51823 16.6172 8.64844 16.6172ZM5.21094 12.2891C4.86198 11.9453 4.6276 11.5521 4.50781 11.1094C4.39323 10.6667 4.39583 10.2214 4.51562 9.77344C4.63542 9.32031 4.8776 8.90885 5.24219 8.53906L9.49219 4.27344C9.91927 3.85156 10.3932 3.63802 10.9141 3.63281C11.4401 3.6276 11.901 3.82031 12.2969 4.21094C12.6927 4.60156 12.8854 5.05729 12.875 5.57812C12.8646 6.09375 12.6432 6.5651 12.2109 6.99219L8.01562 11.2031C7.76042 11.4583 7.46875 11.5911 7.14062 11.6016C6.8125 11.6068 6.52865 11.4844 6.28906 11.2344C6.05469 11 5.9375 10.7135 5.9375 10.375C5.94271 10.0365 6.07031 9.74219 6.32031 9.49219L9.23438 6.57031C9.33333 6.46615 9.44792 6.41406 9.57812 6.41406C9.71354 6.41406 9.83073 6.46354 9.92969 6.5625C10.0339 6.66146 10.0833 6.77604 10.0781 6.90625C10.0729 7.03646 10.0182 7.15365 9.91406 7.25781L7.01562 10.1641C6.95312 10.2214 6.92188 10.2839 6.92188 10.3516C6.92188 10.4141 6.94531 10.4688 6.99219 10.5156C7.04427 10.5625 7.09896 10.5885 7.15625 10.5938C7.21875 10.5938 7.28125 10.5599 7.34375 10.4922L11.5234 6.32031C11.7318 6.11198 11.849 5.875 11.875 5.60938C11.9062 5.34375 11.8203 5.10938 11.6172 4.90625C11.4245 4.70833 11.1927 4.625 10.9219 4.65625C10.651 4.68229 10.4115 4.79688 10.2031 5L5.98438 9.22656C5.625 9.58594 5.44271 9.98438 5.4375 10.4219C5.4375 10.8594 5.60417 11.2422 5.9375 11.5703C6.27083 11.8984 6.65625 12.0651 7.09375 12.0703C7.53125 12.0703 7.92708 11.8906 8.28125 11.5312L11.3516 8.46094C11.4505 8.36198 11.5703 8.3125 11.7109 8.3125C11.8516 8.3125 11.9714 8.35938 12.0703 8.45312C12.1641 8.54688 12.2109 8.66667 12.2109 8.8125C12.2161 8.95833 12.1693 9.07552 12.0703 9.16406L8.96094 12.2734C8.59635 12.638 8.19271 12.8828 7.75 13.0078C7.30729 13.1276 6.86458 13.1276 6.42188 13.0078C5.97917 12.888 5.57552 12.6484 5.21094 12.2891Z" fill="#AA4465"/>
</svg>
