<svg width="40" height="40" viewBox="0 0 40 40" fill="none" xmlns="http://www.w3.org/2000/svg">
<path d="M11.6406 23.8965H28.3594C29.4206 23.8965 30.2181 23.6458 30.752 23.1445C31.2923 22.6432 31.5625 21.9238 31.5625 20.9863V15.7812C31.5625 15.4427 31.5527 15.1367 31.5332 14.8633C31.5137 14.5833 31.4616 14.3327 31.377 14.1113C31.2988 13.89 31.1654 13.6947 30.9766 13.5254L27.4805 10.3809C27.1159 10.0488 26.7708 9.78841 26.4453 9.59961C26.1198 9.41081 25.7682 9.27734 25.3906 9.19922C25.0195 9.11458 24.5801 9.07227 24.0723 9.07227H15.918C15.4102 9.07227 14.9707 9.11458 14.5996 9.19922C14.2285 9.27734 13.8802 9.41081 13.5547 9.59961C13.2292 9.78841 12.8841 10.0488 12.5195 10.3809L9.01367 13.5254C8.82487 13.6947 8.68815 13.89 8.60352 14.1113C8.52539 14.3327 8.47656 14.5833 8.45703 14.8633C8.4375 15.1367 8.42773 15.4427 8.42773 15.7812V20.9863C8.42773 21.9303 8.69792 22.653 9.23828 23.1543C9.77865 23.6491 10.5794 23.8965 11.6406 23.8965ZM20 17.8418C19.5573 17.8418 19.1764 17.7344 18.8574 17.5195C18.5384 17.2982 18.291 17.0215 18.1152 16.6895C17.9395 16.3509 17.8516 16.0059 17.8516 15.6543V15.6152C17.8516 15.4264 17.7897 15.2572 17.666 15.1074C17.5488 14.9512 17.3633 14.873 17.1094 14.873H11.0156C10.7552 14.873 10.5924 14.8177 10.5273 14.707C10.4622 14.5898 10.5339 14.4368 10.7422 14.248L13.9258 11.3672C14.1992 11.1198 14.4564 10.944 14.6973 10.8398C14.9382 10.7292 15.2669 10.6738 15.6836 10.6738H24.3066C24.7298 10.6738 25.0586 10.7292 25.293 10.8398C25.5339 10.944 25.791 11.1198 26.0645 11.3672L29.248 14.2383C29.4694 14.4401 29.5443 14.5964 29.4727 14.707C29.401 14.8177 29.2383 14.873 28.9844 14.873H22.8906C22.6302 14.873 22.4382 14.9512 22.3145 15.1074C22.1973 15.2572 22.1387 15.4264 22.1387 15.6152V15.6543C22.1387 16.0059 22.0508 16.3509 21.875 16.6895C21.7057 17.0215 21.4583 17.2982 21.1328 17.5195C20.8138 17.7344 20.4362 17.8418 20 17.8418ZM11.7285 22.2852C11.2728 22.2852 10.9245 22.168 10.6836 21.9336C10.4427 21.6927 10.3223 21.3346 10.3223 20.8594V16.5723H16.2012C16.2988 17.1517 16.5234 17.6725 16.875 18.1348C17.2266 18.5905 17.6693 18.9518 18.2031 19.2188C18.7435 19.4792 19.3424 19.6094 20 19.6094C20.6576 19.6094 21.2533 19.4792 21.7871 19.2188C22.3275 18.9518 22.7702 18.5905 23.1152 18.1348C23.4668 17.6725 23.6914 17.1517 23.7891 16.5723H29.668V20.8594C29.668 21.3346 29.5443 21.6927 29.2969 21.9336C29.056 22.168 28.7142 22.2852 28.2715 22.2852H11.7285ZM11.6406 31.6113H28.3594C29.4141 31.6113 30.2116 31.3411 30.752 30.8008C31.2923 30.2669 31.5625 29.4792 31.5625 28.4375V23.7402C31.5625 23.5449 31.5169 23.3529 31.4258 23.1641C31.3346 22.9688 31.2077 22.8092 31.0449 22.6855C30.8822 22.5553 30.6934 22.4902 30.4785 22.4902H22.8906C22.6302 22.4902 22.4382 22.5684 22.3145 22.7246C22.1973 22.8743 22.1387 23.0469 22.1387 23.2422V23.2812C22.1387 23.6328 22.0508 23.9779 21.875 24.3164C21.7057 24.6484 21.4583 24.9251 21.1328 25.1465C20.8138 25.3613 20.4362 25.4688 20 25.4688C19.5573 25.4688 19.1764 25.3613 18.8574 25.1465C18.5384 24.9251 18.291 24.6484 18.1152 24.3164C17.9395 23.9779 17.8516 23.6328 17.8516 23.2812V23.2422C17.8516 23.0469 17.7897 22.8743 17.666 22.7246C17.5488 22.5684 17.3633 22.4902 17.1094 22.4902H9.51172C9.29688 22.4902 9.10807 22.5553 8.94531 22.6855C8.78906 22.8092 8.66211 22.9688 8.56445 23.1641C8.47331 23.3529 8.42773 23.5449 8.42773 23.7402V28.4375C8.42773 29.4857 8.69792 30.2767 9.23828 30.8105C9.77865 31.3444 10.5794 31.6113 11.6406 31.6113ZM11.7285 29.7363C11.2728 29.7363 10.9245 29.6159 10.6836 29.375C10.4427 29.1406 10.3223 28.7858 10.3223 28.3105V24.0527H16.2012C16.2988 24.6322 16.5234 25.1497 16.875 25.6055C17.2266 26.0612 17.6693 26.4225 18.2031 26.6895C18.7435 26.9564 19.3424 27.0898 20 27.0898C20.6576 27.0898 21.2533 26.9564 21.7871 26.6895C22.3275 26.4225 22.7702 26.0612 23.1152 25.6055C23.4668 25.1497 23.6914 24.6322 23.7891 24.0527H29.668V28.3105C29.668 28.7858 29.5443 29.1406 29.2969 29.375C29.056 29.6159 28.7142 29.7363 28.2715 29.7363H11.7285Z" fill="black"/>
</svg>
