<svg width="40" height="40" viewBox="0 0 40 40" fill="none" xmlns="http://www.w3.org/2000/svg">
<path d="M11.6309 30.8105H28.3496C29.4108 30.8105 30.2116 30.5404 30.752 30C31.2923 29.4661 31.5625 28.6784 31.5625 27.6367V21.9043C31.5625 21.39 31.5234 20.9733 31.4453 20.6543C31.3737 20.3353 31.2174 20.0293 30.9766 19.7363L28.1152 16.2109C27.7897 15.8203 27.5033 15.498 27.2559 15.2441C27.0085 14.9902 26.7611 14.7917 26.5137 14.6484C26.2728 14.4987 25.9961 14.3978 25.6836 14.3457C25.3776 14.2871 25 14.2578 24.5508 14.2578H22.7051V15.8691H24.6094C24.9479 15.8691 25.2376 15.9212 25.4785 16.0254C25.7259 16.123 25.9896 16.3411 26.2695 16.6797L29.2969 20.4297C29.4727 20.6576 29.5312 20.8203 29.4727 20.918C29.4141 21.0156 29.2611 21.0645 29.0137 21.0645H22.8809C22.627 21.0645 22.4382 21.1426 22.3145 21.2988C22.1973 21.4486 22.1387 21.6211 22.1387 21.8164V21.8555C22.1387 22.207 22.0508 22.5521 21.875 22.8906C21.6992 23.2227 21.4518 23.4993 21.1328 23.7207C20.8138 23.9355 20.4329 24.043 19.9902 24.043C19.554 24.043 19.1732 23.9355 18.8477 23.7207C18.5286 23.4993 18.2812 23.2227 18.1055 22.8906C17.9362 22.5521 17.8516 22.207 17.8516 21.8555V21.8164C17.8516 21.6211 17.7897 21.4486 17.666 21.2988C17.5488 21.1426 17.36 21.0645 17.0996 21.0645H10.9863C10.7324 21.0645 10.5794 21.0124 10.5273 20.9082C10.4753 20.804 10.5306 20.6445 10.6934 20.4297L13.7012 16.709C13.9876 16.3574 14.2546 16.1296 14.502 16.0254C14.7493 15.9212 15.0423 15.8691 15.3809 15.8691H17.2852V14.2578H15.4395C14.9902 14.2578 14.6094 14.2871 14.2969 14.3457C13.9909 14.3978 13.7142 14.4987 13.4668 14.6484C13.2259 14.7917 12.9785 14.9935 12.7246 15.2539C12.4772 15.5078 12.1875 15.8366 11.8555 16.2402L9.01367 19.7363C8.77279 20.0293 8.61328 20.3353 8.53516 20.6543C8.46354 20.9733 8.42773 21.39 8.42773 21.9043V27.6367C8.42773 28.6849 8.69792 29.4759 9.23828 30.0098C9.77865 30.5436 10.5762 30.8105 11.6309 30.8105ZM11.7188 28.8965C11.2695 28.8965 10.9245 28.776 10.6836 28.5352C10.4427 28.3008 10.3223 27.946 10.3223 27.4707V22.7734H16.1914C16.2956 23.3529 16.5234 23.8737 16.875 24.3359C17.2266 24.7917 17.6693 25.153 18.2031 25.4199C18.7435 25.6803 19.3392 25.8105 19.9902 25.8105C20.6543 25.8105 21.2533 25.6803 21.7871 25.4199C22.321 25.153 22.7637 24.7917 23.1152 24.3359C23.4668 23.8737 23.6914 23.3529 23.7891 22.7734H29.668V27.4707C29.668 27.946 29.5443 28.3008 29.2969 28.5352C29.056 28.776 28.7109 28.8965 28.2617 28.8965H11.7188ZM19.9902 21.9824C20.2376 21.9824 20.4525 21.8945 20.6348 21.7188C20.8171 21.543 20.9082 21.3346 20.9082 21.0938V11.6602L20.8203 10.2148L21.4355 10.918L22.793 12.3828C22.9557 12.5586 23.1608 12.6465 23.4082 12.6465C23.6296 12.6465 23.8184 12.5749 23.9746 12.4316C24.1309 12.2819 24.209 12.0964 24.209 11.875C24.209 11.6602 24.1243 11.4648 23.9551 11.2891L20.6836 8.13477C20.5664 8.01758 20.4492 7.9362 20.332 7.89062C20.2214 7.84505 20.1074 7.82227 19.9902 7.82227C19.873 7.82227 19.7591 7.84505 19.6484 7.89062C19.5378 7.9362 19.4238 8.01758 19.3066 8.13477L16.0254 11.2891C15.8561 11.4648 15.7715 11.6602 15.7715 11.875C15.7715 12.0964 15.8496 12.2819 16.0059 12.4316C16.1621 12.5749 16.3509 12.6465 16.5723 12.6465C16.8262 12.6465 17.0312 12.5586 17.1875 12.3828L18.5547 10.918L19.1602 10.2051L19.0918 11.6602V21.0938C19.0918 21.3346 19.1797 21.543 19.3555 21.7188C19.5312 21.8945 19.7428 21.9824 19.9902 21.9824Z" fill="black"/>
</svg>
