<svg width="40" height="40" viewBox="0 0 40 40" fill="none" xmlns="http://www.w3.org/2000/svg">
<path d="M11.6309 30.8105H28.3496C29.4108 30.8105 30.2116 30.5404 30.752 30C31.2923 29.4661 31.5625 28.6784 31.5625 27.6367V21.9043C31.5625 21.39 31.5234 20.9766 31.4453 20.6641C31.3672 20.3451 31.2109 20.0358 30.9766 19.7363L27.7441 15.5957C27.3535 15.0944 26.9889 14.6745 26.6504 14.3359C26.3184 13.9974 25.9473 13.7435 25.5371 13.5742C25.1335 13.3984 24.6354 13.3105 24.043 13.3105H22.7051V14.9023H24.1309C24.4759 14.9023 24.8079 15.0228 25.127 15.2637C25.446 15.498 25.7194 15.7585 25.9473 16.0449L29.2969 20.4297C29.4727 20.6576 29.5312 20.8203 29.4727 20.918C29.4141 21.0156 29.2611 21.0645 29.0137 21.0645H22.8809C22.627 21.0645 22.4382 21.1426 22.3145 21.2988C22.1973 21.4486 22.1387 21.6211 22.1387 21.8164V21.8555C22.1387 22.207 22.0508 22.5521 21.875 22.8906C21.6992 23.2227 21.4518 23.4993 21.1328 23.7207C20.8138 23.9355 20.4329 24.043 19.9902 24.043C19.554 24.043 19.1732 23.9355 18.8477 23.7207C18.5286 23.4993 18.2812 23.2227 18.1055 22.8906C17.9362 22.5521 17.8516 22.207 17.8516 21.8555V21.8164C17.8516 21.6211 17.7897 21.4486 17.666 21.2988C17.5488 21.1426 17.36 21.0645 17.0996 21.0645H10.9863C10.7324 21.0645 10.5794 21.0124 10.5273 20.9082C10.4753 20.804 10.5306 20.6445 10.6934 20.4297L14.043 16.0449C14.2708 15.7585 14.5443 15.498 14.8633 15.2637C15.1888 15.0228 15.5176 14.9023 15.8496 14.9023H17.2852V13.3105H15.957C15.3581 13.3105 14.8568 13.3952 14.4531 13.5645C14.0495 13.7337 13.6784 13.9876 13.3398 14.3262C13.0078 14.6647 12.6465 15.0879 12.2559 15.5957L9.01367 19.7363C8.78581 20.0358 8.62956 20.3451 8.54492 20.6641C8.4668 20.9766 8.42773 21.39 8.42773 21.9043V27.6367C8.42773 28.6849 8.69792 29.4759 9.23828 30.0098C9.77865 30.5436 10.5762 30.8105 11.6309 30.8105ZM11.7188 28.8965C11.2695 28.8965 10.9245 28.776 10.6836 28.5352C10.4427 28.3008 10.3223 27.946 10.3223 27.4707V22.7734H16.1914C16.2956 23.3529 16.5234 23.8737 16.875 24.3359C17.2266 24.7917 17.6693 25.153 18.2031 25.4199C18.7435 25.6803 19.3392 25.8105 19.9902 25.8105C20.6543 25.8105 21.2533 25.6803 21.7871 25.4199C22.321 25.153 22.7637 24.7917 23.1152 24.3359C23.4668 23.8737 23.6914 23.3529 23.7891 22.7734H29.668V27.4707C29.668 27.946 29.5443 28.3008 29.2969 28.5352C29.056 28.776 28.7109 28.8965 28.2617 28.8965H11.7188ZM19.9902 20.9766C20.1074 20.9766 20.2181 20.957 20.3223 20.918C20.4329 20.8724 20.5436 20.7943 20.6543 20.6836L23.8379 17.6172C24.0007 17.4544 24.082 17.2656 24.082 17.0508C24.082 16.8294 24.0072 16.6504 23.8574 16.5137C23.7077 16.3704 23.5221 16.2988 23.3008 16.2988C23.0599 16.2988 22.8646 16.3867 22.7148 16.5625L21.3965 17.959L20.8008 18.6621L20.9082 17.1875V9.84375C20.9082 9.60286 20.8171 9.39453 20.6348 9.21875C20.4525 9.04297 20.2376 8.95508 19.9902 8.95508C19.7428 8.95508 19.5312 9.04297 19.3555 9.21875C19.1797 9.39453 19.0918 9.60286 19.0918 9.84375V17.1875L19.1895 18.6621L18.5938 17.959L17.2754 16.5625C17.1191 16.3867 16.9173 16.2988 16.6699 16.2988C16.4551 16.2988 16.2728 16.3704 16.123 16.5137C15.9798 16.6504 15.9082 16.8294 15.9082 17.0508C15.9082 17.2656 15.9896 17.4544 16.1523 17.6172L19.3262 20.6836C19.4434 20.7943 19.554 20.8724 19.6582 20.918C19.7689 20.957 19.8796 20.9766 19.9902 20.9766Z" fill="black"/>
</svg>
