<svg width="40" height="40" viewBox="0 0 40 40" fill="none" xmlns="http://www.w3.org/2000/svg">
<path d="M19.9902 30.5371C21.3704 30.5371 22.6693 30.2734 23.8867 29.7461C25.1042 29.2253 26.1784 28.4993 27.1094 27.5684C28.0404 26.6374 28.7695 25.5632 29.2969 24.3457C29.8242 23.1283 30.0879 21.8294 30.0879 20.4492C30.0879 19.069 29.8242 17.7702 29.2969 16.5527C28.7695 15.3353 28.0404 14.2643 27.1094 13.3398C26.1784 12.4089 25.1042 11.6797 23.8867 11.1523C22.6693 10.625 21.3672 10.3613 19.9805 10.3613C18.6003 10.3613 17.3014 10.625 16.084 11.1523C14.873 11.6797 13.8021 12.4089 12.8711 13.3398C11.9466 14.2643 11.2207 15.3353 10.6934 16.5527C10.166 17.7702 9.90234 19.069 9.90234 20.4492C9.90234 21.8294 10.166 23.1283 10.6934 24.3457C11.2207 25.5632 11.9466 26.6374 12.8711 27.5684C13.8021 28.4993 14.8763 29.2253 16.0938 29.7461C17.3112 30.2734 18.61 30.5371 19.9902 30.5371ZM19.9902 28.5449C18.8704 28.5449 17.819 28.3366 16.8359 27.9199C15.8594 27.5033 15 26.9238 14.2578 26.1816C13.5221 25.4395 12.946 24.5801 12.5293 23.6035C12.1126 22.627 11.9043 21.5755 11.9043 20.4492C11.9043 19.3294 12.1126 18.2812 12.5293 17.3047C12.946 16.3216 13.5221 15.459 14.2578 14.7168C14.9935 13.9746 15.8496 13.3952 16.8262 12.9785C17.8092 12.5618 18.8607 12.3535 19.9805 12.3535C21.1068 12.3535 22.1582 12.5618 23.1348 12.9785C24.1113 13.3952 24.9707 13.9746 25.7129 14.7168C26.4616 15.459 27.0443 16.3216 27.4609 17.3047C27.8776 18.2812 28.0859 19.3294 28.0859 20.4492C28.0859 21.5755 27.8776 22.627 27.4609 23.6035C27.0443 24.5801 26.4648 25.4395 25.7227 26.1816C24.987 26.9238 24.1276 27.5033 23.1445 27.9199C22.168 28.3366 21.1165 28.5449 19.9902 28.5449ZM17.207 24.2773H18.2227C18.4701 24.2773 18.6556 24.2155 18.7793 24.0918C18.903 23.9681 18.9648 23.8053 18.9648 23.6035V17.2754C18.9648 17.0736 18.903 16.9108 18.7793 16.7871C18.6556 16.6569 18.4701 16.5918 18.2227 16.5918H17.207C16.9531 16.5918 16.7643 16.6569 16.6406 16.7871C16.5234 16.9108 16.4648 17.0736 16.4648 17.2754V23.6035C16.4648 23.8053 16.5234 23.9681 16.6406 24.0918C16.7643 24.2155 16.9531 24.2773 17.207 24.2773ZM21.7676 24.2773H22.7832C23.0241 24.2773 23.2064 24.2155 23.3301 24.0918C23.4603 23.9681 23.5254 23.8053 23.5254 23.6035V17.2754C23.5254 17.0736 23.4603 16.9108 23.3301 16.7871C23.2064 16.6569 23.0241 16.5918 22.7832 16.5918H21.7676C21.5202 16.5918 21.3346 16.6569 21.2109 16.7871C21.0872 16.9108 21.0254 17.0736 21.0254 17.2754V23.6035C21.0254 23.8053 21.0872 23.9681 21.2109 24.0918C21.3346 24.2155 21.5202 24.2773 21.7676 24.2773Z" fill="black"/>
</svg>
