<svg width="17" height="17" viewBox="0 0 17 17" fill="none" xmlns="http://www.w3.org/2000/svg">
<path d="M8.64844 16.6094C9.78385 16.6094 10.849 16.3932 11.8438 15.9609C12.8385 15.5339 13.7135 14.9401 14.4688 14.1797C15.2292 13.4245 15.8255 12.5495 16.2578 11.5547C16.6901 10.5599 16.9062 9.49479 16.9062 8.35938C16.9062 7.22917 16.6901 6.16667 16.2578 5.17188C15.8255 4.17708 15.2292 3.29948 14.4688 2.53906C13.7135 1.77865 12.8359 1.1849 11.8359 0.757812C10.8411 0.325521 9.77865 0.109375 8.64844 0.109375C7.51823 0.109375 6.45312 0.325521 5.45312 0.757812C4.45833 1.1849 3.58073 1.77865 2.82031 2.53906C2.0651 3.29948 1.47135 4.17708 1.03906 5.17188C0.611979 6.16667 0.398438 7.22917 0.398438 8.35938C0.398438 9.49479 0.611979 10.5599 1.03906 11.5547C1.47135 12.5495 2.06771 13.4245 2.82812 14.1797C3.58854 14.9401 4.46615 15.5339 5.46094 15.9609C6.45573 16.3932 7.51823 16.6094 8.64844 16.6094ZM8.64844 15.0391C8.09115 15.0391 7.51823 14.9609 6.92969 14.8047C6.34635 14.6536 5.78906 14.4323 5.25781 14.1406C4.73177 13.849 4.27604 13.4948 3.89062 13.0781C4.21875 12.6198 4.61979 12.2318 5.09375 11.9141C5.56771 11.5911 6.10417 11.349 6.70312 11.1875C7.30729 11.0208 7.95573 10.9375 8.64844 10.9375C9.34115 10.9375 9.98438 11.0182 10.5781 11.1797C11.1771 11.3411 11.7161 11.5807 12.1953 11.8984C12.6797 12.2161 13.0833 12.6094 13.4062 13.0781C13.026 13.4948 12.5703 13.849 12.0391 14.1406C11.513 14.4323 10.9557 14.6536 10.3672 14.8047C9.77865 14.9609 9.20573 15.0391 8.64844 15.0391ZM8.64844 9.54688C8.1224 9.54688 7.64844 9.41146 7.22656 9.14062C6.8099 8.86979 6.47917 8.50521 6.23438 8.04688C5.98958 7.58854 5.86719 7.07552 5.86719 6.50781C5.86719 5.97135 5.98958 5.47656 6.23438 5.02344C6.48438 4.57031 6.82031 4.20833 7.24219 3.9375C7.66406 3.66146 8.13281 3.52344 8.64844 3.52344C9.16927 3.52344 9.63802 3.66146 10.0547 3.9375C10.4766 4.20833 10.8125 4.57031 11.0625 5.02344C11.3125 5.47656 11.4375 5.97135 11.4375 6.50781C11.4375 7.07552 11.3125 7.59115 11.0625 8.05469C10.8177 8.51302 10.4844 8.8776 10.0625 9.14844C9.64583 9.41927 9.17448 9.55208 8.64844 9.54688Z" fill="#AA4465"/>
</svg>
