<svg width="40" height="40" viewBox="0 0 40 40" fill="none" xmlns="http://www.w3.org/2000/svg">
<rect width="40" height="40" fill="white"/>
<path d="M13.4609 20.3594C13.4609 20.6042 13.5469 20.8125 13.7188 20.9844C13.8906 21.151 14.0964 21.2344 14.3359 21.2344H19.125V26.0312C19.125 26.2656 19.2109 26.4688 19.3828 26.6406C19.5547 26.8125 19.7604 26.8984 20 26.8984C20.2448 26.8984 20.4531 26.8125 20.625 26.6406C20.7969 26.4688 20.8828 26.2656 20.8828 26.0312V21.2344H25.6641C25.9036 21.2344 26.1094 21.151 26.2812 20.9844C26.4531 20.8125 26.5391 20.6042 26.5391 20.3594C26.5391 20.1198 26.4531 19.9141 26.2812 19.7422C26.1094 19.5651 25.9036 19.4766 25.6641 19.4766H20.8828V14.6953C20.8828 14.4557 20.7969 14.25 20.625 14.0781C20.4531 13.9062 20.2448 13.8203 20 13.8203C19.7604 13.8203 19.5547 13.9062 19.3828 14.0781C19.2109 14.25 19.125 14.4557 19.125 14.6953V19.4766H14.3359C14.0964 19.4766 13.8906 19.5651 13.7188 19.7422C13.5469 19.9141 13.4609 20.1198 13.4609 20.3594Z" fill="#462255"/>
</svg>
