<svg width="50" height="50" viewBox="0 0 50 50" fill="none" xmlns="http://www.w3.org/2000/svg">
<rect width="50" height="50" fill="#462255"/>
<path d="M34.2285 24.9395C34.2285 24.6335 34.1146 24.3665 33.8867 24.1387L27.4512 17.7227C27.334 17.6055 27.2103 17.5176 27.0801 17.459C26.9499 17.4004 26.8132 17.3711 26.6699 17.3711C26.3704 17.3711 26.1198 17.4688 25.918 17.6641C25.7227 17.8594 25.625 18.1035 25.625 18.3965C25.625 18.5527 25.651 18.696 25.7031 18.8262C25.7617 18.9499 25.8398 19.0605 25.9375 19.1582L28.125 21.375L31.7676 24.7051L32.1094 24.0703L28.7207 23.8652H16.8555C16.5299 23.8652 16.2663 23.9661 16.0645 24.168C15.8691 24.3633 15.7715 24.6204 15.7715 24.9395C15.7715 25.252 15.8691 25.5091 16.0645 25.7109C16.2663 25.9062 16.5299 26.0039 16.8555 26.0039H28.7207L32.1094 25.8086L31.7676 25.1836L28.125 28.5039L25.9375 30.7109C25.8398 30.8086 25.7617 30.9225 25.7031 31.0527C25.651 31.1829 25.625 31.3229 25.625 31.4727C25.625 31.7656 25.7227 32.0098 25.918 32.2051C26.1198 32.4004 26.3704 32.498 26.6699 32.498C26.9564 32.498 27.2135 32.3874 27.4414 32.166L33.8867 25.7402C34.1146 25.5124 34.2285 25.2454 34.2285 24.9395Z" fill="#E4E7EE"/>
</svg>
