<svg width="17" height="17" viewBox="0 0 17 17" fill="none" xmlns="http://www.w3.org/2000/svg">
<path d="M8.64844 16.6172C9.78385 16.6172 10.849 16.401 11.8438 15.9688C12.8385 15.5417 13.7135 14.9479 14.4688 14.1875C15.2292 13.4323 15.8255 12.5573 16.2578 11.5625C16.6901 10.5677 16.9062 9.5026 16.9062 8.36719C16.9062 7.23698 16.6901 6.17448 16.2578 5.17969C15.8255 4.1849 15.2292 3.30729 14.4688 2.54688C13.7135 1.78646 12.8359 1.19271 11.8359 0.765625C10.8411 0.333333 9.77865 0.117188 8.64844 0.117188C7.51823 0.117188 6.45312 0.333333 5.45312 0.765625C4.45833 1.19271 3.58073 1.78646 2.82031 2.54688C2.0651 3.30729 1.47135 4.1849 1.03906 5.17969C0.611979 6.17448 0.398438 7.23698 0.398438 8.36719C0.398438 9.5026 0.611979 10.5677 1.03906 11.5625C1.47135 12.5573 2.06771 13.4323 2.82812 14.1875C3.58854 14.9479 4.46615 15.5417 5.46094 15.9688C6.45573 16.401 7.51823 16.6172 8.64844 16.6172ZM4.27344 10.5469V7.92969C4.8776 8.15365 5.44271 8.32031 5.96875 8.42969C6.5 8.53385 7.02865 8.60677 7.55469 8.64844V8.9375C7.55469 9.26562 7.72135 9.42969 8.05469 9.42969H9.25781C9.59115 9.42969 9.75781 9.26562 9.75781 8.9375V8.64844C10.2839 8.60677 10.8099 8.53385 11.3359 8.42969C11.8672 8.32031 12.4349 8.15365 13.0391 7.92969V10.5469C13.0391 10.9688 12.9297 11.2891 12.7109 11.5078C12.4922 11.7266 12.1719 11.8359 11.75 11.8359H5.57031C5.14323 11.8359 4.82031 11.7266 4.60156 11.5078C4.38281 11.2891 4.27344 10.9688 4.27344 10.5469ZM4.27344 7.0625V6.84375C4.27344 6.42188 4.38281 6.10156 4.60156 5.88281C4.82031 5.66406 5.14323 5.55469 5.57031 5.55469H6.26562V5.11719C6.26562 4.79427 6.36458 4.54427 6.5625 4.36719C6.76042 4.1849 7.03646 4.09375 7.39062 4.09375H9.92188C10.276 4.09375 10.5521 4.1849 10.75 4.36719C10.9479 4.54427 11.0469 4.79427 11.0469 5.11719V5.55469H11.75C12.1719 5.55469 12.4922 5.66406 12.7109 5.88281C12.9297 6.10156 13.0391 6.42188 13.0391 6.84375V7.0625C12.3516 7.34896 11.638 7.5599 10.8984 7.69531C10.1641 7.83073 9.41667 7.89844 8.65625 7.89844C7.90104 7.89844 7.15365 7.83073 6.41406 7.69531C5.67448 7.5599 4.96094 7.34896 4.27344 7.0625ZM7.19531 5.55469H10.1172V5.15625C10.1172 5.00521 10.0286 4.92969 9.85156 4.92969H7.45312C7.28125 4.92969 7.19531 5.00521 7.19531 5.15625V5.55469Z" fill="#AA4465"/>
</svg>
