<svg width="48" height="48" viewBox="0 0 48 48" fill="none" xmlns="http://www.w3.org/2000/svg">
<rect width="48" height="48" fill="#E4E7EE"/>
<path d="M17.9971 31.7578H30.0029C30.9229 31.7578 31.6113 31.5293 32.0684 31.0723C32.5254 30.6211 32.7539 29.9414 32.7539 29.0332V18.3018C32.7539 17.3936 32.5254 16.7139 32.0684 16.2627C31.6113 15.8057 30.9229 15.5771 30.0029 15.5771H17.9971C17.0771 15.5771 16.3857 15.8057 15.9229 16.2627C15.4658 16.7139 15.2373 17.3936 15.2373 18.3018V29.0332C15.2373 29.9414 15.4658 30.6211 15.9229 31.0723C16.3857 31.5293 17.0771 31.7578 17.9971 31.7578ZM17.8652 30.3428C17.4785 30.3428 17.1797 30.2373 16.9688 30.0264C16.7578 29.8213 16.6523 29.5166 16.6523 29.1123V20.8242C16.6523 20.4199 16.7578 20.1152 16.9688 19.9102C17.1797 19.6992 17.4785 19.5938 17.8652 19.5938H30.1172C30.5098 19.5938 30.8115 19.6992 31.0225 19.9102C31.2334 20.1152 31.3389 20.4199 31.3389 20.8242V29.1123C31.3389 29.5166 31.2334 29.8213 31.0225 30.0264C30.8115 30.2373 30.5098 30.3428 30.1172 30.3428H17.8652ZM22.2861 22.7578H22.8047C22.957 22.7578 23.0625 22.7285 23.1211 22.6699C23.1855 22.6113 23.2178 22.5059 23.2178 22.3535V21.835C23.2178 21.6826 23.1855 21.5801 23.1211 21.5273C23.0625 21.4688 22.957 21.4395 22.8047 21.4395H22.2861C22.1338 21.4395 22.0254 21.4688 21.9609 21.5273C21.9023 21.5801 21.873 21.6826 21.873 21.835V22.3535C21.873 22.5059 21.9023 22.6113 21.9609 22.6699C22.0254 22.7285 22.1338 22.7578 22.2861 22.7578ZM25.2041 22.7578H25.7227C25.8809 22.7578 25.9893 22.7285 26.0479 22.6699C26.1064 22.6113 26.1357 22.5059 26.1357 22.3535V21.835C26.1357 21.6826 26.1064 21.5801 26.0479 21.5273C25.9893 21.4688 25.8809 21.4395 25.7227 21.4395H25.2041C25.0518 21.4395 24.9463 21.4688 24.8877 21.5273C24.8291 21.5801 24.7998 21.6826 24.7998 21.835V22.3535C24.7998 22.5059 24.8291 22.6113 24.8877 22.6699C24.9463 22.7285 25.0518 22.7578 25.2041 22.7578ZM28.1309 22.7578H28.6406C28.7988 22.7578 28.9072 22.7285 28.9658 22.6699C29.0244 22.6113 29.0537 22.5059 29.0537 22.3535V21.835C29.0537 21.6826 29.0244 21.5801 28.9658 21.5273C28.9072 21.4688 28.7988 21.4395 28.6406 21.4395H28.1309C27.9727 21.4395 27.8643 21.4688 27.8057 21.5273C27.7471 21.5801 27.7178 21.6826 27.7178 21.835V22.3535C27.7178 22.5059 27.7471 22.6113 27.8057 22.6699C27.8643 22.7285 27.9727 22.7578 28.1309 22.7578ZM19.3682 25.6318H19.8867C20.0391 25.6318 20.1445 25.6025 20.2031 25.5439C20.2617 25.4854 20.291 25.3799 20.291 25.2275V24.7178C20.291 24.5596 20.2617 24.4541 20.2031 24.4014C20.1445 24.3428 20.0391 24.3135 19.8867 24.3135H19.3682C19.21 24.3135 19.1016 24.3428 19.043 24.4014C18.9844 24.4541 18.9551 24.5596 18.9551 24.7178V25.2275C18.9551 25.3799 18.9844 25.4854 19.043 25.5439C19.1016 25.6025 19.21 25.6318 19.3682 25.6318ZM22.2861 25.6318H22.8047C22.957 25.6318 23.0625 25.6025 23.1211 25.5439C23.1855 25.4854 23.2178 25.3799 23.2178 25.2275V24.7178C23.2178 24.5596 23.1855 24.4541 23.1211 24.4014C23.0625 24.3428 22.957 24.3135 22.8047 24.3135H22.2861C22.1338 24.3135 22.0254 24.3428 21.9609 24.4014C21.9023 24.4541 21.873 24.5596 21.873 24.7178V25.2275C21.873 25.3799 21.9023 25.4854 21.9609 25.5439C22.0254 25.6025 22.1338 25.6318 22.2861 25.6318ZM25.2041 25.6318H25.7227C25.8809 25.6318 25.9893 25.6025 26.0479 25.5439C26.1064 25.4854 26.1357 25.3799 26.1357 25.2275V24.7178C26.1357 24.5596 26.1064 24.4541 26.0479 24.4014C25.9893 24.3428 25.8809 24.3135 25.7227 24.3135H25.2041C25.0518 24.3135 24.9463 24.3428 24.8877 24.4014C24.8291 24.4541 24.7998 24.5596 24.7998 24.7178V25.2275C24.7998 25.3799 24.8291 25.4854 24.8877 25.5439C24.9463 25.6025 25.0518 25.6318 25.2041 25.6318ZM28.1309 25.6318H28.6406C28.7988 25.6318 28.9072 25.6025 28.9658 25.5439C29.0244 25.4854 29.0537 25.3799 29.0537 25.2275V24.7178C29.0537 24.5596 29.0244 24.4541 28.9658 24.4014C28.9072 24.3428 28.7988 24.3135 28.6406 24.3135H28.1309C27.9727 24.3135 27.8643 24.3428 27.8057 24.4014C27.7471 24.4541 27.7178 24.5596 27.7178 24.7178V25.2275C27.7178 25.3799 27.7471 25.4854 27.8057 25.5439C27.8643 25.6025 27.9727 25.6318 28.1309 25.6318ZM19.3682 28.5059H19.8867C20.0391 28.5059 20.1445 28.4795 20.2031 28.4268C20.2617 28.3682 20.291 28.2598 20.291 28.1016V27.5918C20.291 27.4336 20.2617 27.3281 20.2031 27.2754C20.1445 27.2168 20.0391 27.1875 19.8867 27.1875H19.3682C19.21 27.1875 19.1016 27.2168 19.043 27.2754C18.9844 27.3281 18.9551 27.4336 18.9551 27.5918V28.1016C18.9551 28.2598 18.9844 28.3682 19.043 28.4268C19.1016 28.4795 19.21 28.5059 19.3682 28.5059ZM22.2861 28.5059H22.8047C22.957 28.5059 23.0625 28.4795 23.1211 28.4268C23.1855 28.3682 23.2178 28.2598 23.2178 28.1016V27.5918C23.2178 27.4336 23.1855 27.3281 23.1211 27.2754C23.0625 27.2168 22.957 27.1875 22.8047 27.1875H22.2861C22.1338 27.1875 22.0254 27.2168 21.9609 27.2754C21.9023 27.3281 21.873 27.4336 21.873 27.5918V28.1016C21.873 28.2598 21.9023 28.3682 21.9609 28.4268C22.0254 28.4795 22.1338 28.5059 22.2861 28.5059ZM25.2041 28.5059H25.7227C25.8809 28.5059 25.9893 28.4795 26.0479 28.4268C26.1064 28.3682 26.1357 28.2598 26.1357 28.1016V27.5918C26.1357 27.4336 26.1064 27.3281 26.0479 27.2754C25.9893 27.2168 25.8809 27.1875 25.7227 27.1875H25.2041C25.0518 27.1875 24.9463 27.2168 24.8877 27.2754C24.8291 27.3281 24.7998 27.4336 24.7998 27.5918V28.1016C24.7998 28.2598 24.8291 28.3682 24.8877 28.4268C24.9463 28.4795 25.0518 28.5059 25.2041 28.5059Z" fill="#462255"/>
</svg>
