<svg width="36" height="36" viewBox="0 0 36 36" fill="none" xmlns="http://www.w3.org/2000/svg">
<path fill-rule="evenodd" clip-rule="evenodd" d="M0 5.47369V27.9737H36V5.47369H0Z" fill="#135191"/>
<path fill-rule="evenodd" clip-rule="evenodd" d="M0.390015 5.89368V27.5537H35.58V5.89368H0.390015Z" fill="white"/>
<path fill-rule="evenodd" clip-rule="evenodd" d="M1.43994 6.94366H34.4699V26.6237H1.43994V6.94366Z" fill="#135191"/>
<path d="M4.15512 20.0207H7.45963V21.0137H5.40313L5.38963 21.9362H7.43263V22.8857H5.37613V23.8097H7.41913V24.8027H4.11462L4.15512 20.0207ZM8.32212 19.6202H9.52962L9.50113 24.8027H8.29513L8.32212 19.6202ZM12.7426 22.6247C12.7426 22.2677 12.5776 21.9452 12.1801 21.9452C11.9975 21.9607 11.8249 22.0355 11.6887 22.1582C11.5525 22.2808 11.4601 22.4446 11.4256 22.6247H12.7426ZM13.6336 24.4112C13.1777 24.7595 12.6173 24.9435 12.0436 24.9332C11.802 24.9488 11.5597 24.9135 11.3326 24.8295C11.1055 24.7454 10.8986 24.6146 10.7253 24.4454C10.552 24.2762 10.4163 24.0725 10.3268 23.8475C10.2374 23.6224 10.1963 23.3811 10.2061 23.1392C10.1996 22.8877 10.2432 22.6375 10.3345 22.403C10.4257 22.1686 10.5628 21.9548 10.7376 21.7739C10.9125 21.5931 11.1216 21.4489 11.3528 21.3498C11.584 21.2507 11.8326 21.1986 12.0841 21.1967C13.4146 21.1967 13.8256 22.1372 13.8256 23.3312H11.4121C11.4134 23.4361 11.4367 23.5395 11.4807 23.6348C11.5246 23.7301 11.5881 23.8151 11.6671 23.8841C11.7461 23.9532 11.8387 24.0048 11.939 24.0357C12.0393 24.0665 12.145 24.0759 12.2491 24.0632C12.6081 24.0623 12.956 23.9396 13.2361 23.7152L13.6336 24.4127M17.4766 24.5702C17.0835 24.7955 16.6411 24.9212 16.1881 24.9362C15.9426 24.9606 15.6946 24.9321 15.4611 24.8524C15.2275 24.7728 15.0137 24.6439 14.8343 24.4745C14.6548 24.3052 14.5138 24.0992 14.4208 23.8707C14.3278 23.6421 14.2849 23.3962 14.2951 23.1497C14.2797 22.8874 14.3204 22.6249 14.4144 22.3796C14.5085 22.1343 14.6538 21.9119 14.8406 21.7273C15.0274 21.5426 15.2514 21.3999 15.4978 21.3086C15.7441 21.2174 16.0071 21.1797 16.2691 21.1982C16.6816 21.1979 17.0874 21.3027 17.4481 21.5027L17.0641 22.2872C16.8861 22.2098 16.6955 22.1656 16.5016 22.1567C16.3727 22.1429 16.2424 22.1569 16.1194 22.1979C15.9964 22.2389 15.8837 22.3058 15.7888 22.3941C15.694 22.4824 15.6192 22.5901 15.5695 22.7099C15.5199 22.8296 15.4966 22.9586 15.5011 23.0882C15.4996 23.2055 15.5216 23.3219 15.5658 23.4305C15.6101 23.5392 15.6757 23.6378 15.7588 23.7206C15.8419 23.8034 15.9408 23.8687 16.0496 23.9126C16.1583 23.9565 16.2748 23.9781 16.3921 23.9762C16.6197 23.9595 16.8404 23.8908 17.0371 23.7752L17.4766 24.5672M17.9056 21.3182H18.4261L18.4531 20.1422H19.6051L19.5781 21.3182H20.5651L20.5516 22.1897H19.5646L19.5241 23.4872C19.5241 23.7917 19.6066 23.9312 19.8811 23.9312C20.0405 23.9199 20.1932 23.8626 20.3206 23.7662L20.5816 24.5852C20.221 24.8025 19.8101 24.9224 19.3891 24.9332C18.4156 24.9332 18.3751 24.3152 18.3751 23.5127L18.4021 22.1882H17.8816L17.9086 21.3167M21.1861 21.3167H22.3921V21.8132H22.4056C22.4812 21.6418 22.6037 21.4952 22.759 21.3904C22.9142 21.2856 23.0959 21.2267 23.2831 21.2207C23.4168 21.2218 23.5499 21.2364 23.6806 21.2642L23.5156 22.4492C23.3782 22.4067 23.235 22.3859 23.0911 22.3877C22.9484 22.3898 22.8085 22.4276 22.6841 22.4975C22.5597 22.5675 22.4547 22.6674 22.3786 22.7882L22.3651 24.8012H21.1591L21.1861 21.3167ZM25.8331 24.0167C26.4091 24.0167 26.5876 23.5202 26.5876 23.0582C26.5876 22.6052 26.4091 22.1087 25.8331 22.1087C25.2571 22.1087 25.0921 22.6052 25.0921 23.0582C25.0921 23.5202 25.2571 24.0167 25.8331 24.0167ZM25.8331 21.1937C26.0879 21.1688 26.3451 21.1992 26.587 21.283C26.8289 21.3667 27.0499 21.5017 27.2348 21.6788C27.4197 21.8558 27.5641 22.0708 27.6583 22.3088C27.7524 22.5469 27.794 22.8025 27.7801 23.0582C27.7604 23.5613 27.5466 24.0373 27.1836 24.3863C26.8207 24.7353 26.3367 24.9302 25.8331 24.9302C25.3296 24.9302 24.8456 24.7353 24.4826 24.3863C24.1196 24.0373 23.9059 23.5613 23.8861 23.0582C23.8723 22.8025 23.9139 22.5469 24.008 22.3088C24.1021 22.0708 24.2466 21.8558 24.4315 21.6788C24.6164 21.5017 24.8373 21.3667 25.0792 21.283C25.3212 21.1992 25.5783 21.1688 25.8331 21.1937ZM28.4431 21.3152H29.6491V21.6992C29.9461 21.3936 30.3484 21.2128 30.7741 21.1937C31.5151 21.1937 31.9126 21.6032 31.9126 22.5527L31.8991 24.7997H30.6931L30.7066 22.7357C30.7066 22.4477 30.6376 22.2302 30.2671 22.2302C30.0328 22.2642 29.8162 22.3744 29.6506 22.5437L29.6236 24.7997H28.4176L28.4446 21.3152M14.0221 14.2142L15.5311 9.19815H16.9006L15.3766 14.2142H14.0221Z" fill="white"/>
<path d="M13.4071 9.19822L12.1921 11.3282C11.9396 11.6939 11.742 12.0947 11.6056 12.5177H11.5921C11.6056 12.0647 11.5501 11.5232 11.5366 11.2127L11.4106 9.19822H9.11861L9.1051 9.33172C9.23164 9.3204 9.35916 9.33492 9.47991 9.37441C9.60066 9.41389 9.71212 9.47752 9.80752 9.56141C9.90292 9.64531 9.98027 9.74773 10.0349 9.86244C10.0895 9.97715 10.1202 10.1018 10.1251 10.2287L10.5721 14.2142H11.9836L14.8336 9.19822H13.4086M23.8186 11.2577V10.0772H23.7901C23.7061 10.3262 23.3566 11.0717 23.2036 11.4437L22.6861 12.5447H23.8876L23.8171 11.2577H23.8186ZM23.9716 14.2142L23.9296 13.4687H22.2391L21.8896 14.2142H20.4226L23.0911 9.20722H24.8941L25.3546 14.2142H23.9716ZM18.3271 14.3567C17.6014 14.3654 16.8885 14.1649 16.2736 13.7792L16.9171 12.7937C17.3427 13.1064 17.856 13.2769 18.3841 13.2812C18.5005 13.2919 18.6177 13.2713 18.7235 13.2215C18.8293 13.1716 18.9198 13.0944 18.9856 12.9977C19.1671 12.6692 18.9436 12.5012 18.4126 12.1982L18.1471 12.0302C17.3641 11.4887 17.0146 10.9832 17.3926 10.0862C17.5667 9.74596 17.8409 9.46729 18.1784 9.28784C18.5158 9.10839 18.9002 9.03679 19.2796 9.08272C19.9205 9.09629 20.5411 9.31031 21.0541 9.69472L20.2996 10.5647C20.0162 10.2909 19.6444 10.1271 19.2511 10.1027C19.1411 10.0887 19.0294 10.1054 18.9282 10.151C18.8271 10.1965 18.7406 10.2691 18.6781 10.3607C18.5251 10.6442 18.7201 10.8317 19.1251 11.0882L19.4461 11.2922C20.3956 11.8877 20.6206 12.5267 20.3821 13.1117C20.2273 13.5182 19.9412 13.8613 19.5692 14.0865C19.1971 14.3118 18.7605 14.4064 18.3286 14.3552" fill="white"/>
<path d="M10.4746 18.8327C15.1639 16.7481 20.3975 16.2203 25.4086 17.3267L25.4776 15.6782C20.2904 15.1562 15.0655 16.1956 10.4731 18.6632V18.8312" fill="#FAB10B"/>
</svg>
