<svg width="50" height="40" viewBox="0 0 50 40" fill="none" xmlns="http://www.w3.org/2000/svg">
<circle cx="26.3945" cy="19.8965" r="10.5" fill="#F5ECF0"/>
<path d="M26.3945 31.8887C28.0273 31.8887 29.5625 31.5762 31 30.9512C32.4453 30.3262 33.7188 29.4629 34.8203 28.3613C35.9219 27.2598 36.7852 25.9902 37.4102 24.5527C38.0352 23.1074 38.3477 21.5684 38.3477 19.9355C38.3477 18.3027 38.0312 16.7676 37.3984 15.3301C36.7734 13.8848 35.9102 12.6113 34.8086 11.5098C33.707 10.4082 32.4336 9.54492 30.9883 8.91992C29.5508 8.29492 28.0156 7.98242 26.3828 7.98242C24.8594 7.98242 23.418 8.25586 22.0586 8.80273C20.6992 9.34961 19.4805 10.1074 18.4023 11.0762C17.332 12.0449 16.457 13.1738 15.7773 14.4629C15.1055 15.752 14.6875 17.1387 14.5234 18.623C14.8047 18.5684 15.1328 18.5332 15.5078 18.5176C15.8906 18.4941 16.2383 18.502 16.5508 18.541C16.7148 17.3301 17.0781 16.2051 17.6406 15.166C18.2031 14.1191 18.9258 13.209 19.8086 12.4355C20.6914 11.6621 21.6914 11.0605 22.8086 10.6309C23.9258 10.1934 25.1172 9.97461 26.3828 9.97461C27.7656 9.97461 29.0586 10.2324 30.2617 10.748C31.4648 11.2559 32.5234 11.9668 33.4375 12.8809C34.3516 13.7949 35.0664 14.8535 35.582 16.0566C36.0977 17.2598 36.3555 18.5527 36.3555 19.9355C36.3555 21.2246 36.1289 22.4395 35.6758 23.5801C35.2227 24.7207 34.5938 25.7285 33.7891 26.6035C33.4062 26.1504 32.8594 25.7207 32.1484 25.3145C31.4375 24.9004 30.5938 24.5645 29.6172 24.3066C28.6406 24.0488 27.5625 23.9199 26.3828 23.9199C25.8203 23.9199 25.2812 23.9551 24.7656 24.0254C24.25 24.0879 23.7617 24.1738 23.3008 24.2832C23.4414 24.8457 23.5117 25.4355 23.5117 26.0527C23.5117 26.9668 23.3516 27.8379 23.0312 28.666C22.7188 29.4941 22.2812 30.2402 21.7188 30.9043C22.4375 31.2168 23.1914 31.459 23.9805 31.6309C24.7695 31.8027 25.5742 31.8887 26.3945 31.8887ZM26.3828 21.9277C27.1328 21.9355 27.8086 21.748 28.4102 21.3652C29.0195 20.9746 29.5039 20.4473 29.8633 19.7832C30.2227 19.1113 30.4023 18.3535 30.4023 17.5098C30.4023 16.7207 30.2227 15.998 29.8633 15.3418C29.5039 14.6855 29.0195 14.1621 28.4102 13.7715C27.8086 13.3809 27.1328 13.1855 26.3828 13.1855C25.6328 13.1855 24.9531 13.3809 24.3438 13.7715C23.7344 14.1621 23.25 14.6855 22.8906 15.3418C22.5312 15.998 22.3555 16.7207 22.3633 17.5098C22.3633 18.3457 22.543 19.0957 22.9023 19.7598C23.2617 20.4238 23.7422 20.9512 24.3438 21.3418C24.9531 21.7246 25.6328 21.9199 26.3828 21.9277ZM15.9531 32.0176C16.7578 32.0176 17.5195 31.8613 18.2383 31.5488C18.957 31.2363 19.5898 30.8066 20.1367 30.2598C20.6914 29.7129 21.125 29.0801 21.4375 28.3613C21.75 27.6426 21.9062 26.877 21.9062 26.0645C21.9062 25.2441 21.75 24.4746 21.4375 23.7559C21.1328 23.0371 20.707 22.4043 20.1602 21.8574C19.6133 21.3105 18.9805 20.8848 18.2617 20.5801C17.543 20.2676 16.7734 20.1113 15.9531 20.1113C15.1406 20.1113 14.375 20.2676 13.6562 20.5801C12.9375 20.8848 12.3047 21.3145 11.7578 21.8691C11.2109 22.416 10.7812 23.0488 10.4688 23.7676C10.1562 24.4785 10 25.2441 10 26.0645C10 26.8848 10.1562 27.6543 10.4688 28.373C10.7812 29.0918 11.2109 29.7246 11.7578 30.2715C12.3047 30.8184 12.9375 31.2441 13.6562 31.5488C14.375 31.8613 15.1406 32.0176 15.9531 32.0176ZM15.2383 29.2754C15.1367 29.2754 15.0312 29.252 14.9219 29.2051C14.8125 29.166 14.7227 29.1035 14.6523 29.0176L12.6602 26.8496C12.5977 26.7715 12.5508 26.6855 12.5195 26.5918C12.4883 26.4902 12.4727 26.4004 12.4727 26.3223C12.4727 26.1113 12.543 25.9355 12.6836 25.7949C12.8242 25.6543 12.9961 25.584 13.1992 25.584C13.3242 25.584 13.4336 25.6074 13.5273 25.6543C13.6211 25.7012 13.6992 25.7598 13.7617 25.8301L15.2031 27.3887L18.0625 23.4277C18.2188 23.209 18.4258 23.0996 18.6836 23.0996C18.8789 23.0996 19.0508 23.1699 19.1992 23.3105C19.3477 23.4434 19.4219 23.6152 19.4219 23.8262C19.4219 23.8887 19.4062 23.959 19.375 24.0371C19.3516 24.1152 19.3125 24.1934 19.2578 24.2715L15.8477 28.9941C15.7148 29.1816 15.5117 29.2754 15.2383 29.2754Z" fill="#AA4465"/>
</svg>
