<svg width="48" height="48" viewBox="0 0 48 48" fill="none" xmlns="http://www.w3.org/2000/svg">
<path d="M23.709 33.3633C23.0319 33.3633 22.3939 33.1289 21.7949 32.6602C21.2025 32.1914 20.6784 31.5339 20.2227 30.6875C19.7734 29.8411 19.4186 28.8483 19.1582 27.709C18.9043 26.5632 18.7773 25.3164 18.7773 23.9688C18.7773 22.6211 18.9043 21.3743 19.1582 20.2285C19.4186 19.0762 19.7734 18.0768 20.2227 17.2305C20.6719 16.3776 21.1927 15.7168 21.7852 15.248C22.3841 14.7793 23.0254 14.5449 23.709 14.5449C24.3926 14.5449 25.0306 14.7793 25.623 15.248C26.222 15.7168 26.7461 16.3776 27.1953 17.2305C27.651 18.0768 28.0059 19.0762 28.2598 20.2285C28.5137 21.3743 28.6406 22.6211 28.6406 23.9688C28.6406 25.3164 28.5104 26.5632 28.25 27.709C27.9961 28.8483 27.6413 29.8411 27.1855 30.6875C26.7363 31.5339 26.2122 32.1914 25.6133 32.6602C25.0208 33.1289 24.3861 33.3633 23.709 33.3633ZM23.709 15.7266C23.2337 15.7266 22.778 15.9479 22.3418 16.3906C21.9056 16.8268 21.5182 17.4258 21.1797 18.1875C20.8411 18.9492 20.5742 19.8281 20.3789 20.8242C20.1836 21.8138 20.0859 22.862 20.0859 23.9688C20.0859 25.0625 20.1836 26.1009 20.3789 27.084C20.5742 28.0671 20.8411 28.9427 21.1797 29.7109C21.5182 30.4727 21.9056 31.0716 22.3418 31.5078C22.778 31.9505 23.2337 32.1719 23.709 32.1719C24.1842 32.1719 24.64 31.9505 25.0762 31.5078C25.5124 31.0716 25.8997 30.4727 26.2383 29.7109C26.5768 28.9427 26.8438 28.0671 27.0391 27.084C27.2344 26.1009 27.332 25.0625 27.332 23.9688C27.332 22.862 27.2344 21.8138 27.0391 20.8242C26.8438 19.8281 26.5768 18.9492 26.2383 18.1875C25.8997 17.4258 25.5124 16.8268 25.0762 16.3906C24.64 15.9479 24.1842 15.7266 23.709 15.7266ZM23.0742 14.6816H24.3535V33.1777H23.0742V14.6816ZM23.709 27.6211C24.7116 27.6211 25.6621 27.7057 26.5605 27.875C27.459 28.0378 28.2663 28.2754 28.9824 28.5879C29.7051 28.8939 30.2943 29.2552 30.75 29.6719L29.7637 30.4824C29.334 30.1439 28.8164 29.8574 28.2109 29.623C27.612 29.3822 26.9316 29.2031 26.1699 29.0859C25.4147 28.9622 24.5944 28.9004 23.709 28.9004C22.8236 28.9004 22 28.9622 21.2383 29.0859C20.4831 29.2031 19.8027 29.3822 19.1973 29.623C18.5983 29.8574 18.084 30.1439 17.6543 30.4824L16.668 29.6719C17.1237 29.2552 17.7096 28.8939 18.4258 28.5879C19.1484 28.2754 19.959 28.0378 20.8574 27.875C21.7559 27.7057 22.7064 27.6211 23.709 27.6211ZM32.7227 23.3047V24.584H14.6953V23.3047H32.7227ZM23.709 20.3262C22.7064 20.3262 21.7559 20.2448 20.8574 20.082C19.959 19.9128 19.1484 19.6751 18.4258 19.3691C17.7096 19.0566 17.1237 18.6921 16.668 18.2754L17.6543 17.4648C18.084 17.8034 18.5983 18.0931 19.1973 18.334C19.8027 18.5684 20.4831 18.7474 21.2383 18.8711C22 18.9883 22.8236 19.0469 23.709 19.0469C24.5944 19.0469 25.4147 18.9883 26.1699 18.8711C26.9316 18.7474 27.612 18.5684 28.2109 18.334C28.8164 18.0931 29.334 17.8034 29.7637 17.4648L30.75 18.2754C30.2943 18.6921 29.7051 19.0566 28.9824 19.3691C28.2663 19.6751 27.459 19.9128 26.5605 20.082C25.6621 20.2448 24.7116 20.3262 23.709 20.3262ZM23.709 33.9102C22.3483 33.9102 21.0658 33.6497 19.8613 33.1289C18.6634 32.6081 17.6055 31.8887 16.6875 30.9707C15.7695 30.0527 15.0501 28.9948 14.5293 27.7969C14.0085 26.5924 13.748 25.3099 13.748 23.9492C13.748 22.5885 14.0085 21.3092 14.5293 20.1113C15.0501 18.9069 15.7663 17.8457 16.6777 16.9277C17.5957 16.0098 18.6536 15.2904 19.8516 14.7695C21.056 14.2487 22.3385 13.9883 23.6992 13.9883C25.0599 13.9883 26.3424 14.2487 27.5469 14.7695C28.7513 15.2904 29.8125 16.0098 30.7305 16.9277C31.6484 17.8457 32.3678 18.9069 32.8887 20.1113C33.4095 21.3092 33.6699 22.5885 33.6699 23.9492C33.6699 25.3099 33.4095 26.5924 32.8887 27.7969C32.3678 28.9948 31.6484 30.0527 30.7305 30.9707C29.8125 31.8887 28.7513 32.6081 27.5469 33.1289C26.349 33.6497 25.0697 33.9102 23.709 33.9102ZM23.709 32.582C24.8874 32.582 25.9974 32.3542 27.0391 31.8984C28.0807 31.4492 28.9987 30.8275 29.793 30.0332C30.5872 29.2389 31.209 28.321 31.6582 27.2793C32.1139 26.2376 32.3418 25.1276 32.3418 23.9492C32.3418 22.7708 32.1139 21.6608 31.6582 20.6191C31.209 19.5775 30.584 18.6595 29.7832 17.8652C28.9889 17.071 28.071 16.4492 27.0293 16C25.9876 15.5443 24.8776 15.3164 23.6992 15.3164C22.5208 15.3164 21.4108 15.5443 20.3691 16C19.3275 16.4492 18.4095 17.071 17.6152 17.8652C16.8275 18.6595 16.2057 19.5775 15.75 20.6191C15.3008 21.6608 15.0762 22.7708 15.0762 23.9492C15.0762 25.1276 15.3008 26.2376 15.75 27.2793C16.2057 28.321 16.8307 29.2389 17.625 30.0332C18.4193 30.8275 19.3372 31.4492 20.3789 31.8984C21.4206 32.3542 22.5306 32.582 23.709 32.582Z" fill="white"/>
</svg>
