<svg width="20" height="20" viewBox="0 0 20 20" fill="none" xmlns="http://www.w3.org/2000/svg">
<path fill-rule="evenodd" clip-rule="evenodd" d="M16.3047 3.69526C16.1797 3.57024 16.0101 3.5 15.8333 3.5H12.5C11.9477 3.5 11.5 3.05228 11.5 2.5C11.5 1.94772 11.9477 1.5 12.5 1.5H15.8333C16.5406 1.5 17.2189 1.78095 17.719 2.28105C18.219 2.78115 18.5 3.45942 18.5 4.16667V15.8333C18.5 16.5406 18.219 17.2189 17.719 17.719C17.2189 18.219 16.5406 18.5 15.8333 18.5H12.5C11.9477 18.5 11.5 18.0523 11.5 17.5C11.5 16.9477 11.9477 16.5 12.5 16.5H15.8333C16.0101 16.5 16.1797 16.4298 16.3047 16.3047C16.4298 16.1797 16.5 16.0101 16.5 15.8333V4.16667C16.5 3.98986 16.4298 3.82029 16.3047 3.69526ZM5.95952 5.12627C6.35004 4.73574 6.98321 4.73574 7.37373 5.12627C7.76426 5.51679 7.76426 6.14996 7.37373 6.54048L4.91421 9H12.5C13.0523 9 13.5 9.44773 13.5 10C13.5 10.5523 13.0523 11.0001 12.5 11.0001H4.91421L7.37373 13.4596C7.76426 13.8501 7.76426 14.4833 7.37373 14.8738C6.98321 15.2643 6.35004 15.2643 5.95952 14.8738L1.79285 10.7071C1.40233 10.3166 1.40233 9.68346 1.79285 9.29293L5.95952 5.12627Z" fill="white"/>
</svg>
