<svg width="40" height="40" viewBox="0 0 40 40" fill="none" xmlns="http://www.w3.org/2000/svg">
<path d="M25.8477 19.7402C25.8477 20.041 25.7461 20.293 25.543 20.4961L21.7637 24.2637C21.5527 24.4785 21.3184 24.5859 21.0605 24.5859C20.7559 24.5859 20.5117 24.4922 20.3281 24.3047C20.1445 24.1211 20.0527 23.8926 20.0527 23.6191C20.0527 23.459 20.084 23.3203 20.1465 23.2031C20.209 23.082 20.2871 22.9766 20.3809 22.8867L21.6934 21.5801L23.4336 19.9805L23.9199 20.6426L21.4355 20.7656H15.2305C14.9062 20.7656 14.6465 20.6719 14.4512 20.4844C14.2559 20.2969 14.1582 20.0488 14.1582 19.7402C14.1582 19.4355 14.2559 19.1895 14.4512 19.002C14.6465 18.8145 14.9062 18.7207 15.2305 18.7207H21.4355L23.9199 18.8438L23.4336 19.5117L21.6934 17.9062L20.3809 16.5938C20.2871 16.5039 20.209 16.4004 20.1465 16.2832C20.084 16.1621 20.0527 16.0215 20.0527 15.8613C20.0527 15.5879 20.1445 15.3594 20.3281 15.1758C20.5117 14.9883 20.7559 14.8945 21.0605 14.8945C21.1816 14.8945 21.3047 14.9219 21.4297 14.9766C21.5508 15.0312 21.6641 15.1133 21.7695 15.2227L25.543 18.9902C25.7461 19.1895 25.8477 19.4395 25.8477 19.7402Z" fill="#49444F"/>
</svg>
