<svg width="40" height="40" viewBox="0 0 40 40" fill="none" xmlns="http://www.w3.org/2000/svg">
<path d="M14.1553 20C14.1553 20.3008 14.2568 20.5527 14.46 20.7559L18.2393 24.5234C18.4502 24.7383 18.6846 24.8457 18.9424 24.8457C19.2471 24.8457 19.4912 24.752 19.6748 24.5645C19.8584 24.3809 19.9502 24.1523 19.9502 23.8789C19.9502 23.7188 19.9189 23.5801 19.8564 23.4629C19.7939 23.3418 19.7158 23.2363 19.6221 23.1465L18.3096 21.8398L16.5693 20.2402L16.083 20.9023L18.5674 21.0254H24.7725C25.0967 21.0254 25.3564 20.9316 25.5518 20.7441C25.7471 20.5566 25.8447 20.3086 25.8447 20C25.8447 19.6953 25.7471 19.4492 25.5518 19.2617C25.3564 19.0742 25.0967 18.9805 24.7725 18.9805H18.5674L16.083 19.1035L16.5693 19.7715L18.3096 18.166L19.6221 16.8535C19.7158 16.7637 19.7939 16.6602 19.8564 16.543C19.9189 16.4219 19.9502 16.2812 19.9502 16.1211C19.9502 15.8477 19.8584 15.6191 19.6748 15.4355C19.4912 15.248 19.2471 15.1543 18.9424 15.1543C18.8213 15.1543 18.6982 15.1816 18.5732 15.2363C18.4521 15.291 18.3389 15.373 18.2334 15.4824L14.46 19.25C14.2568 19.4492 14.1553 19.6992 14.1553 20Z" fill="#49444F"/>
</svg>
