<svg width="50" height="50" viewBox="0 0 50 50" fill="none" xmlns="http://www.w3.org/2000/svg">
<path d="M24.9902 35.0371C26.3704 35.0371 27.6693 34.7734 28.8867 34.2461C30.1042 33.7253 31.1784 32.9993 32.1094 32.0684C33.0404 31.1374 33.7695 30.0632 34.2969 28.8457C34.8242 27.6283 35.0879 26.3294 35.0879 24.9492C35.0879 23.569 34.8242 22.2702 34.2969 21.0527C33.7695 19.8353 33.0404 18.7643 32.1094 17.8398C31.1784 16.9089 30.1042 16.1797 28.8867 15.6523C27.6693 15.125 26.3672 14.8613 24.9805 14.8613C23.6003 14.8613 22.3014 15.125 21.084 15.6523C19.873 16.1797 18.8021 16.9089 17.8711 17.8398C16.9466 18.7643 16.2207 19.8353 15.6934 21.0527C15.166 22.2702 14.9023 23.569 14.9023 24.9492C14.9023 26.3294 15.166 27.6283 15.6934 28.8457C16.2207 30.0632 16.9466 31.1374 17.8711 32.0684C18.8021 32.9993 19.8763 33.7253 21.0938 34.2461C22.3112 34.7734 23.61 35.0371 24.9902 35.0371ZM24.9902 33.0449C23.8704 33.0449 22.819 32.8366 21.8359 32.4199C20.8594 32.0033 20 31.4238 19.2578 30.6816C18.5221 29.9395 17.946 29.0801 17.5293 28.1035C17.1126 27.127 16.9043 26.0755 16.9043 24.9492C16.9043 23.8294 17.1126 22.7812 17.5293 21.8047C17.946 20.8216 18.5221 19.959 19.2578 19.2168C19.9935 18.4746 20.8496 17.8952 21.8262 17.4785C22.8092 17.0618 23.8607 16.8535 24.9805 16.8535C26.1068 16.8535 27.1582 17.0618 28.1348 17.4785C29.1113 17.8952 29.9707 18.4746 30.7129 19.2168C31.4616 19.959 32.0443 20.8216 32.4609 21.8047C32.8776 22.7812 33.0859 23.8294 33.0859 24.9492C33.0859 26.0755 32.8776 27.127 32.4609 28.1035C32.0443 29.0801 31.4648 29.9395 30.7227 30.6816C29.987 31.4238 29.1276 32.0033 28.1445 32.4199C27.168 32.8366 26.1165 33.0449 24.9902 33.0449ZM22.207 28.7773H23.2227C23.4701 28.7773 23.6556 28.7155 23.7793 28.5918C23.903 28.4681 23.9648 28.3053 23.9648 28.1035V21.7754C23.9648 21.5736 23.903 21.4108 23.7793 21.2871C23.6556 21.1569 23.4701 21.0918 23.2227 21.0918H22.207C21.9531 21.0918 21.7643 21.1569 21.6406 21.2871C21.5234 21.4108 21.4648 21.5736 21.4648 21.7754V28.1035C21.4648 28.3053 21.5234 28.4681 21.6406 28.5918C21.7643 28.7155 21.9531 28.7773 22.207 28.7773ZM26.7676 28.7773H27.7832C28.0241 28.7773 28.2064 28.7155 28.3301 28.5918C28.4603 28.4681 28.5254 28.3053 28.5254 28.1035V21.7754C28.5254 21.5736 28.4603 21.4108 28.3301 21.2871C28.2064 21.1569 28.0241 21.0918 27.7832 21.0918H26.7676C26.5202 21.0918 26.3346 21.1569 26.2109 21.2871C26.0872 21.4108 26.0254 21.5736 26.0254 21.7754V28.1035C26.0254 28.3053 26.0872 28.4681 26.2109 28.5918C26.3346 28.7155 26.5202 28.7773 26.7676 28.7773Z" fill="#462255"/>
</svg>
