<svg width="33" height="32" viewBox="0 0 33 32" fill="none" xmlns="http://www.w3.org/2000/svg">
<path d="M16.5 31.3906C18.6458 31.3906 20.6615 30.9792 22.5469 30.1562C24.4427 29.3438 26.1094 28.2188 27.5469 26.7812C28.9844 25.3333 30.1146 23.6667 30.9375 21.7812C31.7604 19.8854 32.1719 17.8646 32.1719 15.7188C32.1719 13.5729 31.7604 11.5573 30.9375 9.67188C30.1146 7.77604 28.9844 6.10938 27.5469 4.67188C26.1094 3.22396 24.4427 2.09375 22.5469 1.28125C20.651 0.458333 18.6302 0.046875 16.4844 0.046875C14.3385 0.046875 12.3177 0.458333 10.4219 1.28125C8.53646 2.09375 6.875 3.22396 5.4375 4.67188C4 6.10938 2.86979 7.77604 2.04688 9.67188C1.23438 11.5573 0.828125 13.5729 0.828125 15.7188C0.828125 17.8646 1.23438 19.8854 2.04688 21.7812C2.86979 23.6667 4 25.3333 5.4375 26.7812C6.88542 28.2188 8.55208 29.3438 10.4375 30.1562C12.3333 30.9792 14.3542 31.3906 16.5 31.3906ZM16.5 29.375C14.6042 29.375 12.8333 29.0208 11.1875 28.3125C9.54167 27.6042 8.09375 26.625 6.84375 25.375C5.59375 24.125 4.61458 22.6771 3.90625 21.0312C3.20833 19.375 2.85938 17.6042 2.85938 15.7188C2.85938 13.8333 3.20833 12.0677 3.90625 10.4219C4.61458 8.76562 5.58854 7.3125 6.82812 6.0625C8.07812 4.80208 9.52604 3.82292 11.1719 3.125C12.8281 2.41667 14.599 2.0625 16.4844 2.0625C18.3802 2.0625 20.151 2.41667 21.7969 3.125C23.4427 3.82292 24.8906 4.80208 26.1406 6.0625C27.401 7.3125 28.3854 8.76562 29.0938 10.4219C29.8021 12.0677 30.1562 13.8333 30.1562 15.7188C30.1562 17.6042 29.8021 19.375 29.0938 21.0312C28.3958 22.6771 27.4219 24.125 26.1719 25.375C24.9219 26.625 23.4688 27.6042 21.8125 28.3125C20.1562 29.0208 18.3854 29.375 16.5 29.375ZM9.39062 15.7188C9.39062 16 9.48438 16.2344 9.67188 16.4219C9.86979 16.599 10.1198 16.6875 10.4219 16.6875H15.4844V21.7812C15.4844 22.0729 15.5781 22.3177 15.7656 22.5156C15.9531 22.7031 16.1875 22.7969 16.4688 22.7969C16.7708 22.7969 17.0156 22.7031 17.2031 22.5156C17.3906 22.3281 17.4844 22.0833 17.4844 21.7812V16.6875H22.5781C22.8698 16.6875 23.1094 16.599 23.2969 16.4219C23.4844 16.2344 23.5781 16 23.5781 15.7188C23.5781 15.4167 23.4844 15.1719 23.2969 14.9844C23.1094 14.7969 22.8698 14.7031 22.5781 14.7031H17.4844V9.625C17.4844 9.3125 17.3906 9.0625 17.2031 8.875C17.0156 8.6875 16.7708 8.59375 16.4688 8.59375C16.1875 8.59375 15.9531 8.69271 15.7656 8.89062C15.5781 9.07812 15.4844 9.32292 15.4844 9.625V14.7031H10.4219C10.1094 14.7031 9.85938 14.7969 9.67188 14.9844C9.48438 15.1719 9.39062 15.4167 9.39062 15.7188Z" fill="#9F91A8"/>
</svg>
