<svg width="50" height="40" viewBox="0 0 50 40" fill="none" xmlns="http://www.w3.org/2000/svg">
<path d="M21.9531 29.9609C20.5703 29.9609 19.2773 29.7031 18.0742 29.1875C16.8711 28.6719 15.8125 27.9609 14.8984 27.0547C13.9922 26.1406 13.2812 25.082 12.7656 23.8789C12.2578 22.6758 12.0039 21.3828 12.0039 20C12.0039 18.6172 12.2578 17.3242 12.7656 16.1211C13.2812 14.918 13.9922 13.8594 14.8984 12.9453C15.8047 12.0312 16.8594 11.3203 18.0625 10.8125C19.2656 10.2969 20.5586 10.0391 21.9414 10.0391C23.3242 10.0391 24.6172 10.2969 25.8203 10.8125C27.0312 11.3203 28.0898 12.0312 28.9961 12.9453C29.9102 13.8594 30.625 14.918 31.1406 16.1211C31.6562 17.3242 31.9141 18.6172 31.9141 20C31.9141 21.3828 31.6562 22.6758 31.1406 23.8789C30.6328 25.082 29.9219 26.1406 29.0078 27.0547C28.0938 27.9609 27.0352 28.6719 25.832 29.1875C24.6289 29.7031 23.3359 29.9609 21.9531 29.9609Z" fill="#F5ECF0"/>
<path d="M21.9531 31.9531C23.5859 31.9531 25.1211 31.6406 26.5586 31.0156C28.0039 30.3906 29.2773 29.5273 30.3789 28.4258C31.4805 27.3242 32.3438 26.0547 32.9688 24.6172C33.5938 23.1719 33.9062 21.6328 33.9062 20C33.9062 18.3672 33.5938 16.832 32.9688 15.3945C32.3438 13.9492 31.4805 12.6758 30.3789 11.5742C29.2773 10.4727 28.0039 9.60938 26.5586 8.98438C25.1133 8.35938 23.5742 8.04688 21.9414 8.04688C20.3086 8.04688 18.7695 8.35938 17.3242 8.98438C15.8867 9.60938 14.6172 10.4727 13.5156 11.5742C12.4219 12.6758 11.5625 13.9492 10.9375 15.3945C10.3125 16.832 10 18.3672 10 20C10 21.6328 10.3125 23.1719 10.9375 24.6172C11.5625 26.0547 12.4258 27.3242 13.5273 28.4258C14.6289 29.5273 15.8984 30.3906 17.3359 31.0156C18.7812 31.6406 20.3203 31.9531 21.9531 31.9531ZM21.9531 29.9609C20.5703 29.9609 19.2773 29.7031 18.0742 29.1875C16.8711 28.6719 15.8125 27.9609 14.8984 27.0547C13.9922 26.1406 13.2812 25.082 12.7656 23.8789C12.2578 22.6758 12.0039 21.3828 12.0039 20C12.0039 18.6172 12.2578 17.3242 12.7656 16.1211C13.2812 14.918 13.9922 13.8594 14.8984 12.9453C15.8047 12.0312 16.8594 11.3203 18.0625 10.8125C19.2656 10.2969 20.5586 10.0391 21.9414 10.0391C23.3242 10.0391 24.6172 10.2969 25.8203 10.8125C27.0312 11.3203 28.0898 12.0312 28.9961 12.9453C29.9102 13.8594 30.625 14.918 31.1406 16.1211C31.6562 17.3242 31.9141 18.6172 31.9141 20C31.9141 21.3828 31.6562 22.6758 31.1406 23.8789C30.6328 25.082 29.9219 26.1406 29.0078 27.0547C28.0938 27.9609 27.0352 28.6719 25.832 29.1875C24.6289 29.7031 23.3359 29.9609 21.9531 29.9609Z" fill="#AA4465"/>
<path fill-rule="evenodd" clip-rule="evenodd" d="M32.001 16.4123L23.6717 21.2345L29.6804 26.8141L28.3195 28.2797L21.3195 21.7797C21.1157 21.5905 20.9999 21.3249 20.9999 21.0469L20.9999 9.54687L22.9999 9.54687L22.9999 19.3124L30.9989 14.6814L32.001 16.4123Z" fill="#AA4465"/>
</svg>
