<svg width="20" height="20" viewBox="0 0 20 20" fill="none" xmlns="http://www.w3.org/2000/svg">
<g clip-path="url(#clip0_3329_67932)">
<path d="M10 20C11.3763 20 12.6673 19.738 13.8731 19.214C15.0789 18.6963 16.1395 17.9766 17.0549 17.0549C17.9766 16.1395 18.6995 15.0789 19.2235 13.8731C19.7475 12.6673 20.0095 11.3763 20.0095 10C20.0095 8.63005 19.7475 7.34217 19.2235 6.13636C18.6995 4.93056 17.9766 3.86679 17.0549 2.94508C16.1395 2.02336 15.0758 1.30366 13.8636 0.785985C12.6578 0.261995 11.3699 0 10 0C8.63005 0 7.33902 0.261995 6.12689 0.785985C4.92109 1.30366 3.85732 2.02336 2.93561 2.94508C2.0202 3.86679 1.30051 4.93056 0.776515 6.13636C0.258838 7.34217 0 8.63005 0 10C0 11.3763 0.258838 12.6673 0.776515 13.8731C1.30051 15.0789 2.02336 16.1395 2.94508 17.0549C3.86679 17.9766 4.93056 18.6963 6.13636 19.214C7.34217 19.738 8.63005 20 10 20ZM5.04735 7.35795C5.04735 7.137 5.15152 6.9697 5.35985 6.85606L9.36553 4.55492C9.57386 4.43497 9.78535 4.375 10 4.375C10.221 4.375 10.4388 4.43497 10.6534 4.55492L14.6402 6.85606C14.8548 6.9697 14.9621 7.137 14.9621 7.35795C14.9621 7.49684 14.9116 7.61679 14.8106 7.7178C14.7159 7.8125 14.5833 7.85985 14.4129 7.85985H5.58712C5.42298 7.85985 5.2904 7.8125 5.18939 7.7178C5.0947 7.61679 5.04735 7.49684 5.04735 7.35795ZM5.56818 12.5663V12.4621C5.56818 12.178 5.71023 12.036 5.99432 12.036H6.13636V9.42235H5.99432C5.71023 9.42235 5.56818 9.28346 5.56818 9.00568V8.89205C5.56818 8.75316 5.60606 8.64583 5.68182 8.57008C5.76389 8.48801 5.87437 8.44697 6.01326 8.44697H7.10227C7.23485 8.44697 7.34217 8.48801 7.42424 8.57008C7.50631 8.64583 7.54735 8.75316 7.54735 8.89205V9.00568C7.54735 9.28346 7.4053 9.42235 7.12121 9.42235H6.97917V12.036H7.12121C7.4053 12.036 7.54735 12.178 7.54735 12.4621V12.5663C7.54735 12.7052 7.50631 12.8157 7.42424 12.8977C7.34217 12.9735 7.23485 13.0114 7.10227 13.0114H6.01326C5.87437 13.0114 5.76389 12.9735 5.68182 12.8977C5.60606 12.8157 5.56818 12.7052 5.56818 12.5663ZM7.87879 12.5663V12.4621C7.87879 12.178 8.01768 12.036 8.29545 12.036H8.44697V9.42235H8.29545C8.01768 9.42235 7.87879 9.28346 7.87879 9.00568V8.89205C7.87879 8.75316 7.91667 8.64583 7.99242 8.57008C8.0745 8.48801 8.18182 8.44697 8.31439 8.44697H9.41288C9.54545 8.44697 9.65278 8.48801 9.73485 8.57008C9.81692 8.64583 9.85795 8.75316 9.85795 8.89205V9.00568C9.85795 9.28346 9.71275 9.42235 9.42235 9.42235H9.28977V12.036H9.42235C9.71275 12.036 9.85795 12.178 9.85795 12.4621V12.5663C9.85795 12.7052 9.81692 12.8157 9.73485 12.8977C9.65278 12.9735 9.54545 13.0114 9.41288 13.0114H8.31439C8.18182 13.0114 8.0745 12.9735 7.99242 12.8977C7.91667 12.8157 7.87879 12.7052 7.87879 12.5663ZM10.1894 12.5663V12.4621C10.1894 12.178 10.3283 12.036 10.6061 12.036H10.7481V9.42235H10.6061C10.3283 9.42235 10.1894 9.28346 10.1894 9.00568V8.89205C10.1894 8.75316 10.2273 8.64583 10.303 8.57008C10.3851 8.48801 10.4924 8.44697 10.625 8.44697H11.7235C11.8497 8.44697 11.9539 8.48801 12.036 8.57008C12.1181 8.64583 12.1591 8.75316 12.1591 8.89205V9.00568C12.1591 9.28346 12.017 9.42235 11.733 9.42235H11.5909V12.036H11.733C12.017 12.036 12.1591 12.178 12.1591 12.4621V12.5663C12.1591 12.7052 12.1181 12.8157 12.036 12.8977C11.9539 12.9735 11.8497 13.0114 11.7235 13.0114H10.625C10.4924 13.0114 10.3851 12.9735 10.303 12.8977C10.2273 12.8157 10.1894 12.7052 10.1894 12.5663ZM12.4905 12.5663V12.4621C12.4905 12.178 12.6294 12.036 12.9072 12.036H13.0492V9.42235H12.9072C12.6294 9.42235 12.4905 9.28346 12.4905 9.00568V8.89205C12.4905 8.75316 12.5284 8.64583 12.6042 8.57008C12.6862 8.48801 12.7936 8.44697 12.9261 8.44697H14.0246C14.1509 8.44697 14.2551 8.48801 14.3371 8.57008C14.4192 8.64583 14.4602 8.75316 14.4602 8.89205V9.00568C14.4602 9.28346 14.3213 9.42235 14.0436 9.42235H13.9015V12.036H14.0436C14.3213 12.036 14.4602 12.178 14.4602 12.4621V12.5663C14.4602 12.7052 14.4192 12.8157 14.3371 12.8977C14.2551 12.9735 14.1509 13.0114 14.0246 13.0114H12.9261C12.7872 13.0114 12.6799 12.9735 12.6042 12.8977C12.5284 12.8157 12.4905 12.7052 12.4905 12.5663ZM4.79167 14.1193C4.79167 13.9741 4.84217 13.851 4.94318 13.75C5.04419 13.6427 5.16414 13.589 5.30303 13.589H14.7064C14.8516 13.589 14.9716 13.6427 15.0663 13.75C15.1673 13.851 15.2178 13.9741 15.2178 14.1193C15.2178 14.2645 15.1673 14.3876 15.0663 14.4886C14.9653 14.5833 14.8453 14.6307 14.7064 14.6307H5.30303C5.16414 14.6307 5.04419 14.5833 4.94318 14.4886C4.84217 14.3876 4.79167 14.2645 4.79167 14.1193Z" fill="white"/>
</g>
<defs>
<clipPath id="clip0_3329_67932">
<rect width="20" height="20" fill="white"/>
</clipPath>
</defs>
</svg>
