<svg width="60" height="60" viewBox="0 0 60 60" fill="none" xmlns="http://www.w3.org/2000/svg">
<rect width="60" height="60" rx="2" fill="#E6D1D9"/>
<path d="M14.2375 48.4238H45.7629C46.3279 48.4238 46.7346 48.2656 46.9832 47.9492C47.2544 47.6102 47.39 47.1695 47.39 46.6271C47.39 45.7006 47.0397 44.4916 46.3392 43C45.6386 41.4859 44.5765 39.9718 43.1527 38.4577C41.729 36.9209 39.9211 35.6328 37.729 34.5932C35.5595 33.5537 32.9832 33.0339 30.0002 33.0339C27.0397 33.0339 24.4635 33.5537 22.2714 34.5932C20.1019 35.6328 18.294 36.9209 16.8476 38.4577C15.4239 39.9718 14.3618 41.4859 13.6612 43C12.9606 44.4916 12.6104 45.7006 12.6104 46.6271C12.6104 47.1695 12.7346 47.6102 12.9832 47.9492C13.2544 48.2656 13.6725 48.4238 14.2375 48.4238ZM30.0002 30.2882C31.6047 30.2882 33.0623 29.8814 34.3731 29.0678C35.6838 28.2317 36.7233 27.1017 37.4917 25.678C38.2827 24.2543 38.6781 22.6384 38.6781 20.8305C38.6781 19.1582 38.2827 17.6215 37.4917 16.2204C36.7233 14.7966 35.6838 13.6667 34.3731 12.8305C33.0623 11.9944 31.6047 11.5763 30.0002 11.5763C28.3957 11.5763 26.938 11.9944 25.6273 12.8305C24.3166 13.6667 23.277 14.7966 22.5087 16.2204C21.7403 17.6215 21.3561 19.1582 21.3561 20.8305C21.3561 22.6384 21.7403 24.2543 22.5087 25.678C23.277 27.0791 24.3166 28.1978 25.6273 29.0339C26.938 29.8701 28.3957 30.2882 30.0002 30.2882Z" fill="#AA4465"/>
</svg>
