<svg width="60" height="60" viewBox="0 0 60 60" fill="none" xmlns="http://www.w3.org/2000/svg">
<rect width="60" height="60" rx="2" fill="#F5ECF0"/>
<path d="M17.5273 44.9253H42.4725C43.948 44.9253 45.0547 44.5664 45.7925 43.8485C46.5303 43.1107 46.8992 42.004 46.8992 40.5285V25.0948C46.8992 23.6192 46.5303 22.5225 45.7925 21.8046C45.0547 21.0669 43.948 20.698 42.4725 20.698H17.5273C16.0517 20.698 14.9451 21.0669 14.2073 21.8046C13.4695 22.5225 13.1006 23.6192 13.1006 25.0948V40.5285C13.1006 42.004 13.4695 43.1107 14.2073 43.8485C14.9451 44.5664 16.0517 44.9253 17.5273 44.9253ZM27.6071 34.5763C26.5502 34.5763 26.0218 34.0479 26.0218 32.9911V31.7348C23.8882 31.5953 21.7546 31.3261 19.621 30.9273C17.5074 30.5085 15.3339 29.9103 13.1006 29.1327V26.7697C15.9122 27.9063 18.6838 28.694 21.4156 29.1327C24.1674 29.5514 27.0288 29.7608 29.9999 29.7608C32.971 29.7608 35.8224 29.5514 38.5542 29.1327C41.306 28.694 44.0876 27.9063 46.8992 26.7697V29.1327C44.6659 29.9103 42.4824 30.5085 40.3488 30.9273C38.2352 31.3261 36.1116 31.5953 33.978 31.7348V32.9911C33.978 34.0479 33.4495 34.5763 32.3927 34.5763H27.6071ZM21.1764 21.8645H23.5991V18.8136C23.5991 17.8365 24.1076 17.348 25.1245 17.348H34.8753C35.9122 17.348 36.4306 17.8365 36.4306 18.8136V21.8645H38.8234V18.694C38.8234 17.5773 38.4745 16.7 37.7766 16.0619C37.0986 15.4038 36.1714 15.0748 34.9949 15.0748H25.0049C23.8284 15.0748 22.8912 15.4038 22.1933 16.0619C21.5153 16.7 21.1764 17.5773 21.1764 18.694V21.8645Z" fill="#AA4465"/>
</svg>
