<svg width="50" height="50" viewBox="0 0 50 50" fill="none" xmlns="http://www.w3.org/2000/svg">
<path d="M19.9902 35.8887C21.0319 35.8887 21.9694 35.5924 22.8027 35C23.6426 34.4141 24.3587 33.5905 24.9512 32.5293C25.5501 31.4746 26.0059 30.2409 26.3184 28.8281C26.6374 27.4089 26.7969 25.8724 26.7969 24.2188C26.7969 22.8125 26.6406 21.4974 26.3281 20.2734C26.0221 19.0495 25.5827 17.9785 25.0098 17.0605C24.4368 16.1361 23.75 15.4134 22.9492 14.8926C22.1484 14.3717 21.2565 14.1113 20.2734 14.1113C19.3945 14.1113 18.61 14.3327 17.9199 14.7754C17.2298 15.2116 16.6829 15.804 16.2793 16.5527C15.8822 17.3014 15.6836 18.1478 15.6836 19.0918C15.6836 19.9186 15.8105 20.7129 16.0645 21.4746C16.3249 22.2363 16.6764 22.9557 17.1191 23.6328C17.5618 24.3034 18.0697 24.9251 18.6426 25.498C19.222 26.0645 19.834 26.5755 20.4785 27.0312C21.1296 27.4805 21.7806 27.8613 22.4316 28.1738C22.5684 28.2454 22.7148 28.2812 22.8711 28.2812C23.0924 28.2812 23.278 28.2064 23.4277 28.0566C23.584 27.9069 23.6621 27.7311 23.6621 27.5293C23.6621 27.3926 23.6263 27.2624 23.5547 27.1387C23.4831 27.015 23.3659 26.9076 23.2031 26.8164C22.6693 26.5365 22.0703 26.1621 21.4062 25.6934C20.7422 25.2181 20.1042 24.6549 19.4922 24.0039C18.8802 23.3464 18.3789 22.6074 17.9883 21.7871C17.5977 20.9603 17.4023 20.0586 17.4023 19.082C17.4023 18.4635 17.526 17.9102 17.7734 17.4219C18.0208 16.9336 18.3594 16.5462 18.7891 16.2598C19.2253 15.9733 19.7201 15.8301 20.2734 15.8301C20.9961 15.8301 21.6536 16.0482 22.2461 16.4844C22.8385 16.9141 23.3464 17.513 23.7695 18.2812C24.1992 19.0495 24.5247 19.9414 24.7461 20.957C24.974 21.9661 25.0879 23.0534 25.0879 24.2188C25.0879 25.599 24.9642 26.8913 24.7168 28.0957C24.4759 29.3001 24.1341 30.3581 23.6914 31.2695C23.2487 32.181 22.7279 32.8939 22.1289 33.4082C21.5365 33.9225 20.8919 34.1797 20.1953 34.1797C19.7461 34.1797 19.4108 34.0462 19.1895 33.7793C18.9746 33.5124 18.8672 33.1641 18.8672 32.7344C18.8672 32.194 19.0267 31.5788 19.3457 30.8887C19.6712 30.1986 20.1302 29.502 20.7227 28.7988C21.3151 28.0892 22.015 27.4349 22.8223 26.8359C23.6361 26.2305 24.541 25.7454 25.5371 25.3809C26.5332 25.0098 27.5879 24.8242 28.7012 24.8242C29.0202 24.8242 29.1797 24.9414 29.1797 25.1758C29.1797 25.4492 29.1374 25.7096 29.0527 25.957C28.9746 26.1979 28.8965 26.4453 28.8184 26.6992C28.7402 26.9531 28.7012 27.2266 28.7012 27.5195C28.7012 27.9167 28.8314 28.2292 29.0918 28.457C29.3522 28.6849 29.6777 28.7988 30.0684 28.7988C30.472 28.7988 30.8854 28.6882 31.3086 28.4668C31.7318 28.2389 32.1484 27.959 32.5586 27.627C32.9688 27.2884 33.3496 26.9531 33.7012 26.6211C34.0592 26.2891 34.3717 26.0124 34.6387 25.791C34.9056 25.5632 35.1172 25.4492 35.2734 25.4492C35.4036 25.4492 35.4915 25.5501 35.5371 25.752C35.5827 25.9538 35.6283 26.2044 35.6738 26.5039C35.7259 26.7969 35.8073 27.0931 35.918 27.3926C36.0352 27.6855 36.224 27.9329 36.4844 28.1348C36.7513 28.3366 37.1322 28.4375 37.627 28.4375C37.8418 28.4375 38.0762 28.4082 38.3301 28.3496C38.584 28.2845 38.8151 28.1836 39.0234 28.0469C39.1536 27.9557 39.2611 27.8451 39.3457 27.7148C39.4303 27.5846 39.4727 27.4349 39.4727 27.2656C39.4727 27.0508 39.4043 26.8652 39.2676 26.709C39.1374 26.5462 38.9616 26.4648 38.7402 26.4648C38.571 26.4648 38.4115 26.5104 38.2617 26.6016C38.1185 26.6862 37.972 26.7285 37.8223 26.7285C37.627 26.7285 37.4935 26.6211 37.4219 26.4062C37.3503 26.1914 37.2949 25.9245 37.2559 25.6055C37.2168 25.2865 37.1582 24.9674 37.0801 24.6484C37.002 24.3294 36.862 24.0625 36.6602 23.8477C36.4648 23.6263 36.1621 23.5156 35.752 23.5156C35.4069 23.5156 35.0358 23.623 34.6387 23.8379C34.2415 24.0527 33.8444 24.3164 33.4473 24.6289C33.0501 24.9414 32.6758 25.2572 32.3242 25.5762C31.9792 25.8887 31.6732 26.1523 31.4062 26.3672C31.1393 26.5755 30.944 26.6797 30.8203 26.6797C30.7227 26.6797 30.6738 26.6276 30.6738 26.5234C30.6738 26.4193 30.7031 26.2793 30.7617 26.1035C30.8268 25.9212 30.8887 25.7227 30.9473 25.5078C31.0059 25.293 31.0352 25.0716 31.0352 24.8438C31.0352 24.3164 30.8398 23.8965 30.4492 23.584C30.0586 23.2715 29.5312 23.1152 28.8672 23.1152C27.5326 23.1152 26.2728 23.3333 25.0879 23.7695C23.903 24.2057 22.8223 24.7819 21.8457 25.498C20.8691 26.2142 20.026 27.0085 19.3164 27.8809C18.6133 28.7533 18.0664 29.6322 17.6758 30.5176C17.2917 31.4095 17.0996 32.2363 17.0996 32.998C17.0996 33.8574 17.3405 34.554 17.8223 35.0879C18.304 35.6217 19.0267 35.8887 19.9902 35.8887ZM10.9668 32.2559H39.0234C39.2578 32.2559 39.4596 32.168 39.6289 31.9922C39.7982 31.8229 39.8828 31.6243 39.8828 31.3965C39.8828 31.1621 39.7982 30.9603 39.6289 30.791C39.4596 30.6217 39.2578 30.5371 39.0234 30.5371H10.9668C10.7324 30.5371 10.5306 30.6217 10.3613 30.791C10.1986 30.9603 10.1172 31.1621 10.1172 31.3965C10.1172 31.6243 10.1986 31.8229 10.3613 31.9922C10.5306 32.168 10.7324 32.2559 10.9668 32.2559ZM10.6152 28.4766C10.752 28.6198 10.9147 28.6914 11.1035 28.6914C11.2923 28.6849 11.4551 28.6133 11.5918 28.4766L14.9316 25.1465C15.0749 25.0098 15.1432 24.847 15.1367 24.6582C15.1367 24.4694 15.0684 24.3066 14.9316 24.1699C14.7949 24.0267 14.6322 23.9583 14.4434 23.9648C14.2546 23.9648 14.0918 24.0332 13.9551 24.1699L10.6152 27.4902C10.472 27.6335 10.4004 27.7995 10.4004 27.9883C10.4004 28.1706 10.472 28.3333 10.6152 28.4766ZM13.9551 28.4766C14.0918 28.6133 14.2546 28.6816 14.4434 28.6816C14.6322 28.6816 14.7949 28.6133 14.9316 28.4766C15.0749 28.3333 15.1465 28.1673 15.1465 27.9785C15.1465 27.7897 15.0749 27.627 14.9316 27.4902L11.5918 24.1699C11.4551 24.0267 11.2923 23.9551 11.1035 23.9551C10.9147 23.9551 10.752 24.0267 10.6152 24.1699C10.472 24.3066 10.4004 24.4694 10.4004 24.6582C10.4004 24.847 10.472 25.0098 10.6152 25.1465L13.9551 28.4766Z" fill="#E4E7EE"/>
</svg>
