<svg width="107" height="78" viewBox="0 0 107 78" fill="none" xmlns="http://www.w3.org/2000/svg">
<path d="M35.8867 77.6523C39.5195 77.6523 42.8125 76.5859 45.7656 74.4531C48.7188 72.3203 51.25 69.3555 53.3594 65.5586C55.4922 61.7617 57.1211 57.3438 58.2461 52.3047C59.3945 47.2656 59.9688 41.8281 59.9688 35.9922C59.9688 31.0469 59.4297 26.418 58.3516 22.1055C57.2734 17.7695 55.7266 13.9727 53.7109 10.7148C51.6953 7.43359 49.2695 4.86719 46.4336 3.01562C43.6211 1.16406 40.457 0.238281 36.9414 0.238281C33.918 0.238281 31.1992 1.02344 28.7852 2.59375C26.3711 4.14062 24.4492 6.23828 23.0195 8.88672C21.6133 11.5117 20.9102 14.4648 20.9102 17.7461C20.9102 20.6289 21.3555 23.4062 22.2461 26.0781C23.1367 28.75 24.3555 31.2812 25.9023 33.6719C27.4727 36.0391 29.2891 38.2422 31.3516 40.2812C33.4141 42.2969 35.6289 44.125 37.9961 45.7656C40.3867 47.3828 42.8242 48.7773 45.3086 49.9492C45.7305 50.1602 46.1758 50.2656 46.6445 50.2656C47.3477 50.2656 47.9336 50.0312 48.4023 49.5625C48.8711 49.0703 49.1055 48.5195 49.1055 47.9102C49.1055 47.4883 48.9883 47.0898 48.7539 46.7148C48.5195 46.3164 48.1445 45.9883 47.6289 45.7305C45.6133 44.7461 43.3867 43.4102 40.9492 41.7227C38.5117 40.0117 36.168 37.9727 33.918 35.6055C31.6914 33.2148 29.8633 30.5312 28.4336 27.5547C27.0039 24.5547 26.2891 21.2852 26.2891 17.7461C26.2891 15.4492 26.7578 13.3867 27.6953 11.5586C28.6328 9.73047 29.8984 8.27734 31.4922 7.19922C33.1094 6.12109 34.9258 5.58203 36.9414 5.58203C39.6367 5.58203 42.0742 6.37891 44.2539 7.97266C46.4336 9.56641 48.2969 11.7578 49.8438 14.5469C51.3906 17.3359 52.5742 20.5703 53.3945 24.25C54.2148 27.9062 54.625 31.8203 54.625 35.9922C54.625 40.9844 54.168 45.6719 53.2539 50.0547C52.3633 54.4375 51.0977 58.293 49.457 61.6211C47.8164 64.9727 45.8945 67.5859 43.6914 69.4609C41.4883 71.3594 39.0977 72.3086 36.5195 72.3086C34.832 72.3086 33.5781 71.8047 32.7578 70.7969C31.9609 69.8125 31.5625 68.5234 31.5625 66.9297C31.5625 64.9609 32.125 62.7109 33.25 60.1797C34.3984 57.6484 36.0156 55.0938 38.1016 52.5156C40.2109 49.9375 42.7188 47.5469 45.625 45.3438C48.5312 43.1406 51.7773 41.3711 55.3633 40.0352C58.9492 38.6758 62.7812 37.9961 66.8594 37.9961C68.1484 37.9961 68.793 38.4766 68.793 39.4375C68.793 40.4688 68.6523 41.4414 68.3711 42.3555C68.0898 43.2461 67.8086 44.1484 67.5273 45.0625C67.2695 45.9766 67.1406 46.9375 67.1406 47.9453C67.1406 49.2812 67.5742 50.3359 68.4414 51.1094C69.3086 51.8594 70.3867 52.2344 71.6758 52.2344C73.1055 52.2344 74.5586 51.8242 76.0352 51.0039C77.5352 50.1836 79.0117 49.1641 80.4648 47.9453C81.918 46.7266 83.2773 45.5195 84.543 44.3242C85.8086 43.1055 86.9336 42.0859 87.918 41.2656C88.9023 40.4453 89.6875 40.0352 90.2734 40.0352C90.7891 40.0352 91.1289 40.4102 91.293 41.1602C91.457 41.8867 91.6094 42.8008 91.75 43.9023C91.8906 44.9805 92.1484 46.0703 92.5234 47.1719C92.8984 48.25 93.543 49.1641 94.457 49.9141C95.3711 50.6406 96.707 51.0039 98.4648 51.0039C99.1914 51.0039 99.9883 50.8984 100.855 50.6875C101.723 50.4766 102.52 50.1367 103.246 49.668C103.668 49.3867 104.008 49.0352 104.266 48.6133C104.547 48.1914 104.688 47.7109 104.688 47.1719C104.688 46.4922 104.477 45.918 104.055 45.4492C103.656 44.9805 103.117 44.7461 102.438 44.7461C101.828 44.7461 101.254 44.9219 100.715 45.2734C100.176 45.6016 99.6016 45.7656 98.9922 45.7656C98.2188 45.7656 97.6914 45.3789 97.4102 44.6055C97.1289 43.8086 96.9297 42.8359 96.8125 41.6875C96.6953 40.5156 96.5078 39.3555 96.25 38.207C96.0156 37.0352 95.5703 36.0625 94.9141 35.2891C94.2578 34.4922 93.2266 34.0938 91.8203 34.0938C90.6016 34.0938 89.2656 34.4922 87.8125 35.2891C86.3828 36.0859 84.9414 37.082 83.4883 38.2773C82.0352 39.4492 80.6523 40.6328 79.3398 41.8281C78.0508 43 76.9023 43.9844 75.8945 44.7812C74.9102 45.5781 74.1719 45.9766 73.6797 45.9766C73.3281 45.9766 73.1523 45.7773 73.1523 45.3789C73.1523 44.957 73.2812 44.3828 73.5391 43.6562C73.7969 42.9062 74.0547 42.0859 74.3125 41.1953C74.5703 40.2812 74.6992 39.3555 74.6992 38.418C74.6992 36.6602 74.0195 35.2656 72.6602 34.2344C71.3242 33.1797 69.5195 32.6523 67.2461 32.6523C62.5586 32.6523 58.1289 33.4375 53.957 35.0078C49.8086 36.5781 46.0234 38.6641 42.6016 41.2656C39.2031 43.8438 36.2734 46.6914 33.8125 49.8086C31.3516 52.9258 29.4414 56.0664 28.082 59.2305C26.7461 62.3945 26.0781 65.3008 26.0781 67.9492C26.0781 70.7852 26.8867 73.1055 28.5039 74.9102C30.1211 76.7383 32.582 77.6523 35.8867 77.6523ZM3.47266 64.7852H103.457C104.23 64.7852 104.898 64.5039 105.461 63.9414C106.023 63.3789 106.305 62.7109 106.305 61.9375C106.305 61.1641 106.023 60.4961 105.461 59.9336C104.898 59.3945 104.23 59.125 103.457 59.125H3.47266C2.69922 59.125 2.03125 59.3945 1.46875 59.9336C0.929688 60.4961 0.660156 61.1641 0.660156 61.9375C0.660156 62.7109 0.929688 63.3789 1.46875 63.9414C2.03125 64.5039 2.69922 64.7852 3.47266 64.7852ZM2.48828 51.0742C2.93359 51.543 3.46094 51.7773 4.07031 51.7773C4.70312 51.7539 5.24219 51.5195 5.6875 51.0742L17.7109 39.0859C18.1797 38.6406 18.4141 38.1133 18.4141 37.5039C18.4141 36.8711 18.1797 36.332 17.7109 35.8867C17.2656 35.418 16.7266 35.1953 16.0938 35.2188C15.4844 35.2188 14.957 35.4414 14.5117 35.8867L2.48828 47.8398C2.01953 48.3086 1.78516 48.8477 1.78516 49.457C1.78516 50.0664 2.01953 50.6055 2.48828 51.0742ZM14.5117 51.0742C14.957 51.543 15.4844 51.7773 16.0938 51.7773C16.7266 51.7773 17.2656 51.543 17.7109 51.0742C18.1797 50.6055 18.4141 50.0664 18.4141 49.457C18.4141 48.8242 18.1797 48.2852 17.7109 47.8398L5.6875 35.8867C5.24219 35.418 4.70312 35.1836 4.07031 35.1836C3.46094 35.1836 2.93359 35.418 2.48828 35.8867C2.01953 36.332 1.78516 36.8711 1.78516 37.5039C1.78516 38.1133 2.01953 38.6406 2.48828 39.0859L14.5117 51.0742Z" fill="#CFC8D4"/>
</svg>
