<svg width="80" height="80" viewBox="0 0 80 80" fill="none" xmlns="http://www.w3.org/2000/svg">
<circle cx="40" cy="40.5" r="11.5" fill="white"/>
<path fill-rule="evenodd" clip-rule="evenodd" d="M44.6055 51.5547C43.168 52.1797 41.6328 52.4922 40 52.4922C39.1797 52.4922 38.375 52.4062 37.5859 52.2344C36.7969 52.0625 36.043 51.8203 35.3242 51.5078C35.8867 50.8438 36.3242 50.0977 36.6367 49.2695C36.957 48.4414 37.1172 47.5703 37.1172 46.6562C37.1172 46.0391 37.0469 45.4492 36.9062 44.8867C37.3672 44.7773 37.8555 44.6914 38.3711 44.6289C38.8867 44.5586 39.4258 44.5234 39.9883 44.5234C41.168 44.5234 42.2461 44.6523 43.2227 44.9102C44.1992 45.168 45.043 45.5039 45.7539 45.918C46.4648 46.3242 47.0117 46.7539 47.3945 47.207C48.1992 46.332 48.8281 45.3242 49.2812 44.1836C49.7344 43.043 49.9609 41.8281 49.9609 40.5391C49.9609 39.1562 49.7031 37.8633 49.1875 36.6602C48.6719 35.457 47.957 34.3984 47.043 33.4844C46.1289 32.5703 45.0703 31.8594 43.8672 31.3516C42.6641 30.8359 41.3711 30.5781 39.9883 30.5781C38.7227 30.5781 37.5312 30.7969 36.4141 31.2344C35.2969 31.6641 34.2969 32.2656 33.4141 33.0391C32.5312 33.8125 31.8086 34.7227 31.2461 35.7695C30.6836 36.8086 30.3203 37.9336 30.1562 39.1445C29.8438 39.1055 29.4961 39.0977 29.1133 39.1211C28.7383 39.1367 28.4102 39.1719 28.1289 39.2266C28.293 37.7422 28.7109 36.3555 29.3828 35.0664C30.0625 33.7773 30.9375 32.6484 32.0078 31.6797C33.0859 30.7109 34.3047 29.9531 35.6641 29.4062C37.0234 28.8594 38.4648 28.5859 39.9883 28.5859C41.6211 28.5859 43.1562 28.8984 44.5938 29.5234C46.0391 30.1484 47.3125 31.0117 48.4141 32.1133C49.5156 33.2148 50.3789 34.4883 51.0039 35.9336C51.6367 37.3711 51.9531 38.9062 51.9531 40.5391C51.9531 42.1719 51.6406 43.7109 51.0156 45.1562C50.3906 46.5938 49.5273 47.8633 48.4258 48.9648C47.3242 50.0664 46.0508 50.9297 44.6055 51.5547ZM42.0156 41.9688C41.4141 42.3516 40.7383 42.5391 39.9883 42.5312C39.2383 42.5234 38.5586 42.3281 37.9492 41.9453C37.3477 41.5547 36.8672 41.0273 36.5078 40.3633C36.1484 39.6992 35.9688 38.9492 35.9688 38.1133C35.9609 37.3242 36.1367 36.6016 36.4961 35.9453C36.8555 35.2891 37.3398 34.7656 37.9492 34.375C38.5586 33.9844 39.2383 33.7891 39.9883 33.7891C40.7383 33.7891 41.4141 33.9844 42.0156 34.375C42.625 34.7656 43.1094 35.2891 43.4688 35.9453C43.8281 36.6016 44.0078 37.3242 44.0078 38.1133C44.0078 38.957 43.8281 39.7148 43.4688 40.3867C43.1094 41.0508 42.625 41.5781 42.0156 41.9688ZM29.9918 52.5H28.9966C28.8192 52.5 28.661 52.4458 28.5222 52.3375C28.391 52.2369 28.31 52.0977 28.2792 51.9197L28.013 50.7824C27.9359 50.7592 27.8549 50.7321 27.77 50.7012C27.6929 50.6702 27.6041 50.6277 27.5039 50.5735L26.4971 51.1886C26.3428 51.2814 26.1847 51.324 26.0227 51.3162C25.8607 51.3085 25.7141 51.235 25.5829 51.0957L24.9118 50.3994C24.7883 50.2756 24.7228 50.1325 24.715 49.97C24.6996 49.8075 24.7382 49.6451 24.8308 49.4826L25.4209 48.4729C25.3901 48.3878 25.3592 48.3066 25.3284 48.2292C25.2898 48.1596 25.2551 48.0861 25.2242 48.0087L24.0786 47.7302C23.9012 47.6838 23.7623 47.5948 23.662 47.4632C23.554 47.3395 23.5 47.1847 23.5 46.999V46.0126C23.5 45.8501 23.554 45.707 23.662 45.5832C23.7623 45.4516 23.9012 45.3627 24.0786 45.3162L25.2126 45.0377C25.2435 44.9526 25.2782 44.8714 25.3168 44.794C25.3476 44.7089 25.3785 44.6315 25.4094 44.5619L24.7729 43.529C24.6803 43.382 24.6495 43.2273 24.6803 43.0648C24.7035 42.8946 24.7768 42.7476 24.9002 42.6238L25.5829 41.9391C25.7141 41.8075 25.8607 41.7302 26.0227 41.707C26.1924 41.6838 26.3428 41.7186 26.474 41.8114L27.4807 42.4497C27.5656 42.3956 27.6504 42.3569 27.7353 42.3337C27.8202 42.3027 27.9127 42.2679 28.013 42.2292L28.2792 41.0803C28.31 40.9178 28.391 40.7824 28.5222 40.6741C28.661 40.558 28.8192 40.5 28.9966 40.5H29.9918C30.1692 40.5 30.3235 40.5542 30.4547 40.6625C30.5858 40.7708 30.6707 40.9101 30.7093 41.0803L30.987 42.2408C31.0641 42.2718 31.1451 42.3027 31.23 42.3337C31.3149 42.3569 31.4036 42.3956 31.4961 42.4497L32.5145 41.8114C32.6533 41.7186 32.8038 41.6838 32.9658 41.707C33.1278 41.7302 33.2743 41.8075 33.4055 41.9391L34.1114 42.6238C34.2348 42.7398 34.3042 42.883 34.3197 43.0532C34.3351 43.2234 34.2965 43.382 34.204 43.529L33.5791 44.5619C33.6099 44.6315 33.6408 44.705 33.6716 44.7824C33.7102 44.852 33.7488 44.9371 33.7874 45.0377L34.9098 45.3162C35.0873 45.3627 35.23 45.4478 35.338 45.5716C35.446 45.6954 35.5 45.8424 35.5 46.0126V46.999C35.5 47.1847 35.446 47.3395 35.338 47.4632C35.2377 47.5948 35.095 47.6838 34.9098 47.7302L33.7642 48.0087C33.7411 48.0861 33.7141 48.1596 33.6832 48.2292C33.6524 48.3066 33.6138 48.3878 33.5675 48.4729L34.1577 49.471C34.258 49.6412 34.3004 49.8037 34.285 49.9584C34.2772 50.1209 34.2117 50.2679 34.0882 50.3994L33.4055 51.0957C33.2666 51.235 33.1162 51.3085 32.9542 51.3162C32.7999 51.324 32.6456 51.2814 32.4913 51.1886L31.4961 50.5735C31.419 50.6199 31.3341 50.6586 31.2416 50.6896C31.149 50.7282 31.0641 50.7592 30.987 50.7824L30.7093 51.9197C30.6707 52.1054 30.5858 52.2486 30.4547 52.3491C30.3235 52.4497 30.1692 52.5 29.9918 52.5ZM28.1287 47.8694C28.499 48.2486 28.9581 48.4381 29.5058 48.4381C30.0227 48.4381 30.4701 48.2486 30.8481 47.8694C31.2338 47.4981 31.4267 47.0455 31.4267 46.5116C31.4267 45.9778 31.2338 45.5174 30.8481 45.1306C30.4701 44.7437 30.0227 44.5542 29.5058 44.5619C28.9581 44.5696 28.499 44.7631 28.1287 45.1422C27.7584 45.5213 27.5733 45.9778 27.5733 46.5116C27.5733 47.0455 27.7584 47.4981 28.1287 47.8694Z" fill="black"/>
</svg>
