<svg width="80" height="80" viewBox="0 0 80 80" fill="none" xmlns="http://www.w3.org/2000/svg">
<path d="M31.8203 49.457C31.3047 49.457 30.9062 49.3164 30.625 49.0352C30.3438 48.7617 30.2031 48.3555 30.2031 47.8164V36.7656C30.2031 36.2266 30.3438 35.8203 30.625 35.5469C30.9062 35.2656 31.3047 35.125 31.8203 35.125H48.1562C48.6797 35.125 49.082 35.2656 49.3633 35.5469C49.6445 35.8203 49.7852 36.2266 49.7852 36.7656V47.8164C49.7852 48.3555 49.6445 48.7617 49.3633 49.0352C49.082 49.3164 48.6797 49.457 48.1562 49.457H31.8203Z" fill="white"/>
<path d="M31.9961 51.3438H48.0039C49.2305 51.3438 50.1484 51.0391 50.7578 50.4297C51.3672 49.8281 51.6719 48.9219 51.6719 47.7109V33.4023C51.6719 32.1914 51.3672 31.2852 50.7578 30.6836C50.1484 30.0742 49.2305 29.7695 48.0039 29.7695H31.9961C30.7695 29.7695 29.8477 30.0742 29.2305 30.6836C28.6211 31.2852 28.3164 32.1914 28.3164 33.4023V47.7109C28.3164 48.9219 28.6211 49.8281 29.2305 50.4297C29.8477 51.0391 30.7695 51.3438 31.9961 51.3438ZM31.8203 49.457C31.3047 49.457 30.9062 49.3164 30.625 49.0352C30.3438 48.7617 30.2031 48.3555 30.2031 47.8164V36.7656C30.2031 36.2266 30.3438 35.8203 30.625 35.5469C30.9062 35.2656 31.3047 35.125 31.8203 35.125H48.1562C48.6797 35.125 49.082 35.2656 49.3633 35.5469C49.6445 35.8203 49.7852 36.2266 49.7852 36.7656V47.8164C49.7852 48.3555 49.6445 48.7617 49.3633 49.0352C49.082 49.3164 48.6797 49.457 48.1562 49.457H31.8203ZM37.7148 39.3438H38.4062C38.6094 39.3438 38.75 39.3047 38.8281 39.2266C38.9141 39.1484 38.957 39.0078 38.957 38.8047V38.1133C38.957 37.9102 38.9141 37.7734 38.8281 37.7031C38.75 37.625 38.6094 37.5859 38.4062 37.5859H37.7148C37.5117 37.5859 37.3672 37.625 37.2812 37.7031C37.2031 37.7734 37.1641 37.9102 37.1641 38.1133V38.8047C37.1641 39.0078 37.2031 39.1484 37.2812 39.2266C37.3672 39.3047 37.5117 39.3438 37.7148 39.3438ZM41.6055 39.3438H42.2969C42.5078 39.3438 42.6523 39.3047 42.7305 39.2266C42.8086 39.1484 42.8477 39.0078 42.8477 38.8047V38.1133C42.8477 37.9102 42.8086 37.7734 42.7305 37.7031C42.6523 37.625 42.5078 37.5859 42.2969 37.5859H41.6055C41.4023 37.5859 41.2617 37.625 41.1836 37.7031C41.1055 37.7734 41.0664 37.9102 41.0664 38.1133V38.8047C41.0664 39.0078 41.1055 39.1484 41.1836 39.2266C41.2617 39.3047 41.4023 39.3438 41.6055 39.3438ZM45.5078 39.3438H46.1875C46.3984 39.3438 46.543 39.3047 46.6211 39.2266C46.6992 39.1484 46.7383 39.0078 46.7383 38.8047V38.1133C46.7383 37.9102 46.6992 37.7734 46.6211 37.7031C46.543 37.625 46.3984 37.5859 46.1875 37.5859H45.5078C45.2969 37.5859 45.1523 37.625 45.0742 37.7031C44.9961 37.7734 44.957 37.9102 44.957 38.1133V38.8047C44.957 39.0078 44.9961 39.1484 45.0742 39.2266C45.1523 39.3047 45.2969 39.3438 45.5078 39.3438ZM33.8242 43.1758H34.5156C34.7188 43.1758 34.8594 43.1367 34.9375 43.0586C35.0156 42.9805 35.0547 42.8398 35.0547 42.6367V41.957C35.0547 41.7461 35.0156 41.6055 34.9375 41.5352C34.8594 41.457 34.7188 41.418 34.5156 41.418H33.8242C33.6133 41.418 33.4688 41.457 33.3906 41.5352C33.3125 41.6055 33.2734 41.7461 33.2734 41.957V42.6367C33.2734 42.8398 33.3125 42.9805 33.3906 43.0586C33.4688 43.1367 33.6133 43.1758 33.8242 43.1758ZM37.7148 43.1758H38.4062C38.6094 43.1758 38.75 43.1367 38.8281 43.0586C38.9141 42.9805 38.957 42.8398 38.957 42.6367V41.957C38.957 41.7461 38.9141 41.6055 38.8281 41.5352C38.75 41.457 38.6094 41.418 38.4062 41.418H37.7148C37.5117 41.418 37.3672 41.457 37.2812 41.5352C37.2031 41.6055 37.1641 41.7461 37.1641 41.957V42.6367C37.1641 42.8398 37.2031 42.9805 37.2812 43.0586C37.3672 43.1367 37.5117 43.1758 37.7148 43.1758ZM41.6055 43.1758H42.2969C42.5078 43.1758 42.6523 43.1367 42.7305 43.0586C42.8086 42.9805 42.8477 42.8398 42.8477 42.6367V41.957C42.8477 41.7461 42.8086 41.6055 42.7305 41.5352C42.6523 41.457 42.5078 41.418 42.2969 41.418H41.6055C41.4023 41.418 41.2617 41.457 41.1836 41.5352C41.1055 41.6055 41.0664 41.7461 41.0664 41.957V42.6367C41.0664 42.8398 41.1055 42.9805 41.1836 43.0586C41.2617 43.1367 41.4023 43.1758 41.6055 43.1758ZM45.5078 43.1758H46.1875C46.3984 43.1758 46.543 43.1367 46.6211 43.0586C46.6992 42.9805 46.7383 42.8398 46.7383 42.6367V41.957C46.7383 41.7461 46.6992 41.6055 46.6211 41.5352C46.543 41.457 46.3984 41.418 46.1875 41.418H45.5078C45.2969 41.418 45.1523 41.457 45.0742 41.5352C44.9961 41.6055 44.957 41.7461 44.957 41.957V42.6367C44.957 42.8398 44.9961 42.9805 45.0742 43.0586C45.1523 43.1367 45.2969 43.1758 45.5078 43.1758ZM33.8242 47.0078H34.5156C34.7188 47.0078 34.8594 46.9727 34.9375 46.9023C35.0156 46.8242 35.0547 46.6797 35.0547 46.4688V45.7891C35.0547 45.5781 35.0156 45.4375 34.9375 45.3672C34.8594 45.2891 34.7188 45.25 34.5156 45.25H33.8242C33.6133 45.25 33.4688 45.2891 33.3906 45.3672C33.3125 45.4375 33.2734 45.5781 33.2734 45.7891V46.4688C33.2734 46.6797 33.3125 46.8242 33.3906 46.9023C33.4688 46.9727 33.6133 47.0078 33.8242 47.0078ZM37.7148 47.0078H38.4062C38.6094 47.0078 38.75 46.9727 38.8281 46.9023C38.9141 46.8242 38.957 46.6797 38.957 46.4688V45.7891C38.957 45.5781 38.9141 45.4375 38.8281 45.3672C38.75 45.2891 38.6094 45.25 38.4062 45.25H37.7148C37.5117 45.25 37.3672 45.2891 37.2812 45.3672C37.2031 45.4375 37.1641 45.5781 37.1641 45.7891V46.4688C37.1641 46.6797 37.2031 46.8242 37.2812 46.9023C37.3672 46.9727 37.5117 47.0078 37.7148 47.0078ZM41.6055 47.0078H42.2969C42.5078 47.0078 42.6523 46.9727 42.7305 46.9023C42.8086 46.8242 42.8477 46.6797 42.8477 46.4688V45.7891C42.8477 45.5781 42.8086 45.4375 42.7305 45.3672C42.6523 45.2891 42.5078 45.25 42.2969 45.25H41.6055C41.4023 45.25 41.2617 45.2891 41.1836 45.3672C41.1055 45.4375 41.0664 45.5781 41.0664 45.7891V46.4688C41.0664 46.6797 41.1055 46.8242 41.1836 46.9023C41.2617 46.9727 41.4023 47.0078 41.6055 47.0078Z" fill="#150A1A"/>
</svg>
