<svg width="80" height="80" viewBox="0 0 80 80" fill="none" xmlns="http://www.w3.org/2000/svg">
<path d="M32.9336 50.8516C32.9492 50.8828 32.9805 50.8906 33.0273 50.875C33.3789 50.7266 33.8242 50.5 34.3633 50.1953C34.9023 49.8906 35.4609 49.5508 36.0391 49.1758C36.6172 48.8086 37.1445 48.4531 37.6211 48.1094C37.8398 47.9375 38.0508 47.8125 38.2539 47.7344C38.4648 47.6484 38.6914 47.6055 38.9336 47.6055C39.168 47.6133 39.375 47.6211 39.5547 47.6289H40C41.5781 47.6289 43.0547 47.4023 44.4297 46.9492C45.8047 46.4961 47.0078 45.8711 48.0391 45.0742C49.0781 44.2773 49.8906 43.3516 50.4766 42.2969C51.0625 41.2422 51.3555 40.1172 51.3555 38.9219C51.3555 37.7188 51.0625 36.5938 50.4766 35.5469C49.8906 34.4922 49.0781 33.5664 48.0391 32.7695C47.0078 31.9648 45.8047 31.3359 44.4297 30.8828C43.0547 30.4297 41.5781 30.2031 40 30.2031C38.4219 30.2031 36.9453 30.4297 35.5703 30.8828C34.1953 31.3359 32.9883 31.9648 31.9492 32.7695C30.918 33.5664 30.1094 34.4922 29.5234 35.5469C28.9453 36.5938 28.6562 37.7188 28.6562 38.9219C28.6562 39.9609 28.8828 40.9492 29.3359 41.8867C29.7891 42.8242 30.4453 43.6836 31.3047 44.4648C32.1719 45.2383 33.2188 45.9102 34.4453 46.4805C34.8203 46.6602 35.0391 46.8789 35.1016 47.1367C35.1641 47.3945 35.1133 47.6758 34.9492 47.9805C34.7461 48.3555 34.4453 48.8086 34.0469 49.3398C33.6484 49.8789 33.2852 50.3516 32.957 50.7578C32.9258 50.7969 32.918 50.8281 32.9336 50.8516Z" fill="white"/>
<path d="M31.7969 52.8203C32.3203 52.8203 32.9961 52.6641 33.8242 52.3516C34.6523 52.0391 35.5234 51.6328 36.4375 51.1328C37.3516 50.6328 38.2031 50.0977 38.9922 49.5273C40.625 49.5742 42.1641 49.4336 43.6094 49.1055C45.0547 48.7773 46.3672 48.2969 47.5469 47.6641C48.7344 47.0234 49.7539 46.2578 50.6055 45.3672C51.4648 44.4766 52.125 43.4883 52.5859 42.4023C53.0547 41.3086 53.2891 40.1484 53.2891 38.9219C53.2891 37.4453 52.9453 36.0625 52.2578 34.7734C51.5781 33.4844 50.6289 32.3555 49.4102 31.3867C48.1992 30.4102 46.7891 29.6484 45.1797 29.1016C43.5703 28.5469 41.8438 28.2695 40 28.2695C38.1562 28.2695 36.4297 28.5469 34.8203 29.1016C33.2109 29.6484 31.7969 30.4102 30.5781 31.3867C29.3672 32.3555 28.418 33.4844 27.7305 34.7734C27.0508 36.0625 26.7109 37.4453 26.7109 38.9219C26.7109 40.2031 26.9648 41.418 27.4727 42.5664C27.9883 43.7148 28.707 44.7461 29.6289 45.6602C30.5586 46.5742 31.6406 47.3164 32.875 47.8867C32.6953 48.2305 32.4805 48.5977 32.2305 48.9883C31.9805 49.3789 31.7305 49.75 31.4805 50.1016C31.2305 50.4609 31.0156 50.7539 30.8359 50.9805C30.6328 51.2539 30.5352 51.5312 30.543 51.8125C30.5508 52.1016 30.6602 52.3398 30.8711 52.5273C31.082 52.7227 31.3906 52.8203 31.7969 52.8203ZM33.0273 50.875C32.9805 50.8906 32.9492 50.8828 32.9336 50.8516C32.918 50.8281 32.9258 50.7969 32.957 50.7578C33.2852 50.3516 33.6484 49.8789 34.0469 49.3398C34.4453 48.8086 34.7461 48.3555 34.9492 47.9805C35.1133 47.6758 35.1641 47.3945 35.1016 47.1367C35.0391 46.8789 34.8203 46.6602 34.4453 46.4805C33.2188 45.9102 32.1719 45.2383 31.3047 44.4648C30.4453 43.6836 29.7891 42.8242 29.3359 41.8867C28.8828 40.9492 28.6562 39.9609 28.6562 38.9219C28.6562 37.7188 28.9453 36.5938 29.5234 35.5469C30.1094 34.4922 30.918 33.5664 31.9492 32.7695C32.9883 31.9648 34.1953 31.3359 35.5703 30.8828C36.9453 30.4297 38.4219 30.2031 40 30.2031C41.5781 30.2031 43.0547 30.4297 44.4297 30.8828C45.8047 31.3359 47.0078 31.9648 48.0391 32.7695C49.0781 33.5664 49.8906 34.4922 50.4766 35.5469C51.0625 36.5938 51.3555 37.7188 51.3555 38.9219C51.3555 40.1172 51.0625 41.2422 50.4766 42.2969C49.8906 43.3516 49.0781 44.2773 48.0391 45.0742C47.0078 45.8711 45.8047 46.4961 44.4297 46.9492C43.0547 47.4023 41.5781 47.6289 40 47.6289C39.8828 47.6289 39.7344 47.6289 39.5547 47.6289C39.375 47.6211 39.168 47.6133 38.9336 47.6055C38.6914 47.6055 38.4648 47.6484 38.2539 47.7344C38.0508 47.8125 37.8398 47.9375 37.6211 48.1094C37.1445 48.4531 36.6172 48.8086 36.0391 49.1758C35.4609 49.5508 34.9023 49.8906 34.3633 50.1953C33.8242 50.5 33.3789 50.7266 33.0273 50.875Z" fill="#150A1A"/>
</svg>
