<svg width="80" height="80" viewBox="0 0 80 80" fill="none" xmlns="http://www.w3.org/2000/svg">
<path d="M32.0781 49.8203C31.9219 49.8203 31.8086 49.7969 31.7383 49.75C31.6758 49.7031 31.6445 49.6172 31.6445 49.4922C31.6445 49.0156 31.8242 48.4648 32.1836 47.8398C32.5508 47.207 33.0898 46.5977 33.8008 46.0117C34.5117 45.4258 35.3867 44.9414 36.4258 44.5586C37.4648 44.168 38.6562 43.9727 40 43.9727C41.3438 43.9727 42.5312 44.168 43.5625 44.5586C44.6016 44.9414 45.4766 45.4258 46.1875 46.0117C46.8984 46.5977 47.4336 47.207 47.793 47.8398C48.1602 48.4648 48.3438 49.0156 48.3438 49.4922C48.3438 49.6172 48.3086 49.7031 48.2383 49.75C48.1758 49.7969 48.0703 49.8203 47.9219 49.8203H32.0781ZM40 38.8164C39.4297 38.8164 38.9023 38.6523 38.418 38.3242C37.9414 37.9883 37.5547 37.5391 37.2578 36.9766C36.9688 36.4141 36.8242 35.7891 36.8242 35.1016C36.8242 34.4219 36.9688 33.8125 37.2578 33.2734C37.5469 32.7266 37.9297 32.293 38.4062 31.9727C38.8906 31.6523 39.4219 31.4922 40 31.4922C40.5859 31.4922 41.1172 31.6484 41.5938 31.9609C42.0781 32.2734 42.4609 32.7031 42.7422 33.25C43.0312 33.7891 43.1758 34.3984 43.1758 35.0781C43.1758 35.7656 43.0312 36.3945 42.7422 36.9648C42.4531 37.5273 42.0664 37.9766 41.582 38.3125C41.1055 38.6484 40.5781 38.8164 40 38.8164ZM26.5 39.0977C26.0234 39.0977 25.582 38.9609 25.1758 38.6875C24.7773 38.4141 24.457 38.0469 24.2148 37.5859C23.9727 37.1172 23.8516 36.6016 23.8516 36.0391C23.8516 35.4922 23.9688 34.9922 24.2031 34.5391C24.4453 34.0859 24.7656 33.7266 25.1641 33.4609C25.5703 33.1953 26.0156 33.0625 26.5 33.0625C26.9922 33.0625 27.4375 33.1953 27.8359 33.4609C28.2422 33.7188 28.5625 34.0703 28.7969 34.5156C29.0391 34.9609 29.1602 35.4609 29.1602 36.0156C29.1602 36.5859 29.0391 37.1055 28.7969 37.5742C28.5547 38.043 28.2305 38.4141 27.8242 38.6875C27.418 38.9609 26.9766 39.0977 26.5 39.0977ZM53.5 39.0977C53.0234 39.0977 52.582 38.9609 52.1758 38.6875C51.7695 38.4141 51.4453 38.043 51.2031 37.5742C50.9609 37.1055 50.8398 36.5859 50.8398 36.0156C50.8398 35.4609 50.957 34.9609 51.1914 34.5156C51.4336 34.0703 51.7539 33.7188 52.1523 33.4609C52.5586 33.1953 53.0078 33.0625 53.5 33.0625C53.9844 33.0625 54.4258 33.1953 54.8242 33.4609C55.2305 33.7266 55.5508 34.0859 55.7852 34.5391C56.0273 34.9922 56.1484 35.4922 56.1484 36.0391C56.1484 36.6016 56.0273 37.1172 55.7852 37.5859C55.543 38.0469 55.2188 38.4141 54.8125 38.6875C54.4141 38.9609 53.9766 39.0977 53.5 39.0977Z" fill="white"/>
<path d="M32.6289 51.5898H47.3594C49.2734 51.5898 50.2305 50.9648 50.2305 49.7148C50.2305 48.9492 49.9961 48.1328 49.5273 47.2656C49.0586 46.3984 48.3789 45.582 47.4883 44.8164C46.6055 44.043 45.5312 43.4141 44.2656 42.9297C43.0078 42.4453 41.5859 42.2031 40 42.2031C38.4062 42.2031 36.9766 42.4453 35.7109 42.9297C34.4531 43.4141 33.3789 44.043 32.4883 44.8164C31.6055 45.582 30.9297 46.3984 30.4609 47.2656C29.9922 48.1328 29.7578 48.9492 29.7578 49.7148C29.7578 50.9648 30.7148 51.5898 32.6289 51.5898ZM32.0781 49.8203C31.9219 49.8203 31.8086 49.7969 31.7383 49.75C31.6758 49.7031 31.6445 49.6172 31.6445 49.4922C31.6445 49.0156 31.8242 48.4648 32.1836 47.8398C32.5508 47.207 33.0898 46.5977 33.8008 46.0117C34.5117 45.4258 35.3867 44.9414 36.4258 44.5586C37.4648 44.168 38.6562 43.9727 40 43.9727C41.3438 43.9727 42.5312 44.168 43.5625 44.5586C44.6016 44.9414 45.4766 45.4258 46.1875 46.0117C46.8984 46.5977 47.4336 47.207 47.793 47.8398C48.1602 48.4648 48.3438 49.0156 48.3438 49.4922C48.3438 49.6172 48.3086 49.7031 48.2383 49.75C48.1758 49.7969 48.0703 49.8203 47.9219 49.8203H32.0781ZM40 40.5859C40.9297 40.5859 41.7773 40.3359 42.543 39.8359C43.3086 39.3359 43.918 38.6719 44.3711 37.8438C44.832 37.0078 45.0625 36.0859 45.0625 35.0781C45.0625 34.0781 44.8359 33.1758 44.3828 32.3711C43.9297 31.5586 43.3203 30.9141 42.5547 30.4375C41.7891 29.9609 40.9375 29.7227 40 29.7227C39.0703 29.7227 38.2227 29.9648 37.457 30.4492C36.6914 30.9336 36.0781 31.582 35.6172 32.3945C35.1641 33.207 34.9375 34.1094 34.9375 35.1016C34.9375 36.1016 35.1641 37.0195 35.6172 37.8555C36.0781 38.6836 36.6914 39.3477 37.457 39.8477C38.2227 40.3398 39.0703 40.5859 40 40.5859ZM40 38.8164C39.4297 38.8164 38.9023 38.6523 38.418 38.3242C37.9414 37.9883 37.5547 37.5391 37.2578 36.9766C36.9688 36.4141 36.8242 35.7891 36.8242 35.1016C36.8242 34.4219 36.9688 33.8125 37.2578 33.2734C37.5469 32.7266 37.9297 32.293 38.4062 31.9727C38.8906 31.6523 39.4219 31.4922 40 31.4922C40.5859 31.4922 41.1172 31.6484 41.5938 31.9609C42.0781 32.2734 42.4609 32.7031 42.7422 33.25C43.0312 33.7891 43.1758 34.3984 43.1758 35.0781C43.1758 35.7656 43.0312 36.3945 42.7422 36.9648C42.4531 37.5273 42.0664 37.9766 41.582 38.3125C41.1055 38.6484 40.5781 38.8164 40 38.8164ZM19.9727 51.5898H29.1719C28.8906 51.4336 28.6602 51.1953 28.4805 50.875C28.3008 50.5547 28.2305 50.2148 28.2695 49.8555H19.6914C19.5664 49.8555 19.4766 49.8281 19.4219 49.7734C19.3672 49.7266 19.3398 49.6484 19.3398 49.5391C19.3398 48.8125 19.5273 48.1133 19.9023 47.4414C20.2852 46.7695 20.8086 46.168 21.4727 45.6367C22.1367 45.1055 22.8984 44.6875 23.7578 44.3828C24.6172 44.0703 25.5273 43.9141 26.4883 43.9141C26.9805 43.9141 27.4531 43.9531 27.9062 44.0312C28.3672 44.1094 28.8047 44.2227 29.2188 44.3711C29.6406 44.5195 30.043 44.707 30.4258 44.9336C30.6055 44.6992 30.8047 44.4805 31.0234 44.2773C31.2422 44.0664 31.4844 43.8711 31.75 43.6914C31.2422 43.3555 30.7031 43.0781 30.1328 42.8594C29.5703 42.6328 28.9844 42.4648 28.375 42.3555C27.7656 42.2383 27.1367 42.1797 26.4883 42.1797C25.2617 42.1797 24.1094 42.3828 23.0312 42.7891C21.9609 43.1953 21.0156 43.75 20.1953 44.4531C19.3828 45.1562 18.7461 45.9531 18.2852 46.8438C17.8242 47.7344 17.5938 48.668 17.5938 49.6445C17.5938 50.293 17.793 50.7773 18.1914 51.0977C18.5898 51.4258 19.1836 51.5898 19.9727 51.5898ZM26.5 40.8438C27.3047 40.8438 28.0391 40.6289 28.7031 40.1992C29.3672 39.7617 29.8984 39.1797 30.2969 38.4531C30.6953 37.7188 30.8945 36.9062 30.8945 36.0156C30.8945 35.1484 30.6953 34.3594 30.2969 33.6484C29.9062 32.9375 29.3789 32.3711 28.7148 31.9492C28.0508 31.5273 27.3125 31.3164 26.5 31.3164C25.6953 31.3164 24.957 31.5312 24.2852 31.9609C23.6211 32.3828 23.0898 32.9531 22.6914 33.6719C22.293 34.3906 22.0977 35.1797 22.1055 36.0391C22.1055 36.9219 22.3047 37.7266 22.7031 38.4531C23.1016 39.1797 23.6328 39.7617 24.2969 40.1992C24.9609 40.6289 25.6953 40.8438 26.5 40.8438ZM26.5 39.0977C26.0234 39.0977 25.582 38.9609 25.1758 38.6875C24.7773 38.4141 24.457 38.0469 24.2148 37.5859C23.9727 37.1172 23.8516 36.6016 23.8516 36.0391C23.8516 35.4922 23.9688 34.9922 24.2031 34.5391C24.4453 34.0859 24.7656 33.7266 25.1641 33.4609C25.5703 33.1953 26.0156 33.0625 26.5 33.0625C26.9922 33.0625 27.4375 33.1953 27.8359 33.4609C28.2422 33.7188 28.5625 34.0703 28.7969 34.5156C29.0391 34.9609 29.1602 35.4609 29.1602 36.0156C29.1602 36.5859 29.0391 37.1055 28.7969 37.5742C28.5547 38.043 28.2305 38.4141 27.8242 38.6875C27.418 38.9609 26.9766 39.0977 26.5 39.0977ZM60.0156 51.5898C60.8125 51.5898 61.4102 51.4258 61.8086 51.0977C62.207 50.7773 62.4062 50.293 62.4062 49.6445C62.4062 48.668 62.1758 47.7344 61.7148 46.8438C61.2539 45.9531 60.6133 45.1562 59.793 44.4531C58.9805 43.75 58.0352 43.1953 56.957 42.7891C55.8867 42.3828 54.7383 42.1797 53.5117 42.1797C52.8633 42.1797 52.2305 42.2383 51.6133 42.3555C51.0039 42.4648 50.418 42.6328 49.8555 42.8594C49.293 43.0781 48.7578 43.3555 48.25 43.6914C48.5156 43.8711 48.7539 44.0664 48.9648 44.2773C49.1836 44.4805 49.3867 44.6992 49.5742 44.9336C49.957 44.707 50.3555 44.5195 50.7695 44.3711C51.1914 44.2227 51.6289 44.1094 52.082 44.0312C52.543 43.9531 53.0195 43.9141 53.5117 43.9141C54.4648 43.9141 55.3711 44.0703 56.2305 44.3828C57.0898 44.6875 57.8516 45.1055 58.5156 45.6367C59.1797 46.168 59.7031 46.7695 60.0859 47.4414C60.4688 48.1133 60.6602 48.8125 60.6602 49.5391C60.6602 49.6484 60.6289 49.7266 60.5664 49.7734C60.5117 49.8281 60.4258 49.8555 60.3086 49.8555H51.7305C51.7695 50.2148 51.6953 50.5547 51.5078 50.875C51.3281 51.1953 51.0977 51.4336 50.8164 51.5898H60.0156ZM53.5 40.8438C54.3047 40.8438 55.0391 40.6289 55.7031 40.1992C56.3672 39.7617 56.8984 39.1797 57.2969 38.4531C57.6953 37.7266 57.8945 36.9219 57.8945 36.0391C57.8945 35.1797 57.6953 34.3906 57.2969 33.6719C56.8984 32.9531 56.3672 32.3828 55.7031 31.9609C55.0391 31.5312 54.3047 31.3164 53.5 31.3164C52.6875 31.3164 51.9492 31.5273 51.2852 31.9492C50.6211 32.3711 50.0898 32.9375 49.6914 33.6484C49.3008 34.3594 49.1055 35.1484 49.1055 36.0156C49.1055 36.9062 49.3047 37.7188 49.7031 38.4531C50.1016 39.1797 50.6328 39.7617 51.2969 40.1992C51.9609 40.6289 52.6953 40.8438 53.5 40.8438ZM53.5 39.0977C53.0234 39.0977 52.582 38.9609 52.1758 38.6875C51.7695 38.4141 51.4453 38.043 51.2031 37.5742C50.9609 37.1055 50.8398 36.5859 50.8398 36.0156C50.8398 35.4609 50.957 34.9609 51.1914 34.5156C51.4336 34.0703 51.7539 33.7188 52.1523 33.4609C52.5586 33.1953 53.0078 33.0625 53.5 33.0625C53.9844 33.0625 54.4258 33.1953 54.8242 33.4609C55.2305 33.7266 55.5508 34.0859 55.7852 34.5391C56.0273 34.9922 56.1484 35.4922 56.1484 36.0391C56.1484 36.6016 56.0273 37.1172 55.7852 37.5859C55.543 38.0469 55.2188 38.4141 54.8125 38.6875C54.4141 38.9609 53.9766 39.0977 53.5 39.0977Z" fill="black"/>
</svg>
