<svg width="18" height="17" viewBox="0 0 18 17" fill="none" xmlns="http://www.w3.org/2000/svg">
<path d="M0.943359 8.94922C0.943359 8.70833 1.02799 8.50326 1.19727 8.33398C1.37305 8.1582 1.57812 8.07031 1.8125 8.07031H8.13086V1.76172C8.13086 1.52734 8.21549 1.32552 8.38477 1.15625C8.55404 0.980469 8.75911 0.892578 9 0.892578C9.24089 0.892578 9.44596 0.980469 9.61523 1.15625C9.79102 1.32552 9.87891 1.52734 9.87891 1.76172V8.07031H16.1875C16.4219 8.07031 16.6237 8.1582 16.793 8.33398C16.9688 8.50326 17.0566 8.70833 17.0566 8.94922C17.0566 9.1901 16.9688 9.39518 16.793 9.56445C16.6237 9.73372 16.4219 9.81836 16.1875 9.81836H9.87891V16.1367C9.87891 16.3711 9.79102 16.5729 9.61523 16.7422C9.44596 16.918 9.24089 17.0059 9 17.0059C8.75911 17.0059 8.55404 16.918 8.38477 16.7422C8.21549 16.5729 8.13086 16.3711 8.13086 16.1367V9.81836H1.8125C1.57812 9.81836 1.37305 9.73372 1.19727 9.56445C1.02799 9.39518 0.943359 9.1901 0.943359 8.94922Z" fill="#0077B6"/>
</svg>
