<svg width="32" height="32" viewBox="0 0 32 32" fill="none" xmlns="http://www.w3.org/2000/svg">
<g clip-path="url(#clip0_2281_63265)">
<path d="M7.94336 15.9492C7.94336 15.7083 8.02799 15.5033 8.19727 15.334C8.37305 15.1582 8.57812 15.0703 8.8125 15.0703H15.1309V8.76172C15.1309 8.52734 15.2155 8.32552 15.3848 8.15625C15.554 7.98047 15.7591 7.89258 16 7.89258C16.2409 7.89258 16.446 7.98047 16.6152 8.15625C16.791 8.32552 16.8789 8.52734 16.8789 8.76172V15.0703H23.1875C23.4219 15.0703 23.6237 15.1582 23.793 15.334C23.9688 15.5033 24.0566 15.7083 24.0566 15.9492C24.0566 16.1901 23.9688 16.3952 23.793 16.5645C23.6237 16.7337 23.4219 16.8184 23.1875 16.8184H16.8789V23.1367C16.8789 23.3711 16.791 23.5729 16.6152 23.7422C16.446 23.918 16.2409 24.0059 16 24.0059C15.7591 24.0059 15.554 23.918 15.3848 23.7422C15.2155 23.5729 15.1309 23.3711 15.1309 23.1367V16.8184H8.8125C8.57812 16.8184 8.37305 16.7337 8.19727 16.5645C8.02799 16.3952 7.94336 16.1901 7.94336 15.9492Z" fill="#001824"/>
</g>
<defs>
<clipPath id="clip0_2281_63265">
<path d="M0 4C0 1.79086 1.79086 0 4 0H28C30.2091 0 32 1.79086 32 4V28C32 30.2091 30.2091 32 28 32H4C1.79086 32 0 30.2091 0 28V4Z" fill="white"/>
</clipPath>
</defs>
</svg>
