<svg width="50" height="50" viewBox="0 0 50 50" fill="none" xmlns="http://www.w3.org/2000/svg">
<path d="M15.7715 24.9395C15.7715 24.6335 15.8887 24.3665 16.123 24.1387L22.5488 17.7227C22.666 17.6055 22.7897 17.5176 22.9199 17.459C23.0501 17.4004 23.1868 17.3711 23.3301 17.3711C23.6296 17.3711 23.8802 17.4688 24.082 17.6641C24.2839 17.8594 24.3848 18.1035 24.3848 18.3965C24.3848 18.5527 24.3555 18.696 24.2969 18.8262C24.2383 18.9499 24.1602 19.0605 24.0625 19.1582L21.875 21.375L18.2422 24.7051L17.8906 24.0703L21.2793 23.8652H33.1445C33.4701 23.8652 33.7305 23.9661 33.9258 24.168C34.1276 24.3633 34.2285 24.6204 34.2285 24.9395C34.2285 25.252 34.1276 25.5091 33.9258 25.7109C33.7305 25.9062 33.4701 26.0039 33.1445 26.0039H21.2793L17.8906 25.8086L18.2422 25.1836L21.875 28.5039L24.0625 30.7109C24.1602 30.8086 24.2383 30.9225 24.2969 31.0527C24.3555 31.1829 24.3848 31.3229 24.3848 31.4727C24.3848 31.7656 24.2839 32.0098 24.082 32.2051C23.8802 32.4004 23.6296 32.498 23.3301 32.498C23.0436 32.498 22.7865 32.3874 22.5586 32.166L16.123 25.7402C15.8887 25.5124 15.7715 25.2454 15.7715 24.9395Z" fill="white"/>
</svg>
