<svg width="50" height="50" viewBox="0 0 50 50" fill="none" xmlns="http://www.w3.org/2000/svg">
<path d="M31.5527 25.4863C31.722 25.3236 31.9238 25.2357 32.1582 25.2227C32.3991 25.2096 32.5977 25.291 32.7539 25.4668C32.9232 25.623 33.0078 25.8281 33.0078 26.082C33.0143 26.3294 32.9362 26.5345 32.7734 26.6973L25.5078 33.9531C24.8893 34.5716 24.2188 35.0273 23.4961 35.3203C22.7734 35.6133 22.0378 35.7533 21.2891 35.7402C20.5469 35.7337 19.8242 35.5807 19.1211 35.2812C18.4245 34.9883 17.7995 34.5618 17.2461 34.002C16.6797 33.4486 16.25 32.8203 15.957 32.1172C15.6641 31.4206 15.5111 30.7012 15.498 29.959C15.485 29.2103 15.625 28.4746 15.918 27.752C16.2174 27.0293 16.6764 26.3587 17.2949 25.7402L27.207 15.8086C27.8385 15.1771 28.5189 14.7637 29.248 14.5684C29.9772 14.3665 30.6901 14.3633 31.3867 14.5586C32.0898 14.7474 32.7083 15.112 33.2422 15.6523C33.7956 16.2057 34.1667 16.8307 34.3555 17.5273C34.5443 18.224 34.5345 18.9336 34.3262 19.6562C34.1243 20.3724 33.7109 21.0462 33.0859 21.6777L23.3594 31.3945C23.0143 31.7461 22.627 31.9837 22.1973 32.1074C21.7676 32.2311 21.3411 32.2376 20.918 32.127C20.4948 32.0228 20.1139 31.8014 19.7754 31.4629C19.4629 31.1569 19.2546 30.7923 19.1504 30.3691C19.0462 29.9395 19.0495 29.5065 19.1602 29.0703C19.2708 28.6276 19.502 28.2337 19.8535 27.8887L26.6211 21.1113C26.7904 20.9355 26.9857 20.8477 27.207 20.8477C27.4349 20.8411 27.6302 20.916 27.793 21.0723C27.9622 21.2415 28.0404 21.4368 28.0273 21.6582C28.0208 21.8796 27.9329 22.0781 27.7637 22.2539L21.0156 28.9824C20.8008 29.2103 20.7064 29.4414 20.7324 29.6758C20.7585 29.9036 20.8496 30.0924 21.0059 30.2422C21.1556 30.3919 21.3477 30.4831 21.582 30.5156C21.8164 30.5417 22.041 30.444 22.2559 30.2227L31.9238 20.5449C32.2819 20.1934 32.5358 19.793 32.6855 19.3438C32.8418 18.8945 32.8776 18.4518 32.793 18.0156C32.7148 17.5729 32.5 17.1725 32.1484 16.8145C31.7969 16.4694 31.3997 16.2578 30.957 16.1797C30.5143 16.0951 30.0684 16.1276 29.6191 16.2773C29.1699 16.4271 28.7695 16.681 28.418 17.0391L18.5547 26.8926C17.9427 27.5111 17.5456 28.1751 17.3633 28.8848C17.181 29.5879 17.1875 30.2812 17.3828 30.9648C17.5846 31.6419 17.9492 32.2409 18.4766 32.7617C19.0039 33.2956 19.6061 33.6602 20.2832 33.8555C20.9668 34.0573 21.6602 34.0671 22.3633 33.8848C23.0729 33.7025 23.737 33.3053 24.3555 32.6934L31.5527 25.4863Z" fill="white"/>
</svg>
