<svg width="17" height="10" viewBox="0 0 17 10" fill="none" xmlns="http://www.w3.org/2000/svg">
<path d="M8.62012 9.77832C8.15723 9.77832 7.73535 9.58789 7.35449 9.20703L0.912109 2.62402C0.765625 2.47168 0.657227 2.31055 0.586914 2.14062C0.516602 1.9707 0.481445 1.78027 0.481445 1.56934C0.481445 1.28809 0.548828 1.03027 0.683594 0.795898C0.824219 0.561523 1.00879 0.376953 1.2373 0.242188C1.46582 0.107422 1.7207 0.0400391 2.00195 0.0400391C2.42383 0.0400391 2.79883 0.204102 3.12695 0.532227L8.96289 6.55273H8.29492L14.1133 0.532227C14.4355 0.204102 14.8076 0.0400391 15.2295 0.0400391C15.5107 0.0400391 15.7656 0.107422 15.9941 0.242188C16.2227 0.376953 16.4043 0.561523 16.5391 0.795898C16.6797 1.03027 16.75 1.28809 16.75 1.56934C16.75 1.98535 16.6064 2.33691 16.3193 2.62402L9.88574 9.20703C9.68652 9.40625 9.48438 9.55273 9.2793 9.64648C9.08008 9.73438 8.86035 9.77832 8.62012 9.77832Z" fill="white"/>
</svg>
