<svg width="50" height="50" viewBox="0 0 50 50" fill="none" xmlns="http://www.w3.org/2000/svg">
<path d="M17.4414 32.5078C17.2982 32.3711 17.2038 32.2083 17.1582 32.0195C17.1126 31.8307 17.1126 31.6419 17.1582 31.4531C17.2103 31.2643 17.3047 31.1048 17.4414 30.9746L23.4375 24.959L17.4414 18.9531C17.3047 18.8229 17.2135 18.6634 17.168 18.4746C17.1224 18.2858 17.1224 18.097 17.168 17.9082C17.2135 17.7194 17.3047 17.5566 17.4414 17.4199C17.5846 17.2767 17.7507 17.1823 17.9395 17.1367C18.1283 17.0911 18.3171 17.0911 18.5059 17.1367C18.6947 17.1823 18.8574 17.2734 18.9941 17.4102L25 23.416L30.9961 17.4102C31.1328 17.2669 31.2956 17.1758 31.4844 17.1367C31.6732 17.0911 31.8587 17.0911 32.041 17.1367C32.2298 17.1823 32.3991 17.2767 32.5488 17.4199C32.6855 17.5566 32.7767 17.7194 32.8223 17.9082C32.8743 18.097 32.8743 18.2858 32.8223 18.4746C32.7767 18.6569 32.6855 18.8197 32.5488 18.9629L26.5527 24.959L32.5488 30.9648C32.6855 31.1081 32.7767 31.2741 32.8223 31.4629C32.8678 31.6452 32.8678 31.8307 32.8223 32.0195C32.7767 32.2083 32.6855 32.3711 32.5488 32.5078C32.4056 32.651 32.2396 32.7454 32.0508 32.791C31.862 32.8366 31.6732 32.8366 31.4844 32.791C31.2956 32.7454 31.1328 32.6543 30.9961 32.5176L25 26.5117L18.9941 32.5176C18.8574 32.6543 18.6947 32.7454 18.5059 32.791C18.3236 32.8366 18.1348 32.8366 17.9395 32.791C17.7507 32.7454 17.5846 32.651 17.4414 32.5078Z" fill="white"/>
</svg>
