<svg width="50" height="50" viewBox="0 0 50 50" fill="none" xmlns="http://www.w3.org/2000/svg">
<path d="M20.5566 17.8594H26.3379C26.5397 17.8594 26.6992 17.9245 26.8164 18.0547C26.9401 18.1784 27.002 18.3444 27.002 18.5527V20.0859C27.002 20.2943 26.9401 20.4635 26.8164 20.5938C26.6992 20.7174 26.5397 20.7793 26.3379 20.7793H20.5566C20.3418 20.7793 20.1758 20.7174 20.0586 20.5938C19.9414 20.4635 19.8828 20.2943 19.8828 20.0859V18.5527C19.8828 18.3444 19.9414 18.1784 20.0586 18.0547C20.1758 17.9245 20.3418 17.8594 20.5566 17.8594ZM20.5566 21.6094H29.4531C29.6615 21.6094 29.8242 21.6712 29.9414 21.7949C30.0586 21.9186 30.1172 22.0846 30.1172 22.293V23.8262C30.1172 24.041 30.0586 24.2103 29.9414 24.334C29.8242 24.4512 29.6615 24.5098 29.4531 24.5098H20.5566C20.3418 24.5098 20.1758 24.4512 20.0586 24.334C19.9414 24.2103 19.8828 24.0443 19.8828 23.8359V22.293C19.8828 22.0846 19.9414 21.9186 20.0586 21.7949C20.1758 21.6712 20.3418 21.6094 20.5566 21.6094ZM20.5566 25.3496H27.8613C28.0632 25.3496 28.2227 25.4115 28.3398 25.5352C28.457 25.6523 28.5156 25.8151 28.5156 26.0234V27.5762C28.5156 27.7845 28.457 27.9505 28.3398 28.0742C28.2227 28.1979 28.0632 28.2598 27.8613 28.2598H20.5566C20.3418 28.2598 20.1758 28.1979 20.0586 28.0742C19.9414 27.9505 19.8828 27.7845 19.8828 27.5762V26.0234C19.8828 25.8151 19.9414 25.6523 20.0586 25.5352C20.1758 25.4115 20.3418 25.3496 20.5566 25.3496ZM20.5566 29.0898H24.8633C25.0651 29.0898 25.2246 29.1549 25.3418 29.2852C25.4655 29.4089 25.5273 29.5749 25.5273 29.7832V31.3164C25.5273 31.5247 25.4655 31.6908 25.3418 31.8145C25.2246 31.9382 25.0651 32 24.8633 32H20.5566C20.3418 32 20.1758 31.9382 20.0586 31.8145C19.9414 31.6908 19.8828 31.5247 19.8828 31.3164V29.7832C19.8828 29.5749 19.9414 29.4089 20.0586 29.2852C20.1758 29.1549 20.3418 29.0898 20.5566 29.0898ZM16.6211 32.3223V17.5859C16.6211 16.5378 16.888 15.7435 17.4219 15.2031C17.9557 14.6562 18.7467 14.3828 19.7949 14.3828H30.1953C31.2435 14.3828 32.0345 14.6562 32.5684 15.2031C33.1022 15.7435 33.3691 16.5378 33.3691 17.5859V32.3223C33.3691 33.377 33.1022 34.1745 32.5684 34.7148C32.0345 35.2552 31.2435 35.5254 30.1953 35.5254H19.7949C18.7467 35.5254 17.9557 35.2552 17.4219 34.7148C16.888 34.1745 16.6211 33.377 16.6211 32.3223ZM18.5449 32.2051C18.5449 32.6543 18.6621 32.9993 18.8965 33.2402C19.1309 33.4811 19.4857 33.6016 19.9609 33.6016H30.0391C30.5143 33.6016 30.8691 33.4811 31.1035 33.2402C31.3379 32.9993 31.4551 32.6543 31.4551 32.2051V17.7129C31.4551 17.2572 31.3379 16.9089 31.1035 16.668C30.8691 16.4206 30.5143 16.2969 30.0391 16.2969H19.9609C19.4857 16.2969 19.1309 16.4206 18.8965 16.668C18.6621 16.9089 18.5449 17.2572 18.5449 17.7129V32.2051Z" fill="#0077B6"/>
</svg>
