<svg width="24" height="32" viewBox="0 0 24 32" fill="none" xmlns="http://www.w3.org/2000/svg">
<path d="M12 25.9102C10.6393 25.9102 9.35677 25.6497 8.15234 25.1289C6.95443 24.6081 5.89648 23.8887 4.97852 22.9707C4.06055 22.0527 3.34115 20.9948 2.82031 19.7969C2.29948 18.5924 2.03906 17.3099 2.03906 15.9492C2.03906 14.5885 2.29948 13.3092 2.82031 12.1113C3.34115 10.9069 4.05729 9.8457 4.96875 8.92773C5.88672 8.00977 6.94466 7.29036 8.14258 6.76953C9.34701 6.2487 10.6296 5.98828 11.9902 5.98828C13.3509 5.98828 14.6335 6.2487 15.8379 6.76953C17.0423 7.29036 18.1035 8.00977 19.0215 8.92773C19.9395 9.8457 20.6589 10.9069 21.1797 12.1113C21.7005 13.3092 21.9609 14.5885 21.9609 15.9492C21.9609 17.3099 21.7005 18.5924 21.1797 19.7969C20.6589 20.9948 19.9395 22.0527 19.0215 22.9707C18.1035 23.8887 17.0423 24.6081 15.8379 25.1289C14.64 25.6497 13.3607 25.9102 12 25.9102ZM12 24.25C13.1523 24.25 14.2298 24.0352 15.2324 23.6055C16.235 23.1758 17.1172 22.5833 17.8789 21.8281C18.6406 21.0664 19.2331 20.1842 19.6562 19.1816C20.0859 18.179 20.3008 17.1016 20.3008 15.9492C20.3008 14.7969 20.0859 13.7194 19.6562 12.7168C19.2266 11.7142 18.6309 10.832 17.8691 10.0703C17.1139 9.30859 16.2318 8.71615 15.2227 8.29297C14.2201 7.86328 13.1426 7.64844 11.9902 7.64844C10.8379 7.64844 9.76042 7.86328 8.75781 8.29297C7.75521 8.71615 6.8763 9.30859 6.12109 10.0703C5.36589 10.832 4.77344 11.7142 4.34375 12.7168C3.92057 13.7194 3.70898 14.7969 3.70898 15.9492C3.70898 17.1016 3.92057 18.179 4.34375 19.1816C4.77344 20.1842 5.36589 21.0664 6.12109 21.8281C6.88281 22.5833 7.76497 23.1758 8.76758 23.6055C9.77018 24.0352 10.8477 24.25 12 24.25ZM11.9902 17.707C11.4889 17.707 11.2318 17.4499 11.2188 16.9355L11.0918 11.7695C11.0853 11.5221 11.1634 11.3171 11.3262 11.1543C11.4954 10.9915 11.7135 10.9102 11.9805 10.9102C12.2409 10.9102 12.4557 10.9948 12.625 11.1641C12.8008 11.3268 12.8854 11.5319 12.8789 11.7793L12.7324 16.9355C12.7259 17.4499 12.4785 17.707 11.9902 17.707ZM11.9902 20.8809C11.7038 20.8809 11.4564 20.7832 11.248 20.5879C11.0397 20.3861 10.9355 20.1452 10.9355 19.8652C10.9355 19.5853 11.0397 19.3477 11.248 19.1523C11.4564 18.9505 11.7038 18.8496 11.9902 18.8496C12.2767 18.8496 12.5241 18.9473 12.7324 19.1426C12.9408 19.3379 13.0449 19.5788 13.0449 19.8652C13.0449 20.1517 12.9375 20.3926 12.7227 20.5879C12.5143 20.7832 12.2702 20.8809 11.9902 20.8809Z" fill="#0077B6"/>
</svg>
