<svg width="50" height="50" viewBox="0 0 50 50" fill="none" xmlns="http://www.w3.org/2000/svg">
<path d="M23.7207 28.1523V21.7656C23.7207 21.5378 23.8249 21.3848 24.0332 21.3066C24.2415 21.222 24.4466 21.2383 24.6484 21.3555L29.9121 24.4609C30.1009 24.5716 30.1953 24.7376 30.1953 24.959C30.2018 25.1803 30.1074 25.3496 29.9121 25.4668L24.6484 28.5625C24.4336 28.6927 24.2253 28.7155 24.0234 28.6309C23.8216 28.5397 23.7207 28.3802 23.7207 28.1523ZM13.7598 22.752C13.7598 22.498 13.8477 22.2962 14.0234 22.1465C14.1992 21.9902 14.4043 21.9121 14.6387 21.9121C14.9512 21.9121 15.1986 22.0456 15.3809 22.3125L16.1914 23.4258C16.3737 22.2214 16.7578 21.1016 17.3438 20.0664C17.9297 19.0247 18.6686 18.1165 19.5605 17.3418C20.4525 16.5605 21.4583 15.9518 22.5781 15.5156C23.7044 15.0794 24.8926 14.8613 26.1426 14.8613C27.5228 14.8613 28.8216 15.125 30.0391 15.6523C31.2565 16.1797 32.3307 16.9089 33.2617 17.8398C34.1927 18.7643 34.9219 19.8353 35.4492 21.0527C35.9766 22.2702 36.2402 23.569 36.2402 24.9492C36.2402 26.3294 35.9766 27.6283 35.4492 28.8457C34.9219 30.0632 34.1927 31.1374 33.2617 32.0684C32.3372 32.9993 31.2663 33.7253 30.0488 34.2461C28.8314 34.7734 27.5293 35.0371 26.1426 35.0371C25.2246 35.0371 24.3685 34.9264 23.5742 34.7051C22.7865 34.4837 22.0703 34.1973 21.4258 33.8457C20.7812 33.4941 20.2214 33.1198 19.7461 32.7227C19.2708 32.3255 18.8835 31.9577 18.584 31.6191C18.4473 31.4629 18.3496 31.3099 18.291 31.1602C18.2389 31.0104 18.2129 30.8672 18.2129 30.7305C18.2129 30.4635 18.3073 30.2454 18.4961 30.0762C18.6914 29.9004 18.9128 29.8125 19.1602 29.8125C19.3034 29.8125 19.4466 29.8451 19.5898 29.9102C19.7396 29.9753 19.873 30.0794 19.9902 30.2227C20.3548 30.6523 20.8301 31.0853 21.416 31.5215C22.0085 31.9577 22.6986 32.319 23.4863 32.6055C24.2806 32.8984 25.166 33.0449 26.1426 33.0449C27.2689 33.0449 28.3203 32.8366 29.2969 32.4199C30.2734 32.0033 31.1328 31.4238 31.875 30.6816C32.6237 29.9395 33.2064 29.0801 33.623 28.1035C34.0397 27.127 34.248 26.0755 34.248 24.9492C34.2415 23.8294 34.0299 22.7812 33.6133 21.8047C33.1966 20.8216 32.6172 19.959 31.875 19.2168C31.1328 18.4746 30.2702 17.8952 29.2871 17.4785C28.3105 17.0618 27.2624 16.8535 26.1426 16.8535C25.1009 16.8535 24.1211 17.0326 23.2031 17.3906C22.2917 17.7487 21.4746 18.25 20.752 18.8945C20.0358 19.5391 19.4499 20.2943 18.9941 21.1602C18.5384 22.0195 18.2487 22.9505 18.125 23.9531L19.4531 22.8887C19.6094 22.7585 19.7982 22.6934 20.0195 22.6934C20.2539 22.6934 20.4525 22.778 20.6152 22.9473C20.7845 23.11 20.8691 23.3151 20.8691 23.5625C20.8691 23.8685 20.7454 24.1094 20.498 24.2852L17.8711 26.2188C17.7409 26.3099 17.6172 26.3783 17.5 26.4238C17.3828 26.4629 17.2526 26.4824 17.1094 26.4824C16.7253 26.4824 16.3835 26.2936 16.084 25.916L13.9648 23.3477C13.8281 23.1849 13.7598 22.9863 13.7598 22.752Z" fill="white"/>
</svg>
