<svg width="50" height="50" viewBox="0 0 50 50" fill="none" xmlns="http://www.w3.org/2000/svg">
<path d="M19.9902 37.7324C19.0267 37.7324 18.304 37.4655 17.8223 36.9316C17.3405 36.3978 17.0996 35.7012 17.0996 34.8418C17.0996 34.0801 17.2917 33.2533 17.6758 32.3613C18.0664 31.4759 18.6133 30.597 19.3164 29.7246C20.026 28.8522 20.8691 28.0579 21.8457 27.3418C22.8223 26.6257 23.903 26.0495 25.0879 25.6133C26.2728 25.1771 27.5326 24.959 28.8672 24.959C29.5312 24.959 30.0586 25.1152 30.4492 25.4277C30.8398 25.7402 31.0352 26.1602 31.0352 26.6875C31.0352 26.9154 31.0059 27.1367 30.9473 27.3516C30.8887 27.5664 30.8268 27.765 30.7617 27.9473C30.7031 28.123 30.6738 28.263 30.6738 28.3672C30.6738 28.4714 30.7227 28.5234 30.8203 28.5234C30.944 28.5234 31.1393 28.4193 31.4062 28.2109C31.6732 27.9961 31.9792 27.7324 32.3242 27.4199C32.6758 27.1009 33.0501 26.7852 33.4473 26.4727C33.8444 26.1602 34.2415 25.8965 34.6387 25.6816C35.0358 25.4668 35.4069 25.3594 35.752 25.3594C36.1621 25.3594 36.4648 25.4701 36.6602 25.6914C36.862 25.9062 37.002 26.1732 37.0801 26.4922C37.1582 26.8112 37.2168 27.1302 37.2559 27.4492C37.2949 27.7682 37.3503 28.0352 37.4219 28.25C37.4935 28.4648 37.627 28.5723 37.8223 28.5723C37.972 28.5723 38.1185 28.5299 38.2617 28.4453C38.4115 28.3542 38.571 28.3086 38.7402 28.3086C38.9616 28.3086 39.1374 28.39 39.2676 28.5527C39.4043 28.709 39.4727 28.8945 39.4727 29.1094C39.4727 29.2786 39.4303 29.4284 39.3457 29.5586C39.2611 29.6888 39.1536 29.7995 39.0234 29.8906C38.8151 30.0273 38.584 30.1283 38.3301 30.1934C38.0762 30.252 37.8418 30.2812 37.627 30.2812C37.1322 30.2812 36.7513 30.1803 36.4844 29.9785C36.224 29.7767 36.0352 29.5293 35.918 29.2363C35.8073 28.9368 35.7259 28.6406 35.6738 28.3477C35.6283 28.0482 35.5827 27.7975 35.5371 27.5957C35.4915 27.3939 35.4036 27.293 35.2734 27.293C35.1172 27.293 34.9056 27.4069 34.6387 27.6348C34.3717 27.8561 34.0592 28.1328 33.7012 28.4648C33.3496 28.7969 32.9688 29.1322 32.5586 29.4707C32.1484 29.8027 31.7318 30.0827 31.3086 30.3105C30.8854 30.5319 30.472 30.6426 30.0684 30.6426C29.6777 30.6426 29.3522 30.5286 29.0918 30.3008C28.8314 30.0729 28.7012 29.7604 28.7012 29.3633C28.7012 29.0703 28.7402 28.7969 28.8184 28.543C28.8965 28.2891 28.9746 28.0417 29.0527 27.8008C29.1374 27.5534 29.1797 27.293 29.1797 27.0195C29.1797 26.7852 29.0202 26.668 28.7012 26.668C27.5879 26.668 26.5332 26.8535 25.5371 27.2246C24.541 27.5892 23.6361 28.0742 22.8223 28.6797C22.015 29.2786 21.3151 29.9329 20.7227 30.6426C20.1302 31.3457 19.6712 32.0423 19.3457 32.7324C19.0267 33.4225 18.8672 34.0378 18.8672 34.5781C18.8672 35.0078 18.9746 35.3561 19.1895 35.623C19.4108 35.89 19.7461 36.0234 20.1953 36.0234C20.8919 36.0234 21.5365 35.7663 22.1289 35.252C22.7279 34.7376 23.2487 34.0247 23.6914 33.1133C24.1341 32.2018 24.4759 31.1439 24.7168 29.9395C24.9642 28.735 25.0879 27.4427 25.0879 26.0625C25.0879 24.8971 24.974 23.8099 24.7461 22.8008C24.5247 21.7852 24.1992 20.8932 23.7695 20.125C23.3464 19.3568 22.8385 18.7578 22.2461 18.3281C21.6536 17.8919 20.9961 17.6738 20.2734 17.6738C19.7201 17.6738 19.2253 17.8171 18.7891 18.1035C18.3594 18.39 18.0208 18.7773 17.7734 19.2656C17.526 19.7539 17.4023 20.3073 17.4023 20.9258C17.4023 21.9023 17.5977 22.804 17.9883 23.6309C18.3789 24.4512 18.8802 25.1901 19.4922 25.8477C20.1042 26.4987 20.7422 27.0618 21.4062 27.5371C22.0703 28.0059 22.6693 28.3802 23.2031 28.6602C23.3659 28.7513 23.4831 28.8587 23.5547 28.9824C23.6263 29.1061 23.6621 29.2363 23.6621 29.373C23.6621 29.5749 23.584 29.7507 23.4277 29.9004C23.278 30.0501 23.0924 30.125 22.8711 30.125C22.7148 30.125 22.5684 30.0892 22.4316 30.0176C21.7806 29.7051 21.1296 29.3242 20.4785 28.875C19.834 28.4193 19.222 27.9082 18.6426 27.3418C18.0697 26.7689 17.5618 26.1471 17.1191 25.4766C16.6764 24.7995 16.3249 24.0801 16.0645 23.3184C15.8105 22.5566 15.6836 21.7624 15.6836 20.9355C15.6836 19.9915 15.8822 19.1452 16.2793 18.3965C16.6829 17.6478 17.2298 17.0553 17.9199 16.6191C18.61 16.1764 19.3945 15.9551 20.2734 15.9551C21.2565 15.9551 22.1484 16.2155 22.9492 16.7363C23.75 17.2572 24.4368 17.9798 25.0098 18.9043C25.5827 19.8223 26.0221 20.8932 26.3281 22.1172C26.6406 23.3411 26.7969 24.6562 26.7969 26.0625C26.7969 27.7161 26.6374 29.2526 26.3184 30.6719C26.0059 32.0846 25.5501 33.3184 24.9512 34.373C24.3587 35.4342 23.6426 36.2578 22.8027 36.8438C21.9694 37.4362 21.0319 37.7324 19.9902 37.7324ZM10.9668 34.0996C10.7324 34.0996 10.5306 34.0117 10.3613 33.8359C10.1986 33.6667 10.1172 33.4681 10.1172 33.2402C10.1172 33.0059 10.1986 32.804 10.3613 32.6348C10.5306 32.4655 10.7324 32.3809 10.9668 32.3809H39.0234C39.2578 32.3809 39.4596 32.4655 39.6289 32.6348C39.7982 32.804 39.8828 33.0059 39.8828 33.2402C39.8828 33.4681 39.7982 33.6667 39.6289 33.8359C39.4596 34.0117 39.2578 34.0996 39.0234 34.0996H10.9668ZM10.6152 30.3203C10.472 30.1771 10.4004 30.0143 10.4004 29.832C10.4004 29.6432 10.472 29.4772 10.6152 29.334L13.9551 26.0137C14.0918 25.877 14.2546 25.8086 14.4434 25.8086C14.6322 25.8021 14.7949 25.8704 14.9316 26.0137C15.0684 26.1504 15.1367 26.3132 15.1367 26.502C15.1432 26.6908 15.0749 26.8535 14.9316 26.9902L11.5918 30.3203C11.4551 30.457 11.2923 30.5286 11.1035 30.5352C10.9147 30.5352 10.752 30.4635 10.6152 30.3203ZM13.9551 30.3203L10.6152 26.9902C10.472 26.8535 10.4004 26.6908 10.4004 26.502C10.4004 26.3132 10.472 26.1504 10.6152 26.0137C10.752 25.8704 10.9147 25.7988 11.1035 25.7988C11.2923 25.7988 11.4551 25.8704 11.5918 26.0137L14.9316 29.334C15.0749 29.4707 15.1465 29.6335 15.1465 29.8223C15.1465 30.0111 15.0749 30.1771 14.9316 30.3203C14.7949 30.457 14.6322 30.5254 14.4434 30.5254C14.2546 30.5254 14.0918 30.457 13.9551 30.3203Z" fill="white"/>
</svg>
