<svg width="50" height="50" viewBox="0 0 50 50" fill="none" xmlns="http://www.w3.org/2000/svg">
<path d="M16.6211 32.332V17.5957C16.6211 16.5475 16.888 15.7533 17.4219 15.2129C17.9557 14.666 18.7467 14.3926 19.7949 14.3926H26.1621C26.6699 14.3926 27.1061 14.4642 27.4707 14.6074C27.8418 14.7507 28.1836 14.9818 28.4961 15.3008L32.5391 19.334C32.8385 19.64 33.0501 19.9655 33.1738 20.3105C33.304 20.6556 33.3691 21.0885 33.3691 21.6094V32.332C33.3691 33.3802 33.1022 34.1745 32.5684 34.7148C32.0345 35.2552 31.2435 35.5254 30.1953 35.5254H19.7949C18.7467 35.5254 17.9557 35.2552 17.4219 34.7148C16.888 34.181 16.6211 33.3867 16.6211 32.332ZM18.5449 32.2051C18.5449 32.6608 18.6621 33.0091 18.8965 33.25C19.1309 33.4909 19.4824 33.6113 19.9512 33.6113H30.0391C30.5143 33.6113 30.8691 33.4909 31.1035 33.25C31.3379 33.0091 31.4551 32.6608 31.4551 32.2051V21.6777C31.4551 21.3652 31.4193 21.1081 31.3477 20.9062C31.276 20.7044 31.1556 20.5189 30.9863 20.3496L27.5781 16.9121C27.194 16.5085 26.709 16.3066 26.123 16.3066H19.9609C19.4857 16.3066 19.1309 16.4303 18.8965 16.6777C18.6621 16.9251 18.5449 17.2702 18.5449 17.7129V32.2051ZM20.4004 30.7012V27.2539H22.7734C22.8906 27.2539 22.9492 27.3092 22.9492 27.4199V32.0488H21.7383C21.3281 32.0488 21.0026 31.9284 20.7617 31.6875C20.5208 31.4466 20.4004 31.1178 20.4004 30.7012ZM20.4004 26.0527V24.7734C20.4004 24.3568 20.5208 24.028 20.7617 23.7871C21.0026 23.5462 21.3281 23.4258 21.7383 23.4258H25.957V32.0488H24.1504V26.707C24.1504 26.5052 24.0918 26.3457 23.9746 26.2285C23.8574 26.1113 23.6979 26.0527 23.4961 26.0527H20.4004ZM27.1582 32.0488V23.4258H28.291C28.6947 23.4258 29.0169 23.5462 29.2578 23.7871C29.4987 24.028 29.6191 24.3568 29.6191 24.7734V30.7012C29.6191 31.1178 29.4987 31.4466 29.2578 31.6875C29.0169 31.9284 28.6947 32.0488 28.291 32.0488H27.1582Z" fill="white"/>
</svg>
